<svg width="85" height="142" viewBox="0 0 85 142" fill="none" xmlns="http://www.w3.org/2000/svg">
<path d="M54.4894 46.9968C56.4926 40.1404 52.5983 32.9465 45.7914 30.9288C38.9845 28.9111 31.8425 32.8336 29.8394 39.6901C27.8363 46.5466 31.7305 53.7405 38.5374 55.7582C45.3444 57.7759 52.4863 53.8533 54.4894 46.9968Z" fill="white"/>
<path d="M74.9275 42.2607C73.222 42.2607 71.6303 42.7188 70.1522 43.7495C68.6741 44.6657 67.6508 46.04 66.9686 47.7579L42.296 110.404L17.396 47.8724C16.8275 46.1546 15.8042 44.7802 14.3261 43.7495C12.848 42.8333 11.2562 42.2607 9.66443 42.2607C7.16306 42.2607 5.11649 43.1769 3.52471 45.0093C2.04662 46.7272 1.25073 48.6741 1.25073 50.8501C1.25073 52.1099 1.47813 53.1406 1.81923 53.9423L34.5645 136.401C35.3603 137.775 36.3837 139.035 37.6343 140.066C39.1124 141.211 40.7042 141.669 42.4097 141.669C44.0015 141.669 45.5932 141.097 47.0713 140.066C48.4357 139.035 49.459 137.89 50.2549 136.286C52.87 129.758 59.5782 112.809 66.4001 95.7443C73.3357 78.3363 80.3851 60.8139 82.8864 54.0568C83.2275 53.2552 83.4549 52.1099 83.4549 50.8501C83.4549 48.7887 82.7727 46.9562 81.2947 45.2384C79.5892 43.1769 77.5426 42.2607 74.9275 42.2607Z" fill="white"/>
<path d="M42.1822 0C18.9877 0 0 19.0113 0 42.4891C0 45.9249 0.699749 49.0799 1.38194 52.4012L1.72306 53.661H1.83673C1.49563 52.8593 1.38194 51.8285 1.38194 50.6833C1.38194 48.5073 2.21418 46.7636 3.69227 45.0457C5.28405 43.2133 7.09853 42.5842 9.5999 42.5842C11.3054 42.5842 12.6662 42.7842 14.0306 43.8149C15.5087 44.8457 16.7137 46.1539 17.2822 47.8718L17.6233 48.788C17.2822 46.9556 16.7137 43.7489 16.7137 42.4891C16.7137 28.4024 28.0836 16.9498 42.0685 16.9498C56.0535 16.9498 67.4234 28.4024 67.4234 42.4891C67.4234 44.207 67.0481 46.7739 66.707 48.4918C67.3892 46.8884 68.5603 44.6651 70.0384 43.7489C71.5165 42.8327 73.1083 42.26 74.8138 42.26C77.4288 42.26 79.4754 43.1762 80.9535 45.0087C82.4316 46.7265 83.1138 48.6735 83.1138 50.6204C83.1138 51.8802 82.8864 52.911 82.659 53.7126H82.7727L83.1138 52.4528C83.9097 49.1316 84.2508 45.8103 84.2508 42.3746C84.3645 19.0113 65.4905 0 42.1822 0Z" fill="white"/>
</svg>
