<svg width="40" height="69" viewBox="0 0 40 69" fill="none" xmlns="http://www.w3.org/2000/svg">
<g clip-path="url(#clip0_1594_11172)">
<path d="M37.0963 29.3423C39.1706 22.1686 39.624 14.7888 35.3189 9.26488C31.8354 4.79497 26.6316 2.66574 21.6975 1.44288C18.2093 0.578403 14.5461 0.0578593 10.9305 0.132128C9.2654 0.166361 7.63202 2.44217 10.0388 2.39275C18.9005 2.21062 33.0969 4.84835 34.9861 17.3582C36.6801 28.5756 29.1648 41.9939 22.9412 49.9554C20.2936 53.3421 17.3224 56.5825 14.1216 59.2952C15.1439 56.7722 16.1662 54.2492 17.1886 51.7263C18.0156 49.6852 15.2082 47.4969 14.2367 49.8944C12.3608 54.5238 10.4849 59.1532 8.60906 63.7826C8.0893 65.0652 9.29265 66.9001 10.3711 66.7265C14.476 66.0656 18.5808 65.4048 22.6857 64.744C24.8123 64.4016 23.9318 60.3953 22.1135 60.688C19.8068 61.0594 17.5001 61.4307 15.1935 61.8021C24.9655 54.4307 33.3557 42.2789 37.0963 29.3423Z" fill="white"/>
</g>
<defs>
<clipPath id="clip0_1594_11172">
<rect width="40" height="68.5714" fill="white"/>
</clipPath>
</defs>
</svg>
