<svg width="289" height="69" viewBox="0 0 289 69" fill="none" xmlns="http://www.w3.org/2000/svg">
<path fill-rule="evenodd" clip-rule="evenodd" d="M144 19C145.105 19 146 19.8954 146 21L146 65C146 66.1046 145.105 67 144 67C142.895 67 142 66.1046 142 65L142 21C142 19.8954 142.895 19 144 19Z" fill="#B5B5B5"/>
<path fill-rule="evenodd" clip-rule="evenodd" d="M135.772 56.4213C136.644 55.7432 137.901 55.9002 138.579 56.7721L144 63.7424L149.421 56.7721C150.1 55.9002 151.356 55.7432 152.228 56.4213C153.1 57.0994 153.257 58.356 152.579 59.2279L147.158 66.1981C145.556 68.2571 142.444 68.2571 140.843 66.1981L135.421 59.2279C134.743 58.356 134.9 57.0994 135.772 56.4213Z" fill="#B5B5B5"/>
<path fill-rule="evenodd" clip-rule="evenodd" d="M247.065 5.90962C248.097 5.5158 249.253 6.03312 249.647 7.06509C252.898 15.5849 256.252 21.2735 260.775 25.7089C265.313 30.1586 271.165 33.4845 279.664 37.0463C280.683 37.4732 281.162 38.6452 280.735 39.6639C280.308 40.6826 279.137 41.1624 278.118 40.7354C269.442 37.0995 263.046 33.5378 257.975 28.5649C252.889 23.5778 249.275 17.3089 245.91 8.49127C245.516 7.45929 246.033 6.30345 247.065 5.90962Z" fill="#B5B5B5"/>
<path fill-rule="evenodd" clip-rule="evenodd" d="M269.297 43.3809C268.968 42.3266 269.555 41.2048 270.609 40.8751L279.142 38.2068L273.322 31.4199C272.603 30.5814 272.7 29.3187 273.539 28.5997C274.377 27.8807 275.64 27.9776 276.359 28.8161L282.179 35.6029C284.049 37.784 283.078 41.1669 280.336 42.0244L271.803 44.6928C270.749 45.0225 269.627 44.4351 269.297 43.3809Z" fill="#B5B5B5"/>
<path fill-rule="evenodd" clip-rule="evenodd" d="M41.0182 5.90962C39.9862 5.5158 38.8304 6.03312 38.4366 7.06509C35.1852 15.5849 31.831 21.2735 27.308 25.7089C22.7705 30.1586 16.9186 33.4845 8.41941 37.0463C7.40068 37.4732 6.92093 38.6452 7.34786 39.6639C7.77479 40.6826 8.94672 41.1624 9.96545 40.7354C18.6414 37.0995 25.0376 33.5378 30.1086 28.5649C35.1941 23.5778 38.8087 17.3089 42.1737 8.49127C42.5675 7.45929 42.0502 6.30345 41.0182 5.90962Z" fill="#B5B5B5"/>
<path fill-rule="evenodd" clip-rule="evenodd" d="M18.7861 43.3809C19.1157 42.3266 18.5284 41.2048 17.4741 40.8751L8.94112 38.2068L14.761 31.4199C15.48 30.5814 15.3831 29.3187 14.5446 28.5997C13.7061 27.8807 12.4435 27.9776 11.7245 28.8161L5.90465 35.6029C4.03436 37.784 5.00508 41.1669 7.7473 42.0244L16.2803 44.6928C17.3345 45.0225 18.4564 44.4351 18.7861 43.3809Z" fill="#B5B5B5"/>
</svg>
