<svg width="210" height="210" viewBox="0 0 210 210" fill="none" xmlns="http://www.w3.org/2000/svg">
<path fill-rule="evenodd" clip-rule="evenodd" d="M75.2039 19.9188C75.277 20.1389 75.1579 20.3766 74.9378 20.4498C63.0594 24.3976 52.0748 30.6464 42.6114 38.8394C33.1479 47.0324 25.3909 57.0091 19.7831 68.2C14.1753 79.3908 10.8267 91.5766 9.92833 104.062C9.02998 116.547 10.5995 129.086 14.5474 140.965C18.4952 152.843 24.744 163.828 32.937 173.291C41.13 182.755 51.1067 190.512 62.2976 196.119C73.4884 201.727 85.6742 205.076 98.1592 205.974C110.644 206.873 123.184 205.303 135.062 201.355C135.282 201.282 135.52 201.401 135.593 201.621C135.666 201.841 135.547 202.079 135.327 202.152C123.344 206.135 110.694 207.718 98.0989 206.812C85.5039 205.906 73.2107 202.528 61.9213 196.87C50.6318 191.213 40.5671 183.388 32.3019 173.841C24.0367 164.294 17.7329 153.213 13.7502 141.23C9.76761 129.247 8.18423 116.596 9.0905 104.001C9.99676 91.4063 13.3749 79.1131 19.0321 67.8237C24.6893 56.5342 32.5147 46.4695 42.0616 38.2043C51.6084 29.9391 62.6897 23.6353 74.6728 19.6527C74.893 19.5795 75.1307 19.6986 75.2039 19.9188Z" fill="#D9D9D9"/>
<path fill-rule="evenodd" clip-rule="evenodd" d="M39.3756 63.2919C39.564 63.4272 39.6072 63.6896 39.472 63.878C27.9125 79.986 22.6911 99.7873 24.8047 119.501C24.8294 119.731 24.6625 119.938 24.4319 119.963C24.2012 119.988 23.9942 119.821 23.9695 119.59C21.8339 99.6715 27.1097 79.664 38.7895 63.3883C38.9247 63.1998 39.1871 63.1567 39.3756 63.2919Z" fill="#D9D9D9"/>
<path fill-rule="evenodd" clip-rule="evenodd" d="M169.783 59.768C182.192 75.5174 188.394 95.2707 187.216 115.287C186.037 135.303 177.559 154.192 163.388 168.376C149.216 182.56 130.335 191.055 110.32 192.251C90.3048 193.448 70.5459 187.263 54.7855 174.868C54.6032 174.724 54.5716 174.46 54.715 174.278C54.8584 174.096 55.1224 174.064 55.3048 174.207C70.9036 186.475 90.4599 192.597 110.27 191.413C130.079 190.229 148.767 181.821 162.793 167.782C176.82 153.743 185.211 135.048 186.377 115.237C187.544 95.4266 181.405 75.8758 169.123 60.2879C168.979 60.1057 169.011 59.8416 169.193 59.698C169.375 59.5545 169.639 59.5858 169.783 59.768Z" fill="#D9D9D9"/>
<circle cx="105" cy="110.782" r="67.275" fill="#F2F2F2"/>
<mask id="mask0_1594_12155" style="mask-type:alpha" maskUnits="userSpaceOnUse" x="37" y="13" width="136" height="166">
<path d="M172.275 110.781C172.275 147.936 142.155 178.056 105 178.056C67.8451 178.056 37.7251 147.936 37.7251 110.781C37.7251 90.4434 46.7496 72.2136 61.0126 59.8775C48.0751 27.9811 72.2251 18.2139 110.175 13.7498C139.5 10.3003 176.588 36.1748 154.359 65.0686C165.478 77.0689 172.275 93.1313 172.275 110.781Z" fill="#D9D9D9"/>
</mask>
<g mask="url(#mask0_1594_12155)">
<path d="M61.8753 206.519C88.6128 211.694 92.9253 183.231 116.644 172.881C129.582 162.1 58.8566 143.125 52.3878 151.319C45.9191 159.512 35.1378 201.344 61.8753 206.519Z" fill="#DDDDDD"/>
<path d="M72.8277 175.14C91.344 187.341 114.44 180.995 126.123 165.296C126.123 165.296 135.848 152.793 135.16 139.292C134.472 125.792 131.244 81.7843 89.0823 93.0375C82.1428 94.8926 65.9533 116.524 64.5851 122.466C63.9624 125.179 57.4571 139.014 51.1484 153.324" fill="#63CAE0"/>
<path fill-rule="evenodd" clip-rule="evenodd" d="M128.042 106.681C134.257 118.057 135.236 132.525 135.58 139.271C135.929 146.122 133.637 152.697 131.277 157.541C130.096 159.966 128.892 161.966 127.984 163.361C127.53 164.058 127.149 164.605 126.881 164.978C126.747 165.164 126.641 165.307 126.569 165.404C126.532 165.453 126.504 165.49 126.485 165.515L126.463 165.544L126.46 165.547C126.459 165.548 126.459 165.549 126.458 165.55C114.657 181.404 91.3195 187.828 72.5967 175.491C72.4031 175.363 72.3495 175.102 72.4771 174.909C72.6048 174.715 72.8652 174.661 73.0589 174.789C91.3675 186.853 114.22 180.588 125.786 165.046L125.792 165.038L125.792 165.038L125.792 165.038L125.793 165.037L125.798 165.031L125.817 165.005C125.835 164.982 125.861 164.947 125.896 164.901C125.966 164.808 126.068 164.669 126.199 164.488C126.46 164.124 126.834 163.588 127.28 162.902C128.174 161.531 129.359 159.561 130.522 157.173C132.853 152.39 135.08 145.963 134.741 139.314C134.396 132.56 133.417 118.273 127.305 107.084C124.255 101.499 119.938 96.7102 113.803 94.0032C107.668 91.2967 99.6633 90.6482 89.1908 93.4433C88.3927 93.6567 87.4279 94.1657 86.3353 94.9345C85.2477 95.6997 84.0567 96.7056 82.8084 97.8878C80.312 100.252 77.6083 103.3 75.0731 106.481C72.5385 109.662 70.179 112.968 68.3698 115.846C66.5492 118.741 65.3187 121.152 64.9945 122.56C64.8291 123.281 64.2895 124.69 63.4977 126.582C62.6997 128.489 61.6293 130.924 60.3827 133.717C59.4761 135.749 58.4764 137.971 57.4195 140.32C55.5679 144.434 53.541 148.939 51.5329 153.493C51.4394 153.706 51.1914 153.802 50.9792 153.708C50.7669 153.615 50.6707 153.367 50.7643 153.155C52.7733 148.598 54.8032 144.087 56.656 139.969C57.7124 137.622 58.7112 135.402 59.6156 133.375C60.8618 130.582 61.9288 128.155 62.7228 126.258C63.5229 124.346 64.0299 123.008 64.1759 122.372L64.1759 122.371C64.5359 120.809 65.8421 118.288 67.6587 115.398C69.4868 112.491 71.8649 109.159 74.4162 105.958C76.9669 102.757 79.6972 99.6772 82.2308 97.2779C83.4975 96.0783 84.7206 95.0435 85.8519 94.2475C86.9782 93.455 88.0373 92.8822 88.974 92.6318L88.9742 92.6317C99.5825 89.8003 107.791 90.4328 114.142 93.2347C120.491 96.0359 124.93 100.982 128.042 106.681Z" fill="#727272"/>
<path d="M110.637 160.082C110.211 160.181 109.776 160.254 109.334 160.311C97.7327 161.962 84.7221 152.376 80.3306 140.845C76.8649 131.749 79.8964 121.428 81.5514 117.007C82.0757 115.626 82.4526 114.817 82.4526 114.817C89.4495 104.846 130.128 124.345 130.595 135.092C131.07 145.83 122.549 157.467 110.629 160.074L110.637 160.082Z" fill="#727272"/>
<path fill-rule="evenodd" clip-rule="evenodd" d="M82.0719 114.639L82.0705 114.642L82.0669 114.65L82.0533 114.68C82.0415 114.705 82.0243 114.744 82.0021 114.793C81.9576 114.893 81.8931 115.039 81.8123 115.229C81.6505 115.609 81.4231 116.161 81.1587 116.858L81.158 116.86C79.4982 121.294 76.4137 131.745 79.9381 140.995C82.1673 146.848 86.5758 152.192 91.8897 155.867C97.2011 159.54 103.458 161.571 109.391 160.728C109.843 160.669 110.29 160.593 110.731 160.492C110.76 160.485 110.787 160.476 110.813 160.464C122.88 157.773 131.498 145.991 131.015 135.074C130.951 133.607 130.208 132.045 129.014 130.472C127.815 128.893 126.132 127.265 124.122 125.66C120.099 122.45 114.72 119.299 109.144 116.802C103.57 114.306 97.773 112.451 92.9125 111.85C90.4829 111.55 88.2657 111.56 86.419 111.975C84.5701 112.39 83.0618 113.218 82.1088 114.575C82.0947 114.596 82.0823 114.617 82.0719 114.639ZM82.818 115.027L82.8175 115.028C82.8066 115.052 82.7903 115.088 82.769 115.136C82.7264 115.231 82.6639 115.373 82.585 115.558C82.4273 115.929 82.2042 116.471 81.9444 117.155C80.2942 121.564 77.3165 131.755 80.7231 140.696C82.8854 146.373 87.1779 151.587 92.3675 155.176C97.5588 158.766 103.607 160.702 109.275 159.896L109.28 159.895C109.68 159.843 110.069 159.778 110.45 159.694C110.478 159.681 110.508 159.671 110.539 159.664C122.264 157.1 130.641 145.641 130.175 135.11C130.122 133.89 129.492 132.492 128.345 130.98C127.202 129.475 125.576 127.895 123.598 126.316C119.643 123.16 114.328 120.044 108.801 117.569C103.272 115.093 97.5587 113.271 92.8095 112.684C90.4343 112.391 88.3219 112.409 86.6029 112.794C84.9015 113.176 83.616 113.91 82.818 115.027Z" fill="#727272"/>
<path d="M123.361 136.555C123.361 136.555 121.05 153.627 109.334 160.311C97.7327 161.962 84.7221 152.376 80.3306 140.845C76.8649 131.75 79.8964 121.428 81.5514 117.007C81.5514 116.999 81.5596 117.007 81.5596 117.007C95.2666 109.202 123.361 136.555 123.361 136.555Z" fill="white"/>
<mask id="mask1_1594_12155" style="mask-type:luminance" maskUnits="userSpaceOnUse" x="78" y="115" width="46" height="46">
<path d="M123.361 136.555C123.361 136.555 121.05 153.627 109.334 160.311C97.7327 161.962 84.7221 152.376 80.3306 140.845C76.8649 131.75 79.8964 121.428 81.5514 117.007C81.5514 116.999 81.5596 117.007 81.5596 117.007C95.2666 109.202 123.361 136.555 123.361 136.555Z" fill="white"/>
</mask>
<g mask="url(#mask1_1594_12155)">
<path d="M123.361 136.555C123.361 136.555 121.05 153.627 109.334 160.311C97.7327 161.962 84.7221 152.376 80.3306 140.845C76.8649 131.75 79.8964 121.428 81.5514 117.007C81.5514 116.999 81.5596 117.007 81.5596 117.007C95.2666 109.202 123.361 136.555 123.361 136.555Z" fill="#F2F2F2"/>
</g>
<path fill-rule="evenodd" clip-rule="evenodd" d="M81.889 117.304C80.2289 121.789 77.3542 131.854 80.7231 140.696C82.8854 146.374 87.1779 151.587 92.3675 155.176C97.5346 158.749 103.551 160.684 109.196 159.907C114.892 156.626 118.332 150.817 120.351 145.77C121.362 143.242 122.011 140.921 122.408 139.231C122.606 138.386 122.74 137.701 122.825 137.227C122.865 137.005 122.894 136.83 122.913 136.707C122.869 136.665 122.815 136.614 122.753 136.554C122.545 136.357 122.238 136.068 121.842 135.704C121.05 134.974 119.903 133.939 118.483 132.722C115.643 130.286 111.716 127.122 107.366 124.203C103.012 121.281 98.2528 118.618 93.745 117.169C89.284 115.734 85.1466 115.512 81.889 117.304ZM123.361 136.555C123.777 136.611 123.777 136.611 123.777 136.612L123.776 136.615L123.775 136.626L123.769 136.664C123.764 136.698 123.757 136.748 123.747 136.813C123.726 136.943 123.695 137.132 123.652 137.376C123.565 137.862 123.427 138.562 123.225 139.423C122.822 141.143 122.161 143.507 121.131 146.082C119.074 151.223 115.52 157.265 109.542 160.676C109.496 160.702 109.446 160.72 109.393 160.727C103.46 161.572 97.2019 159.54 91.8897 155.867C86.5758 152.192 82.1672 146.848 79.9381 140.995C76.4167 131.753 79.4928 121.312 81.1537 116.871C81.1802 116.79 81.2382 116.691 81.3649 116.628C81.3812 116.62 81.3973 116.613 81.4131 116.607C84.9803 114.608 89.4225 114.896 94.0022 116.369C98.6172 117.853 103.451 120.564 107.834 123.505C112.221 126.449 116.174 129.635 119.03 132.084C120.458 133.309 121.613 134.35 122.411 135.086C122.81 135.454 123.12 135.745 123.331 135.945C123.436 136.045 123.516 136.122 123.571 136.174L123.632 136.233L123.653 136.253C123.653 136.254 123.654 136.254 123.361 136.555ZM123.361 136.555L123.653 136.253C123.748 136.346 123.795 136.48 123.777 136.612L123.361 136.555Z" fill="#727272"/>
<path fill-rule="evenodd" clip-rule="evenodd" d="M129.992 144.455C130.223 144.47 130.399 144.671 130.383 144.902C130.052 149.904 127.371 155.684 122.828 160.014C118.276 164.353 111.837 167.253 103.99 166.45C96.1344 165.647 88.8901 160.444 83.6425 155.503C81.0113 153.025 78.8662 150.598 77.3787 148.791C76.6348 147.887 76.0549 147.137 75.6604 146.612C75.4631 146.35 75.3121 146.144 75.2102 146.003C75.1592 145.933 75.1205 145.879 75.0944 145.842L75.0646 145.8L75.0569 145.789L75.0543 145.785C75.0541 145.785 75.054 145.785 75.3984 145.544L75.7427 145.304L75.7446 145.307L75.7514 145.316L75.7791 145.355C75.8039 145.39 75.8412 145.442 75.8907 145.511C75.9898 145.648 76.1377 145.85 76.3316 146.108C76.7197 146.623 77.2921 147.363 78.0274 148.257C79.4984 150.044 81.6193 152.444 84.2183 154.891C89.4312 159.799 96.5043 164.84 104.076 165.614C111.649 166.389 117.852 163.597 122.248 159.406C126.655 155.206 129.229 149.618 129.545 144.846C129.56 144.615 129.76 144.44 129.992 144.455ZM75.1579 145.2C75.3481 145.067 75.6099 145.114 75.7427 145.304L75.3984 145.544L75.0543 145.785C74.9215 145.595 74.9677 145.333 75.1579 145.2Z" fill="#727272"/>
<path d="M67.9673 60.1854C69.1307 56.941 77.4631 58.0279 80.1012 68.137C82.7394 78.246 91.0765 103.098 93.1692 102.787C95.2618 102.477 134.569 41.1786 141.992 38.8413C149.415 36.4959 146.473 47.8699 136.56 62.4818C136.56 62.4818 145.736 60.2308 148.169 61.8653C150.611 63.4997 149.906 73.6431 151.2 77.0836C153.38 82.845 148.233 84.0199 148.169 84.3507C148.105 84.6814 151.979 84.318 154.633 86.8023C157.296 89.2867 155.961 99.5673 156.715 102.477C157.476 105.386 153.397 108.567 153.397 108.567C153.588 109.186 164.604 114.482 161.843 116.141C157.198 118.944 155.22 116.005 154.353 116.401C153.486 116.797 135.789 139.57 121.648 144.801C107.507 150.031 79.9619 129.241 77.0042 117.914C74.0466 106.587 77.5778 107.29 75.3329 88.4368C73.088 69.5916 67.9509 60.1772 67.9509 60.1772L67.9673 60.1854Z" fill="white"/>
<path fill-rule="evenodd" clip-rule="evenodd" d="M144.218 38.9971C143.701 38.8996 143.01 38.9601 142.118 39.2418C141.736 39.3622 141.199 39.6943 140.511 40.2644C139.833 40.8266 139.043 41.5915 138.154 42.5352C136.378 44.4219 134.234 46.9978 131.857 50.0341C127.102 56.1053 121.433 63.9889 115.925 71.8159C112.891 76.1274 109.923 80.3986 107.181 84.343C104.931 87.5797 102.835 90.5964 100.98 93.2348C98.9325 96.1485 97.193 98.5825 95.8988 100.299C95.2524 101.156 94.7124 101.841 94.2982 102.319C94.0918 102.557 93.9097 102.751 93.7568 102.892C93.6806 102.962 93.6041 103.026 93.5294 103.076C93.4646 103.12 93.359 103.184 93.2309 103.203C92.893 103.253 92.6077 103.045 92.4177 102.865C92.2056 102.664 91.9863 102.376 91.7625 102.03C91.3123 101.335 90.7946 100.328 90.2336 99.1002C89.1092 96.6402 87.7838 93.2341 86.4446 89.5116C83.766 82.0654 81.018 73.3128 79.6949 68.243C78.4027 63.2915 75.7343 60.6077 73.3116 59.5378C72.0948 59.0004 70.9501 58.8731 70.0652 59.0494C69.2529 59.2112 68.6878 59.6178 68.4248 60.1771C68.4595 60.2451 68.5024 60.3304 68.5529 60.433C68.7005 60.7326 68.9125 61.1796 69.1733 61.7738C69.695 62.9624 70.412 64.7402 71.1987 67.1076C72.7721 71.8425 74.6241 78.9351 75.75 88.387C76.8593 97.7032 76.5635 102.272 76.3312 105.859L76.3205 106.025C76.0897 109.595 75.9471 112.203 77.4107 117.808C78.1235 120.538 80.3422 123.899 83.5466 127.343C86.741 130.776 90.8772 134.252 95.364 137.216C99.8518 140.18 104.676 142.621 109.244 143.997C113.82 145.375 118.089 145.669 121.503 144.407C128.476 141.827 136.378 134.891 142.679 128.493C145.822 125.303 148.551 122.262 150.551 119.992C151.035 119.442 151.478 118.936 151.874 118.483C152.293 118.004 152.659 117.586 152.965 117.242C153.262 116.906 153.508 116.634 153.694 116.438C153.787 116.341 153.869 116.258 153.938 116.194C153.991 116.145 154.081 116.063 154.179 116.019C154.411 115.913 154.646 115.936 154.836 115.984C155.025 116.032 155.224 116.119 155.413 116.206C155.471 116.234 155.531 116.262 155.592 116.29C155.94 116.455 156.326 116.637 156.796 116.769C157.861 117.07 159.397 117.126 161.627 115.781C161.752 115.705 161.81 115.637 161.837 115.588C161.861 115.543 161.873 115.491 161.864 115.415C161.843 115.24 161.709 114.975 161.399 114.621C160.793 113.928 159.711 113.118 158.496 112.314C157.438 111.615 156.309 110.94 155.359 110.372C155.226 110.292 155.096 110.214 154.97 110.139C154.463 109.835 154.02 109.566 153.697 109.353C153.536 109.247 153.396 109.149 153.289 109.063C153.237 109.02 153.184 108.974 153.139 108.925C153.104 108.888 153.031 108.806 152.996 108.691C152.944 108.525 153.001 108.343 153.139 108.236L153.14 108.235L153.147 108.229L153.178 108.204C153.206 108.182 153.247 108.148 153.3 108.104C153.406 108.015 153.557 107.883 153.737 107.717C154.097 107.383 154.568 106.909 155.013 106.351C155.929 105.203 156.634 103.827 156.308 102.583L156.308 102.582C156.105 101.797 156.048 100.557 156.026 99.1561C156.017 98.609 156.014 98.035 156.01 97.4438C156.005 96.4908 155.999 95.4933 155.97 94.4921C155.924 92.8759 155.818 91.2942 155.564 89.9696C155.305 88.6255 154.909 87.6336 154.347 87.1094C153.101 85.9433 151.556 85.4345 150.299 85.1805C149.757 85.0712 149.279 85.0106 148.9 84.9626C148.839 84.9549 148.781 84.9476 148.725 84.9404C148.533 84.9155 148.35 84.89 148.217 84.8562C148.155 84.8406 148.062 84.8135 147.978 84.7604C147.893 84.707 147.704 84.5438 147.757 84.2705C147.781 84.1443 147.852 84.0621 147.886 84.0269C147.925 83.9858 147.967 83.9543 147.999 83.9325C148.062 83.8886 148.139 83.8462 148.212 83.808C148.279 83.7724 148.345 83.7391 148.415 83.7038C148.521 83.6505 148.635 83.5928 148.777 83.5161C149.218 83.2785 149.756 82.9446 150.224 82.4614C150.689 81.9818 151.084 81.3558 151.243 80.5243C151.402 79.6907 151.331 78.6166 150.807 77.2322C150.463 76.3158 150.26 74.9865 150.106 73.5282C150.014 72.6574 149.937 71.7135 149.86 70.7611C149.807 70.1164 149.755 69.4679 149.697 68.8355C149.551 67.2521 149.372 65.7497 149.083 64.5472C148.938 63.9464 148.769 63.4352 148.571 63.0328C148.371 62.6273 148.156 62.3618 147.936 62.2142C147.438 61.88 146.519 61.7107 145.322 61.692C144.15 61.6736 142.799 61.7988 141.509 61.9766C140.222 62.1542 139.009 62.3826 138.116 62.5669C137.671 62.659 137.305 62.7399 137.052 62.7977C136.926 62.8266 136.827 62.8497 136.76 62.8655L136.685 62.8836L136.666 62.8882L136.66 62.8896C136.491 62.931 136.314 62.8642 136.215 62.7215C136.116 62.5789 136.115 62.3898 136.212 62.246C141.159 54.9545 144.339 48.5079 145.368 44.2048C145.625 43.1322 145.744 42.2079 145.729 41.446C145.714 40.6809 145.565 40.1102 145.314 39.7161C145.073 39.3362 144.72 39.0916 144.218 38.9971ZM137.498 61.8388C142.131 54.8743 145.164 48.6719 146.185 44.4002C146.452 43.2844 146.586 42.2853 146.569 41.4296C146.552 40.5771 146.386 39.8362 146.023 39.2655C145.651 38.6807 145.093 38.3072 144.374 38.1716C143.67 38.039 142.83 38.1361 141.866 38.4407C141.32 38.6123 140.68 39.0332 139.975 39.6179C139.26 40.2106 138.443 41.0026 137.543 41.9593C135.741 43.8734 133.579 46.4723 131.195 49.5162C126.427 55.6055 120.747 63.504 115.238 71.3325C112.218 75.624 109.234 79.9175 106.482 83.8776C104.227 87.1208 102.129 90.1403 100.293 92.7518C98.2457 95.6649 96.5131 98.089 95.2281 99.7933C94.5849 100.646 94.0586 101.313 93.6636 101.768C93.4652 101.997 93.3069 102.164 93.1879 102.274C93.1552 102.304 93.1277 102.328 93.1051 102.346C93.0801 102.329 93.0438 102.301 92.9955 102.255C92.8543 102.122 92.6773 101.898 92.4677 101.574C92.0512 100.93 91.5536 99.9676 90.9975 98.751C89.8877 96.3228 88.5715 92.9424 87.2351 89.2272C84.5625 81.7979 81.8228 73.0701 80.5077 68.0309C79.1617 62.8733 76.3449 59.9591 73.651 58.7694C72.3095 58.177 70.9882 58.0091 69.9011 58.2256C68.8596 58.433 68.0029 59.0051 67.6211 59.9173C67.5179 60.0482 67.5012 60.2296 67.5823 60.3782L67.5828 60.3791L67.585 60.3834L67.5951 60.4021C67.6042 60.4192 67.6181 60.4455 67.6365 60.481C67.6733 60.5519 67.7282 60.6596 67.7993 60.804C67.9415 61.0929 68.1484 61.5287 68.4042 62.1115C68.9158 63.277 69.6234 65.0306 70.4016 67.3725C71.9579 72.0561 73.797 79.0932 74.9159 88.4864C76.0162 97.7267 75.7237 102.242 75.4936 105.795L75.4822 105.971C75.248 109.594 75.1039 112.298 76.598 118.02C77.364 120.954 79.6976 124.439 82.9316 127.915C86.1758 131.402 90.3642 134.92 94.9011 137.917C99.4369 140.912 104.335 143.396 109.002 144.801C113.66 146.204 118.137 146.547 121.794 145.194C128.962 142.543 136.979 135.478 143.278 129.082C146.436 125.876 149.177 122.822 151.181 120.547C151.671 119.992 152.114 119.485 152.509 119.033C152.925 118.558 153.288 118.143 153.593 117.799C153.89 117.464 154.127 117.201 154.303 117.017C154.39 116.925 154.459 116.857 154.508 116.811C154.521 116.799 154.531 116.79 154.539 116.783C154.554 116.784 154.583 116.786 154.63 116.798C154.734 116.824 154.869 116.88 155.059 116.968C155.111 116.993 155.166 117.019 155.224 117.046C155.572 117.21 156.025 117.424 156.567 117.578C157.869 117.946 159.644 117.958 162.06 116.501C162.279 116.369 162.459 116.201 162.574 115.99C162.692 115.775 162.726 115.543 162.698 115.313C162.645 114.879 162.369 114.454 162.031 114.068C161.343 113.282 160.176 112.418 158.959 111.614C157.884 110.903 156.738 110.218 155.789 109.65C155.656 109.571 155.526 109.493 155.402 109.418C154.892 109.113 154.465 108.853 154.159 108.652C154.117 108.624 154.078 108.598 154.042 108.573C154.121 108.503 154.211 108.423 154.308 108.333C154.689 107.979 155.191 107.475 155.67 106.875C156.604 105.704 157.557 104.035 157.121 102.37C156.948 101.7 156.888 100.565 156.866 99.1428C156.857 98.6137 156.854 98.0466 156.851 97.4579C156.845 96.4952 156.839 95.4747 156.81 94.468C156.763 92.8399 156.656 91.2038 156.389 89.8111C156.125 88.4382 155.69 87.2136 154.921 86.4956C153.512 85.1774 151.792 84.6253 150.465 84.3572C150.043 84.2719 149.656 84.2145 149.329 84.171C149.78 83.9178 150.332 83.558 150.828 83.0458C151.385 82.4702 151.873 81.7015 152.068 80.682C152.262 79.6647 152.159 78.4316 151.593 76.9357C151.291 76.1318 151.096 74.9023 150.942 73.44C150.85 72.5742 150.775 71.6532 150.699 70.7125C150.646 70.0667 150.593 69.4116 150.533 68.7588C150.388 67.1719 150.204 65.617 149.899 64.3504C149.746 63.7167 149.56 63.1403 149.324 62.6617C149.09 62.1865 148.793 61.7776 148.403 61.5166C147.684 61.0336 146.543 60.871 145.335 60.8521C144.102 60.8328 142.703 60.964 141.395 61.1445C140.083 61.3254 138.851 61.5576 137.947 61.7443C137.786 61.7774 137.636 61.8091 137.498 61.8388Z" fill="#727272"/>
<path d="M128.366 22.8547L73.8204 37.0368C71.885 37.54 70.7251 39.5128 71.2296 41.4432L97.0146 140.111C97.5191 142.041 99.4969 143.198 101.432 142.695L155.978 128.513C157.913 128.01 159.073 126.037 158.569 124.107L132.784 25.4389C132.279 23.5085 130.301 22.3515 128.366 22.8547Z" fill="white"/>
<path fill-rule="evenodd" clip-rule="evenodd" d="M73.9266 37.4431C72.2149 37.8882 71.1905 39.6324 71.6361 41.3375L97.4211 140.005C97.8667 141.71 99.6144 142.734 101.326 142.289L155.872 128.107C157.583 127.662 158.608 125.918 158.162 124.212L132.377 25.5446C131.932 23.8395 130.184 22.816 128.472 23.2611L73.9266 37.4431ZM70.8231 41.5489C70.2597 39.3932 71.5552 37.1918 73.7142 36.6304L128.26 22.4484C130.419 21.887 132.627 23.1775 133.19 25.3332L158.975 124.001C159.538 126.157 158.243 128.358 156.084 128.919L101.538 143.102C99.3795 143.663 97.1715 142.372 96.6081 140.217L70.8231 41.5489Z" fill="#727272"/>
<path d="M131.144 26.4508L156.715 124.305C157.009 125.449 156.329 126.618 155.182 126.912L101.338 140.911C100.191 141.205 99.019 140.527 98.724 139.383L73.1535 41.5286C72.8586 40.3845 73.5386 39.2158 74.6856 38.9216L85.738 36.045L117.462 27.7911L128.514 24.9144C129.661 24.6202 130.833 25.2985 131.128 26.4426L131.144 26.4508Z" fill="#F2F2F2"/>
<path fill-rule="evenodd" clip-rule="evenodd" d="M128.618 25.3212C128.618 25.3213 128.619 25.3212 128.618 25.3212L117.567 28.1975L85.8439 36.4514L74.7915 39.328L74.7901 39.3284C73.871 39.5641 73.3228 40.5011 73.5602 41.4231C73.5601 41.4229 73.5602 41.4233 73.5602 41.4231L99.1309 139.278C99.3668 140.193 100.306 140.742 101.233 140.504C101.233 140.504 101.233 140.504 101.233 140.504L155.078 126.505C155.997 126.269 156.546 125.332 156.308 124.41L130.762 26.6486C130.744 26.6171 130.73 26.5831 130.721 26.5474C130.485 25.6325 129.545 25.0839 128.618 25.3212ZM131.507 26.2392C131.113 24.9263 129.744 24.1654 128.41 24.5076L128.408 24.5079L117.356 27.3845L85.6324 35.6385L74.5814 38.5147C74.581 38.5148 74.5807 38.5149 74.5804 38.515C73.2062 38.868 72.3948 40.2676 72.7469 41.6334L72.7473 41.6347L98.3175 139.487C98.3176 139.488 98.3177 139.488 98.3178 139.489C98.6723 140.861 100.076 141.668 101.442 141.318L155.287 127.319C155.287 127.319 155.287 127.319 155.287 127.319C156.662 126.966 157.473 125.566 157.121 124.2L157.121 124.199L131.55 26.3446C131.541 26.3073 131.526 26.2718 131.507 26.2392Z" fill="#727272"/>
<path d="M110.709 34.8163C110.912 35.6505 110.444 36.5026 109.655 36.7171L97.8874 40.0223C97.0982 40.2368 96.292 39.7423 96.0891 38.9081C95.8861 38.0739 96.354 37.2218 97.1433 37.0073L104.748 34.9099L108.9 33.696C109.689 33.4815 110.495 33.9761 110.698 34.8103L110.709 34.8163Z" fill="white"/>
<path fill-rule="evenodd" clip-rule="evenodd" d="M109.014 34.1004L104.86 35.3148L97.2551 37.4122L97.2536 37.4126C96.705 37.5617 96.3429 38.1739 96.4974 38.8088C96.6481 39.4285 97.2305 39.7648 97.7759 39.6175C97.7764 39.6173 97.7769 39.6172 97.7774 39.617L109.545 36.3118C110.074 36.1681 110.429 35.5946 110.316 34.985C110.305 34.961 110.296 34.9357 110.29 34.9096C110.14 34.2906 109.558 33.9544 109.014 34.1004ZM111.083 34.6249C110.794 33.6275 109.794 33.0178 108.79 33.2907L104.633 34.5058L97.0333 36.602C97.033 36.6021 97.0327 36.6021 97.0324 36.6022C96.0031 36.8825 95.4298 37.9741 95.6812 39.0074C95.9361 40.0555 96.9651 40.7083 97.9977 40.4276L109.765 37.1224C109.766 37.1222 109.767 37.122 109.767 37.1219C110.796 36.8412 111.369 35.7499 111.118 34.717C111.11 34.6848 111.098 34.6539 111.083 34.6249Z" fill="#727272"/>
<path d="M138.353 91.5665C144.152 78.2446 138.026 62.7561 124.67 56.9719C111.314 51.1877 95.7865 57.2982 89.9875 70.62C84.1885 83.9418 90.3146 99.4304 103.67 105.215C117.026 110.999 132.554 104.888 138.353 91.5665Z" fill="white"/>
<path fill-rule="evenodd" clip-rule="evenodd" d="M90.373 70.7869C84.6669 83.8954 90.6945 99.1371 103.838 104.829C116.982 110.522 132.262 104.508 137.968 91.3995C143.674 78.291 137.646 63.0492 124.503 57.3569C111.359 51.6646 96.0791 57.6783 90.373 70.7869ZM103.503 105.6C89.9348 99.7235 83.7103 83.9882 89.6022 70.453C95.494 56.9179 111.27 50.7106 124.838 56.5867C138.406 62.4629 144.63 78.1982 138.739 91.7333C132.847 105.269 117.071 111.476 103.503 105.6Z" fill="#727272"/>
<path fill-rule="evenodd" clip-rule="evenodd" d="M58.8004 146.373C59.0287 146.414 59.1802 146.633 59.1388 146.861C56.7748 159.903 57.9094 171.806 59.6372 180.451C60.5008 184.773 61.5122 188.278 62.3068 190.7C62.7041 191.911 63.0472 192.852 63.2904 193.488C63.412 193.806 63.5086 194.049 63.5746 194.211C63.6076 194.292 63.6329 194.353 63.6498 194.393L63.6688 194.438L63.6735 194.449L63.6745 194.451L63.6748 194.452L63.2891 194.618C62.9034 194.784 62.9033 194.784 62.9031 194.784L62.9027 194.783L62.9013 194.779L62.8958 194.767L62.8751 194.718C62.8571 194.675 62.8307 194.611 62.7966 194.527C62.7284 194.36 62.6296 194.112 62.5057 193.788C62.2581 193.14 61.9105 192.187 61.5087 190.962C60.7052 188.512 59.6846 184.975 58.8134 180.616C57.0714 171.899 55.9243 159.886 58.3123 146.711C58.3536 146.483 58.5722 146.332 58.8004 146.373ZM63.4553 195.004C63.2423 195.096 62.9952 194.997 62.9034 194.784L63.2891 194.618L63.6748 194.452C63.7666 194.665 63.6683 194.912 63.4553 195.004Z" fill="#727272"/>
<path opacity="0.2" d="M129.44 167.241C130.751 166.171 131.619 165.46 131.898 165.231C131.603 165.484 130.759 166.22 129.44 167.241Z" fill="black"/>
<path fill-rule="evenodd" clip-rule="evenodd" d="M123.294 68.7165C124.575 69.2586 125.178 70.7468 124.642 72.0404L117.455 89.3562C116.522 91.6032 113.831 92.4895 111.765 91.2298L104.49 86.793C103.301 86.0678 102.92 84.5066 103.638 83.306C104.356 82.1054 105.903 81.72 107.092 82.4453L113.297 86.2301L120.001 70.0774C120.538 68.7837 122.012 68.1745 123.294 68.7165Z" fill="#F27292"/>
<path fill-rule="evenodd" clip-rule="evenodd" d="M119.614 69.9164C120.239 68.41 121.959 67.6958 123.457 68.3298C124.954 68.9628 125.654 70.6971 125.03 72.2015L117.843 89.5172C116.813 91.9996 113.834 92.9838 111.547 91.5885L104.272 87.1516C102.884 86.3054 102.442 84.4873 103.278 83.0904C104.115 81.6911 105.921 81.2391 107.31 82.0867L113.098 85.6163L119.614 69.9164ZM123.13 69.1034C122.066 68.6532 120.838 69.1576 120.389 70.2384L113.498 86.844L106.873 82.8039C105.885 82.2011 104.598 82.5198 103.998 83.5216C103.398 84.5259 103.718 85.8302 104.709 86.4345L111.984 90.8713C113.827 91.9954 116.232 91.2068 117.067 89.1952L124.254 71.8795C124.703 70.7966 124.196 69.5545 123.13 69.1034Z" fill="#727272"/>
</g>
</svg>
