<svg width="194" height="67" viewBox="0 0 194 67" fill="none" xmlns="http://www.w3.org/2000/svg">
<path d="M18.1799 31.0643C18.2147 31.0294 18.2494 30.9945 18.2494 30.9595C18.5275 30.3657 18.7708 29.8067 18.9446 29.2129C19.0837 28.6539 19.2227 28.1649 19.2922 27.7107C19.3965 27.2566 19.4313 26.8723 19.4313 26.5579C19.4313 26.2435 19.466 26.0688 19.466 25.999C19.466 24.0078 19.0142 22.2262 18.0756 20.6891C17.1718 19.152 15.8857 17.9293 14.2519 17.0909C13.661 16.8464 13.1048 16.6019 12.5486 16.4621C11.9925 16.3224 11.5058 16.1827 11.0539 16.1128C10.602 16.008 10.2197 15.9731 9.94159 15.9381C9.62874 15.9032 9.42017 15.9032 9.38541 15.9032H2.53754C1.84232 15.9032 1.25139 16.1477 0.729977 16.6717C0.243325 17.1259 0 17.7197 0 18.4184V43.6054C0 44.3041 0.243326 44.898 0.764737 45.422C1.25139 45.9111 1.87708 46.1905 2.5723 46.1905C3.30227 46.1905 3.89321 45.946 4.41462 45.422C4.90127 44.9329 5.17936 44.3041 5.17936 43.6054V36.1297H9.24637L14.7733 44.9678C15.2947 45.7364 16.0595 46.1556 16.998 46.1556C17.5194 46.1556 17.9713 46.0159 18.3537 45.7713C18.7013 45.4919 19.0142 45.1775 19.2227 44.7932C19.4313 44.4089 19.5703 43.9897 19.5703 43.6054C19.5703 43.1513 19.4313 42.6972 19.188 42.2081L14.6691 34.8721C15.399 34.4179 16.0595 33.9289 16.6504 33.335C17.2066 32.6713 17.7628 31.9027 18.1799 31.0643ZM14.1824 26.9072C14.1129 27.1867 14.0434 27.4662 13.9738 27.8155C13.8696 28.1299 13.7653 28.4443 13.6262 28.7238C12.792 30.191 11.3668 30.9246 9.38541 30.9246H5.1446V21.0734H9.38541C9.6635 21.0734 9.94159 21.1083 10.1849 21.1432C10.463 21.2131 10.7411 21.248 11.0539 21.3528C11.332 21.4227 11.6449 21.5624 11.9577 21.7022C13.5219 22.5056 14.2867 23.903 14.2867 25.999C14.2867 26.0339 14.2867 26.1387 14.2519 26.2784C14.2867 26.4531 14.2519 26.6627 14.1824 26.9072Z" fill="black"/>
<path d="M50.7855 42.6273L40.7744 17.4752C40.5311 17.056 40.2183 16.6717 39.8359 16.3573C38.9321 15.6586 37.8198 15.6936 36.9855 16.3573C36.5684 16.6717 36.2555 17.021 36.0122 17.5101C34.4132 21.5624 32.7447 25.7195 31.0067 30.0512C29.2686 34.383 27.6001 38.5401 26.0359 42.5924C25.9316 42.8718 25.8621 43.1862 25.8621 43.5705C25.8621 44.1993 26.1054 44.7932 26.5573 45.3172C27.0439 45.8761 27.6696 46.1556 28.4344 46.1556C28.921 46.1556 29.4077 45.9809 29.8596 45.6316C30.2767 45.3172 30.5895 44.9329 30.7981 44.5137L32.6752 39.9025H44.1462L46.0233 44.5836C46.2319 44.9678 46.5795 45.3172 46.9966 45.6665C47.4485 46.0158 47.9352 46.1905 48.4218 46.1905C49.2213 46.1905 49.847 45.911 50.2989 45.387C50.7508 44.863 50.9593 44.2692 50.9593 43.6404C50.9246 43.2212 50.8898 42.9068 50.7855 42.6273ZM42.0258 34.7323H34.7261L38.3759 25.44L42.0258 34.7323Z" fill="black"/>
<path d="M76.4389 16.6368C75.9175 17.1259 75.6741 17.7547 75.6741 18.4533V35.3961L62.9169 17.0211C62.3608 16.2875 61.6655 15.9032 60.7965 15.9032C60.0318 15.9032 59.4061 16.1827 58.9194 16.7067C58.4328 17.2307 58.1895 17.8245 58.1895 18.4883V43.6753C58.1895 44.374 58.4328 44.9678 58.9542 45.4918C59.9623 46.5049 61.596 46.47 62.6041 45.4918C63.1255 45.0028 63.3688 44.374 63.3688 43.6753V26.6627L76.126 45.0377C76.6822 45.7713 77.3774 46.1556 78.2464 46.1556C78.9417 46.1556 79.5326 45.911 80.054 45.422C80.5754 44.9329 80.8187 44.3041 80.8187 43.6054V18.4184C80.8187 17.7197 80.5407 17.1259 80.054 16.6019C79.0112 15.6237 77.4469 15.6237 76.4389 16.6368Z" fill="black"/>
<path d="M107.48 20.3747C106.542 19.2568 105.499 18.3486 104.387 17.7547C103.309 17.1608 102.266 16.7067 101.328 16.4272C100.389 16.1478 99.5549 16.008 98.8944 15.9382C98.234 15.9032 97.9211 15.8683 97.8864 15.8683H90.6214C89.9262 15.8683 89.3352 16.1128 88.8138 16.6368C88.3272 17.1259 88.0491 17.7547 88.0491 18.4534V43.6404C88.0491 44.3391 88.2924 44.9329 88.8138 45.4569C89.3005 45.946 89.9262 46.2255 90.6214 46.2255H97.8864C97.9211 46.2255 98.2687 46.1905 98.8944 46.1556C99.5549 46.1207 100.354 45.946 101.293 45.6665C102.231 45.3871 103.274 44.9329 104.352 44.3391C105.464 43.7103 106.507 42.8369 107.446 41.7191C108.384 40.6012 109.184 39.134 109.775 37.4222C110.4 35.7105 110.713 33.5796 110.713 31.0643C110.713 28.5491 110.4 26.4182 109.775 24.7065C109.218 22.9248 108.419 21.4926 107.48 20.3747ZM97.9211 40.9505H93.2632V21.0734H97.8516C98.3383 21.1432 98.7554 21.1782 99.1378 21.283C99.4854 21.3528 99.9025 21.4926 100.354 21.6323C100.806 21.772 101.223 21.9816 101.675 22.2611C102.927 23.0296 103.865 24.1825 104.526 25.6147C105.186 27.0819 105.534 28.8985 105.534 31.0294C105.534 33.0905 105.221 34.8721 104.56 36.3393C103.935 37.7716 102.996 38.8894 101.814 39.658C101.362 39.9374 100.876 40.182 100.424 40.3566C99.972 40.5313 99.5201 40.671 99.1725 40.7409C98.8249 40.8457 98.5121 40.8806 98.2687 40.9156C98.0949 40.9505 97.9559 40.9505 97.9211 40.9505Z" fill="black"/>
<path d="M134.385 21.0734C135.08 21.0734 135.671 20.8288 136.193 20.3048C136.714 19.7808 136.957 19.152 136.957 18.4533C136.957 17.7547 136.679 17.1608 136.193 16.6368C135.671 16.1477 135.08 15.9032 134.385 15.9032H120.655C119.925 15.9032 119.334 16.1477 118.812 16.6717C118.326 17.1608 118.048 17.7896 118.048 18.4883V43.6753C118.048 44.374 118.291 44.9679 118.812 45.4919C119.299 45.9809 119.925 46.2604 120.655 46.2604H134.385C135.08 46.2604 135.671 46.0159 136.193 45.5268C136.714 45.0377 136.957 44.4089 136.957 43.7102C136.957 42.9766 136.714 42.3478 136.193 41.8588C135.671 41.3348 135.08 41.0902 134.385 41.0902H123.227V33.5795H131.882C132.578 33.5795 133.169 33.335 133.69 32.811C134.177 32.3219 134.455 31.6931 134.455 30.9945C134.455 30.2958 134.211 29.7019 133.69 29.1779C133.203 28.6889 132.578 28.4094 131.882 28.4094H123.227V21.0734H134.385Z" fill="black"/>
<path d="M193.235 16.6368C192.227 15.6237 190.663 15.6237 189.62 16.6368C189.099 17.1258 188.855 17.7546 188.855 18.4533V34.7673C188.855 34.907 188.821 35.2214 188.647 36.1646C188.508 36.8633 188.264 37.5619 187.882 38.2606C187.5 38.9593 186.944 39.5881 186.214 40.147C185.518 40.671 184.545 40.9505 183.328 40.9505C182.494 40.9505 181.764 40.8107 181.173 40.5662C180.582 40.2867 180.061 39.9723 179.679 39.5531C179.261 39.1339 178.949 38.6449 178.67 38.1558C178.392 37.6318 178.219 37.1427 178.08 36.6886C177.94 36.2345 177.871 35.8153 177.836 35.4659C177.801 35.1166 177.767 34.907 177.767 34.8022V18.4184C177.767 17.7197 177.523 17.1258 177.002 16.6018C175.994 15.5888 174.43 15.5888 173.387 16.6018C172.865 17.0909 172.622 17.7197 172.622 18.4184V34.7673C172.622 34.8371 172.622 35.0467 172.657 35.3961C172.657 35.7454 172.726 36.1646 172.796 36.6537C172.865 37.1427 173.004 37.7017 173.143 38.2955C173.317 38.9243 173.561 39.5881 173.873 40.2518C174.777 42.1732 176.029 43.6404 177.628 44.6534C179.227 45.6316 181.138 46.1556 183.294 46.1556C185.449 46.1556 187.361 45.6665 188.96 44.6534C190.559 43.6753 191.845 42.1732 192.749 40.2518C193.027 39.5881 193.27 38.9593 193.444 38.3305C193.618 37.7017 193.722 37.1427 193.826 36.6537C193.896 36.1646 193.93 35.7454 193.965 35.3961C193.965 35.0467 194 34.8371 194 34.7673V18.4184C194 17.7197 193.722 17.1258 193.235 16.6368Z" fill="black"/>
<path d="M158.622 17.3133C159.234 15.2219 158.044 13.0275 155.963 12.4121C153.882 11.7966 151.698 12.9931 151.086 15.0845C150.473 17.1759 151.664 19.3703 153.745 19.9857C155.826 20.6012 158.009 19.4047 158.622 17.3133Z" fill="url(#paint0_linear_3688_1663)"/>
<path d="M164.87 15.8683C164.349 15.8683 163.862 16.008 163.411 16.3224C162.959 16.6019 162.646 17.0211 162.437 17.5451L154.894 36.6537L147.282 17.58C147.108 17.056 146.795 16.6368 146.343 16.3224C145.891 16.043 145.404 15.8683 144.918 15.8683C144.153 15.8683 143.527 16.1478 143.041 16.7067C142.589 17.2307 142.345 17.8246 142.345 18.4883C142.345 18.8726 142.415 19.187 142.519 19.4315L152.53 44.5836C152.774 45.0028 153.087 45.3871 153.469 45.7015C153.921 46.0508 154.407 46.1906 154.929 46.1906C155.416 46.1906 155.902 46.0159 156.354 45.7015C156.771 45.3871 157.084 45.0377 157.327 44.5487C158.127 42.5575 160.178 37.3873 162.263 32.1822C164.384 26.8723 166.539 21.5275 167.304 19.4664C167.408 19.2219 167.478 18.8726 167.478 18.4883C167.478 17.8595 167.269 17.3006 166.817 16.7766C166.296 16.1478 165.67 15.8683 164.87 15.8683Z" fill="url(#paint1_linear_3688_1663)"/>
<path d="M154.859 2.97778C147.768 2.97778 141.963 8.77674 141.963 15.9381C141.963 16.9861 142.102 17.9992 142.311 19.0123L142.415 19.3965H142.45C142.346 19.152 142.311 18.8376 142.311 18.4882C142.311 17.8245 142.554 17.2306 143.006 16.7066C143.493 16.1477 144.118 15.8682 144.883 15.8682C145.404 15.8682 145.891 16.008 146.308 16.3224C146.76 16.6368 147.073 17.056 147.247 17.58L147.351 17.8594C147.247 17.3005 147.073 16.3224 147.073 15.9381C147.073 11.6413 150.549 8.14794 154.825 8.14794C159.1 8.14794 162.576 11.6413 162.576 15.9381C162.576 16.4621 162.507 16.9861 162.402 17.5101C162.611 17.021 162.924 16.6018 163.376 16.3224C163.828 16.0429 164.314 15.8682 164.836 15.8682C165.635 15.8682 166.261 16.1477 166.713 16.7066C167.165 17.2306 167.373 17.8245 167.373 18.4184C167.373 18.8027 167.304 19.1171 167.234 19.3616H167.269L167.373 18.9773C167.617 17.9642 167.721 16.9512 167.721 15.9032C167.756 8.77674 161.985 2.97778 154.859 2.97778Z" fill="url(#paint2_linear_3688_1663)"/>
<defs>
<linearGradient id="paint0_linear_3688_1663" x1="150.803" y1="19.1156" x2="159.718" y2="13.5058" gradientUnits="userSpaceOnUse">
<stop stop-color="#FF6A8F"/>
<stop offset="0.494792" stop-color="#FF6276"/>
<stop offset="1" stop-color="#F53838"/>
</linearGradient>
<linearGradient id="paint1_linear_3688_1663" x1="142.345" y1="19.1913" x2="171.887" y2="41.7724" gradientUnits="userSpaceOnUse">
<stop stop-color="#89E9FF"/>
<stop offset="0.494792" stop-color="#27D8FF"/>
<stop offset="1" stop-color="#05BFE8"/>
</linearGradient>
<linearGradient id="paint2_linear_3688_1663" x1="141.963" y1="4.7771" x2="157.799" y2="26.5975" gradientUnits="userSpaceOnUse">
<stop stop-color="#FF6A8F"/>
<stop offset="0.494792" stop-color="#FF6276"/>
<stop offset="1" stop-color="#F53838"/>
</linearGradient>
</defs>
</svg>
