<svg width="211" height="211" viewBox="0 0 211 211" fill="none" xmlns="http://www.w3.org/2000/svg">
<path fill-rule="evenodd" clip-rule="evenodd" d="M77.3162 20.372C77.3894 20.5921 77.2702 20.8299 77.0501 20.903C66.0063 24.5735 55.7936 30.3832 46.9951 38.0005C38.1966 45.6178 30.9846 54.8935 25.7709 65.2981C20.5572 75.7026 17.4438 87.0321 16.6086 98.6399C15.7733 110.248 17.2326 121.906 20.903 132.95C24.5735 143.994 30.3832 154.206 38.0005 163.005C45.6178 171.803 54.8936 179.015 65.2981 184.229C75.7026 189.443 87.0322 192.556 98.6399 193.391C110.248 194.227 121.906 192.767 132.95 189.097C133.17 189.024 133.408 189.143 133.481 189.363C133.554 189.583 133.435 189.821 133.215 189.894C122.066 193.599 110.297 195.072 98.5796 194.229C86.8619 193.386 75.4249 190.243 64.9218 184.98C54.4186 179.717 45.055 172.437 37.3655 163.555C29.6759 154.673 23.8111 144.363 20.1059 133.215C16.4007 122.066 14.9276 110.297 15.7707 98.5796C16.6139 86.8618 19.7568 75.4249 25.0199 64.9217C30.2831 54.4186 37.5634 45.055 46.4453 37.3654C55.3272 29.6759 65.6367 23.8111 76.7852 20.1059C77.0053 20.0327 77.2431 20.1519 77.3162 20.372Z" fill="#D9D9D9"/>
<path fill-rule="evenodd" clip-rule="evenodd" d="M11.7095 153.187C11.9152 153.08 12.1688 153.16 12.2761 153.366C19.0203 166.295 28.394 177.671 39.7952 186.764C51.1964 195.856 64.3732 202.463 78.4793 206.161C92.5853 209.859 107.309 210.567 121.704 208.237C136.1 205.908 149.849 200.594 162.069 192.636C162.264 192.509 162.524 192.564 162.651 192.759C162.777 192.953 162.722 193.213 162.528 193.34C150.21 201.362 136.35 206.718 121.839 209.066C107.327 211.414 92.4856 210.702 78.2663 206.974C64.0469 203.246 50.7643 196.586 39.2715 187.42C27.7787 178.255 18.3297 166.788 11.5313 153.754C11.4241 153.548 11.5038 153.295 11.7095 153.187Z" fill="#D9D9D9"/>
<path fill-rule="evenodd" clip-rule="evenodd" d="M171.394 40.7369C171.562 40.5763 171.827 40.5819 171.988 40.7493C188.306 57.7624 197.539 80.347 197.814 103.919C198.088 127.491 189.383 150.285 173.466 167.673C173.309 167.844 173.044 167.856 172.873 167.7C172.702 167.543 172.69 167.277 172.847 167.106C188.62 149.875 197.246 127.288 196.974 103.929C196.702 80.5701 187.552 58.1899 171.382 41.3307C171.221 41.1633 171.227 40.8974 171.394 40.7369Z" fill="#D9D9D9"/>
<path fill-rule="evenodd" clip-rule="evenodd" d="M209.784 111.738C210.016 111.754 210.191 111.954 210.175 112.186C208.898 130.88 202.66 148.897 192.106 164.38C191.975 164.571 191.714 164.621 191.522 164.49C191.33 164.36 191.281 164.098 191.412 163.907C201.882 148.547 208.07 130.674 209.337 112.128C209.353 111.897 209.553 111.722 209.784 111.738Z" fill="#D9D9D9"/>
<path fill-rule="evenodd" clip-rule="evenodd" d="M44.7372 19.0142C44.8711 19.2036 44.826 19.4657 44.6366 19.5996C30.4107 29.6548 18.922 43.1046 11.214 58.7274C11.1113 58.9354 10.8595 59.0208 10.6515 58.9182C10.4435 58.8156 10.358 58.5637 10.4607 58.3557C18.2306 42.6074 29.8116 29.0497 44.1518 18.9136C44.3412 18.7797 44.6033 18.8247 44.7372 19.0142Z" fill="#D9D9D9"/>
<path fill-rule="evenodd" clip-rule="evenodd" d="M177.764 71.7401C183.662 84.4077 186.129 98.4018 184.921 112.323C184.901 112.554 184.697 112.725 184.466 112.705C184.235 112.685 184.064 112.481 184.084 112.25C185.28 98.4756 182.838 84.6289 177.003 72.0946C171.167 59.5603 162.143 48.778 150.833 40.8262C139.522 32.8743 126.322 28.0317 112.552 26.7828C98.783 25.5339 84.9269 27.9224 72.3703 33.7095C72.1596 33.8066 71.9101 33.7145 71.813 33.5038C71.7159 33.2932 71.808 33.0437 72.0187 32.9466C84.7089 27.098 98.7124 24.6841 112.628 25.9463C126.544 27.2085 139.885 32.1026 151.316 40.139C162.747 48.1754 171.867 59.0725 177.764 71.7401Z" fill="#D9D9D9"/>
<path d="M33.6221 57.9601H172.655C175.913 57.9601 178.557 60.6045 178.557 63.8622V166.997C178.557 170.254 175.913 172.899 172.655 172.899H33.6221C30.3644 172.899 27.72 170.254 27.72 166.997V63.8622C27.72 60.6045 30.3644 57.9601 33.6221 57.9601Z" fill="white"/>
<path d="M178.557 63.8622V66.1967H27.72V63.8622C27.72 60.6045 30.3644 57.9601 33.6221 57.9601H172.655C175.913 57.9601 178.557 60.6045 178.557 63.8622Z" fill="#F27292"/>
<path fill-rule="evenodd" clip-rule="evenodd" d="M33.6222 58.38C30.5964 58.38 28.14 60.8364 28.14 63.8622V166.997C28.14 170.022 30.5964 172.479 33.6222 172.479H172.655C175.681 172.479 178.137 170.022 178.137 166.997V63.8622C178.137 60.8364 175.681 58.38 172.655 58.38H33.6222ZM27.3 63.8622C27.3 60.3725 30.1325 57.54 33.6222 57.54H172.655C176.145 57.54 178.977 60.3725 178.977 63.8622V166.997C178.977 170.486 176.145 173.319 172.655 173.319H33.6222C30.1325 173.319 27.3 170.486 27.3 166.997V63.8622Z" fill="#727272"/>
<path d="M35.2239 62.0816C35.2239 62.9125 34.5513 63.5917 33.7138 63.5917C32.8763 63.5917 32.2036 62.9191 32.2036 62.0816C32.2036 61.2441 32.8763 60.5714 33.7138 60.5714C34.5513 60.5714 35.2239 61.2441 35.2239 62.0816Z" fill="#727272"/>
<path d="M41.6043 62.0816C41.6043 62.9125 40.9316 63.5917 40.0941 63.5917C39.2566 63.5917 38.584 62.9191 38.584 62.0816C38.584 61.2441 39.2566 60.5714 40.0941 60.5714C40.9316 60.5714 41.6043 61.2441 41.6043 62.0816Z" fill="#727272"/>
<path d="M46.4745 63.5917C47.3085 63.5917 47.9847 62.9156 47.9847 62.0816C47.9847 61.2475 47.3085 60.5714 46.4745 60.5714C45.6405 60.5714 44.9644 61.2475 44.9644 62.0816C44.9644 62.9156 45.6405 63.5917 46.4745 63.5917Z" fill="#727272"/>
<path d="M31.0801 84.84C31.0801 82.5204 32.9605 80.64 35.2801 80.64H58.8001C61.1197 80.64 63.0001 82.5204 63.0001 84.84V164.64C63.0001 166.96 61.1197 168.84 58.8001 168.84H35.2801C32.9605 168.84 31.0801 166.96 31.0801 164.64V84.84Z" fill="#F2F2F2"/>
<path d="M35.28 153.72C35.28 152.792 36.0322 152.04 36.96 152.04H57.96C58.8879 152.04 59.64 152.792 59.64 153.72V162.96C59.64 163.888 58.8879 164.64 57.96 164.64H36.96C36.0322 164.64 35.28 163.888 35.28 162.96V153.72Z" fill="white"/>
<path d="M35.28 130.2C35.28 129.272 36.0322 128.52 36.96 128.52H57.96C58.8879 128.52 59.64 129.272 59.64 130.2V146.16C59.64 147.088 58.8879 147.84 57.96 147.84H36.96C36.0322 147.84 35.28 147.088 35.28 146.16V130.2Z" fill="white"/>
<path d="M35.28 86.5201C35.28 85.5922 36.0322 84.8401 36.96 84.8401H57.12C58.0479 84.8401 58.8 85.5922 58.8 86.5201V122.64C58.8 123.568 58.0479 124.32 57.12 124.32H36.96C36.0322 124.32 35.28 123.568 35.28 122.64V86.5201Z" fill="#F27292"/>
<path d="M37.8 94.9201C37.8 94.4562 38.1761 94.0801 38.64 94.0801H42C42.464 94.0801 42.84 94.4562 42.84 94.9201V119.28C42.84 119.744 42.464 120.12 42 120.12H38.64C38.1761 120.12 37.8 119.744 37.8 119.28V94.9201Z" fill="white"/>
<path d="M37.8 121.38C37.8 121.148 37.9881 120.96 38.22 120.96H55.86C56.092 120.96 56.28 121.148 56.28 121.38C56.28 121.612 56.092 121.8 55.86 121.8H38.22C37.9881 121.8 37.8 121.612 37.8 121.38Z" fill="white"/>
<path d="M44.52 106.68C44.52 106.216 44.8961 105.84 45.36 105.84H48.72C49.1839 105.84 49.56 106.216 49.56 106.68V119.28C49.56 119.744 49.1839 120.12 48.72 120.12H45.36C44.8961 120.12 44.52 119.744 44.52 119.28V106.68Z" fill="white"/>
<path d="M51.24 103.32C51.24 102.856 51.6161 102.48 52.08 102.48H55.44C55.9039 102.48 56.28 102.856 56.28 103.32V119.28C56.28 119.744 55.9039 120.12 55.44 120.12H52.08C51.6161 120.12 51.24 119.744 51.24 119.28V103.32Z" fill="white"/>
<path d="M68.04 84.84C68.04 82.5204 69.9204 80.64 72.24 80.64H170.52C172.84 80.64 174.72 82.5204 174.72 84.84V118.44C174.72 120.76 172.84 122.64 170.52 122.64H72.24C69.9204 122.64 68.04 120.76 68.04 118.44V84.84Z" fill="#F2F2F2"/>
<path d="M68.04 131.04C68.04 128.72 69.9204 126.84 72.24 126.84H170.52C172.84 126.84 174.72 128.72 174.72 131.04V164.64C174.72 166.96 172.84 168.84 170.52 168.84H72.24C69.9204 168.84 68.04 166.96 68.04 164.64V131.04Z" fill="#F2F2F2"/>
<path d="M68.2942 73.27C68.2942 72.3571 69.0342 71.6171 69.9471 71.6171H85.418C86.3309 71.6171 87.0709 72.3571 87.0709 73.27C87.0709 74.1828 86.3309 74.9229 85.418 74.9229H69.9471C69.0342 74.9229 68.2942 74.1828 68.2942 73.27Z" fill="#D9D9D9"/>
<path d="M94.145 73.27C94.145 72.3571 94.885 71.6171 95.7979 71.6171H111.269C112.182 71.6171 112.922 72.3571 112.922 73.27C112.922 74.1828 112.182 74.9229 111.269 74.9229H95.7979C94.8851 74.9229 94.145 74.1828 94.145 73.27Z" fill="#D9D9D9"/>
<path d="M119.996 73.27C119.996 72.3571 120.736 71.6171 121.649 71.6171H137.119C138.032 71.6171 138.772 72.3571 138.772 73.27C138.772 74.1828 138.032 74.9229 137.119 74.9229H121.649C120.736 74.9229 119.996 74.1828 119.996 73.27Z" fill="#D9D9D9"/>
<path d="M31.0559 73.27C31.0559 71.4691 32.5158 70.0093 34.3166 70.0093H54.9249C56.7257 70.0093 58.1856 71.4691 58.1856 73.27C58.1856 75.0708 56.7257 76.5307 54.9249 76.5307H34.3166C32.5158 76.5307 31.0559 75.0708 31.0559 73.27Z" fill="#D9D9D9"/>
<path d="M158.74 73.27C158.74 71.4691 160.2 70.0093 162 70.0093H171.205C173.005 70.0093 174.465 71.4691 174.465 73.27C174.465 75.0708 173.005 76.5307 171.205 76.5307H162C160.2 76.5307 158.74 75.0708 158.74 73.27Z" fill="#D9D9D9"/>
<path d="M128.371 94.3092H132.035L135.904 103.75H136.069L139.938 94.3092H143.602V108.36H140.72V99.2147H140.604L136.967 108.292H135.005L131.369 99.1804H131.252V108.36H128.371V94.3092Z" fill="#63CAE0"/>
<path d="M113.181 108.36V94.3092H118.724C119.785 94.3092 120.691 94.499 121.441 94.8787C122.196 95.2537 122.77 95.7866 123.163 96.4772C123.561 97.1633 123.76 97.9706 123.76 98.8991C123.76 99.8321 123.559 100.635 123.156 101.307C122.754 101.975 122.171 102.487 121.407 102.844C120.647 103.201 119.728 103.379 118.649 103.379H114.937V100.992H118.168C118.736 100.992 119.207 100.914 119.582 100.758C119.957 100.603 120.236 100.37 120.419 100.059C120.606 99.7475 120.7 99.361 120.7 98.8991C120.7 98.4325 120.606 98.0392 120.419 97.719C120.236 97.3988 119.955 97.1564 119.575 96.9918C119.2 96.8225 118.726 96.7379 118.155 96.7379H116.151V108.36H113.181ZM120.769 101.966L124.261 108.36H120.981L117.565 101.966H120.769Z" fill="#63CAE0"/>
<path d="M108.539 99.2284H105.534C105.479 98.8396 105.367 98.4943 105.198 98.1924C105.028 97.8859 104.811 97.6252 104.546 97.4102C104.28 97.1953 103.974 97.0306 103.626 96.9163C103.283 96.8019 102.911 96.7448 102.508 96.7448C101.781 96.7448 101.147 96.9254 100.608 97.2868C100.068 97.6435 99.6494 98.1649 99.3521 98.851C99.0548 99.5325 98.9062 100.36 98.9062 101.335C98.9062 102.336 99.0548 103.178 99.3521 103.859C99.654 104.541 100.075 105.055 100.615 105.403C101.154 105.751 101.779 105.924 102.488 105.924C102.885 105.924 103.254 105.872 103.592 105.767C103.935 105.661 104.239 105.508 104.505 105.307C104.77 105.101 104.989 104.852 105.163 104.559C105.342 104.266 105.465 103.933 105.534 103.558L108.539 103.571C108.461 104.216 108.267 104.838 107.956 105.437C107.649 106.032 107.235 106.565 106.714 107.036C106.197 107.502 105.579 107.873 104.861 108.147C104.148 108.417 103.341 108.552 102.439 108.552C101.186 108.552 100.066 108.269 99.0777 107.701C98.0943 107.134 97.3168 106.313 96.745 105.238C96.1779 104.164 95.8943 102.862 95.8943 101.335C95.8943 99.8024 96.1824 98.4988 96.7587 97.424C97.3351 96.3491 98.1172 95.5304 99.1051 94.9678C100.093 94.4006 101.205 94.1171 102.439 94.1171C103.254 94.1171 104.008 94.2314 104.704 94.4601C105.403 94.6888 106.023 95.0227 106.563 95.4618C107.103 95.8963 107.542 96.4292 107.88 97.0603C108.223 97.6915 108.443 98.4142 108.539 99.2284Z" fill="#63CAE0"/>
</svg>
