<svg width="210" height="210" viewBox="0 0 210 210" fill="none" xmlns="http://www.w3.org/2000/svg">
<path fill-rule="evenodd" clip-rule="evenodd" d="M169.619 182.044C169.477 181.861 169.509 181.597 169.692 181.455C179.321 173.926 187.373 164.575 193.388 153.934C199.403 143.294 203.264 131.573 204.749 119.441C206.234 107.308 205.316 95.0021 202.045 83.2249C198.774 71.4477 193.216 60.4299 185.688 50.8008C178.159 41.1716 168.808 33.1196 158.167 27.1045C147.527 21.0893 135.806 17.2289 123.674 15.7435C111.541 14.2581 99.2353 15.1769 87.4581 18.4475C75.6808 21.718 64.6631 27.2762 55.034 34.8048C54.8512 34.9476 54.5873 34.9153 54.4444 34.7326C54.3015 34.5498 54.3338 34.2859 54.5166 34.143C64.2326 26.5465 75.3498 20.9382 87.2333 17.6381C99.1168 14.3381 111.534 13.4109 123.776 14.9097C136.018 16.4085 147.844 20.3038 158.581 26.3732C169.317 32.4427 178.753 40.5673 186.349 50.2834C193.946 59.9995 199.554 71.1166 202.854 83.0001C206.154 94.8837 207.082 107.301 205.583 119.543C204.084 131.784 200.189 143.611 194.119 154.348C188.05 165.084 179.925 174.52 170.209 182.116C170.026 182.259 169.762 182.227 169.619 182.044Z" fill="#D9D9D9"/>
<path fill-rule="evenodd" clip-rule="evenodd" d="M186.26 146.044C186.054 145.937 185.973 145.684 186.08 145.478C195.41 127.405 197.757 106.529 192.673 86.8362C192.615 86.6116 192.75 86.3825 192.975 86.3245C193.199 86.2665 193.428 86.4016 193.486 86.6262C198.622 106.519 196.251 127.607 186.826 145.863C186.719 146.069 186.466 146.15 186.26 146.044Z" fill="#D9D9D9"/>
<path fill-rule="evenodd" clip-rule="evenodd" d="M116.66 196.886C103.65 197.483 90.6671 195.232 78.6175 190.291C66.5679 185.349 55.7425 177.837 46.8975 168.278C38.0525 158.719 31.4012 147.344 27.4083 134.948C23.4155 122.551 22.1773 109.433 23.7804 96.5085C23.8089 96.2783 24.0187 96.1148 24.2488 96.1434C24.4791 96.1719 24.6425 96.3817 24.614 96.6119C23.026 109.415 24.2525 122.41 28.2079 134.69C32.1633 146.97 38.7521 158.238 47.514 167.707C56.276 177.177 66.9998 184.619 78.9362 189.514C90.8727 194.408 103.734 196.638 116.622 196.047C116.853 196.036 117.05 196.215 117.06 196.447C117.071 196.679 116.892 196.875 116.66 196.886Z" fill="#D9D9D9"/>
<path fill-rule="evenodd" clip-rule="evenodd" d="M8.86881 137.986C3.0046 117.666 3.21471 96.0749 9.47325 75.8732C15.7318 55.6716 27.7651 37.7429 44.0899 24.2974C60.4146 10.852 80.3171 2.47752 101.344 0.206462C101.574 0.181545 101.781 0.348293 101.806 0.578929C101.831 0.809551 101.665 1.01669 101.434 1.04161C80.5703 3.29506 60.8221 11.6046 44.6239 24.9458C28.4257 38.287 16.4856 56.0768 10.2756 76.1218C4.06561 96.1669 3.85712 117.591 9.67587 137.753C15.4946 157.915 27.0862 175.934 43.0217 189.588C43.1979 189.739 43.2183 190.004 43.0674 190.18C42.9165 190.356 42.6513 190.377 42.4752 190.226C26.4152 176.465 14.733 158.306 8.86881 137.986Z" fill="#D9D9D9"/>
<path d="M130.2 152.04H93.24V178.08H130.2V152.04Z" fill="#DDDDDD"/>
<path fill-rule="evenodd" clip-rule="evenodd" d="M92.8201 152.04C92.8201 151.808 93.0081 151.62 93.2401 151.62H130.2C130.432 151.62 130.62 151.808 130.62 152.04V178.08C130.62 178.312 130.432 178.5 130.2 178.5H93.2401C93.0081 178.5 92.8201 178.312 92.8201 178.08V152.04ZM93.6601 152.46V177.66H129.78V152.46H93.6601Z" fill="#727272"/>
<path d="M180.233 149.548C180.07 152.207 177.866 154.281 175.202 154.281H31.8252L38.8364 39.48H181.598C184.502 39.48 186.805 41.9283 186.628 44.8272L180.233 149.548Z" fill="white"/>
<path fill-rule="evenodd" clip-rule="evenodd" d="M38.4172 39.4543C38.4308 39.2327 38.6144 39.0599 38.8364 39.0599H181.598C184.744 39.0599 187.239 41.7123 187.047 44.8528L180.652 149.574C180.476 152.454 178.088 154.701 175.202 154.701H31.8253C31.7094 154.701 31.5987 154.653 31.5194 154.569C31.44 154.484 31.399 154.371 31.4061 154.255L38.4172 39.4543ZM39.2316 39.8999L32.2717 153.861H175.202C177.644 153.861 179.665 151.96 179.813 149.522L186.209 44.8016C186.371 42.1442 184.26 39.8999 181.598 39.8999H39.2316Z" fill="#727272"/>
<path d="M175.988 149.548C175.826 152.207 173.622 154.281 170.958 154.281H32.9235C30.0191 154.281 27.7158 151.832 27.8929 148.934L34.2884 44.2127C34.4508 41.5535 36.6549 39.48 39.3191 39.48H177.353C180.258 39.48 182.561 41.9283 182.384 44.8272L175.988 149.548Z" fill="#F27292"/>
<path fill-rule="evenodd" clip-rule="evenodd" d="M39.3191 39.8999C36.877 39.8999 34.8566 41.8007 34.7077 44.2383L28.3122 148.959C28.1499 151.616 30.2613 153.861 32.9236 153.861H170.958C173.4 153.861 175.42 151.96 175.569 149.522L181.965 44.8016C182.127 42.1442 180.016 39.8999 177.353 39.8999H39.3191ZM33.8693 44.1871C34.0452 41.3062 36.4329 39.0599 39.3191 39.0599H177.353C180.5 39.0599 182.995 41.7123 182.803 44.8528L176.408 149.574C176.232 152.454 173.844 154.701 170.958 154.701H32.9236C29.7772 154.701 27.2819 152.048 27.4737 148.908L33.8693 44.1871Z" fill="#727272"/>
<path d="M167.862 147.907H36.1855L42.429 45.8539H174.091L167.862 147.907Z" fill="white"/>
<path fill-rule="evenodd" clip-rule="evenodd" d="M42.0096 45.8282C42.0231 45.6066 42.2068 45.4338 42.4288 45.4338H174.091C174.207 45.4338 174.318 45.4817 174.397 45.566C174.476 45.6504 174.517 45.7638 174.51 45.8794L168.281 147.933C168.268 148.154 168.084 148.327 167.862 148.327H36.1854C36.0695 148.327 35.9588 148.279 35.8795 148.195C35.8001 148.11 35.7591 147.997 35.7662 147.881L42.0096 45.8282ZM42.8239 46.2738L36.6319 147.487H167.467L173.645 46.2738H42.8239Z" fill="#727272"/>
<path d="M60.8638 136.043H43.1848L47.635 63.0385H65.314L60.8638 136.043Z" fill="#919191"/>
<path fill-rule="evenodd" clip-rule="evenodd" d="M47.2458 63.0148C47.2584 62.8091 47.4288 62.6487 47.6349 62.6487H65.3139C65.4214 62.6487 65.5242 62.6931 65.5978 62.7714C65.6715 62.8497 65.7096 62.9549 65.703 63.0622L61.2528 136.067C61.2403 136.273 61.0698 136.433 60.8637 136.433H43.1847C43.0772 136.433 42.9745 136.389 42.9008 136.31C42.8272 136.232 42.7891 136.127 42.7956 136.019L47.2458 63.0148ZM48.0017 63.4283L43.599 135.653H60.497L64.8996 63.4283H48.0017Z" fill="#727272"/>
<path d="M60.4874 142.106H42.8083L43.1848 136.043H60.8638L60.4874 142.106Z" fill="white"/>
<path fill-rule="evenodd" clip-rule="evenodd" d="M42.7957 136.018C42.8084 135.813 42.9788 135.653 43.1847 135.653H60.8637C60.9713 135.653 61.0741 135.697 61.1478 135.776C61.2215 135.854 61.2595 135.959 61.2528 136.067L60.8763 142.13C60.8636 142.336 60.6932 142.496 60.4873 142.496H42.8083C42.7007 142.496 42.5979 142.452 42.5242 142.373C42.4505 142.295 42.4125 142.189 42.4192 142.082L42.7957 136.018ZM43.5511 136.432L43.223 141.716H60.1209L60.449 136.432H43.5511Z" fill="#727272"/>
<path fill-rule="evenodd" clip-rule="evenodd" d="M45.8064 138.41C45.8064 138.194 45.9809 138.02 46.1962 138.02H57.0319C57.2472 138.02 57.4217 138.194 57.4217 138.41C57.4217 138.625 57.2472 138.799 57.0319 138.799H46.1962C45.9809 138.799 45.8064 138.625 45.8064 138.41Z" fill="#727272"/>
<path d="M165.594 82.5334H137.656L138.839 63.2941H166.764L165.594 82.5334Z" fill="#F2F2F2"/>
<path fill-rule="evenodd" clip-rule="evenodd" d="M138.45 63.2702C138.463 63.0646 138.633 62.9043 138.839 62.9043H166.764C166.871 62.9043 166.974 62.9487 167.048 63.027C167.121 63.1052 167.159 63.2105 167.153 63.3178L165.983 82.5571C165.971 82.7628 165.8 82.9232 165.594 82.9232H137.656C137.548 82.9232 137.446 82.8788 137.372 82.8005C137.298 82.7221 137.26 82.6168 137.267 82.5095L138.45 63.2702ZM139.206 63.6839L138.07 82.1436H165.227L166.349 63.6839H139.206Z" fill="#727272"/>
<path d="M165.594 82.5328H137.656L137.858 79.3733H165.782L165.594 82.5328Z" fill="white"/>
<path fill-rule="evenodd" clip-rule="evenodd" d="M137.469 79.3484C137.482 79.1431 137.652 78.9834 137.858 78.9834H165.782C165.89 78.9834 165.992 79.0277 166.066 79.1059C166.14 79.1841 166.178 79.2892 166.171 79.3964L165.983 82.5559C165.971 82.7618 165.8 82.9225 165.594 82.9225H137.656C137.548 82.9225 137.445 82.878 137.372 82.7994C137.298 82.7209 137.26 82.6154 137.267 82.5079L137.469 79.3484ZM138.223 79.763L138.071 82.1429H165.227L165.368 79.763H138.223Z" fill="#727272"/>
<path d="M150.964 70.3245C150.964 70.3245 149.464 73.1575 148.744 74.4818C148.025 75.8061 147.615 76.129 147.84 76.4308C148.064 76.7315 149.438 77.4238 149.786 77.35C150.135 77.2762 149.971 76.7253 149.998 76.1217C150.025 75.5182 151.553 72.337 151.961 71.7576C152.368 71.1782 152.654 71.1016 153.129 70.9076C153.604 70.7148 152.869 70.1912 152.232 70.0237C151.595 69.8552 150.897 70.0662 150.963 70.3256L150.964 70.3245Z" fill="#B5B5B5"/>
<path fill-rule="evenodd" clip-rule="evenodd" d="M151.852 69.5452C152.012 69.5517 152.177 69.5748 152.339 69.6176C152.708 69.7146 153.111 69.9133 153.372 70.1381C153.487 70.2373 153.658 70.4114 153.694 70.648C153.716 70.7889 153.687 70.9392 153.593 71.0682C153.507 71.186 153.39 71.2549 153.288 71.2966M153.288 71.2966C153.242 71.3152 153.2 71.3322 153.161 71.3479C152.977 71.4219 152.861 71.4684 152.745 71.5422C152.621 71.6217 152.485 71.7426 152.304 71.9993C152.126 72.2526 151.657 73.1569 151.218 74.107C151.002 74.5743 150.799 75.0383 150.65 75.4197C150.575 75.6108 150.516 75.7765 150.475 75.9089C150.454 75.9751 150.439 76.0294 150.43 76.0721C150.425 76.0933 150.422 76.1099 150.42 76.1224C150.418 76.1352 150.418 76.1408 150.418 76.1405C150.412 76.2713 150.416 76.4028 150.422 76.5392C150.423 76.556 150.424 76.5731 150.425 76.5904C150.43 76.7059 150.436 76.8325 150.433 76.9458C150.429 77.0708 150.415 77.2387 150.342 77.3926C150.254 77.5759 150.095 77.714 149.873 77.7609C149.751 77.7868 149.628 77.7733 149.54 77.7578C149.442 77.7407 149.338 77.7124 149.236 77.679C149.032 77.6121 148.802 77.5149 148.583 77.4087C148.364 77.3022 148.146 77.1819 147.964 77.0655C147.8 76.9607 147.611 76.8254 147.504 76.682M151.852 69.5452L152.531 68.2616L151.048 69.6661C150.953 69.7041 150.859 69.754 150.779 69.8191C150.682 69.8977 150.564 70.0377 150.541 70.2247L150.347 70.5911C150.195 70.8772 149.985 71.2726 149.753 71.7093C149.288 72.5832 148.734 73.621 148.375 74.2814C148.137 74.7192 147.95 75.0201 147.795 75.2682C147.713 75.3992 147.641 75.5155 147.575 75.6295C147.492 75.7732 147.406 75.9367 147.373 76.1057C147.334 76.3107 147.374 76.5084 147.504 76.682M151.335 70.5211L151.089 70.9847C150.937 71.2711 150.727 71.6668 150.495 72.1039C150.03 72.9775 149.474 74.0183 149.113 74.6823C148.868 75.1348 148.64 75.5011 148.477 75.7629C148.404 75.8801 148.344 75.9764 148.302 76.05C148.256 76.1285 148.23 76.1808 148.216 76.2148C148.222 76.2197 148.228 76.2252 148.236 76.2313C148.281 76.2671 148.342 76.31 148.416 76.3579C148.566 76.4535 148.755 76.5581 148.95 76.653C149.146 76.7482 149.339 76.829 149.497 76.8806C149.533 76.8921 149.565 76.9017 149.593 76.9095C149.595 76.8325 149.591 76.7441 149.585 76.6312C149.585 76.6136 149.584 76.5954 149.583 76.5766C149.577 76.4376 149.571 76.274 149.578 76.103C149.584 75.9692 149.626 75.8087 149.672 75.6605C149.722 75.5012 149.789 75.3148 149.868 75.1137C150.025 74.7108 150.235 74.2302 150.456 73.7543C150.889 72.818 151.388 71.8421 151.617 71.516C151.844 71.1933 152.055 70.9861 152.294 70.8339C152.409 70.7605 152.529 70.702 152.647 70.6507C152.498 70.5619 152.308 70.4782 152.125 70.43L152.124 70.4297C151.877 70.3644 151.617 70.3743 151.44 70.4206C151.416 70.4267 151.396 70.433 151.378 70.4393L151.335 70.5211ZM152.975 70.5168C152.975 70.5168 152.974 70.5171 152.973 70.5175L152.975 70.5168Z" fill="#727272"/>
<path d="M153.473 66.4782C152.117 65.5781 150.417 65.7315 149.679 66.8199C148.939 67.9096 149.438 69.5214 150.793 70.4202C151.361 70.7971 151.991 70.9887 152.584 71.0033C153.335 71.0227 154.078 71.1443 154.762 71.4353C155.125 71.5897 155.481 71.7626 155.74 71.9328C156.532 72.4584 157.804 73.6299 157.804 73.6299L158.316 72.8774L158.623 72.4254L159.135 71.6729C159.135 71.6729 157.555 70.9534 156.763 70.4278C156.504 70.2551 156.208 69.9955 155.927 69.7226C155.395 69.2069 155 68.5734 154.697 67.8944C154.459 67.3569 154.042 66.8551 153.473 66.4782Z" fill="#B5B5B5"/>
<path fill-rule="evenodd" clip-rule="evenodd" d="M149.331 66.584C150.243 65.2407 152.229 65.1487 153.705 66.1282C154.337 66.5473 154.808 67.11 155.081 67.7236C155.368 68.3682 155.736 68.9524 156.219 69.421L156.22 69.4217C156.493 69.6876 156.769 69.9265 156.996 70.0782C157.368 70.3251 157.94 70.6263 158.433 70.8714C158.676 70.9926 158.896 71.0976 159.054 71.1724C159.134 71.2097 159.197 71.2395 159.241 71.2598L159.292 71.283L159.305 71.2888L159.308 71.2903L159.309 71.2907L159.762 71.4972L158.97 72.6614L158.663 73.1134L157.878 74.2686L157.52 73.9389L157.516 73.9359L157.506 73.9264L157.465 73.8892C157.43 73.8567 157.378 73.8096 157.313 73.7514C157.182 73.6347 157.001 73.4739 156.795 73.2969C156.379 72.9391 155.88 72.5303 155.508 72.2832C155.281 72.1339 154.953 71.9729 154.598 71.8218M157.727 72.9958C157.616 72.8974 157.485 72.7825 157.343 72.66C156.925 72.3008 156.392 71.8614 155.972 71.5828L155.97 71.582C155.68 71.3909 155.297 71.2065 154.927 71.0488C154.181 70.7317 153.382 70.6038 152.594 70.5835C152.083 70.5708 151.53 70.405 151.025 70.0702M157.727 72.9958L157.968 72.6414L158.275 72.1894L158.51 71.8438C158.378 71.7804 158.224 71.7056 158.059 71.6235C157.564 71.3776 156.95 71.0564 156.531 70.7777L156.529 70.777C156.24 70.5834 155.922 70.3034 155.634 70.0239C155.054 69.4611 154.631 68.7784 154.314 68.0652C154.109 67.6039 153.746 67.1629 153.241 66.8282C152.005 66.0077 150.592 66.2222 150.026 67.0558C149.462 67.886 149.791 69.2517 151.025 70.0702M149.331 66.584C148.415 67.933 149.085 69.7912 150.561 70.7702C151.193 71.1892 151.898 71.4064 152.573 71.4232C153.287 71.4416 153.975 71.5571 154.598 71.8218" fill="#727272"/>
<path d="M131.598 82.5334H103.66L104.843 63.2941H132.768L131.598 82.5334Z" fill="#F2F2F2"/>
<path fill-rule="evenodd" clip-rule="evenodd" d="M104.454 63.2702C104.467 63.0646 104.637 62.9043 104.843 62.9043H132.768C132.875 62.9043 132.978 62.9487 133.051 63.027C133.125 63.1052 133.163 63.2105 133.157 63.3178L131.987 82.5571C131.974 82.7628 131.804 82.9232 131.598 82.9232H103.66C103.552 82.9232 103.45 82.8788 103.376 82.8005C103.302 82.7221 103.264 82.6168 103.271 82.5095L104.454 63.2702ZM105.21 63.6839L104.074 82.1436H131.231L132.353 63.6839H105.21Z" fill="#727272"/>
<path d="M131.598 82.5328H103.66L103.862 79.3733H131.786L131.598 82.5328Z" fill="white"/>
<path fill-rule="evenodd" clip-rule="evenodd" d="M103.473 79.3484C103.486 79.1431 103.656 78.9834 103.862 78.9834H131.786C131.894 78.9834 131.996 79.0277 132.07 79.1059C132.143 79.1841 132.182 79.2892 132.175 79.3964L131.987 82.5559C131.975 82.7618 131.804 82.9225 131.598 82.9225H103.66C103.552 82.9225 103.449 82.878 103.376 82.7994C103.302 82.7209 103.264 82.6154 103.271 82.5079L103.473 79.3484ZM104.227 79.763L104.075 82.1429H131.231L131.372 79.763H104.227Z" fill="#727272"/>
<path fill-rule="evenodd" clip-rule="evenodd" d="M127.186 72.5817C127.223 72.7023 127.204 72.833 127.134 72.9378L126.514 73.8667C126.398 74.0395 126.174 74.102 125.986 74.0139L119.339 70.8986L118.257 73.49C118.167 73.704 117.921 73.805 117.707 73.7156C117.493 73.6262 117.392 73.3802 117.481 73.1662L118.844 69.9051L118.127 69.6055L116.764 72.8665C116.675 73.0805 116.429 73.1816 116.215 73.0921C116.001 73.0027 115.9 72.7567 115.989 72.5427L117.352 69.2816L116.336 68.8573L114.974 72.1184C114.884 72.3324 114.638 72.4334 114.424 72.344C114.21 72.2546 114.109 72.0086 114.198 71.7946L115.561 68.5335L114.545 68.1092L113.183 71.3702C113.093 71.5843 112.847 71.6853 112.633 71.5959C112.419 71.5064 112.318 71.2604 112.408 71.0464L113.77 67.7854L113.142 67.5229C112.928 67.4335 112.682 67.5345 112.592 67.7486L111.392 70.6221C111.303 70.8361 111.057 70.9371 110.843 70.8477C110.629 70.7583 110.527 70.5123 110.617 70.2983L111.817 67.4248C112.086 66.7827 112.824 66.4796 113.466 66.7479L119.555 69.2919L126.944 72.3159C127.06 72.3636 127.149 72.4612 127.186 72.5817ZM121.7 71.0773L126.016 73.1L126.15 72.8987L121.7 71.0773Z" fill="#727272"/>
<path d="M98.2244 82.5334H70.2864L71.4695 63.2941H99.3941L98.2244 82.5334Z" fill="#F2F2F2"/>
<path fill-rule="evenodd" clip-rule="evenodd" d="M71.0804 63.2702C71.093 63.0646 71.2634 62.9043 71.4694 62.9043H99.394C99.5015 62.9043 99.6043 62.9487 99.6779 63.027C99.7516 63.1052 99.7897 63.2105 99.7831 63.3178L98.6134 82.5571C98.6009 82.7628 98.4304 82.9232 98.2243 82.9232H70.2863C70.1788 82.9232 70.076 82.8788 70.0023 82.8005C69.9287 82.7221 69.8906 82.6168 69.8972 82.5095L71.0804 63.2702ZM71.836 63.6839L70.7008 82.1436H97.8575L98.9798 63.6839H71.836Z" fill="#727272"/>
<path d="M98.2244 82.5328H70.2864L70.4881 79.3733H98.4127L98.2244 82.5328Z" fill="white"/>
<path fill-rule="evenodd" clip-rule="evenodd" d="M70.099 79.3484C70.1121 79.1431 70.2824 78.9834 70.488 78.9834H98.4126C98.52 78.9834 98.6226 79.0277 98.6963 79.1059C98.77 79.1841 98.8081 79.2892 98.8017 79.3964L98.6135 82.5559C98.6012 82.7618 98.4306 82.9225 98.2243 82.9225H70.2863C70.1786 82.9225 70.0757 82.878 70.002 82.7994C69.9283 82.7209 69.8904 82.6154 69.8973 82.5079L70.099 79.3484ZM70.8537 79.763L70.7018 82.1429H97.8571L97.9989 79.763H70.8537Z" fill="#727272"/>
<path d="M163.779 112.314H135.841L137.011 93.0745H164.949L163.779 112.314Z" fill="#F2F2F2"/>
<path fill-rule="evenodd" clip-rule="evenodd" d="M136.622 93.0508C136.634 92.8451 136.805 92.6847 137.011 92.6847H164.949C165.056 92.6847 165.159 92.7291 165.233 92.8074C165.306 92.8856 165.345 92.9909 165.338 93.0982L164.168 112.337C164.156 112.543 163.985 112.704 163.779 112.704H135.841C135.734 112.704 135.631 112.659 135.557 112.581C135.484 112.503 135.446 112.397 135.452 112.29L136.622 93.0508ZM137.378 93.4643L136.255 111.924H163.412L164.535 93.4643H137.378Z" fill="#727272"/>
<path d="M163.779 112.314H135.841L136.03 109.154H163.968L163.779 112.314Z" fill="white"/>
<path fill-rule="evenodd" clip-rule="evenodd" d="M135.64 109.131C135.653 108.925 135.823 108.764 136.029 108.764H163.967C164.075 108.764 164.178 108.809 164.251 108.887C164.325 108.965 164.363 109.07 164.357 109.177L164.168 112.337C164.156 112.543 163.986 112.704 163.779 112.704H135.841C135.734 112.704 135.631 112.659 135.558 112.581C135.484 112.503 135.446 112.398 135.452 112.291L135.64 109.131ZM136.397 109.544L136.255 111.924H163.412L163.554 109.544H136.397Z" fill="#727272"/>
<path d="M130.263 112.036H102.325L103.495 92.7971H131.433L130.263 112.036Z" fill="#F2F2F2"/>
<path fill-rule="evenodd" clip-rule="evenodd" d="M103.105 92.7735C103.118 92.5678 103.288 92.4073 103.495 92.4073H131.433C131.54 92.4073 131.643 92.4517 131.716 92.53C131.79 92.6083 131.828 92.7135 131.822 92.8208L130.652 112.06C130.639 112.266 130.469 112.426 130.263 112.426H102.325C102.217 112.426 102.115 112.382 102.041 112.304C101.967 112.225 101.929 112.12 101.936 112.013L103.105 92.7735ZM103.861 93.187L102.739 111.647H129.896L131.018 93.187H103.861Z" fill="#727272"/>
<path fill-rule="evenodd" clip-rule="evenodd" d="M109.65 99.5967C109.681 99.3881 109.863 99.235 110.074 99.2391L119.447 99.4206C119.461 99.4199 119.474 99.4191 119.486 99.4182C119.36 99.1447 119.293 98.839 119.3 98.5176C119.326 97.3838 120.266 96.4845 121.401 96.5103L122.424 96.5336C123.558 96.5594 124.457 97.5004 124.432 98.6344C124.406 99.7682 123.466 100.667 122.331 100.642L121.308 100.618C121.208 100.616 121.111 100.607 121.017 100.591L118.096 101.141C116.364 101.467 114.579 101.385 112.883 100.901L109.95 100.063C109.747 100.005 109.619 99.8054 109.65 99.5967ZM118.343 100.239L113.29 100.142C114.807 100.546 116.396 100.606 117.941 100.315L118.343 100.239ZM120.527 98.5455C120.515 99.0979 120.953 99.556 121.505 99.5686L122.182 99.584C122.735 99.5966 123.193 99.1589 123.205 98.6065C123.218 98.0541 122.78 97.5959 122.228 97.5834L121.55 97.568C120.998 97.5554 120.54 97.9931 120.527 98.5455Z" fill="#727272"/>
<path fill-rule="evenodd" clip-rule="evenodd" d="M111.225 95.3511C111.107 95.5257 111.137 95.7603 111.295 95.9L118.309 102.121C118.318 102.13 118.327 102.14 118.336 102.149C118.058 102.265 117.801 102.444 117.589 102.685C116.839 103.536 116.921 104.835 117.773 105.585L118.541 106.261C119.392 107.011 120.691 106.929 121.44 106.078C122.19 105.226 122.109 103.928 121.257 103.178L120.489 102.501C120.414 102.436 120.336 102.377 120.256 102.325L118.512 99.9586C117.44 98.505 116.037 97.3284 114.419 96.5267L111.76 95.2094C111.571 95.1159 111.343 95.1765 111.225 95.3511ZM118.51 103.496C118.875 103.082 119.507 103.042 119.922 103.407L120.431 103.855C120.845 104.22 120.885 104.852 120.52 105.267C120.155 105.682 119.522 105.722 119.108 105.356L118.599 104.909C118.185 104.543 118.145 103.911 118.51 103.496Z" fill="#727272"/>
<path d="M130.263 112.036H102.325L102.513 108.876H130.451L130.263 112.036Z" fill="white"/>
<path fill-rule="evenodd" clip-rule="evenodd" d="M102.124 108.853C102.136 108.647 102.307 108.487 102.513 108.487H130.451C130.559 108.487 130.661 108.531 130.735 108.609C130.808 108.687 130.847 108.792 130.84 108.9L130.652 112.059C130.64 112.265 130.469 112.426 130.263 112.426H102.325C102.217 112.426 102.115 112.381 102.041 112.303C101.967 112.225 101.929 112.12 101.936 112.013L102.124 108.853ZM102.88 109.266L102.739 111.646H129.896L130.037 109.266H102.88Z" fill="#727272"/>
<path d="M96.4095 112.314H68.4714L69.6411 93.0747H97.5791L96.4095 112.314Z" fill="#F2F2F2"/>
<path fill-rule="evenodd" clip-rule="evenodd" d="M69.2519 93.051C69.2644 92.8452 69.4349 92.6848 69.641 92.6848H97.5791C97.6866 92.6848 97.7893 92.7292 97.8629 92.8075C97.9366 92.8858 97.9747 92.991 97.9682 93.0983L96.7985 112.338C96.786 112.543 96.6155 112.704 96.4094 112.704H68.4714C68.3639 112.704 68.2611 112.659 68.1875 112.581C68.1138 112.503 68.0757 112.398 68.0823 112.29L69.2519 93.051ZM70.0079 93.4644L68.8856 111.924H96.0426L97.1648 93.4644H70.0079Z" fill="#727272"/>
<path d="M87.8423 105.071C88.1999 105.153 88.5912 104.861 88.7392 104.403L89.0508 103.437C89.1984 102.98 89.0503 102.513 88.7138 102.37L77.212 98.0618L75.9916 101.844L87.8427 105.07L87.8423 105.071Z" fill="#B5B5B5"/>
<path fill-rule="evenodd" clip-rule="evenodd" d="M88.8777 101.984C89.4943 102.245 89.6346 102.996 89.4506 103.566L89.139 104.532C88.9548 105.103 88.4036 105.63 87.7492 105.481L87.3019 105.379L87.308 105.36L75.4569 102.134L76.9475 97.514L88.8695 101.98L88.8777 101.984ZM87.9479 104.663C88.0228 104.668 88.2344 104.6 88.3396 104.274L88.6512 103.308C88.7598 102.971 88.6137 102.79 88.5543 102.759L77.4767 98.6093L76.5265 101.555L87.9479 104.663Z" fill="#727272"/>
<path fill-rule="evenodd" clip-rule="evenodd" d="M91.5125 105.442C91.5127 105.442 91.5123 105.442 91.5125 105.442L87.9676 105.252L88.2042 104.699C88.2338 104.63 88.2606 104.56 88.2845 104.486L88.7364 103.085C88.7578 103.019 88.7759 102.95 88.7924 102.879L88.9268 102.298L91.9093 104.213C91.9091 104.213 91.9094 104.213 91.9093 104.213M89.4438 103.628L89.1705 104.475L90.9091 104.569L89.4438 103.628Z" fill="#727272"/>
<path fill-rule="evenodd" clip-rule="evenodd" d="M77.6839 97.9676L76.3195 102.197L74.4991 101.867L76.0142 97.1711L77.6839 97.9676ZM76.6588 98.4093L76.5189 98.3425L75.5932 101.212L75.7458 101.239L76.6588 98.4093Z" fill="#727272"/>
<path d="M155.303 104.873C155.66 104.955 156.051 104.663 156.199 104.205L156.511 103.239C156.659 102.782 156.51 102.315 156.174 102.172L144.672 97.8638L143.452 101.646L155.303 104.872L155.303 104.873Z" fill="#B5B5B5"/>
<path fill-rule="evenodd" clip-rule="evenodd" d="M156.338 101.786C156.955 102.047 157.095 102.798 156.911 103.368L156.599 104.334C156.415 104.905 155.864 105.432 155.209 105.283L154.762 105.181L154.768 105.162L142.917 101.936L144.408 97.3162L156.33 101.782L156.338 101.786ZM155.408 104.466C155.483 104.47 155.695 104.402 155.8 104.076L156.111 103.11C156.22 102.774 156.074 102.592 156.014 102.561L144.937 98.4114L143.987 101.357L155.408 104.466Z" fill="#727272"/>
<path fill-rule="evenodd" clip-rule="evenodd" d="M158.972 105.244C158.973 105.244 158.972 105.244 158.972 105.244L155.428 105.054L155.664 104.501C155.694 104.432 155.721 104.362 155.744 104.288L156.196 102.887C156.218 102.821 156.236 102.752 156.252 102.681L156.387 102.1L159.369 104.015C159.369 104.015 159.369 104.015 159.369 104.015M156.904 103.43L156.63 104.277L158.369 104.371L156.904 103.43Z" fill="#727272"/>
<path fill-rule="evenodd" clip-rule="evenodd" d="M145.144 97.7692L143.779 101.998L141.959 101.669L143.474 96.9727L145.144 97.7692ZM144.119 98.2109L143.979 98.1442L143.053 101.013L143.206 101.041L144.119 98.2109Z" fill="#727272"/>
<path d="M96.4095 112.314H68.4714L68.6596 109.154H96.5977L96.4095 112.314Z" fill="white"/>
<path fill-rule="evenodd" clip-rule="evenodd" d="M68.2704 109.131C68.2827 108.925 68.4533 108.765 68.6596 108.765H96.5976C96.705 108.765 96.8076 108.809 96.8813 108.887C96.955 108.965 96.9931 109.07 96.9867 109.178L96.7985 112.337C96.7862 112.543 96.6157 112.704 96.4094 112.704H68.4714C68.3639 112.704 68.2613 112.659 68.1876 112.581C68.114 112.503 68.0758 112.398 68.0822 112.291L68.2704 109.131ZM69.0268 109.544L68.8851 111.924H96.0421L96.1839 109.544H69.0268Z" fill="#727272"/>
<path d="M91.0212 66.5791L87.3879 65.7812L84.9945 76.6809L88.6278 77.4787L91.0212 66.5791Z" fill="#B5B5B5"/>
<path fill-rule="evenodd" clip-rule="evenodd" d="M86.9778 65.6912C87.0275 65.4647 87.2515 65.3213 87.4781 65.3711L91.1113 66.1689C91.3379 66.2186 91.4812 66.4426 91.4315 66.6692L89.0381 77.5689C88.9883 77.7954 88.7643 77.9388 88.5377 77.889L84.9045 77.0912C84.678 77.0415 84.5346 76.8175 84.5844 76.5909L86.9778 65.6912ZM87.7082 66.2816L85.4949 76.3608L88.3077 76.9785L90.5209 66.8993L87.7082 66.2816Z" fill="#727272"/>
<path d="M91.0212 66.5791L87.3879 65.7812L86.5901 69.4145L90.2234 70.2123L91.0212 66.5791Z" fill="#F2F2F2"/>
<path fill-rule="evenodd" clip-rule="evenodd" d="M86.9778 65.6912C87.0275 65.4647 87.2515 65.3213 87.4781 65.3711L91.1113 66.1689C91.3379 66.2186 91.4812 66.4426 91.4315 66.6692L90.6337 70.3024C90.5839 70.529 90.3599 70.6723 90.1334 70.6226L86.5001 69.8248C86.2736 69.775 86.1302 69.551 86.18 69.3245L86.9778 65.6912ZM87.7082 66.2816L87.0905 69.0944L89.9033 69.712L90.5209 66.8993L87.7082 66.2816Z" fill="#727272"/>
<path d="M84.1682 68.8827L81.7461 68.3508L80.1505 75.6173L82.5726 76.1491L84.1682 68.8827Z" fill="#B5B5B5"/>
<path fill-rule="evenodd" clip-rule="evenodd" d="M81.3359 68.2607C81.3857 68.0341 81.6097 67.8908 81.8363 67.9405L84.2584 68.4724C84.485 68.5222 84.6283 68.7462 84.5785 68.9727L82.9829 76.2392C82.9332 76.4657 82.7092 76.6091 82.4826 76.5593L80.0605 76.0274C79.8339 75.9777 79.6906 75.7537 79.7403 75.5271L81.3359 68.2607ZM82.0663 68.8511L80.6509 75.2971L82.2526 75.6488L83.668 69.2028L82.0663 68.8511Z" fill="#727272"/>
<path d="M84.1682 68.8827L81.7461 68.3508L81.2142 70.773L83.6364 71.3048L84.1682 68.8827Z" fill="#F2F2F2"/>
<path fill-rule="evenodd" clip-rule="evenodd" d="M81.3359 68.2607C81.3857 68.0341 81.6097 67.8908 81.8363 67.9405L84.2584 68.4724C84.485 68.5222 84.6283 68.7462 84.5786 68.9727L84.0467 71.3949C83.9969 71.6214 83.7729 71.7648 83.5464 71.715L81.1242 71.1831C80.8977 71.1334 80.7543 70.9094 80.8041 70.6828L81.3359 68.2607ZM82.0663 68.8511L81.7146 70.4528L83.3163 70.8045L83.668 69.2028L82.0663 68.8511Z" fill="#727272"/>
<path d="M161.95 142.107H134.026L135.196 122.868H163.134L161.95 142.107Z" fill="#F2F2F2"/>
<path fill-rule="evenodd" clip-rule="evenodd" d="M134.807 122.844C134.819 122.638 134.99 122.478 135.196 122.478H163.134C163.241 122.478 163.344 122.522 163.418 122.601C163.491 122.679 163.529 122.784 163.523 122.892L162.34 142.131C162.327 142.337 162.157 142.497 161.951 142.497H134.026C133.919 142.497 133.816 142.452 133.742 142.374C133.668 142.296 133.63 142.191 133.637 142.083L134.807 122.844ZM135.563 123.258L134.44 141.717H161.584L162.719 123.258H135.563Z" fill="#727272"/>
<path d="M161.95 142.106H134.026L134.214 138.947H162.152L161.95 142.106Z" fill="white"/>
<path fill-rule="evenodd" clip-rule="evenodd" d="M133.825 138.924C133.837 138.718 134.008 138.557 134.214 138.557H162.152C162.26 138.557 162.363 138.602 162.436 138.68C162.51 138.759 162.548 138.864 162.541 138.972L162.339 142.131C162.326 142.336 162.156 142.496 161.95 142.496H134.026C133.918 142.496 133.816 142.452 133.742 142.374C133.668 142.295 133.63 142.19 133.637 142.083L133.825 138.924ZM134.581 139.337L134.44 141.717H161.585L161.737 139.337H134.581Z" fill="#727272"/>
<path fill-rule="evenodd" clip-rule="evenodd" d="M156.353 132.621C156.39 132.742 156.371 132.872 156.301 132.977L155.681 133.906C155.565 134.079 155.341 134.141 155.153 134.053L148.506 130.938L147.424 133.529C147.334 133.743 147.088 133.844 146.874 133.755C146.66 133.666 146.559 133.42 146.648 133.206L148.011 129.945L147.294 129.645L145.931 132.906C145.842 133.12 145.596 133.221 145.382 133.132C145.168 133.042 145.067 132.796 145.156 132.582L146.519 129.321L145.503 128.897L144.141 132.158C144.051 132.372 143.805 132.473 143.591 132.383C143.377 132.294 143.276 132.048 143.365 131.834L144.728 128.573L143.712 128.149L142.35 131.41C142.26 131.624 142.014 131.725 141.8 131.635C141.586 131.546 141.485 131.3 141.575 131.086L142.937 127.825L142.309 127.562C142.095 127.473 141.849 127.574 141.759 127.788L140.559 130.662C140.47 130.876 140.224 130.977 140.01 130.887C139.796 130.798 139.694 130.552 139.784 130.338L140.984 127.464C141.253 126.822 141.991 126.519 142.633 126.787L148.722 129.331L156.111 132.355C156.227 132.403 156.316 132.501 156.353 132.621ZM150.867 131.117L155.183 133.139L155.317 132.938L150.867 131.117Z" fill="#727272"/>
<path d="M127.954 142.107H100.03L101.199 122.868H129.137L127.954 142.107Z" fill="#F2F2F2"/>
<path fill-rule="evenodd" clip-rule="evenodd" d="M100.81 122.844C100.823 122.638 100.993 122.478 101.199 122.478H129.137C129.245 122.478 129.347 122.522 129.421 122.601C129.495 122.679 129.533 122.784 129.526 122.892L128.343 142.131C128.33 142.337 128.16 142.497 127.954 142.497H100.029C99.922 142.497 99.8192 142.452 99.7456 142.374C99.6719 142.296 99.6338 142.191 99.6404 142.083L100.81 122.844ZM101.566 123.258L100.444 141.717H127.587L128.723 123.258H101.566Z" fill="#727272"/>
<path d="M119.528 126.172L115.895 125.374L113.501 136.274L117.135 137.071L119.528 126.172Z" fill="#B5B5B5"/>
<path fill-rule="evenodd" clip-rule="evenodd" d="M115.485 125.284C115.534 125.057 115.758 124.914 115.985 124.964L119.618 125.762C119.845 125.811 119.988 126.035 119.938 126.262L117.545 137.162C117.495 137.388 117.271 137.532 117.045 137.482L113.411 136.684C113.185 136.634 113.041 136.41 113.091 136.184L115.485 125.284ZM116.215 125.874L114.002 135.954L116.815 136.571L119.028 126.492L116.215 125.874Z" fill="#727272"/>
<path d="M119.528 126.172L115.895 125.374L115.097 129.007L118.73 129.805L119.528 126.172Z" fill="#F2F2F2"/>
<path fill-rule="evenodd" clip-rule="evenodd" d="M115.485 125.284C115.534 125.057 115.758 124.914 115.985 124.964L119.618 125.762C119.845 125.811 119.988 126.035 119.938 126.262L119.14 129.895C119.091 130.122 118.867 130.265 118.64 130.215L115.007 129.418C114.78 129.368 114.637 129.144 114.687 128.917L115.485 125.284ZM116.215 125.874L115.597 128.687L118.41 129.305L119.028 126.492L116.215 125.874Z" fill="#727272"/>
<path d="M112.675 128.475L110.253 127.943L108.657 135.21L111.079 135.741L112.675 128.475Z" fill="#B5B5B5"/>
<path fill-rule="evenodd" clip-rule="evenodd" d="M109.843 127.853C109.893 127.627 110.117 127.483 110.343 127.533L112.765 128.065C112.992 128.115 113.135 128.339 113.085 128.565L111.49 135.832C111.44 136.058 111.216 136.201 110.989 136.152L108.567 135.62C108.341 135.57 108.197 135.346 108.247 135.12L109.843 127.853ZM110.573 128.443L109.158 134.889L110.759 135.241L112.175 128.795L110.573 128.443Z" fill="#727272"/>
<path d="M112.675 128.475L110.253 127.943L109.721 130.365L112.143 130.897L112.675 128.475Z" fill="#F2F2F2"/>
<path fill-rule="evenodd" clip-rule="evenodd" d="M109.843 127.853C109.893 127.627 110.117 127.483 110.343 127.533L112.765 128.065C112.992 128.115 113.135 128.339 113.085 128.565L112.554 130.987C112.504 131.214 112.28 131.357 112.053 131.307L109.631 130.776C109.404 130.726 109.261 130.502 109.311 130.275L109.843 127.853ZM110.573 128.443L110.221 130.045L111.823 130.397L112.175 128.795L110.573 128.443Z" fill="#727272"/>
<path d="M127.954 142.106H100.03L100.218 138.947H128.156L127.954 142.106Z" fill="white"/>
<path fill-rule="evenodd" clip-rule="evenodd" d="M99.8285 138.924C99.8408 138.718 100.011 138.557 100.218 138.557H128.156C128.263 138.557 128.366 138.602 128.44 138.68C128.514 138.759 128.552 138.864 128.545 138.972L128.343 142.131C128.33 142.336 128.16 142.496 127.954 142.496H100.029C99.9221 142.496 99.8194 142.452 99.7457 142.374C99.6721 142.295 99.634 142.19 99.6403 142.083L99.8285 138.924ZM100.585 139.337L100.443 141.717H127.588L127.74 139.337H100.585Z" fill="#727272"/>
<path d="M94.5808 142.107H66.6562L67.8259 122.868H95.764L94.5808 142.107Z" fill="#F2F2F2"/>
<path fill-rule="evenodd" clip-rule="evenodd" d="M67.4368 122.844C67.4493 122.638 67.6197 122.478 67.8258 122.478H95.7639C95.8714 122.478 95.9742 122.522 96.0479 122.601C96.1215 122.679 96.1596 122.784 96.153 122.892L94.9698 142.131C94.9572 142.337 94.7867 142.497 94.5807 142.497H66.6562C66.5487 142.497 66.446 142.452 66.3723 142.374C66.2986 142.296 66.2606 142.191 66.2671 142.083L67.4368 122.844ZM68.1927 123.258L67.0704 141.717H94.2142L95.3494 123.258H68.1927Z" fill="#727272"/>
<path d="M78.8346 129.479C78.8346 129.479 77.3345 132.312 76.6153 133.636C75.896 134.96 75.4862 135.283 75.7113 135.585C75.9353 135.886 77.3086 136.578 77.6572 136.504C78.0059 136.43 77.842 135.879 77.8689 135.276C77.8959 134.672 79.4241 131.491 79.8317 130.912C80.2393 130.332 80.5245 130.256 81.0001 130.062C81.4745 129.869 80.7402 129.345 80.1024 129.178C79.4657 129.009 78.7678 129.22 78.8335 129.48L78.8346 129.479Z" fill="#B5B5B5"/>
<path fill-rule="evenodd" clip-rule="evenodd" d="M79.7226 128.699C79.8826 128.706 80.0475 128.729 80.2094 128.772C80.5784 128.869 80.9819 129.067 81.2426 129.292C81.3576 129.391 81.5284 129.566 81.5647 129.802C81.5864 129.943 81.5574 130.093 81.4635 130.222C81.3778 130.34 81.2609 130.409 81.1584 130.451M81.1584 130.451C81.1128 130.469 81.0706 130.486 81.0317 130.502C80.8476 130.576 80.732 130.623 80.6162 130.696C80.4915 130.776 80.3558 130.897 80.1752 131.153C79.997 131.407 79.5283 132.311 79.0887 133.261C78.8725 133.728 78.67 134.192 78.5208 134.574C78.446 134.765 78.3865 134.931 78.3455 135.063C78.325 135.129 78.3102 135.184 78.3006 135.226C78.2958 135.247 78.2927 135.264 78.2907 135.277C78.2887 135.289 78.2885 135.295 78.2885 135.295C78.2826 135.425 78.287 135.557 78.293 135.693C78.2938 135.71 78.2946 135.727 78.2954 135.745C78.3007 135.86 78.3066 135.987 78.3035 136.1C78.3002 136.225 78.2861 136.393 78.2127 136.547C78.1253 136.73 77.9658 136.868 77.7442 136.915C77.6218 136.941 77.4992 136.927 77.4105 136.912C77.3128 136.895 77.2092 136.867 77.1071 136.833C76.9024 136.766 76.6728 136.669 76.4541 136.563C76.2347 136.456 76.0164 136.336 75.8344 136.22C75.6707 136.115 75.4816 135.98 75.3746 135.836M79.7226 128.699L80.4023 127.416L78.9192 128.82C78.8234 128.858 78.7302 128.908 78.6499 128.973C78.553 129.052 78.4348 129.192 78.4122 129.379L78.218 129.745C78.0661 130.031 77.8562 130.427 77.6238 130.863C77.1588 131.737 76.6048 132.775 76.2461 133.436C76.0083 133.873 75.8206 134.174 75.6658 134.422C75.5841 134.553 75.5115 134.67 75.4455 134.784C75.3625 134.927 75.2766 135.091 75.244 135.26C75.2045 135.465 75.2453 135.663 75.3746 135.836M79.2058 129.675L78.96 130.139C78.8081 130.425 78.598 130.821 78.3654 131.258C77.9005 132.132 77.3449 133.173 76.9843 133.836C76.7385 134.289 76.5108 134.655 76.3481 134.917C76.2751 135.034 76.2153 135.131 76.1727 135.204C76.1273 135.283 76.1013 135.335 76.0865 135.369C76.0925 135.374 76.0992 135.379 76.1067 135.385C76.1517 135.421 76.2124 135.464 76.2872 135.512C76.4366 135.608 76.6254 135.712 76.8209 135.807C77.0171 135.902 77.2102 135.983 77.368 136.035C77.4034 136.046 77.4355 136.056 77.4641 136.064C77.4655 135.987 77.4615 135.898 77.4563 135.785C77.4555 135.768 77.4547 135.75 77.4539 135.731C77.4477 135.592 77.4417 135.428 77.4493 135.257C77.4553 135.123 77.4971 134.963 77.543 134.815C77.5924 134.655 77.6598 134.469 77.7385 134.268C77.8961 133.865 78.1062 133.384 78.3264 132.908C78.7596 131.972 79.2588 130.996 79.4882 130.67C79.7152 130.347 79.9259 130.14 80.1646 129.988C80.2798 129.915 80.3997 129.856 80.5181 129.805C80.3692 129.716 80.1792 129.632 79.9957 129.584L79.9948 129.584C79.748 129.519 79.4879 129.529 79.3105 129.575C79.2873 129.581 79.2668 129.587 79.2491 129.593L79.2058 129.675ZM80.8458 129.671C80.8458 129.671 80.8453 129.671 80.8443 129.672L80.8458 129.671Z" fill="#727272"/>
<path d="M81.3439 125.632C79.9878 124.732 78.2882 124.886 77.5495 125.974C76.8095 127.064 77.3087 128.676 78.6636 129.574C79.2323 129.951 79.8615 130.143 80.4546 130.157C81.2055 130.177 81.9487 130.298 82.6331 130.589C82.996 130.744 83.3519 130.917 83.6104 131.087C84.4027 131.613 85.6751 132.784 85.6751 132.784L86.1867 132.032L86.4937 131.58L87.0054 130.827C87.0054 130.827 85.426 130.108 84.6337 129.582C84.3753 129.409 84.0784 129.15 83.7981 128.877C83.2659 128.361 82.8704 127.728 82.5682 127.049C82.3294 126.511 81.9126 126.009 81.3439 125.632Z" fill="#B5B5B5"/>
<path fill-rule="evenodd" clip-rule="evenodd" d="M77.2019 125.738C78.1136 124.395 80.1002 124.303 81.5761 125.282C82.2083 125.701 82.6791 126.264 82.9518 126.878C83.2388 127.522 83.6067 128.107 84.0903 128.575L84.091 128.576C84.3641 128.842 84.6395 129.081 84.8664 129.232C85.2387 129.479 85.8106 129.78 86.3036 130.026C86.5473 130.147 86.7668 130.252 86.9253 130.327C87.0045 130.364 87.0683 130.394 87.1123 130.414L87.1625 130.437L87.1754 130.443L87.1785 130.444L87.1794 130.445L87.6327 130.651L86.8411 131.816L86.534 132.268L85.7486 133.423L85.3905 133.093L85.3872 133.09L85.3769 133.081L85.3361 133.043C85.3004 133.011 85.2484 132.964 85.1834 132.906C85.0533 132.789 84.8718 132.628 84.6659 132.451C84.2497 132.093 83.7511 131.684 83.3788 131.437C83.152 131.288 82.8237 131.127 82.4687 130.976M85.5982 132.15C85.4871 132.052 85.356 131.937 85.2135 131.814C84.7958 131.455 84.2624 131.016 83.8425 130.737L83.8413 130.736C83.5511 130.545 83.1678 130.361 82.7975 130.203C82.0514 129.886 81.2528 129.758 80.4653 129.738C79.954 129.725 79.4008 129.559 78.8957 129.224M85.5982 132.15L85.8392 131.796L86.1462 131.344L86.3812 130.998C86.2488 130.935 86.0947 130.86 85.9296 130.778C85.435 130.532 84.8214 130.211 84.4014 129.932L84.4003 129.931C84.1106 129.738 83.7925 129.458 83.5053 129.178C82.9247 128.615 82.5019 127.933 82.1844 127.219C81.9794 126.758 81.6167 126.317 81.1118 125.982C79.8755 125.162 78.4626 125.376 77.8969 126.21C77.333 127.04 77.6618 128.406 78.8957 129.224M77.2019 125.738C76.2859 127.087 76.9555 128.945 78.4314 129.924C79.0634 130.343 79.769 130.561 80.4437 130.577C81.158 130.596 81.8459 130.711 82.4687 130.976" fill="#727272"/>
<path d="M94.5808 142.106H66.6562L66.8445 138.947H94.7825L94.5808 142.106Z" fill="white"/>
<path fill-rule="evenodd" clip-rule="evenodd" d="M66.4553 138.924C66.4675 138.718 66.6381 138.557 66.8444 138.557H94.7824C94.8901 138.557 94.993 138.602 95.0667 138.68C95.1404 138.759 95.1783 138.864 95.1714 138.972L94.9698 142.131C94.9567 142.336 94.7864 142.496 94.5807 142.496H66.6562C66.5488 142.496 66.4461 142.452 66.3725 142.374C66.2988 142.295 66.2607 142.19 66.267 142.083L66.4553 138.924ZM67.2117 139.337L67.0699 141.717H94.215L94.3669 139.337H67.2117Z" fill="#727272"/>
<path fill-rule="evenodd" clip-rule="evenodd" d="M137.333 85.7056C137.333 85.4903 137.508 85.3158 137.723 85.3158H164.868C165.083 85.3158 165.258 85.4903 165.258 85.7056C165.258 85.9209 165.083 86.0954 164.868 86.0954H137.723C137.508 86.0954 137.333 85.9209 137.333 85.7056Z" fill="#727272"/>
<path fill-rule="evenodd" clip-rule="evenodd" d="M137.145 88.8652C137.145 88.6499 137.32 88.4753 137.535 88.4753H164.68C164.895 88.4753 165.069 88.6499 165.069 88.8652C165.069 89.0804 164.895 89.255 164.68 89.255H137.535C137.32 89.255 137.145 89.0804 137.145 88.8652Z" fill="#727272"/>
<path fill-rule="evenodd" clip-rule="evenodd" d="M103.337 85.7056C103.337 85.4903 103.512 85.3158 103.727 85.3158H130.872C131.087 85.3158 131.262 85.4903 131.262 85.7056C131.262 85.9209 131.087 86.0954 130.872 86.0954H103.727C103.512 86.0954 103.337 85.9209 103.337 85.7056Z" fill="#727272"/>
<path fill-rule="evenodd" clip-rule="evenodd" d="M103.149 88.8652C103.149 88.6499 103.323 88.4753 103.539 88.4753H130.684C130.899 88.4753 131.073 88.6499 131.073 88.8652C131.073 89.0804 130.899 89.255 130.684 89.255H103.539C103.323 89.255 103.149 89.0804 103.149 88.8652Z" fill="#727272"/>
<path fill-rule="evenodd" clip-rule="evenodd" d="M69.9639 85.7056C69.9639 85.4903 70.1384 85.3158 70.3537 85.3158H97.4985C97.7138 85.3158 97.8883 85.4903 97.8883 85.7056C97.8883 85.9209 97.7138 86.0954 97.4985 86.0954H70.3537C70.1384 86.0954 69.9639 85.9209 69.9639 85.7056Z" fill="#727272"/>
<path fill-rule="evenodd" clip-rule="evenodd" d="M69.7756 88.8652C69.7756 88.6499 69.9502 88.4753 70.1654 88.4753H97.3103C97.5255 88.4753 97.7001 88.6499 97.7001 88.8652C97.7001 89.0804 97.5255 89.255 97.3103 89.255H70.1654C69.9502 89.255 69.7756 89.0804 69.7756 88.8652Z" fill="#727272"/>
<path fill-rule="evenodd" clip-rule="evenodd" d="M135.505 115.756C135.505 115.54 135.68 115.366 135.895 115.366H163.04C163.255 115.366 163.43 115.54 163.43 115.756C163.43 115.971 163.255 116.145 163.04 116.145H135.895C135.68 116.145 135.505 115.971 135.505 115.756Z" fill="#727272"/>
<path fill-rule="evenodd" clip-rule="evenodd" d="M135.317 118.915C135.317 118.7 135.491 118.525 135.707 118.525H162.838C163.053 118.525 163.228 118.7 163.228 118.915C163.228 119.13 163.053 119.305 162.838 119.305H135.707C135.491 119.305 135.317 119.13 135.317 118.915Z" fill="#727272"/>
<path fill-rule="evenodd" clip-rule="evenodd" d="M101.508 115.756C101.508 115.54 101.683 115.366 101.898 115.366H129.043C129.258 115.366 129.433 115.54 129.433 115.756C129.433 115.971 129.258 116.145 129.043 116.145H101.898C101.683 116.145 101.508 115.971 101.508 115.756Z" fill="#727272"/>
<path fill-rule="evenodd" clip-rule="evenodd" d="M101.32 118.915C101.32 118.7 101.495 118.525 101.71 118.525H128.841C129.057 118.525 129.231 118.7 129.231 118.915C129.231 119.13 129.057 119.305 128.841 119.305H101.71C101.495 119.305 101.32 119.13 101.32 118.915Z" fill="#727272"/>
<path fill-rule="evenodd" clip-rule="evenodd" d="M68.1353 115.756C68.1353 115.54 68.3098 115.366 68.5251 115.366H95.6699C95.8852 115.366 96.0597 115.54 96.0597 115.756C96.0597 115.971 95.8852 116.145 95.6699 116.145H68.5251C68.3098 116.145 68.1353 115.971 68.1353 115.756Z" fill="#727272"/>
<path fill-rule="evenodd" clip-rule="evenodd" d="M67.947 118.915C67.947 118.7 68.1215 118.525 68.3368 118.525H95.4682C95.6835 118.525 95.858 118.7 95.858 118.915C95.858 119.13 95.6835 119.305 95.4682 119.305H68.3368C68.1215 119.305 67.947 119.13 67.947 118.915Z" fill="#727272"/>
<path d="M142.028 57.4899L141.996 50.9044L146.434 50.883L146.439 52.031L143.394 52.0457L143.402 53.6149L146.219 53.6013L146.224 54.7493L143.407 54.7628L143.415 56.3353L146.473 56.3205L146.478 57.4685L142.028 57.4899Z" fill="#63CAE0"/>
<path d="M134.526 52.0884L134.52 50.9404L139.929 50.9144L139.934 52.0623L137.918 52.0721L137.944 57.5096L136.568 57.5162L136.542 52.0787L134.526 52.0884Z" fill="#63CAE0"/>
<path d="M132.448 50.9504L132.48 57.536L131.087 57.5427L131.056 50.9572L132.448 50.9504Z" fill="#63CAE0"/>
<path d="M127.526 52.8683C127.5 52.609 127.388 52.408 127.192 52.2653C126.997 52.1226 126.732 52.0521 126.397 52.0537C126.17 52.0548 125.978 52.0879 125.822 52.1529C125.666 52.2159 125.546 52.3033 125.463 52.4151C125.382 52.527 125.342 52.6537 125.343 52.7952C125.339 52.9131 125.364 53.0159 125.418 53.1035C125.474 53.1911 125.551 53.2669 125.648 53.3307C125.744 53.3924 125.856 53.4465 125.983 53.4931C126.109 53.5375 126.245 53.5754 126.388 53.6069L126.981 53.7455C127.268 53.8085 127.532 53.8929 127.773 53.999C128.014 54.105 128.222 54.2358 128.399 54.3915C128.575 54.5471 128.712 54.7308 128.81 54.9426C128.91 55.1544 128.961 55.3974 128.965 55.6718C128.964 56.0748 128.863 56.4248 128.661 56.7216C128.461 57.0162 128.17 57.246 127.79 57.4107C127.411 57.5733 126.954 57.6559 126.418 57.6585C125.886 57.6611 125.423 57.5818 125.027 57.4208C124.634 57.2598 124.327 57.0201 124.104 56.7017C123.884 56.3812 123.767 55.9841 123.754 55.5104L125.102 55.5039C125.118 55.7246 125.182 55.9087 125.294 56.0561C125.408 56.2013 125.56 56.311 125.749 56.3851C125.94 56.4571 126.156 56.4925 126.396 56.4913C126.632 56.4902 126.836 56.4549 127.01 56.3855C127.185 56.316 127.321 56.22 127.417 56.0973C127.513 55.9746 127.56 55.834 127.559 55.6754C127.559 55.5274 127.514 55.4033 127.426 55.303C127.339 55.2027 127.213 55.1175 127.045 55.0476C126.88 54.9776 126.677 54.9143 126.436 54.8576L125.718 54.6809C125.162 54.5486 124.723 54.3395 124.4 54.0538C124.077 53.7681 123.916 53.3819 123.915 52.8953C123.911 52.4966 124.016 52.1477 124.229 51.8487C124.444 51.5497 124.74 51.3156 125.116 51.1466C125.493 50.9776 125.921 50.8919 126.401 50.8896C126.89 50.8873 127.317 50.9688 127.682 51.1343C128.05 51.2997 128.336 51.5309 128.541 51.8279C128.746 52.1249 128.853 52.4696 128.861 52.8618L127.526 52.8683Z" fill="#63CAE0"/>
<path d="M116.813 57.6114L116.781 51.0259L119.418 51.0132C119.903 51.0108 120.307 51.0807 120.631 51.2228C120.956 51.3649 121.2 51.563 121.364 51.8174C121.528 52.0695 121.611 52.3607 121.613 52.6908C121.614 52.9481 121.564 53.1745 121.462 53.3701C121.36 53.5635 121.219 53.7228 121.04 53.848C120.862 53.9711 120.659 54.0589 120.43 54.1114L120.43 54.1757C120.681 54.1852 120.916 54.2549 121.135 54.3846C121.357 54.5143 121.537 54.6967 121.675 54.9318C121.813 55.1648 121.883 55.4432 121.885 55.7669C121.887 56.1163 121.801 56.4287 121.629 56.7039C121.459 56.977 121.206 57.1936 120.87 57.3539C120.534 57.5142 120.12 57.5955 119.627 57.5978L116.813 57.6114ZM118.2 56.4664L119.335 56.4609C119.723 56.459 120.006 56.3837 120.183 56.2349C120.36 56.084 120.448 55.8842 120.447 55.6356C120.446 55.4533 120.401 55.2928 120.313 55.1539C120.224 55.0149 120.098 54.9062 119.935 54.8277C119.774 54.7491 119.582 54.7104 119.359 54.7115L118.191 54.7171L118.2 56.4664ZM118.187 53.7749L119.219 53.77C119.41 53.769 119.579 53.735 119.727 53.6678C119.876 53.5985 119.994 53.5015 120.079 53.3767C120.166 53.252 120.21 53.1028 120.209 52.9291C120.208 52.6912 120.122 52.4997 119.952 52.3548C119.784 52.2098 119.546 52.138 119.237 52.1395L118.179 52.1446L118.187 53.7749Z" fill="#63CAE0"/>
<path d="M110.091 57.6439L110.06 51.0583L114.497 51.037L114.503 52.1849L111.457 52.1996L111.465 53.7688L114.282 53.7552L114.287 54.9032L111.471 54.9168L111.478 56.4892L114.536 56.4745L114.542 57.6224L110.091 57.6439Z" fill="#63CAE0"/>
<path d="M101.014 57.6875L99.0981 51.1111L100.619 51.1038L101.731 55.6743L101.786 55.674L102.966 51.0924L104.269 51.0862L105.49 55.6658L105.548 55.6655L106.616 51.0749L108.137 51.0675L106.285 57.6621L104.928 57.6687L103.653 53.369L103.601 53.3693L102.371 57.681L101.014 57.6875Z" fill="#63CAE0"/>
<path d="M88.1028 51.1641L89.6623 51.1565L91.1777 53.9855L91.242 53.9852L92.73 51.1418L94.2896 51.1343L91.908 55.4033L91.9193 57.7314L90.5366 57.738L90.5253 55.4099L88.1028 51.1641Z" fill="#63CAE0"/>
<path d="M79.0256 51.2078L80.7428 51.1995L82.5777 55.6154L82.6548 55.615L84.4471 51.1816L86.1642 51.1734L86.196 57.7589L84.8454 57.7654L84.8248 53.479L84.7701 53.4793L83.0863 57.7417L82.1667 57.7462L80.4418 53.4841L80.3872 53.4843L80.4079 57.7868L79.0574 57.7933L79.0256 51.2078Z" fill="#63CAE0"/>
<path d="M122.64 165.135V177.24H100.8V165.135C100.8 161.148 104.476 157.92 109.017 157.92H114.409C118.95 157.92 122.626 161.148 122.626 165.135H122.64Z" fill="white"/>
<path fill-rule="evenodd" clip-rule="evenodd" d="M109.017 158.34C104.655 158.34 101.22 161.429 101.22 165.135V176.82H122.22V165.244C122.21 165.209 122.205 165.173 122.205 165.135C122.205 161.429 118.77 158.34 114.408 158.34H109.017ZM123.045 165.022C122.976 160.807 119.087 157.5 114.408 157.5H109.017C104.297 157.5 100.38 160.866 100.38 165.135V177.24C100.38 177.472 100.568 177.66 100.8 177.66H122.64C122.872 177.66 123.06 177.472 123.06 177.24V165.135C123.06 165.096 123.055 165.058 123.045 165.022Z" fill="#727272"/>
<path d="M79.8 174.72C79.8 172.864 81.3044 171.36 83.16 171.36H147C148.856 171.36 150.36 172.864 150.36 174.72C150.36 176.576 148.856 178.08 147 178.08H83.16C81.3044 178.08 79.8 176.576 79.8 174.72Z" fill="white"/>
<path fill-rule="evenodd" clip-rule="evenodd" d="M79.3801 174.72C79.3801 172.632 81.0725 170.94 83.1601 170.94H147C149.088 170.94 150.78 172.632 150.78 174.72C150.78 176.808 149.088 178.5 147 178.5H83.1601C81.0725 178.5 79.3801 176.808 79.3801 174.72ZM83.1601 171.78C81.5364 171.78 80.2201 173.096 80.2201 174.72C80.2201 176.344 81.5364 177.66 83.1601 177.66H147C148.624 177.66 149.94 176.344 149.94 174.72C149.94 173.096 148.624 171.78 147 171.78H83.1601Z" fill="#727272"/>
<path d="M68.04 174.72C68.04 172.864 69.5444 171.36 71.4 171.36H131.88C133.736 171.36 135.24 172.864 135.24 174.72C135.24 176.576 133.736 178.08 131.88 178.08H71.4C69.5444 178.08 68.04 176.576 68.04 174.72Z" fill="#DDDDDD"/>
<path fill-rule="evenodd" clip-rule="evenodd" d="M67.6201 174.72C67.6201 172.632 69.3125 170.94 71.4001 170.94H131.88C133.968 170.94 135.66 172.632 135.66 174.72C135.66 176.808 133.968 178.5 131.88 178.5H71.4001C69.3125 178.5 67.6201 176.808 67.6201 174.72ZM71.4001 171.78C69.7764 171.78 68.4601 173.096 68.4601 174.72C68.4601 176.344 69.7764 177.66 71.4001 177.66H131.88C133.504 177.66 134.82 176.344 134.82 174.72C134.82 173.096 133.504 171.78 131.88 171.78H71.4001Z" fill="#727272"/>
</svg>
