<svg width="240" height="190" viewBox="0 0 240 190" fill="none" xmlns="http://www.w3.org/2000/svg">
<path opacity="0.7" d="M49.9675 75.5358C63.2588 62.2608 74.5124 73.3983 79.2518 55.5708C89.9613 15.2997 134.379 15.6934 140.222 44.3396C150.747 95.9545 196.58 63.1758 196.239 100.147C195.875 139.616 166.83 170.358 114.739 173.429C68.0394 176.182 27.9481 97.5333 49.9675 75.5358Z" fill="#EDEDED"/>
<path d="M92.5497 49.6898C90.7449 48.079 88.8735 48.7849 87.9141 49.3534C87.7194 48.2591 87.0402 46.383 84.6369 46.0609C82.0294 45.715 79.9016 48.2496 80.5997 51.779C81.1032 54.3183 82.3993 56.1878 83.2685 57.2869C83.373 57.4196 83.826 57.9899 83.9067 58.0847C84.0302 58.0847 84.8265 58.0941 84.9927 58.0847C86.3986 58.0278 88.5553 57.7388 90.8161 56.4692C93.9604 54.7068 94.5018 51.4379 92.545 49.6898H92.5497Z" fill="#F27292"/>
<path fill-rule="evenodd" clip-rule="evenodd" d="M81.1783 47.3171C81.9995 46.2179 83.2703 45.6275 84.6697 45.8131L84.6701 45.8131C85.9397 45.9833 86.7689 46.569 87.3022 47.2656C87.7318 47.8268 87.9634 48.4517 88.0893 48.9715C88.567 48.727 89.1938 48.495 89.9007 48.4548C90.7776 48.405 91.7623 48.652 92.7161 49.5033C92.7266 49.5127 92.7362 49.5228 92.7448 49.5335C93.7702 50.4707 94.1365 51.8051 93.8373 53.1293C93.5355 54.4649 92.5622 55.777 90.9385 56.6872C88.6329 57.982 86.4345 58.2764 85.0047 58.3344C84.8638 58.3421 84.3389 58.3379 84.0642 58.3358C83.9877 58.3352 83.9306 58.3347 83.9067 58.3347C83.8334 58.3347 83.7639 58.3026 83.7164 58.2469C83.6317 58.1475 83.1756 57.5731 83.0723 57.442C83.0722 57.4419 83.0722 57.4417 83.0721 57.4416L83.2685 57.2869L83.0724 57.442C83.0723 57.442 83.0723 57.442 83.0723 57.442C82.1931 56.3301 80.8692 54.4237 80.3545 51.8277L80.3544 51.8276C79.9939 50.0048 80.3589 48.4141 81.1783 47.3171ZM92.3517 49.8485C91.5112 49.1118 90.6696 48.912 89.929 48.954C89.1702 48.9971 88.5021 49.2956 88.0415 49.5685C87.971 49.6103 87.8844 49.6149 87.8099 49.5807C87.7353 49.5465 87.6823 49.478 87.6679 49.3973C87.5744 48.8716 87.3664 48.1721 86.9052 47.5696C86.4494 46.9741 85.7373 46.4607 84.6038 46.3087C83.3958 46.1485 82.299 46.6525 81.5789 47.6164C80.8571 48.5826 80.5074 50.0239 80.8449 51.7305M92.3517 49.8485C92.3598 49.8583 92.3687 49.8676 92.3784 49.8763C93.2845 50.6857 93.6147 51.8455 93.3496 53.0191C93.0838 54.1955 92.2142 55.399 90.6938 56.2511L90.6937 56.2512C88.4787 57.4952 86.3646 57.779 84.9826 57.8349L84.9826 57.8349L84.9785 57.8351C84.8599 57.8419 84.3864 57.8382 84.1032 57.836C84.0753 57.8358 84.0491 57.8356 84.0254 57.8354C83.8723 57.6462 83.5523 57.2432 83.4648 57.1322L83.4646 57.1319C82.6054 56.0455 81.3372 54.2131 80.8449 51.7306" fill="#727272"/>
<path fill-rule="evenodd" clip-rule="evenodd" d="M82.629 59.8476L82.6281 59.8492L82.6244 59.8563C82.621 59.8628 82.6157 59.8728 82.6088 59.8863C82.5949 59.9132 82.5744 59.9538 82.5486 60.007C82.4969 60.1135 82.424 60.2705 82.3405 60.4696C82.287 60.5969 82.1405 60.6568 82.0132 60.6034C81.8859 60.55 81.826 60.4034 81.8794 60.2761C81.9668 60.0678 82.0435 59.9026 82.0987 59.7888C82.1263 59.7319 82.1486 59.6878 82.1641 59.6576C82.1719 59.6425 82.178 59.6309 82.1822 59.6228L82.1872 59.6134L82.1886 59.6108L82.1891 59.61L82.4092 59.7286L82.1893 59.6095C82.255 59.4881 82.4068 59.443 82.5282 59.5087C82.6496 59.5744 82.6947 59.7262 82.629 59.8476Z" fill="#727272"/>
<path fill-rule="evenodd" clip-rule="evenodd" d="M81.7196 61.4482C81.8505 61.4923 81.9208 61.6341 81.8767 61.7649C81.2237 63.7038 81.327 67.5919 84.3498 70.1155C86.2931 71.3478 87.9377 71.6837 89.2554 71.492C89.0281 71.1603 88.8203 70.8191 88.6334 70.4738C87.799 68.9316 87.3551 67.2646 87.4458 65.909C87.4913 65.2296 87.6722 64.6133 88.022 64.1327C88.3755 63.6467 88.8903 63.3158 89.5662 63.1965L89.5664 63.1965C90.5002 63.0324 91.286 63.1147 91.9205 63.3915C92.5566 63.6689 93.0233 64.1343 93.328 64.705C93.933 65.8382 93.898 67.3762 93.3389 68.736C92.7807 70.0936 91.6844 71.3134 90.1084 71.809C91.8498 74.006 94.4744 75.4767 97.4735 74.4993C97.6048 74.4565 97.7459 74.5282 97.7887 74.6595C97.8315 74.7908 97.7597 74.9319 97.6285 74.9747C94.2718 76.0687 91.4035 74.3357 89.5816 71.9433C88.0694 72.2424 86.2108 71.8912 84.068 70.5288C84.0591 70.5231 84.0505 70.5169 84.0423 70.5101C80.8085 67.8213 80.7015 63.6878 81.4029 61.6053C81.447 61.4745 81.5888 61.4041 81.7196 61.4482ZM89.7874 71.382C89.8366 71.3687 89.8853 71.3546 89.9334 71.3398C91.3551 70.902 92.3604 69.8009 92.8765 68.5458C93.3949 67.2849 93.4039 65.9088 92.887 64.9405C92.6307 64.4605 92.245 64.0784 91.7206 63.8498C91.1947 63.6204 90.512 63.538 89.6529 63.689C89.1 63.7865 88.7009 64.0494 88.4263 64.4268C88.1477 64.8096 87.9859 65.3264 87.9447 65.9423C87.8621 67.1772 88.269 68.7496 89.0732 70.2358C89.286 70.6291 89.5248 71.0136 89.7874 71.382Z" fill="#727272"/>
<path fill-rule="evenodd" clip-rule="evenodd" d="M99.0616 74.0522C99.1285 74.173 99.0849 74.3251 98.9641 74.3921C98.743 74.5146 98.5212 74.6228 98.2988 74.7165C98.1715 74.7701 98.0249 74.7103 97.9713 74.5831C97.9177 74.4559 97.9774 74.3093 98.1047 74.2557C98.3097 74.1693 98.5154 74.069 98.7218 73.9547C98.8425 73.8878 98.9947 73.9314 99.0616 74.0522Z" fill="#727272"/>
<path d="M86.6935 160.325C86.6935 160.325 81.4072 163.911 79.2794 163.674C79.0134 163.646 78.8092 163.565 78.6525 163.409C77.2608 161.978 76.1494 159.472 76.1494 159.472C76.1494 159.472 76.8096 158.558 78.8519 160.983L80.1486 159.794L77.4698 157.108C77.4698 157.108 78.9754 155.914 81.5355 157.435C81.45 157.25 79.7971 153.669 81.0415 148.789L74.8005 142.791L80.3243 137.992L80.7518 137.623C80.7518 137.623 81.0985 137.964 81.6637 138.494C82.2099 139.011 82.9556 139.698 83.7725 140.408C85.7199 142.114 88.0757 143.966 89.0968 143.947C90.9872 143.909 86.6935 160.32 86.6935 160.32V160.325Z" fill="white"/>
<mask id="mask0_1594_14090" style="mask-type:luminance" maskUnits="userSpaceOnUse" x="74" y="137" width="16" height="27">
<path d="M86.6935 160.325C86.6935 160.325 81.4072 163.911 79.2794 163.674C79.0134 163.646 78.8092 163.565 78.6525 163.409C77.2608 161.978 76.1494 159.472 76.1494 159.472C76.1494 159.472 76.8096 158.558 78.8519 160.983L80.1486 159.794L77.4698 157.108C77.4698 157.108 78.9754 155.914 81.5355 157.435C81.45 157.25 79.7971 153.669 81.0415 148.789L74.8005 142.791L80.3243 137.992L80.7518 137.623C80.7518 137.623 81.0985 137.964 81.6637 138.494C82.2099 139.011 82.9556 139.698 83.7725 140.408C85.7199 142.114 88.0757 143.966 89.0968 143.947C90.9872 143.909 86.6935 160.32 86.6935 160.32V160.325Z" fill="white"/>
</mask>
<g mask="url(#mask0_1594_14090)">
<path d="M82.6089 157.975C82.6089 157.975 79.5976 161.073 79.2794 163.674C79.0134 163.646 78.8092 163.565 78.6525 163.409C77.2608 161.978 76.1494 159.472 76.1494 159.472C76.1494 159.472 76.8096 158.558 78.8519 160.983L80.1486 159.794L77.4698 157.108C77.4698 157.108 78.9754 155.914 81.5355 157.435C81.45 157.25 79.7971 153.669 81.0415 148.789L74.8005 142.791L80.3243 137.992L81.659 138.494C82.2052 139.011 82.9509 139.698 83.7678 140.408C82.5994 142.119 80.0963 145.653 80.0963 145.653L82.2574 148.581C82.2574 148.581 80.9465 155.962 82.6041 157.97L82.6089 157.975Z" fill="#F2F2F2"/>
</g>
<path fill-rule="evenodd" clip-rule="evenodd" d="M80.5883 137.433C80.6868 137.348 80.8343 137.353 80.9271 137.444L80.9427 137.46L80.9892 137.505C81.0303 137.545 81.0909 137.604 81.1693 137.679C81.3259 137.83 81.5531 138.048 81.8348 138.312L81.8355 138.313C82.3797 138.827 83.1228 139.512 83.9366 140.22L83.9373 140.22C84.9084 141.071 85.9764 141.953 86.9256 142.62C87.4006 142.953 87.8404 143.229 88.2199 143.418C88.6079 143.613 88.9007 143.701 89.0922 143.697C89.1157 143.697 89.1391 143.7 89.1618 143.706C89.7966 143.877 90.2248 144.304 90.4848 144.889C90.7406 145.464 90.8366 146.196 90.8269 147.008C90.8073 148.633 90.3615 150.669 89.7846 152.648C89.2063 154.63 88.4906 156.574 87.9201 158.02C87.6348 158.744 87.3854 159.343 87.2073 159.763C87.1183 159.972 87.047 160.137 86.9979 160.249C86.9734 160.305 86.9544 160.348 86.9415 160.378L86.9328 160.397C86.9164 160.451 86.8819 160.499 86.8339 160.532L86.6935 160.325C86.8339 160.532 86.834 160.532 86.8339 160.532L86.8297 160.534L86.8179 160.542L86.7725 160.573C86.7328 160.599 86.6744 160.638 86.5994 160.687C86.4495 160.786 86.2334 160.926 85.9674 161.093C85.4357 161.427 84.7038 161.871 83.9042 162.308C83.1056 162.744 82.2343 163.176 81.4246 163.484C80.6256 163.789 79.8481 163.989 79.2525 163.923C78.9492 163.89 78.6848 163.794 78.4759 163.586L78.4732 163.583C77.7545 162.844 77.1161 161.837 76.661 161.026C76.4324 160.619 76.2478 160.256 76.1203 159.996C76.0565 159.866 76.0069 159.76 75.9731 159.688C75.9563 159.651 75.9433 159.623 75.9346 159.604L75.9245 159.581L75.9219 159.576L75.9212 159.574L75.921 159.574C75.921 159.574 75.9209 159.573 76.1494 159.472C75.9467 159.326 75.9469 159.325 75.9471 159.325L75.9476 159.325L75.9484 159.323L75.9505 159.321L75.9554 159.314C75.9591 159.31 75.9637 159.304 75.9691 159.298C75.9799 159.285 75.9943 159.27 76.0126 159.253C76.0491 159.22 76.1013 159.18 76.1709 159.144C76.3139 159.071 76.5156 159.025 76.7785 159.072C77.2601 159.157 77.9325 159.551 78.8733 160.624L79.7875 159.786L77.2928 157.285C77.219 157.21 77.199 157.098 77.2428 157.003L77.4698 157.108C77.2428 157.003 77.2427 157.004 77.2428 157.003L77.2432 157.002L77.2437 157.001L77.245 156.999L77.2486 156.991C77.2515 156.985 77.2553 156.978 77.2602 156.969C77.2698 156.951 77.2836 156.927 77.3018 156.899C77.3382 156.842 77.393 156.766 77.4696 156.685C77.6234 156.521 77.8656 156.333 78.2209 156.224C78.8385 156.035 79.7395 156.102 81.0297 156.829C80.5834 155.528 79.8557 152.575 80.7638 148.869L74.6273 142.971C74.5767 142.923 74.5489 142.855 74.5506 142.785C74.5524 142.715 74.5836 142.649 74.6366 142.602L80.1604 137.803L80.1608 137.803L80.5883 137.433ZM77.7909 157.076L80.3256 159.618C80.3737 159.666 80.4 159.732 80.3985 159.8C80.397 159.868 80.3678 159.932 80.3176 159.978L79.0209 161.168C78.9707 161.214 78.9039 161.237 78.8359 161.233C78.7679 161.228 78.7046 161.196 78.6607 161.144C77.6489 159.943 77.0217 159.623 76.6911 159.564C76.5919 159.547 76.5191 159.552 76.4676 159.565C76.4955 159.624 76.5295 159.695 76.5694 159.776C76.6937 160.03 76.874 160.384 77.0971 160.782C77.5454 161.581 78.1579 162.541 78.8302 163.233C78.9347 163.337 79.0784 163.401 79.306 163.426L79.3071 163.426C79.7753 163.478 80.4562 163.318 81.2465 163.017C82.0265 162.72 82.8756 162.3 83.6646 161.869C84.4525 161.439 85.1752 161 85.7012 160.67C85.9641 160.504 86.1775 160.366 86.3251 160.269C86.3966 160.222 86.4527 160.185 86.4913 160.159C86.5034 160.132 86.5197 160.095 86.5398 160.049C86.5882 159.938 86.6588 159.775 86.7471 159.567C86.9238 159.151 87.1715 158.555 87.455 157.837C88.0224 156.398 88.7322 154.47 89.3046 152.508C89.8783 150.54 90.3082 148.557 90.3269 147.002C90.3363 146.223 90.2421 145.574 90.0279 145.092C89.8227 144.63 89.5108 144.327 89.0625 144.197C88.7513 144.192 88.3816 144.059 87.9961 143.866C87.5858 143.66 87.1234 143.369 86.6384 143.029C85.6677 142.348 84.5843 141.451 83.6081 140.597C82.7883 139.883 82.0403 139.194 81.4923 138.676C81.2089 138.41 80.9803 138.192 80.8223 138.039C80.793 138.011 80.7661 137.985 80.7418 137.962L80.9153 137.812L80.7518 137.623L80.5765 137.801L80.5929 137.817L80.6403 137.863C80.6665 137.889 80.7005 137.922 80.7418 137.962L80.4883 138.181L80.3243 137.992L80.4878 138.181L75.171 142.8L74.9738 142.611L74.8005 142.791L74.9645 142.98L75.171 142.8L81.2147 148.609C81.2796 148.671 81.306 148.763 81.2838 148.851C80.0599 153.65 81.6874 157.168 81.7624 157.33C81.8094 157.432 81.7831 157.552 81.6979 157.625C81.6128 157.698 81.4896 157.705 81.3965 157.643C79.8149 156.585 78.8784 156.546 78.3671 156.702C78.1089 156.781 77.9389 156.916 77.834 157.027C77.8182 157.044 77.8039 157.06 77.7909 157.076ZM76.1494 159.472L75.9467 159.326C75.8947 159.398 75.8849 159.492 75.921 159.574L76.1494 159.472Z" fill="#727272"/>
<path fill-rule="evenodd" clip-rule="evenodd" d="M81.7185 157.269C81.8152 157.368 81.8138 157.526 81.7153 157.623C81.2788 158.051 80.9457 158.612 80.7199 159.074C80.6078 159.304 80.5239 159.506 80.4682 159.65C80.4404 159.722 80.4197 159.779 80.4061 159.818C80.3993 159.837 80.3942 159.852 80.391 159.862L80.3875 159.872L80.3867 159.875C80.3867 159.875 80.3867 159.875 80.3867 159.875C80.3867 159.875 80.3866 159.875 80.1485 159.799L79.9104 159.723C79.8683 159.854 79.9408 159.995 80.0723 160.037C80.2038 160.079 80.3446 160.006 80.3867 159.875M80.1485 159.799C79.9104 159.723 79.9104 159.723 79.9104 159.723L79.9106 159.722L79.911 159.721L79.9122 159.717L79.9168 159.703C79.9208 159.691 79.9266 159.674 79.9342 159.653C79.9494 159.609 79.9719 159.547 80.0019 159.469C80.0616 159.315 80.1511 159.1 80.2706 158.855C80.5079 158.369 80.8706 157.752 81.365 157.266C81.4635 157.169 81.6217 157.171 81.7185 157.269" fill="#727272"/>
<path d="M178.798 118.55C178.047 119.687 177.026 120.757 175.805 121.766C175.805 121.766 175.805 121.766 175.801 121.766C166.078 129.797 143.665 133.762 143.665 133.762C143.665 133.762 142.914 134.885 141.76 136.481C139.689 139.352 136.294 143.758 133.524 145.966C132.356 146.904 131.297 147.444 130.499 147.297L134.702 162.789L136.568 170.168C136.568 170.168 108.719 180.205 87.0259 165.785C87.0259 165.785 83.8199 164.006 84.1002 163.087C84.1144 163.044 84.1287 162.997 84.1429 162.954C84.4516 162.215 85.4396 161.329 85.4396 161.329C85.4396 161.329 85.2543 158.563 85.1593 155.744C85.0833 153.555 85.2781 150.799 85.4396 149.814C85.6723 148.393 86.5035 145.497 87.0259 143.81C87.2112 143.213 87.3346 142.834 87.3346 142.834L85.6913 127.466L85.2163 123.041C85.2163 123.041 85.2068 122.96 85.1926 122.809C85.1926 122.776 85.1926 122.742 85.1831 122.7L84.9218 120.326L76.4201 122.918C76.4201 122.918 76.8713 123.908 77.4792 125.305C78.5954 127.854 80.2387 131.739 80.6045 133.274C80.633 133.402 80.671 133.52 80.7137 133.643C81.5021 135.884 84.4991 137.917 84.4991 137.917L76.4486 147.302L74.069 145.644C74.069 145.644 73.7223 145.914 73.1096 146.245C71.5422 147.093 68.2602 148.339 64.6743 146.435C63.3634 145.738 62.0145 144.625 60.6941 142.924C54.3487 134.728 51.6224 128.053 52.5153 120.198C53.4082 112.339 88.7785 88.1727 95.7937 88.4238L106.233 90.7263C106.457 90.5415 107.069 90.0583 107.539 90.0819C109.439 90.1767 109.487 92.3796 109.487 92.3796L132.879 96.1697C132.879 96.1697 135.301 94.9569 135.724 94.9805C136.759 95.0327 137.201 95.9186 137.201 95.9186C137.201 95.9186 145.197 91.5364 147.149 92.3796C153.556 95.1369 183.533 111.368 178.798 118.545V118.55Z" fill="#DDDDDD"/>
<path opacity="0.1" d="M97.5272 156.9C97.5272 156.9 93.8937 161.348 87.401 162.376C86.1709 162.571 85.088 162.77 84.1428 162.964C84.4515 162.225 85.4395 161.339 85.4395 161.339C85.4395 161.339 85.2542 158.572 85.1592 155.753C87.9045 157.544 92.6874 159.629 97.5272 156.9Z" fill="black"/>
<path opacity="0.1" d="M87.0307 143.824C87.2159 143.227 87.3394 142.848 87.3394 142.848L85.696 127.48C88.1563 130.995 96.9241 142.981 102.97 144.274C109.287 145.625 92.393 148.008 87.0354 143.824H87.0307Z" fill="black"/>
<path opacity="0.1" d="M134.698 162.803C128.096 162.054 118.758 160.396 117.822 156.947C116.369 151.565 123.446 148.334 133.515 145.975C132.347 146.913 131.287 147.453 130.49 147.306L134.693 162.798L134.698 162.803Z" fill="black"/>
<path opacity="0.1" d="M175.801 121.771C166.078 129.801 143.665 133.766 143.665 133.766C143.665 133.766 142.915 134.889 141.76 136.486C139.865 132.07 137.134 122.936 140.331 111.708C140.331 111.708 142.06 121.037 149.227 123.254C149.227 123.254 143.741 119.179 145.655 109.363C145.655 109.363 147.526 120.913 159.709 124.102C165.637 125.651 171.422 123.936 175.806 121.766L175.801 121.771Z" fill="black"/>
<path opacity="0.1" d="M85.1927 122.823L84.922 120.34L76.4202 122.932C76.4202 122.932 76.8714 123.922 77.4794 125.319C74.2259 124.983 68.0609 127.996 66.9827 124.718C65.6861 120.757 73.6702 122.122 73.6702 122.122L81.203 117.749C79.7782 111.671 83.4021 107.104 83.4021 107.104L84.0908 111.344C84.4233 103.285 87.5818 98.8745 87.5818 98.8745C84.9552 105.246 85.0265 120.932 85.1927 122.823Z" fill="black"/>
<path opacity="0.1" d="M84.4991 137.926L76.4486 147.311L74.069 145.653C74.069 145.653 73.7223 145.923 73.1096 146.255C71.5422 147.103 68.2603 148.348 64.6743 146.444C67.2818 142.843 72.6726 137.542 79.0846 135.496C79.0846 135.496 76.4438 139.347 74.8052 142.787L76.4581 144.412C76.4581 144.412 80.5855 139.717 84.4991 137.921V137.926Z" fill="black"/>
<path opacity="0.1" d="M104.053 96.5864C104.053 97.4108 103.531 106.805 110.38 109.288C117.229 111.77 123.318 107.559 123.318 107.559C123.318 107.559 112.812 117.664 106.423 112.263C100.035 106.862 104.053 96.5864 104.053 96.5864Z" fill="black"/>
<path d="M154.076 120.103C164.81 127.176 173.464 125.869 180.237 116.768C180.237 116.768 185.875 109.52 185.476 101.693C185.077 93.867 183.205 68.3554 158.764 74.879C154.741 75.9544 147.601 83.8079 144.093 92.2592C143.732 93.832 140.43 101.532 136.773 109.828" fill="#DDDDDD"/>
<path fill-rule="evenodd" clip-rule="evenodd" d="M181.355 82.7851C184.958 89.3816 185.526 97.7697 185.725 101.681C185.928 105.654 184.599 109.467 183.231 112.275C182.545 113.681 181.848 114.841 181.321 115.65C181.058 116.054 180.837 116.371 180.681 116.587C180.604 116.695 180.542 116.778 180.5 116.835C180.479 116.863 180.463 116.884 180.452 116.899L180.439 116.915L180.437 116.917C180.437 116.918 180.436 116.919 180.436 116.919C177.023 121.505 173.112 124.157 168.675 124.749C164.242 125.34 159.334 123.867 153.939 120.312C153.823 120.236 153.791 120.081 153.867 119.966C153.943 119.85 154.098 119.819 154.214 119.895C159.552 123.412 164.338 124.823 168.609 124.253C172.875 123.684 176.677 121.133 180.036 116.619L180.039 116.615L180.039 116.615L180.04 116.615L180.04 116.614L180.043 116.61L180.054 116.595C180.065 116.582 180.08 116.562 180.1 116.535C180.14 116.481 180.2 116.401 180.275 116.296C180.427 116.085 180.643 115.774 180.902 115.377C181.42 114.582 182.107 113.44 182.781 112.056C184.132 109.284 185.422 105.559 185.226 101.706C185.026 97.7906 184.459 89.5098 180.916 83.0248C179.148 79.7884 176.647 77.0133 173.092 75.4447C169.537 73.8765 164.898 73.5004 158.828 75.1205C157.871 75.3766 156.702 76.0452 155.423 77.056C154.148 78.0637 152.78 79.3986 151.424 80.9666C148.717 84.0986 146.074 88.1448 144.332 92.336C144.232 92.7557 143.953 93.5406 143.544 94.5919C143.126 95.6676 142.564 97.0392 141.9 98.6193C140.571 101.78 138.831 105.78 137.002 109.929C136.946 110.055 136.799 110.112 136.672 110.056C136.546 110.001 136.489 109.853 136.545 109.727C138.373 105.58 140.112 101.582 141.439 98.4256C142.102 96.8471 142.662 95.4803 143.078 94.4106C143.497 93.3342 143.764 92.5754 143.849 92.2032C143.852 92.1896 143.857 92.1762 143.862 92.1633C145.627 87.91 148.305 83.8114 151.046 80.6396C152.417 79.0534 153.808 77.6951 155.113 76.6637C156.414 75.6355 157.646 74.9192 158.699 74.6375L158.699 74.6374C164.85 72.9958 169.611 73.3623 173.294 74.9873C176.976 76.612 179.55 79.4807 181.355 82.7851Z" fill="#727272"/>
<path d="M125.032 45.1701C125.032 45.1701 131.867 44.1373 136.621 48.3774C142.629 53.7403 149.374 68.1992 139.765 92.1616C139.765 92.1616 125.578 82.7623 101.36 89.049C101.36 89.049 103.088 81.7344 99.7833 65.7357C98.1305 57.734 102.291 39.2909 125.032 45.1701Z" fill="#8E8E8E"/>
<path fill-rule="evenodd" clip-rule="evenodd" d="M125.006 45.6798L124.907 45.6542C119.285 44.2008 114.855 44.2617 111.399 45.2584C107.949 46.2535 105.437 48.1905 103.659 50.5486C100.085 55.2888 99.4698 61.7465 100.273 65.6345C101.932 73.6657 102.33 79.5288 102.311 83.3943C102.301 85.327 102.188 86.76 102.075 87.7147C102.045 87.9679 102.015 88.1875 101.988 88.3737C113.828 85.4322 123.251 86.2127 129.76 87.7614C133.083 88.5517 135.644 89.5415 137.379 90.3366C138.246 90.7342 138.907 91.0831 139.354 91.3341C139.412 91.3672 139.467 91.3985 139.519 91.428C148.747 67.9416 142.059 53.9013 136.288 48.7506M139.954 91.6883C149.285 68.0087 142.59 53.7049 136.621 48.3774C131.867 44.1373 125.032 45.1701 125.032 45.1701C102.291 39.2909 98.1305 57.734 99.7833 65.7357C102.571 79.2313 101.778 86.5476 101.461 88.5066C101.402 88.87 101.36 89.049 101.36 89.049C101.54 89.0023 101.72 88.9565 101.898 88.9115C123.349 83.5153 136.807 90.4294 139.332 91.8979C139.62 92.065 139.765 92.1616 139.765 92.1616C139.829 92.0034 139.892 91.8457 139.954 91.6883ZM125.006 45.6798L125.107 45.6645L125.006 45.6798ZM125.107 45.6645L125.109 45.6642L125.121 45.6625C125.132 45.6609 125.15 45.6586 125.173 45.6555C125.221 45.6495 125.292 45.641 125.386 45.6315C125.573 45.6124 125.849 45.5894 126.196 45.5745C126.89 45.5449 127.866 45.5481 128.985 45.6803C131.231 45.9453 134.015 46.7236 136.288 48.7506" fill="#727272"/>
<path d="M114.664 105.304C124.785 106.938 135.543 95.7623 135.543 95.7623C135.543 95.7623 130.038 95.0848 129.549 92.5076C127.972 84.378 134.322 74.3345 134.322 74.3345C134.322 74.3345 109.748 75.0119 114.042 80.5596C114.944 81.725 115.562 82.8383 115.984 83.8853C117.476 87.5379 116.44 90.2904 115.647 90.9632C115.59 91.0105 115.524 91.0532 115.467 91.0816C113.98 91.7591 107.872 90.75 107.872 90.75C107.872 90.75 105.431 103.807 114.664 105.299V105.304Z" fill="white"/>
<path fill-rule="evenodd" clip-rule="evenodd" d="M134.534 74.4681L134.322 74.3345L134.316 74.0846C134.408 74.082 134.494 74.1306 134.54 74.2108C134.585 74.2911 134.583 74.39 134.534 74.4681ZM135.574 95.5141L135.573 95.5141L135.571 95.5138L135.56 95.5124C135.55 95.5111 135.535 95.5091 135.515 95.5064C135.476 95.501 135.418 95.4926 135.344 95.4811C135.195 95.458 134.982 95.422 134.724 95.3709C134.207 95.2685 133.515 95.1059 132.81 94.8648C132.104 94.6231 131.396 94.3066 130.839 93.9013C130.282 93.4954 129.901 93.0188 129.795 92.461L129.795 92.46C129.02 88.4667 130.192 83.9785 131.577 80.4641C132.268 78.7116 133.008 77.2109 133.575 76.1486C133.859 75.6175 134.099 75.1964 134.268 74.9085C134.353 74.7645 134.419 74.6539 134.465 74.5795C134.488 74.5423 134.505 74.5142 134.517 74.4955L134.53 74.4746L134.533 74.4695L134.534 74.4681L134.322 74.3345C134.316 74.0846 134.316 74.0846 134.316 74.0846L134.297 74.0851L134.244 74.0867C134.198 74.0882 134.129 74.0904 134.039 74.0936C133.859 74.0999 133.596 74.1099 133.264 74.1247C132.599 74.1541 131.654 74.2023 130.533 74.2776C128.293 74.428 125.347 74.6866 122.534 75.1196C119.729 75.5513 117.026 76.1603 115.288 77.0225C114.424 77.4513 113.753 77.9646 113.455 78.592C113.142 79.2502 113.268 79.9678 113.844 80.7126C114.733 81.8603 115.339 82.9538 115.752 83.9789L115.753 83.9798C116.482 85.7663 116.59 87.3231 116.425 88.5071C116.258 89.7044 115.817 90.4905 115.486 90.7716C115.446 90.8053 115.398 90.8362 115.359 90.856C115.207 90.9241 114.98 90.9779 114.683 91.0137C114.387 91.0493 114.038 91.0653 113.652 91.0656C112.883 91.0662 111.989 91.0045 111.136 90.921C110.284 90.8377 109.478 90.7332 108.884 90.6495C108.588 90.6077 108.344 90.5711 108.175 90.5449C108.091 90.5319 108.025 90.5215 107.98 90.5143L107.93 90.5061L107.913 90.5034C107.779 90.4812 107.651 90.5703 107.626 90.704L107.872 90.75C107.626 90.704 107.626 90.7038 107.626 90.704L107.626 90.705L107.626 90.7071L107.624 90.7149L107.619 90.7443C107.614 90.77 107.608 90.8078 107.6 90.8568C107.584 90.9549 107.562 91.0981 107.537 91.2804C107.488 91.645 107.428 92.1664 107.385 92.7965C107.3 94.0552 107.283 95.7539 107.558 97.5037C107.834 99.2519 108.404 101.067 109.507 102.546C110.607 104.02 112.228 105.147 114.576 105.538C114.592 105.544 114.608 105.548 114.624 105.55C119.781 106.383 125.068 103.953 129.036 101.355C131.025 100.052 132.696 98.6986 133.869 97.671C134.455 97.157 134.918 96.7241 135.235 96.4193C135.393 96.2669 135.514 96.1465 135.597 96.064C135.638 96.0227 135.669 95.9908 135.691 95.9692L135.715 95.9445L135.721 95.9381L135.723 95.9363L135.723 95.9359C135.723 95.9357 135.723 95.9356 135.543 95.7623M135.017 95.9339C134.903 95.9141 134.771 95.89 134.627 95.8614C134.096 95.7562 133.381 95.5884 132.649 95.3379C131.918 95.0882 131.158 94.7521 130.545 94.3055C129.933 93.8596 129.442 93.2852 129.304 92.5547C128.501 88.4185 129.716 83.8204 131.112 80.2808C131.811 78.5062 132.56 76.9879 133.134 75.913C133.421 75.3755 133.665 74.9484 133.837 74.6553C133.848 74.6364 133.859 74.618 133.87 74.6001C133.712 74.6061 133.516 74.614 133.286 74.6242C132.624 74.6535 131.683 74.7015 130.567 74.7764C128.333 74.9264 125.404 75.1839 122.61 75.6138C119.808 76.0449 117.173 76.6454 115.51 77.4704C114.674 77.8853 114.13 78.3351 113.906 78.8066C113.697 79.2473 113.742 79.7644 114.239 80.4065C115.155 81.5894 115.784 82.7225 116.216 83.7913C116.978 85.6573 117.098 87.3029 116.92 88.5763C116.744 89.8354 116.271 90.7615 115.809 91.1538L115.807 91.1554C115.735 91.2151 115.652 91.2683 115.578 91.3053C115.577 91.3059 115.576 91.3064 115.575 91.3069C115.573 91.3076 115.572 91.3084 115.57 91.3091C115.35 91.4095 115.062 91.4717 114.743 91.5101C114.421 91.5489 114.05 91.5653 113.653 91.5656C112.859 91.5663 111.947 91.5028 111.087 91.4187C110.226 91.3344 109.413 91.2289 108.815 91.1446C108.515 91.1024 108.27 91.0655 108.099 91.0391C108.092 91.038 108.085 91.0369 108.078 91.0358C108.065 91.1196 108.049 91.2242 108.033 91.3475C107.985 91.7027 107.926 92.213 107.884 92.8303C107.8 94.0663 107.784 95.725 108.052 97.4259C108.321 99.1284 108.871 100.857 109.908 102.247C110.939 103.63 112.461 104.69 114.704 105.052C114.72 105.055 114.735 105.059 114.75 105.064C119.701 105.844 124.833 103.51 128.762 100.937C130.727 99.6499 132.379 98.3117 133.539 97.2949C134.119 96.7867 134.576 96.3592 134.888 96.0592C134.934 96.0146 134.977 95.9728 135.017 95.9339Z" fill="#727272"/>
<path fill-rule="evenodd" clip-rule="evenodd" d="M132.289 98.7634C132.34 98.8917 132.278 99.0371 132.15 99.0882L132.057 98.856C132.15 99.0882 132.149 99.0883 132.149 99.0883L132.149 99.0884L132.148 99.0888L132.145 99.09L132.134 99.0944C132.124 99.0982 132.11 99.1037 132.091 99.1108C132.053 99.1249 131.998 99.1452 131.926 99.1707C131.782 99.2216 131.569 99.2934 131.293 99.3774C130.742 99.5455 129.936 99.7631 128.916 99.963C126.89 100.36 124.016 100.688 120.602 100.418L117.586 101.895C117.462 101.955 117.312 101.904 117.251 101.78C117.19 101.656 117.242 101.506 117.366 101.446L120.443 99.939C120.484 99.9193 120.529 99.9108 120.574 99.9144C123.964 100.189 126.817 99.8649 128.82 99.4723C129.822 99.276 130.611 99.0628 131.148 98.8991C131.416 98.8173 131.622 98.7479 131.76 98.6992C131.829 98.6749 131.88 98.6557 131.915 98.6428C131.932 98.6364 131.945 98.6315 131.953 98.6283L131.962 98.6247L131.964 98.6239L131.964 98.6238C131.964 98.6238 131.964 98.6238 131.964 98.6238C132.093 98.5727 132.238 98.6352 132.289 98.7634Z" fill="#727272"/>
<path fill-rule="evenodd" clip-rule="evenodd" d="M107.462 94.6168C107.584 94.5529 107.735 94.6004 107.799 94.7228C108.543 96.1489 110.135 97.2609 111.581 98.0236C112.298 98.4019 112.968 98.6883 113.459 98.88C113.704 98.9758 113.904 99.0479 114.042 99.0958C114.111 99.1197 114.164 99.1376 114.2 99.1495C114.218 99.1554 114.232 99.1598 114.241 99.1627L114.251 99.1659L114.253 99.1666L114.254 99.1667C114.254 99.1667 114.254 99.1667 114.179 99.4054C114.105 99.644 114.105 99.644 114.105 99.644L114.104 99.6436L114.1 99.6426L114.089 99.6389C114.078 99.6356 114.064 99.6308 114.044 99.6245C114.02 99.6164 113.988 99.6057 113.949 99.5926C113.927 99.5852 113.904 99.5771 113.878 99.5682C113.734 99.5184 113.528 99.4441 113.277 99.3457C112.773 99.149 112.086 98.855 111.348 98.4658C109.883 97.6935 108.174 96.5221 107.356 94.9541C107.292 94.8317 107.339 94.6807 107.462 94.6168Z" fill="#727272"/>
<path d="M115.647 90.9678C123.175 92.9291 126.709 83.3025 126.709 83.3025C126.709 83.3025 120.686 81.5117 115.984 83.8899C117.476 87.5426 116.44 90.2951 115.647 90.9678Z" fill="#727272"/>
<path fill-rule="evenodd" clip-rule="evenodd" d="M104.748 90.0757C105.032 90.0577 105.143 89.9939 105.174 89.9553C105.391 89.6842 105.612 89.4822 105.852 89.3742C106.104 89.261 106.359 89.2601 106.612 89.3556C106.853 89.4467 107.086 89.6227 107.321 89.8487C107.557 90.0767 107.812 90.3713 108.093 90.7189L107.704 91.0333C107.426 90.6898 107.188 90.4146 106.974 90.2088C106.758 90.0011 106.583 89.8793 106.435 89.8234C106.298 89.7717 106.181 89.7745 106.057 89.8304C105.921 89.8916 105.759 90.024 105.564 90.2676C105.389 90.4863 105.079 90.5558 104.78 90.5747C104.462 90.5948 104.069 90.5621 103.635 90.4971C102.764 90.3666 101.676 90.0976 100.591 89.8053C100.081 89.6678 99.5751 89.5262 99.0896 89.3903C98.5321 89.2343 98.0016 89.0859 97.5225 88.9598C97.0778 88.8428 96.6884 88.7481 96.3775 88.6882C96.0536 88.6258 95.8526 88.6093 95.7623 88.6236C95.6468 88.6418 95.3753 88.7184 94.954 88.8602C94.54 88.9995 93.9981 89.196 93.3518 89.4454C92.0595 89.944 90.3548 90.6524 88.4309 91.5336C84.5815 93.2967 79.8638 95.7475 75.8188 98.5899C75.5912 98.7499 75.3618 98.911 75.131 99.0732C71.2399 101.806 66.9202 104.841 63.2365 107.728C61.2856 109.257 59.517 110.741 58.0872 112.115C56.654 113.492 55.5756 114.745 54.9903 115.809C53.7813 118.007 53.1816 119.244 52.8887 120.357C52.5972 121.465 52.6057 122.462 52.6498 124.201C52.6925 125.887 53.5436 128.749 54.6855 131.648C55.8241 134.538 57.2331 137.419 58.3617 139.133C58.5002 139.344 58.6459 139.57 58.7994 139.808C59.9246 141.555 61.4667 143.95 63.662 145.529C64.9023 146.421 66.3439 147.046 68.0296 147.142C69.7156 147.238 71.667 146.807 73.9289 145.552L74.1716 145.989C71.8443 147.281 69.7995 147.744 68.001 147.641C66.2023 147.539 64.6713 146.871 63.37 145.935C61.091 144.296 59.4943 141.813 58.3744 140.073C58.2223 139.836 58.079 139.613 57.944 139.408C56.789 137.653 55.3654 134.738 54.2203 131.831C53.0787 128.933 52.1951 125.997 52.1499 124.214C52.1062 122.484 52.0928 121.417 52.4051 120.23C52.716 119.049 53.346 117.761 54.5522 115.568C55.1747 114.436 56.2975 113.141 57.7408 111.754C59.1875 110.364 60.9705 108.868 62.9281 107.334C66.6225 104.439 70.9523 101.397 74.8406 98.6661C75.0725 98.5032 75.3028 98.3414 75.5313 98.1808C79.6107 95.3142 84.3584 92.8489 88.2227 91.079C90.1556 90.1937 91.8697 89.4814 93.1718 88.9789C93.8228 88.7277 94.3718 88.5285 94.7945 88.3863C95.2098 88.2465 95.5205 88.1556 95.6843 88.1297C95.8734 88.0999 96.1576 88.1367 96.4721 88.1973C96.7998 88.2604 97.2021 88.3585 97.6497 88.4763C98.1265 88.6017 98.6674 88.753 99.232 88.9109C99.7195 89.0473 100.225 89.1886 100.722 89.3225C101.805 89.6146 102.869 89.8767 103.709 90.0026C104.13 90.0657 104.483 90.0925 104.748 90.0757Z" fill="#727272"/>
<path fill-rule="evenodd" clip-rule="evenodd" d="M79.7747 121.444C81.5709 120.972 83.6263 120.494 84.7228 120.241L84.8352 120.728C83.7389 120.981 81.6899 121.458 79.9018 121.928C79.007 122.163 78.182 122.395 77.5755 122.595C77.2712 122.696 77.0288 122.786 76.862 122.863C76.7964 122.893 76.7476 122.919 76.7135 122.94C76.7215 122.973 76.7346 123.016 76.7537 123.071C76.8009 123.204 76.8767 123.38 76.9758 123.592C77.1692 124.004 77.4399 124.526 77.7288 125.083L77.748 125.12C78.0427 125.689 78.354 126.29 78.6127 126.834C78.8691 127.373 79.0831 127.875 79.1742 128.239C79.3392 128.899 79.7977 130.206 80.2357 131.449L80.2677 131.54C80.474 132.126 80.6729 132.69 80.8289 133.153C80.9898 133.631 81.1139 134.025 81.1461 134.218C81.1499 134.241 81.1789 134.312 81.2729 134.443C81.3602 134.564 81.4837 134.709 81.6359 134.872C81.9398 135.199 82.3413 135.58 82.755 135.958C83.0248 136.205 83.2961 136.448 83.5471 136.672C83.6814 136.792 83.8098 136.907 83.9291 137.015C84.0989 137.168 84.2501 137.306 84.37 137.421C84.4854 137.531 84.5853 137.632 84.6416 137.707C84.7158 137.806 84.7044 137.917 84.6959 137.966C84.6857 138.025 84.6636 138.084 84.6401 138.137C84.5922 138.244 84.5153 138.374 84.4204 138.518C84.2288 138.809 83.9397 139.194 83.5874 139.637C82.8816 140.524 81.9067 141.662 80.9111 142.788C79.9151 143.914 78.8959 145.03 78.1005 145.872C77.703 146.293 77.36 146.647 77.1031 146.9C76.9749 147.026 76.866 147.13 76.7812 147.204C76.7391 147.241 76.7 147.274 76.6658 147.3C76.6426 147.317 76.5888 147.357 76.5264 147.375C76.3955 147.412 76.2624 147.375 76.1709 147.34C76.0685 147.302 75.9579 147.242 75.8471 147.175C75.6248 147.041 75.3663 146.853 75.1148 146.668C75.0843 146.646 75.0539 146.623 75.0237 146.601C74.7997 146.436 74.583 146.276 74.3908 146.149C74.2821 146.077 74.1866 146.02 74.1065 145.979C74.0215 145.936 73.974 145.923 73.9563 145.921L74.0115 145.424C74.1203 145.436 74.2327 145.483 74.3322 145.533C74.4366 145.586 74.5501 145.655 74.6663 145.732C74.8702 145.867 75.0985 146.035 75.3207 146.199C75.351 146.221 75.3812 146.243 75.4112 146.266C75.6658 146.453 75.9062 146.627 76.1056 146.747C76.2057 146.808 76.2865 146.849 76.3476 146.872C76.3632 146.878 76.3755 146.882 76.3849 146.885C76.402 146.871 76.4239 146.853 76.4507 146.829C76.5252 146.764 76.6266 146.668 76.7522 146.544C77.0029 146.297 77.3412 145.948 77.737 145.529C78.5281 144.692 79.5436 143.58 80.5365 142.457C81.5299 141.334 82.4982 140.202 83.1962 139.325C83.5459 138.886 83.8238 138.515 84.0027 138.243C84.0906 138.11 84.1491 138.008 84.1811 137.938C84.1437 137.899 84.0918 137.847 84.0243 137.782C83.9101 137.673 83.7635 137.539 83.5943 137.386C83.4779 137.281 83.3509 137.168 83.2173 137.048C82.9649 136.822 82.689 136.576 82.4174 136.327C82.0018 135.947 81.5881 135.555 81.27 135.213C81.1112 135.043 80.972 134.88 80.8674 134.735C80.7695 134.599 80.6773 134.446 80.6529 134.3C80.6288 134.156 80.5211 133.805 80.3551 133.313C80.2002 132.853 80.0024 132.292 79.7956 131.705L79.7641 131.615C79.3307 130.385 78.8614 129.049 78.6891 128.36C78.6115 128.05 78.4179 127.588 78.1612 127.049C77.9068 126.514 77.5997 125.92 77.3041 125.35L77.2816 125.307C76.9954 124.755 76.7208 124.225 76.5231 123.804C76.4218 123.588 76.3377 123.394 76.2822 123.237C76.2545 123.159 76.2318 123.083 76.2182 123.015C76.2061 122.955 76.1942 122.869 76.2152 122.785C76.233 122.714 76.2727 122.662 76.3022 122.631C76.3335 122.597 76.3693 122.569 76.4034 122.545C76.4716 122.498 76.558 122.452 76.6533 122.409C76.8456 122.32 77.1088 122.223 77.4186 122.121C78.0402 121.915 78.8773 121.68 79.7747 121.444ZM76.3507 146.91C76.3507 146.91 76.3514 146.91 76.3527 146.909C76.3513 146.91 76.3507 146.91 76.3507 146.91Z" fill="#727272"/>
<path fill-rule="evenodd" clip-rule="evenodd" d="M87.0439 101.075C87.4753 99.2206 87.9142 97.7254 88.3155 96.9053L88.7646 97.125C88.3912 97.8882 87.9627 99.3322 87.5308 101.188C87.1008 103.036 86.6724 105.27 86.294 107.599C85.5367 112.261 84.9837 117.28 85.0172 120.323C85.0506 123.37 85.7216 128.743 86.3791 133.497C86.5914 135.032 86.8018 136.5 86.9884 137.801C87.0905 138.512 87.1854 139.174 87.2696 139.771C87.3886 140.613 87.4862 141.324 87.5521 141.857C87.585 142.123 87.6101 142.347 87.626 142.521C87.6413 142.688 87.6499 142.827 87.6442 142.913C87.6337 143.07 87.584 143.271 87.5164 143.492C87.4473 143.717 87.3536 143.98 87.2456 144.267C87.1293 144.577 86.9923 144.925 86.8489 145.29C86.7287 145.595 86.6039 145.912 86.4828 146.228C86.214 146.93 85.9563 147.643 85.7785 148.279C85.5981 148.924 85.5104 149.454 85.5543 149.805C85.6069 150.226 85.632 151.122 85.6414 152.219C85.6509 153.322 85.6446 154.646 85.632 155.935C85.615 157.662 85.5869 159.321 85.5701 160.312C85.5617 160.804 85.5562 161.132 85.5562 161.222C85.5562 161.461 85.4034 161.659 85.2668 161.805C85.1677 161.911 85.0415 162.025 84.9171 162.138C84.8639 162.186 84.8109 162.234 84.7606 162.281C84.3981 162.618 84.1004 162.962 84.0735 163.393L83.5745 163.362C83.6149 162.715 84.0584 162.251 84.4201 161.915C84.4843 161.855 84.5448 161.8 84.6017 161.749C84.717 161.644 84.817 161.554 84.9013 161.464C85.0321 161.324 85.0562 161.252 85.0562 161.222C85.0562 161.132 85.0618 160.8 85.0702 160.302C85.0871 159.305 85.1152 157.644 85.132 155.931C85.1446 154.643 85.1509 153.322 85.1415 152.223C85.1319 151.118 85.1065 150.254 85.0581 149.867C85.0009 149.409 85.1153 148.794 85.297 148.144C85.4813 147.485 85.7459 146.754 86.016 146.049C86.1415 145.722 86.2668 145.403 86.3865 145.099C86.5275 144.741 86.6608 144.402 86.7775 144.092C86.8843 143.807 86.9738 143.555 87.0384 143.345C87.1044 143.13 87.1389 142.975 87.1453 142.88C87.148 142.839 87.1439 142.739 87.1281 142.566C87.1129 142.4 87.0885 142.183 87.0558 141.918C86.9906 141.39 86.8935 140.683 86.7745 139.841C86.6906 139.246 86.5958 138.585 86.4938 137.874C86.3071 136.572 86.0963 135.102 85.8838 133.566C85.2276 128.82 84.5511 123.413 84.5172 120.329C84.4833 117.241 85.042 112.188 85.8005 107.519C86.1801 105.182 86.6107 102.936 87.0439 101.075Z" fill="#727272"/>
<path d="M134.75 69.2701C136.583 59.0181 135.099 49.3887 119.458 50.4072C102.559 51.5077 107.82 60.6857 108.561 64.3336C109.805 70.4687 108.024 72.8848 109.938 78.0393C111.315 81.744 113.264 84.7537 117.03 86.3076C122.391 88.3341 129.981 81.8293 130.675 78.8257" fill="white"/>
<path fill-rule="evenodd" clip-rule="evenodd" d="M133.872 55.4853C136.018 59.1297 135.914 64.1796 134.996 69.314C134.972 69.4499 134.842 69.5404 134.706 69.5161C134.57 69.4918 134.48 69.3619 134.504 69.226C135.419 64.1084 135.49 59.2176 133.441 55.739C131.412 52.2919 127.246 50.1505 119.474 50.6566L119.458 50.4072L119.474 50.6566C115.268 50.9305 112.471 51.7057 110.646 52.7513C108.831 53.7913 107.972 55.1005 107.637 56.4743C107.299 57.8607 107.487 59.3379 107.817 60.715C107.981 61.3961 108.177 62.0458 108.357 62.6445L108.362 62.6607C108.543 63.2594 108.71 63.814 108.806 64.2838L108.806 64.2838C109.376 67.0955 109.317 69.1388 109.264 70.9952C109.258 71.1853 109.253 71.3735 109.248 71.5603C109.198 73.5627 109.231 75.4184 110.172 77.952C111.538 81.625 113.45 84.5586 117.122 86.0749C119.686 87.042 122.831 85.9792 125.465 84.2441C126.775 83.3813 127.94 82.364 128.818 81.3803C129.702 80.3892 130.272 79.4579 130.431 78.7693C130.462 78.6348 130.596 78.5509 130.731 78.582C130.866 78.6131 130.949 78.7473 130.918 78.8818C130.731 79.695 130.092 80.7032 129.191 81.7132C128.283 82.7306 127.085 83.776 125.74 84.6616C123.067 86.4224 119.738 87.5985 116.942 86.5413L116.935 86.5386C113.076 84.9467 111.092 81.8616 109.704 78.1263L109.704 78.1262C108.73 75.5054 108.697 73.5758 108.748 71.5478C108.753 71.3603 108.758 71.172 108.764 70.9822C108.817 69.1286 108.874 67.1368 108.316 64.3833C108.226 63.9411 108.066 63.4109 107.884 62.8051L107.877 62.7839C107.697 62.1882 107.498 61.5268 107.331 60.8316C106.995 59.4275 106.785 57.8575 107.151 56.3558C107.521 54.8416 108.47 53.4218 110.398 52.3175C112.316 51.2187 115.198 50.434 119.442 50.1576C127.311 49.6452 131.708 51.8092 133.872 55.4853Z" fill="#727272"/>
<path fill-rule="evenodd" clip-rule="evenodd" d="M115.454 70.2361C115.565 70.3173 115.59 70.4737 115.509 70.5853C115.377 70.7656 115.232 70.9344 115.093 71.0943C115.088 71.1001 115.083 71.1059 115.078 71.1116C114.933 71.2796 114.796 71.4387 114.676 71.607C114.441 71.9376 114.276 72.2929 114.278 72.7665C114.279 73.1987 114.55 73.5561 114.866 73.8233C115.021 73.9538 115.177 74.0543 115.294 74.1223C115.353 74.1561 115.401 74.1814 115.434 74.198C115.451 74.2062 115.463 74.2123 115.471 74.2161L115.48 74.2202L115.482 74.2208L115.482 74.2209C115.608 74.277 115.665 74.4247 115.609 74.5508C115.553 74.677 115.405 74.7338 115.279 74.6778L115.38 74.4493C115.279 74.6778 115.279 74.6778 115.278 74.6777L115.278 74.6776L115.278 74.6774L115.276 74.6768L115.272 74.6749L115.258 74.6685C115.247 74.663 115.23 74.6552 115.21 74.6449C115.169 74.6245 115.112 74.5945 115.044 74.5552C114.909 74.4769 114.727 74.3599 114.544 74.2053C114.185 73.9021 113.779 73.4184 113.778 72.7679C113.776 72.1588 113.994 71.7031 114.269 71.3166C114.405 71.1265 114.557 70.9505 114.7 70.7846C114.703 70.7809 114.706 70.7772 114.71 70.7735C114.852 70.6089 114.986 70.4541 115.105 70.291C115.186 70.1794 115.342 70.1548 115.454 70.2361Z" fill="#727272"/>
<path d="M121.874 66.8066C121.983 67.7967 122.648 68.5358 123.365 68.4553C124.082 68.3795 124.576 67.5125 124.467 66.5223C124.358 65.5322 123.693 64.7931 122.975 64.8737C122.258 64.9495 121.764 65.8164 121.874 66.8066Z" fill="#727272"/>
<path fill-rule="evenodd" clip-rule="evenodd" d="M122.606 77.6268C122.721 77.703 122.753 77.8581 122.676 77.9732L122.468 77.8354C122.676 77.9732 122.677 77.9731 122.676 77.9732L122.675 77.9748L122.673 77.9782L122.665 77.9904C122.658 78.0009 122.647 78.016 122.634 78.0353C122.607 78.0738 122.567 78.1294 122.515 78.1988C122.412 78.3375 122.26 78.532 122.064 78.7578C121.672 79.2085 121.102 79.7879 120.389 80.2961C118.961 81.3135 116.929 82.0644 114.634 80.8712C114.512 80.8075 114.464 80.6566 114.528 80.5341C114.592 80.4116 114.743 80.3639 114.865 80.4276C116.93 81.5015 118.756 80.8454 120.098 79.8889C120.77 79.4103 121.312 78.8611 121.686 78.4299C121.873 78.2147 122.017 78.03 122.115 77.8998C122.163 77.8346 122.2 77.7832 122.224 77.7485C122.236 77.7311 122.246 77.7179 122.251 77.7093L122.258 77.6998L122.259 77.6978C122.259 77.6978 122.259 77.6977 122.259 77.6978C122.335 77.5827 122.491 77.5507 122.606 77.6268Z" fill="#727272"/>
<path d="M124.795 51.6418C124.795 51.6418 123.807 63.7888 134.555 68.2041L139.59 56.5261L131.971 48.1076L120.491 44.8008C103.341 45.8667 95.9551 56.4977 105.478 84.8233C105.478 84.8233 102.813 51.0922 124.795 51.6465V51.6418Z" fill="#8E8E8E"/>
<path d="M132.204 68.7206C132.057 67.3562 135.519 63.8789 136.688 66.1103C138.682 69.9145 137.229 73.2307 135.163 74.5288C134.237 75.1115 133.064 76.2012 132.242 75.1731" fill="white"/>
<path fill-rule="evenodd" clip-rule="evenodd" d="M132.541 68.2129C132.465 68.4149 132.44 68.5769 132.453 68.6938C132.467 68.8311 132.368 68.9544 132.231 68.9692C132.094 68.984 131.97 68.8847 131.955 68.7474C131.931 68.5233 131.982 68.2782 132.072 68.0375C132.164 67.7939 132.301 67.5377 132.47 67.2846C132.807 66.7789 133.282 66.2659 133.8 65.8686C134.314 65.4751 134.899 65.1739 135.456 65.1355C135.74 65.1159 136.02 65.1644 136.276 65.3078C136.531 65.4513 136.745 65.6803 136.909 65.9943C138.961 69.9079 137.478 73.3693 135.296 74.7404C135.158 74.8276 135.019 74.9226 134.872 75.023C134.776 75.0893 134.675 75.158 134.57 75.2282C134.314 75.3981 134.039 75.5675 133.761 75.6852C133.483 75.8027 133.183 75.8777 132.88 75.8357C132.569 75.7925 132.287 75.6296 132.047 75.3292C131.961 75.2214 131.978 75.064 132.086 74.9778C132.194 74.8916 132.351 74.9092 132.437 75.017C132.608 75.2306 132.78 75.317 132.949 75.3405C133.127 75.3651 133.331 75.3241 133.566 75.2248C133.8 75.1258 134.043 74.9777 134.293 74.8116C134.385 74.7507 134.48 74.6856 134.576 74.6202C134.73 74.5144 134.886 74.4079 135.03 74.3172L135.03 74.3171C136.98 73.0921 138.404 69.921 136.466 66.2263L136.466 66.2262C136.338 65.9824 136.188 65.8319 136.031 65.7438C135.874 65.6557 135.694 65.6203 135.491 65.6343C135.075 65.663 134.584 65.898 134.105 66.2655C133.63 66.6291 133.193 67.1018 132.886 67.5621C132.733 67.792 132.615 68.0139 132.541 68.2129Z" fill="#727272"/>
<path d="M111.406 67.2568C111.515 68.2469 112.18 68.986 112.897 68.9054C113.614 68.8296 114.108 67.9627 113.999 66.9725C113.89 65.9824 113.225 65.2433 112.507 65.3239C111.79 65.3997 111.296 66.2666 111.406 67.2568Z" fill="#727272"/>
<g opacity="0.2">
<path fill-rule="evenodd" clip-rule="evenodd" d="M103.997 65.0147C104.133 65.036 104.226 65.1638 104.205 65.3002C104.078 66.117 103.989 66.9379 103.942 67.7632C103.934 67.901 103.816 68.0064 103.678 67.9986C103.54 67.9907 103.435 67.8726 103.443 67.7347C103.491 66.8924 103.582 66.0552 103.711 65.2233C103.732 65.0869 103.86 64.9935 103.997 65.0147Z" fill="white"/>
<path fill-rule="evenodd" clip-rule="evenodd" d="M104.085 63.3508C106.037 54.5457 114.228 48.9539 123.02 49.1841C123.158 49.1877 123.267 49.3025 123.264 49.4405C123.26 49.5786 123.145 49.6875 123.007 49.6839C114.425 49.4593 106.467 54.9154 104.573 63.4591C104.543 63.5939 104.409 63.6789 104.275 63.649C104.14 63.6191 104.055 63.4856 104.085 63.3508Z" fill="white"/>
<path fill-rule="evenodd" clip-rule="evenodd" d="M121.517 46.7127C121.517 46.7128 121.518 46.7128 121.461 46.9541L121.517 46.7127C121.652 46.7442 121.735 46.8788 121.704 47.0133C121.672 47.1477 121.538 47.2311 121.403 47.1996L121.402 47.1992L121.396 47.1978L121.37 47.1921C121.347 47.187 121.313 47.1794 121.267 47.1699C121.176 47.1508 121.042 47.1238 120.868 47.0921C120.521 47.0288 120.018 46.9473 119.4 46.875C118.163 46.7304 116.468 46.6235 114.629 46.7725C110.943 47.0712 106.74 48.3912 104.451 52.4281C104.383 52.5483 104.231 52.5904 104.11 52.5223C103.99 52.4542 103.948 52.3017 104.016 52.1816C106.425 47.9326 110.835 46.5783 114.588 46.2741C116.469 46.1217 118.199 46.2312 119.458 46.3784C120.088 46.4521 120.601 46.5353 120.958 46.6002C121.136 46.6327 121.275 46.6606 121.37 46.6806C121.417 46.6905 121.454 46.6985 121.479 46.704L121.507 46.7104L121.515 46.7121L121.517 46.7127Z" fill="white"/>
<path fill-rule="evenodd" clip-rule="evenodd" d="M131.478 61.1981C131.59 61.1174 131.747 61.1427 131.827 61.2547C132.581 62.3007 133.458 63.2623 134.479 64.045C134.589 64.1289 134.609 64.2859 134.525 64.3955C134.442 64.5051 134.285 64.5258 134.175 64.4419C133.107 63.6233 132.197 62.6235 131.422 61.5471C131.341 61.435 131.366 61.2788 131.478 61.1981Z" fill="white"/>
<path fill-rule="evenodd" clip-rule="evenodd" d="M126.614 48.3298C126.75 48.3065 126.88 48.3979 126.903 48.534C127.569 52.4191 128.852 56.3544 130.847 59.7436C130.917 59.8626 130.878 60.0158 130.759 60.0859C130.64 60.1559 130.487 60.1163 130.417 59.9973C128.384 56.5456 127.084 52.5502 126.41 48.6184C126.387 48.4823 126.478 48.3531 126.614 48.3298Z" fill="white"/>
<path fill-rule="evenodd" clip-rule="evenodd" d="M139.302 85.9295C139.437 85.9597 139.522 86.0934 139.492 86.2281C139.267 87.2292 139.004 88.2205 138.708 89.2018C138.668 89.334 138.529 89.4088 138.397 89.369C138.264 89.3291 138.19 89.1896 138.229 89.0574C138.522 88.0869 138.782 87.1073 139.004 86.1187C139.034 85.9839 139.168 85.8992 139.302 85.9295Z" fill="white"/>
<path fill-rule="evenodd" clip-rule="evenodd" d="M138.418 69.4304C138.544 69.3736 138.692 69.4295 138.749 69.5554C140.812 74.1239 140.666 79.7835 139.826 84.5396C139.802 84.6756 139.673 84.7664 139.537 84.7424C139.401 84.7184 139.31 84.5887 139.334 84.4527C140.167 79.7338 140.295 74.1939 138.293 69.7612C138.236 69.6353 138.292 69.4873 138.418 69.4304Z" fill="white"/>
<path fill-rule="evenodd" clip-rule="evenodd" d="M136.999 77.2509C137.136 77.234 137.261 77.3313 137.278 77.4683L137.03 77.499C137.278 77.4683 137.278 77.4684 137.278 77.4686L137.278 77.469L137.278 77.4701L137.278 77.4738L137.28 77.4865C137.281 77.4973 137.283 77.513 137.284 77.5332C137.288 77.5736 137.293 77.6323 137.298 77.7079C137.307 77.859 137.315 78.0779 137.312 78.353C137.305 78.9031 137.252 79.6793 137.066 80.5899C136.695 82.4117 135.793 84.7743 133.674 86.9359C133.578 87.0345 133.419 87.0361 133.321 86.9394C133.222 86.8428 133.221 86.6845 133.317 86.5859C135.355 84.5074 136.22 82.239 136.576 80.49C136.755 79.6152 136.805 78.8709 136.812 78.3469C136.815 78.085 136.807 77.8784 136.799 77.7384C136.794 77.6684 136.79 77.615 136.787 77.5798C136.785 77.5622 136.784 77.5491 136.783 77.5407L136.782 77.5316L136.781 77.5298L136.781 77.5298C136.781 77.5297 136.781 77.5297 136.781 77.5296M136.999 77.2509C136.862 77.2679 136.765 77.3927 136.781 77.5296L136.999 77.2509Z" fill="white"/>
<path fill-rule="evenodd" clip-rule="evenodd" d="M131.1 49.8251C131.211 49.7428 131.368 49.7661 131.45 49.877C132.236 50.9369 132.949 52.0276 133.655 53.1061C133.911 53.4976 134.166 53.8875 134.423 54.2737C135.391 55.7291 136.395 57.1422 137.615 58.439L137.615 58.439C140.218 61.2052 142.871 64.4223 143.371 68.4047C143.389 68.5417 143.291 68.6667 143.154 68.6839C143.017 68.7012 142.892 68.604 142.875 68.4671C142.397 64.661 139.854 61.5488 137.251 58.7816C136.002 57.4537 134.98 56.0125 134.007 54.5508C133.745 54.1573 133.487 53.7629 133.229 53.3689C132.526 52.2943 131.825 51.2219 131.048 50.1748C130.966 50.0639 130.989 49.9073 131.1 49.8251Z" fill="white"/>
<path fill-rule="evenodd" clip-rule="evenodd" d="M128.038 46.9005C128.113 46.7847 128.268 46.7518 128.384 46.827C129.015 47.2367 129.585 47.7233 130.1 48.2613C130.196 48.3611 130.192 48.5193 130.092 48.6148C129.993 48.7103 129.834 48.7068 129.739 48.6071C129.247 48.0934 128.706 47.6325 128.111 47.2463C127.996 47.1711 127.963 47.0163 128.038 46.9005Z" fill="white"/>
</g>
<path d="M171.113 114.147C170.866 114.205 170.614 114.248 170.358 114.281C163.632 115.252 156.09 109.615 153.544 102.834C151.535 97.4851 153.292 91.4154 154.252 88.8154C154.556 88.0033 154.774 87.5275 154.774 87.5275C158.83 81.6644 182.412 93.1311 182.683 99.4507C182.958 105.766 178.019 112.609 171.108 114.142L171.113 114.147Z" fill="#727272"/>
<path d="M178.489 99.0107C178.489 99.0107 177.109 109.24 170.47 113.421C163.896 114.453 156.416 109.054 153.928 101.841C151.964 96.1523 154.72 89.1118 155.657 86.3464C155.657 86.3413 154.803 86.7839 154.803 86.7839C162.57 81.9023 178.489 99.0107 178.489 99.0107Z" fill="#F2F2F2"/>
<path fill-rule="evenodd" clip-rule="evenodd" d="M182.334 104.68C182.471 104.689 182.576 104.808 182.567 104.946C182.374 107.848 180.819 111.199 178.185 113.711C175.544 116.227 171.81 117.909 167.259 117.443C162.703 116.978 158.502 113.96 155.459 111.095C153.934 109.659 152.69 108.252 151.828 107.204C151.396 106.68 151.06 106.245 150.831 105.941C150.717 105.789 150.629 105.669 150.57 105.588C150.541 105.547 150.518 105.515 150.503 105.494L150.486 105.47L150.481 105.463L150.48 105.461C150.48 105.461 150.48 105.461 150.685 105.318L150.89 105.175L150.891 105.176L150.895 105.182L150.911 105.204C150.925 105.225 150.947 105.255 150.975 105.294C151.033 105.374 151.119 105.491 151.231 105.64C151.456 105.939 151.788 106.368 152.214 106.886C153.066 107.922 154.296 109.313 155.802 110.731C158.824 113.577 162.923 116.497 167.31 116.946C171.698 117.395 175.292 115.777 177.84 113.349C180.393 110.915 181.885 107.677 182.068 104.913C182.077 104.775 182.196 104.671 182.334 104.68ZM150.542 105.113C150.655 105.034 150.811 105.061 150.89 105.175L150.685 105.318L150.48 105.461C150.401 105.348 150.428 105.192 150.542 105.113Z" fill="#727272"/>
<path d="M146.42 55.6844C147.094 53.8036 151.882 54.5835 153.411 60.4439C154.94 66.3042 160.987 80.5309 160.987 80.5309C160.987 80.5309 184.986 45.3027 189.29 43.9478C193.593 42.5882 192.526 47.9229 186.779 56.3936C186.707 56.9084 191.527 56.218 192.937 57.1655C194.353 58.113 193.664 63.8028 194.414 65.7973C195.678 69.1372 192.871 69.8431 192.871 69.8431C192.937 70.6277 195.079 69.8241 196.618 71.2643C198.162 72.7046 197.388 78.6643 197.825 80.3509C198.266 82.0375 195.322 83.4587 195.322 83.4587C195.322 83.4587 202.398 87.3103 200.798 88.272C198.105 89.897 197.81 88.1963 196.566 88.2341C195.322 88.272 186.471 101.371 177.496 104.887C168.522 108.402 153.33 95.8663 151.616 89.3001C149.901 82.7339 151.948 83.1413 150.647 72.2119C149.345 61.2871 146.288 56.0246 146.288 56.0246L146.42 55.6844Z" fill="white"/>
<path fill-rule="evenodd" clip-rule="evenodd" d="M191.339 44.2993C191.028 43.9694 190.42 43.853 189.365 44.1865C189.143 44.2564 188.827 44.4483 188.42 44.7768C188.018 45.1007 187.547 45.541 187.017 46.0837C185.956 47.169 184.671 48.6497 183.246 50.394C180.395 53.8818 176.995 58.4079 173.727 62.8949C170.459 67.3812 167.326 71.8256 165.009 75.1486C163.851 76.81 162.897 78.191 162.232 79.1565C161.9 79.6393 161.64 80.0182 161.464 80.2764C161.375 80.4055 161.308 80.5044 161.262 80.5711L161.194 80.6704L161.194 80.6715C161.194 80.6715 161.193 80.6719 160.987 80.5312C160.757 80.629 160.757 80.6288 160.757 80.6288L160.688 80.4673C160.644 80.3615 160.578 80.2057 160.494 80.0053C160.325 79.6045 160.083 79.0255 159.787 78.3124C159.196 76.8863 158.392 74.9236 157.54 72.7775C155.838 68.4908 153.938 63.4548 153.169 60.5072C152.421 57.6384 150.875 56.0844 149.473 55.4651C148.768 55.154 148.106 55.0805 147.594 55.1824C147.126 55.2756 146.776 55.5335 146.624 55.8539C146.644 55.8929 146.689 55.9508 146.717 56.0089C146.803 56.1827 146.931 56.4081 147.082 56.7527C147.385 57.4419 147.8 58.4727 148.256 59.8453C149.169 62.5906 150.242 66.7027 150.895 72.1825C151.538 77.5838 151.367 80.2328 151.232 82.3126L151.226 82.4086C151.092 84.4779 151.009 85.9887 151.858 89.2372C152.272 90.8222 153.512 92.8015 155.308 94.8347C157.099 96.862 159.424 98.9212 161.975 100.668C164.527 102.415 167.296 103.844 169.977 104.618C172.66 105.392 175.231 105.506 177.405 104.654C181.835 102.919 186.258 98.8039 189.748 95.0854C191.056 93.6912 192.227 92.3596 193.216 91.2356C193.543 90.8631 193.851 90.5135 194.137 90.1919C194.709 89.548 195.197 89.0132 195.583 88.6375C195.776 88.45 195.949 88.2962 196.098 88.1871C196.173 88.1326 196.247 88.0854 196.318 88.0507C196.387 88.0172 196.47 87.9872 196.558 87.9845C196.932 87.9731 197.229 88.0944 197.49 88.2316C197.581 88.2793 197.663 88.3261 197.742 88.3711C197.903 88.4627 198.05 88.5467 198.228 88.6151C198.474 88.7094 198.757 88.7617 199.135 88.6998C199.519 88.637 200.012 88.4545 200.669 88.0582C200.735 88.0183 200.761 87.9822 200.772 87.958C200.782 87.9341 200.789 87.8982 200.777 87.8394C200.751 87.7087 200.643 87.5204 200.43 87.28C200.013 86.8081 199.301 86.2509 198.518 85.7107C197.74 85.1739 196.911 84.6657 196.276 84.2912C195.958 84.1041 195.689 83.9507 195.5 83.8442C195.405 83.7909 195.331 83.7494 195.28 83.7212L195.222 83.6892L195.203 83.6792L195.202 83.6787C195.12 83.6339 195.069 83.5466 195.072 83.4529C195.074 83.3592 195.129 83.2746 195.213 83.2339M195.213 83.2339L195.214 83.2332L195.22 83.2306L195.242 83.2194C195.262 83.2092 195.292 83.1939 195.33 83.1736C195.407 83.1331 195.517 83.073 195.647 82.9955C195.909 82.8401 196.252 82.6172 196.579 82.3453C196.908 82.0718 197.21 81.758 197.403 81.4232C197.595 81.0915 197.672 80.7546 197.583 80.4145L197.583 80.4138C197.465 79.958 197.432 79.2381 197.419 78.4264C197.414 78.1091 197.412 77.7763 197.41 77.4336C197.407 76.8812 197.403 76.303 197.387 75.7227C197.36 74.7858 197.298 73.8693 197.151 73.102C197.001 72.323 196.772 71.7498 196.448 71.4474C195.741 70.786 194.891 70.6328 194.166 70.5568C194.083 70.548 193.999 70.5401 193.916 70.5324C193.654 70.5079 193.403 70.4844 193.208 70.4367C193.076 70.4043 192.939 70.3543 192.829 70.2636C192.709 70.1649 192.636 70.0297 192.622 69.8645C192.611 69.7425 192.691 69.6309 192.81 69.601L192.813 69.6C192.817 69.599 192.823 69.5973 192.831 69.5949C192.848 69.5899 192.874 69.5819 192.907 69.5703C192.973 69.5473 193.069 69.5103 193.18 69.456C193.405 69.347 193.687 69.1713 193.932 68.9041C194.175 68.639 194.382 68.2815 194.459 67.7993C194.537 67.3155 194.485 66.6896 194.181 65.886C193.979 65.3504 193.88 64.5879 193.817 63.7596C193.776 63.2284 193.75 62.6527 193.723 62.0752C193.708 61.7491 193.693 61.4224 193.676 61.1027C193.626 60.2083 193.557 59.3626 193.415 58.685C193.344 58.3465 193.257 58.0595 193.15 57.8336C193.043 57.6064 192.924 57.4576 192.798 57.3735C192.499 57.1725 191.986 57.0422 191.341 56.9661C190.706 56.8912 189.985 56.8726 189.3 56.8675C189.098 56.866 188.898 56.8657 188.705 56.8654C188.25 56.8647 187.83 56.8641 187.5 56.8481C187.267 56.8368 187.058 56.8171 186.904 56.7783C186.83 56.7596 186.743 56.7305 186.672 56.6779C186.591 56.6182 186.51 56.5089 186.531 56.3592C186.537 56.3213 186.551 56.2852 186.572 56.2535C189.442 52.0229 191.121 48.6062 191.558 46.4353C191.779 45.3353 191.664 44.6446 191.339 44.2993M193.311 69.9469C193.316 69.9483 193.322 69.9497 193.328 69.9511C193.483 69.9893 193.68 70.0077 193.927 70.031C194.017 70.0395 194.114 70.0486 194.219 70.0595C194.966 70.1379 195.957 70.3033 196.789 71.0821C197.237 71.4998 197.489 72.2115 197.642 73.0076C197.797 73.8155 197.859 74.7644 197.886 75.7083C197.903 76.2919 197.907 76.8837 197.91 77.4419C197.912 77.7831 197.914 78.1118 197.919 78.4184C197.932 79.243 197.966 79.9003 198.067 80.2878C198.198 80.791 198.073 81.2641 197.836 81.6733C197.602 82.0794 197.251 82.4371 196.899 82.7298C196.545 83.0239 196.179 83.2618 195.902 83.4256C195.881 83.4382 195.86 83.4504 195.84 83.4621C196.022 83.5653 196.258 83.7007 196.529 83.8604C197.17 84.2381 198.011 84.753 198.802 85.2992C199.589 85.8422 200.345 86.4282 200.805 86.949C201.031 87.2049 201.213 87.4752 201.267 87.7393C201.295 87.8778 201.29 88.0233 201.229 88.1614C201.167 88.2993 201.06 88.4063 200.927 88.4866C200.237 88.9027 199.683 89.1168 199.216 89.1933C198.742 89.2708 198.369 89.2049 198.049 89.0819C197.835 88.9997 197.633 88.8847 197.456 88.7846C197.385 88.7443 197.319 88.7064 197.257 88.6741C197.029 88.5538 196.822 88.4767 196.574 88.4843C196.585 88.4839 196.575 88.4819 196.537 88.5004C196.501 88.5176 196.454 88.5466 196.393 88.5909C196.271 88.6796 196.118 88.8145 195.932 88.9957C195.56 89.3574 195.083 89.8796 194.51 90.524C194.227 90.8426 193.922 91.1902 193.595 91.5612C192.606 92.6862 191.427 94.0268 190.112 95.4276C186.622 99.147 182.132 103.339 177.588 105.12C175.274 106.026 172.582 105.89 169.838 105.098C167.093 104.305 164.275 102.849 161.692 101.08C159.109 99.3118 156.754 97.2256 154.934 95.1657C153.119 93.1116 151.817 91.0615 151.374 89.3635C150.508 86.0457 150.591 84.4772 150.727 82.3763L150.734 82.2745C150.867 80.2148 151.036 77.5977 150.399 72.2417C149.75 66.7968 148.684 62.7177 147.782 60.003C147.331 58.6456 146.921 57.6292 146.624 56.9537C146.476 56.6159 146.356 56.3634 146.274 56.196C146.233 56.1123 146.201 56.05 146.179 56.0089C146.169 55.9883 146.161 55.9731 146.155 55.9632L146.15 55.9524L146.148 55.9499C146.148 55.9499 146.319 55.8715 146.404 55.825M146.155 55.7501C146.155 55.7501 146.322 55.7935 146.404 55.825C146.186 55.944 146.148 55.9494 146.148 55.9494C146.1 55.8612 146.155 55.7501 146.155 55.7501ZM146.155 55.7501C146.155 55.7501 146.892 54.8125 147.497 54.692C148.128 54.5662 148.896 54.6638 149.674 55.0077C151.238 55.6983 152.872 57.3895 153.653 60.381C154.413 63.2937 156.301 68.3012 158.005 72.593C158.856 74.7362 159.659 76.6964 160.249 78.121C160.544 78.8332 160.786 79.4114 160.954 79.8116C160.985 79.8843 161.013 79.9512 161.039 80.0119C161.043 80.006 161.047 80.0001 161.051 79.994C161.228 79.7355 161.488 79.3562 161.82 78.8731C162.485 77.9068 163.44 76.525 164.599 74.8626C166.917 71.538 170.052 67.0906 173.322 62.6005C176.592 58.1111 179.999 53.5762 182.858 50.0776C184.288 48.3287 185.584 46.8349 186.659 45.7343C187.197 45.1841 187.683 44.7286 188.106 44.3876C188.523 44.0512 188.899 43.809 189.215 43.7096C190.311 43.3634 191.183 43.4039 191.703 43.9566C192.209 44.4938 192.274 45.4113 192.048 46.5339C191.599 48.7687 189.922 52.1737 187.134 56.3145C187.233 56.3295 187.363 56.3408 187.525 56.3487C187.842 56.3641 188.243 56.3647 188.691 56.3654C188.887 56.3656 189.092 56.366 189.304 56.3675C189.991 56.3726 190.736 56.3912 191.399 56.4695C192.052 56.5466 192.671 56.6855 193.077 56.9582C193.305 57.111 193.474 57.3472 193.602 57.6202C193.732 57.8945 193.829 58.2231 193.904 58.5824C194.055 59.3005 194.126 60.1795 194.175 61.0753C194.193 61.4051 194.208 61.7364 194.223 62.0643C194.25 62.6357 194.275 63.1967 194.315 63.7216C194.379 64.5507 194.475 65.2478 194.648 65.7095C194.976 66.5756 195.047 67.2903 194.953 67.8781C194.859 68.4677 194.602 68.9129 194.301 69.2417C194.002 69.5684 193.662 69.778 193.399 69.9057C193.369 69.9205 193.339 69.9342 193.311 69.9469M160.987 80.5312L160.757 80.6288C160.792 80.7129 160.871 80.771 160.962 80.78C161.053 80.7889 161.142 80.7471 161.194 80.6715L160.987 80.5312Z" fill="#727272"/>
<path d="M181.391 34.1932L149.77 42.4147C148.648 42.7064 147.976 43.8501 148.268 44.9691L163.216 102.168C163.508 103.287 164.655 103.958 165.777 103.666L197.397 95.4444C198.519 95.1527 199.192 94.0091 198.899 92.89L183.952 35.6913C183.659 34.5722 182.513 33.9015 181.391 34.1932Z" fill="white"/>
<path fill-rule="evenodd" clip-rule="evenodd" d="M149.833 42.6568C148.844 42.9139 148.253 43.9215 148.51 44.9065L163.458 102.105C163.715 103.09 164.725 103.681 165.714 103.424L197.334 95.2028C198.323 94.9457 198.915 93.9382 198.657 92.9532L183.71 35.7545C183.452 34.7695 182.443 34.1782 181.454 34.4353L149.833 42.6568ZM148.026 45.0323C147.699 43.7791 148.452 42.4994 149.707 42.1731L181.327 33.9516C182.582 33.6253 183.866 34.3755 184.194 35.6286L199.141 92.8273C199.469 94.0805 198.716 95.3603 197.461 95.6866L165.84 103.908C164.585 104.234 163.301 103.484 162.974 102.231L148.026 45.0323Z" fill="#727272"/>
<path d="M182.981 36.1985L197.804 92.9255C197.975 93.5888 197.581 94.2663 196.916 94.4368L165.702 102.552C165.037 102.723 164.358 102.33 164.187 101.666L149.363 44.9392C149.192 44.276 149.586 43.5985 150.251 43.428L156.659 41.7603L175.049 36.9755L181.456 35.3078C182.121 35.1373 182.8 35.5305 182.971 36.1938L182.981 36.1985Z" fill="#F2F2F2"/>
<path fill-rule="evenodd" clip-rule="evenodd" d="M181.518 35.55C181.518 35.55 181.518 35.55 181.518 35.55L175.112 37.2174L156.721 42.0023L150.314 43.6699L150.313 43.6701C149.784 43.8059 149.468 44.3454 149.605 44.8764C149.605 44.8762 149.605 44.8765 149.605 44.8764L164.429 101.604C164.565 102.131 165.105 102.447 165.639 102.31C165.639 102.31 165.639 102.31 165.639 102.31L196.853 94.1948L196.854 94.1946C197.383 94.0589 197.699 93.5195 197.562 92.9886C197.562 92.9883 197.562 92.9881 197.562 92.9879L182.753 36.3156C182.743 36.2971 182.735 36.2771 182.729 36.2562C182.593 35.7293 182.052 35.4133 181.518 35.55ZM183.197 36.0732C182.967 35.3092 182.17 34.8665 181.394 35.0657L181.393 35.0659L174.986 36.7335L156.596 41.5184L150.189 43.1858C150.189 43.1858 150.189 43.1857 150.189 43.1858C149.389 43.3913 148.916 44.2064 149.121 45.0016L149.121 45.0024L163.945 101.729C163.945 101.729 163.945 101.729 163.945 101.729C164.151 102.528 164.968 102.998 165.764 102.794L165.765 102.794L196.978 94.679C196.978 94.679 196.978 94.679 196.978 94.679C197.779 94.4736 198.251 93.6585 198.046 92.8631L198.046 92.8623L183.223 36.1353C183.217 36.1133 183.208 36.0925 183.197 36.0732Z" fill="#727272"/>
<path d="M171.155 41.1276C171.272 41.6112 171.001 42.1052 170.544 42.2295L163.722 44.1456C163.264 44.27 162.797 43.9833 162.679 43.4997C162.562 43.0161 162.833 42.5221 163.29 42.3978L167.699 41.1819L170.106 40.4782C170.563 40.3539 171.031 40.6406 171.148 41.1242L171.155 41.1276Z" fill="white"/>
<path fill-rule="evenodd" clip-rule="evenodd" d="M170.173 40.7187L167.765 41.4227L163.357 42.6386L163.356 42.6389C163.042 42.7243 162.833 43.0755 162.922 43.4404C163.009 43.7963 163.343 43.9888 163.655 43.9045L170.478 41.9881C170.781 41.9059 170.985 41.5773 170.921 41.2273C170.914 41.2132 170.909 41.1984 170.905 41.1831C170.819 40.8276 170.485 40.6352 170.173 40.7187ZM171.378 41.0141C171.209 40.4331 170.626 40.0776 170.04 40.2368L167.631 40.9412L163.225 42.1564C163.225 42.1564 163.225 42.1563 163.225 42.1564C162.624 42.3199 162.29 42.9565 162.436 43.5586C162.585 44.1696 163.185 44.5505 163.787 44.3867L170.61 42.4703C171.21 42.3066 171.544 41.6703 171.398 41.0684C171.393 41.0494 171.386 41.0312 171.378 41.0141Z" fill="#727272"/>
<path d="M187.18 74.0262C190.542 66.3034 186.991 57.3245 179.248 53.9714C171.506 50.6182 162.504 54.1605 159.142 61.8833C155.78 69.6061 159.332 78.585 167.074 81.9381C174.817 85.2913 183.818 81.749 187.18 74.0262Z" fill="white"/>
<path fill-rule="evenodd" clip-rule="evenodd" d="M159.372 61.9827C156.065 69.5785 159.558 78.4105 167.174 81.7089C174.79 85.0074 183.644 81.5227 186.951 73.9269C190.257 66.331 186.765 57.4991 179.148 54.2006C171.532 50.9022 162.678 54.3868 159.372 61.9827ZM166.975 82.1674C159.106 78.7595 155.496 69.6338 158.913 61.784C162.33 53.9342 171.479 50.3343 179.348 53.7422C187.217 57.15 190.827 66.2758 187.41 74.1256C183.993 81.9753 174.843 85.5753 166.975 82.1674Z" fill="#727272"/>
<path d="M166.849 76.7092C167.102 77.3462 167.829 77.6593 168.489 77.467L173.511 76.0173C173.522 76.1216 173.544 76.2314 173.577 76.3358C173.896 77.4396 175.052 78.0711 176.153 77.7526C177.26 77.4341 177.893 76.2809 177.574 75.1826C177.541 75.0782 177.502 74.9739 177.458 74.8805L182.479 73.4307C183.14 73.2385 183.591 72.5905 183.465 71.9151C183.321 71.1408 182.545 70.6795 181.807 70.8936L181.384 70.641C180.47 70.0919 179.798 69.2242 179.501 68.2028L178.543 64.9024C177.717 62.0577 174.925 60.3224 172.068 60.7397C172.442 60.3444 172.602 59.7732 172.442 59.2131C172.2 58.3729 171.314 57.8841 170.471 58.1258C169.629 58.3674 169.139 59.2515 169.381 60.0917C169.541 60.6519 169.987 61.0473 170.516 61.1846C167.878 62.3543 166.441 65.3087 167.262 68.1534L168.225 71.4867C168.567 72.6619 168.374 73.9305 167.702 74.9574C166.964 75.1716 166.557 75.9733 166.843 76.7037L166.849 76.7092ZM171.804 59.3998C171.947 59.894 171.661 60.4048 171.171 60.5475C170.675 60.6903 170.163 60.4048 170.02 59.916C169.877 59.4273 170.163 58.9111 170.653 58.7683C171.149 58.6255 171.661 58.9111 171.804 59.3998Z" fill="#63CAE0"/>
<path fill-rule="evenodd" clip-rule="evenodd" d="M170.402 57.8855C171.377 57.606 172.402 58.1705 172.683 59.1439L172.683 59.1446C172.811 59.5933 172.761 60.0484 172.575 60.4376C175.358 60.2821 177.974 62.047 178.783 64.8327L179.741 68.133C180.02 69.0933 180.652 69.9095 181.512 70.4265C181.512 70.4266 181.512 70.4267 181.512 70.4268L181.847 70.6261C182.69 70.4449 183.547 70.9854 183.71 71.8697L183.465 71.9151L183.71 71.8691C183.71 71.8693 183.71 71.8695 183.71 71.8697C183.863 72.6865 183.317 73.4473 182.549 73.6708L177.791 75.0445C177.761 74.9531 177.725 74.8606 177.684 74.7739L177.458 74.8806L177.527 75.1208L177.791 75.0445C177.799 75.0655 177.805 75.0864 177.812 75.1071L177.814 75.1128C178.172 76.3439 177.462 77.6359 176.223 77.9928C176.223 77.9928 176.223 77.9928 176.223 77.9928C174.991 78.3491 173.696 77.6437 173.337 76.4083C173.338 76.4093 173.338 76.4103 173.338 76.4113L173.577 76.3358L173.336 76.4053C173.337 76.4063 173.337 76.4073 173.337 76.4083C173.329 76.3836 173.322 76.3588 173.316 76.3338L173.58 76.2575L173.51 76.0173L173.262 76.0436C173.272 76.1382 173.29 76.2368 173.316 76.3338L168.559 77.7071L168.489 77.4671L168.559 77.7073C167.798 77.9283 166.946 77.5804 166.629 76.8334C166.622 76.8212 166.616 76.8083 166.61 76.795C166.282 75.9571 166.722 75.0403 167.54 74.7474C168.134 73.7944 168.298 72.6333 167.985 71.5565L167.021 68.2228C166.218 65.437 167.491 62.5509 169.925 61.1996C169.558 60.9699 169.27 60.6122 169.141 60.1607C168.861 59.1874 169.428 58.1651 170.402 57.8855ZM172.202 59.2821C171.998 58.5752 171.251 58.1624 170.54 58.3661C169.83 58.5697 169.418 59.3155 169.622 60.0225L169.622 60.0233C169.755 60.4916 170.129 60.8258 170.578 60.9426C170.681 60.9694 170.756 61.0583 170.765 61.1642C170.773 61.2702 170.714 61.37 170.617 61.4131C168.092 62.5331 166.717 65.3618 167.502 68.0841L168.465 71.417C168.465 71.417 168.465 71.4171 168.465 71.417C168.827 72.6628 168.623 74.0069 167.911 75.0943C167.879 75.1443 167.829 75.1809 167.772 75.1975C167.183 75.3685 166.854 76.0007 167.066 76.5848C167.071 76.5951 167.077 76.6058 167.081 76.6169C167.282 77.1219 167.87 77.3871 168.42 77.227L168.42 77.2269L173.441 75.7771C173.512 75.7566 173.589 75.7686 173.65 75.8099C173.711 75.8512 173.751 75.9175 173.759 75.9911C173.768 76.0797 173.787 76.173 173.815 76.2604L173.817 76.2663C174.097 77.2366 175.114 77.7929 176.084 77.5125C177.057 77.2325 177.613 76.2198 177.334 75.2552C177.304 75.1587 177.269 75.0666 177.232 74.9872C177.201 74.921 177.2 74.8444 177.23 74.7776C177.26 74.7109 177.318 74.6607 177.389 74.6404L182.409 73.1907C182.409 73.1908 182.409 73.1907 182.409 73.1907C182.962 73.0299 183.319 72.495 183.219 71.9612L183.219 71.9606C183.103 71.3344 182.475 70.9601 181.877 71.1338C181.811 71.1531 181.739 71.1439 181.679 71.1085L181.255 70.8558L181.255 70.8554C180.287 70.2741 179.576 69.355 179.261 68.2727L178.302 64.9721C178.302 64.9721 178.302 64.9721 178.302 64.9721C177.512 62.2494 174.84 60.5875 172.104 60.9872C171.999 61.0026 171.895 60.9495 171.846 60.855C171.797 60.7605 171.813 60.6452 171.886 60.5679C172.202 60.2342 172.336 59.7539 172.202 59.2821ZM171.564 59.4697C171.459 59.1128 171.085 58.9042 170.723 59.0084C170.364 59.1132 170.156 59.4914 170.26 59.8458C170.364 60.203 170.739 60.4117 171.101 60.3075C171.46 60.2027 171.668 59.8297 171.564 59.4697ZM170.584 58.5281C171.212 58.347 171.862 58.7094 172.044 59.3296L172.044 59.3303C172.226 59.9586 171.861 60.6067 171.241 60.7876L171.24 60.7878C170.611 60.9689 169.962 60.6065 169.78 59.9863C169.598 59.3633 169.962 58.7093 170.583 58.5283L170.584 58.5281Z" fill="#727272"/>
<path fill-rule="evenodd" clip-rule="evenodd" d="M176.784 74.8934C176.823 75.026 176.746 75.1647 176.614 75.2031L174.395 75.8456C174.262 75.884 174.124 75.8076 174.085 75.675C174.047 75.5424 174.123 75.4037 174.256 75.3653L176.474 74.7228C176.607 74.6844 176.746 74.7608 176.784 74.8934Z" fill="#727272"/>
<path fill-rule="evenodd" clip-rule="evenodd" d="M180.06 71.3571C180.098 71.4898 180.022 71.6283 179.889 71.6666L169.731 74.5936C169.599 74.6318 169.46 74.5552 169.422 74.4226C169.384 74.2899 169.46 74.1513 169.593 74.1131L179.751 71.1861C179.883 71.1479 180.022 71.2244 180.06 71.3571Z" fill="#727272"/>
<path fill-rule="evenodd" clip-rule="evenodd" d="M141.064 105.792C141.2 105.816 141.29 105.946 141.265 106.082C139.895 113.642 140.553 120.541 141.554 125.552C142.055 128.057 142.641 130.089 143.102 131.493C143.332 132.195 143.531 132.74 143.672 133.109C143.742 133.293 143.798 133.434 143.837 133.528C143.856 133.575 143.87 133.61 143.88 133.633L143.891 133.659L143.894 133.666L143.894 133.667C143.949 133.794 143.891 133.941 143.764 133.996C143.637 134.051 143.49 133.992 143.435 133.865L143.665 133.766C143.435 133.865 143.435 133.865 143.435 133.865L143.434 133.862L143.431 133.855L143.419 133.827C143.409 133.802 143.393 133.765 143.373 133.716C143.334 133.619 143.277 133.475 143.205 133.287C143.061 132.912 142.86 132.359 142.627 131.649C142.161 130.229 141.569 128.178 141.064 125.65C140.054 120.597 139.389 113.631 140.773 105.993C140.798 105.857 140.928 105.767 141.064 105.792Z" fill="#727272"/>
<path fill-rule="evenodd" clip-rule="evenodd" d="M130.421 147.067C130.553 147.027 130.693 147.101 130.733 147.233C130.774 147.365 130.699 147.505 130.567 147.545L130.494 147.306L130.421 147.067ZM118.702 153.239C118.575 153.527 118.572 153.7 118.604 153.799C118.632 153.886 118.703 153.964 118.86 154.024C119.023 154.086 119.251 154.116 119.535 154.115C119.816 154.114 120.135 154.082 120.468 154.03C121.134 153.925 121.838 153.743 122.379 153.586C122.649 153.508 122.877 153.436 123.037 153.384C123.117 153.358 123.18 153.337 123.222 153.322C123.244 153.315 123.26 153.309 123.271 153.306L123.283 153.301L123.286 153.3L123.287 153.3C123.287 153.3 123.287 153.3 123.287 153.3C123.417 153.254 123.56 153.323 123.606 153.453C123.652 153.583 123.583 153.726 123.453 153.772L123.378 153.559C123.453 153.772 123.453 153.772 123.453 153.772L123.448 153.774L123.434 153.778C123.423 153.782 123.405 153.788 123.383 153.796C123.339 153.811 123.274 153.833 123.192 153.859C123.028 153.913 122.795 153.986 122.519 154.066C121.969 154.226 121.242 154.415 120.545 154.524C120.197 154.578 119.852 154.614 119.537 154.615C119.226 154.617 118.927 154.584 118.683 154.491C118.433 154.396 118.216 154.228 118.128 153.951C118.043 153.685 118.095 153.376 118.244 153.037C118.406 152.671 118.734 152.315 119.149 151.976C119.569 151.633 120.099 151.29 120.696 150.954C121.889 150.282 123.368 149.626 124.806 149.052C126.245 148.477 127.648 147.981 128.692 147.629C129.213 147.453 129.645 147.312 129.947 147.216C130.098 147.168 130.216 147.131 130.297 147.106C130.337 147.093 130.368 147.083 130.389 147.077L130.413 147.07L130.421 147.067C130.422 147.067 130.421 147.067 130.494 147.306C130.567 147.545 130.567 147.545 130.567 147.545L130.56 147.548L130.537 147.555C130.516 147.561 130.486 147.57 130.446 147.583C130.366 147.608 130.249 147.645 130.099 147.692C129.8 147.788 129.37 147.927 128.852 148.103C127.814 148.453 126.419 148.946 124.991 149.516C123.562 150.087 122.106 150.733 120.941 151.389C120.358 151.718 119.855 152.045 119.466 152.363C119.072 152.684 118.816 152.98 118.702 153.239Z" fill="#727272"/>
<path fill-rule="evenodd" clip-rule="evenodd" d="M137.03 95.7455C137.128 95.6485 137.286 95.6494 137.383 95.7476C137.48 95.8458 137.479 96.0041 137.381 96.1011L137.205 95.9233L137.03 95.7455ZM137.03 95.7455C137.03 95.7455 137.03 95.7455 137.205 95.9233C137.381 96.1011 137.381 96.101 137.381 96.1011L137.373 96.1086L137.351 96.1303C137.332 96.1494 137.303 96.1776 137.265 96.2145C137.19 96.2883 137.078 96.3968 136.934 96.5356C136.645 96.8133 136.225 97.2127 135.7 97.7002C134.651 98.6751 133.181 100.003 131.5 101.414C128.148 104.229 123.926 107.4 120.521 108.743C120.393 108.794 120.248 108.731 120.197 108.603C120.147 108.474 120.21 108.329 120.338 108.278C123.659 106.968 127.825 103.846 131.179 101.031C132.851 99.6265 134.315 98.3047 135.36 97.3339C135.882 96.8486 136.3 96.4511 136.587 96.1752C136.731 96.0372 136.841 95.9296 136.916 95.8566C136.954 95.8201 136.982 95.7922 137.001 95.7736L137.023 95.7525L137.03 95.7455Z" fill="#727272"/>
<path fill-rule="evenodd" clip-rule="evenodd" d="M104.305 93.0033C104.442 93.022 104.538 93.148 104.519 93.2848L104.272 93.251L104.024 93.2172C104.043 93.0804 104.169 92.9846 104.305 93.0033ZM104.272 93.251C104.024 93.2172 104.024 93.2171 104.024 93.2172L104.024 93.2202L104.023 93.228L104.019 93.2579C104.015 93.2841 104.011 93.3226 104.005 93.3728C103.993 93.4732 103.976 93.6201 103.958 93.8077C103.921 94.1828 103.876 94.7207 103.843 95.3738C103.778 96.679 103.762 98.4486 103.963 100.301C104.162 102.15 104.579 104.096 105.386 105.746C106.194 107.399 107.401 108.77 109.186 109.432C109.315 109.48 109.459 109.414 109.507 109.284C109.555 109.155 109.489 109.011 109.36 108.963C107.73 108.358 106.605 107.102 105.835 105.527C105.063 103.949 104.656 102.067 104.46 100.247C104.263 98.4291 104.278 96.6874 104.342 95.3987C104.375 94.7548 104.419 94.225 104.455 93.8568C104.473 93.6727 104.49 93.529 104.501 93.4317C104.507 93.383 104.511 93.346 104.515 93.3212L104.518 93.2935L104.519 93.2867L104.519 93.2848L104.272 93.251Z" fill="#727272"/>
<path fill-rule="evenodd" clip-rule="evenodd" d="M83.6429 102.174C83.7804 102.186 83.8818 102.308 83.8694 102.445L83.6205 102.423C83.8694 102.445 83.8695 102.445 83.8694 102.445L83.8688 102.453L83.8668 102.476C83.865 102.496 83.8624 102.527 83.8591 102.567C83.8525 102.647 83.8431 102.765 83.8318 102.917C83.8094 103.222 83.7797 103.66 83.7509 104.198C83.6934 105.274 83.6396 106.745 83.6543 108.326C83.6691 109.908 83.7525 111.595 83.9681 113.104C84.1848 114.621 84.531 115.929 85.0537 116.774C85.1263 116.891 85.09 117.045 84.9726 117.118C84.8552 117.191 84.7011 117.154 84.6285 117.037C84.0492 116.101 83.692 114.707 83.4731 113.175C83.2532 111.635 83.1692 109.924 83.1544 108.331C83.1394 106.736 83.1937 105.254 83.2516 104.171C83.2806 103.63 83.3105 103.188 83.3332 102.881C83.3445 102.727 83.3541 102.607 83.3608 102.526C83.3642 102.485 83.3668 102.454 83.3686 102.433L83.3707 102.409L83.3714 102.401C83.3714 102.401 83.3715 102.4 83.6205 102.423L83.3715 102.4C83.3838 102.263 83.5054 102.161 83.6429 102.174Z" fill="#727272"/>
<path fill-rule="evenodd" clip-rule="evenodd" d="M76.5059 122.695C76.506 122.695 76.5061 122.695 76.427 122.926L76.5059 122.695C76.6365 122.74 76.7062 122.882 76.6614 123.013C76.6165 123.143 76.4743 123.213 76.3437 123.168M76.3437 123.168L76.3427 123.168L76.339 123.167L76.3234 123.161C76.3095 123.157 76.2886 123.15 76.261 123.141C76.2059 123.123 76.1244 123.096 76.0198 123.064C75.8105 123 75.5092 122.911 75.1424 122.814C74.4079 122.621 73.4152 122.397 72.3762 122.274C71.334 122.151 70.2623 122.131 69.3626 122.334C68.4646 122.536 67.7722 122.951 67.4212 123.671C67.2303 124.063 67.1746 124.327 67.1863 124.495C67.1965 124.641 67.2565 124.719 67.3567 124.772C67.4762 124.835 67.6673 124.869 67.933 124.859C68.1934 124.85 68.4982 124.8 68.8242 124.724C69.4757 124.571 70.1811 124.317 70.728 124.099C71.0005 123.99 71.2316 123.892 71.3944 123.82C71.4758 123.784 71.5401 123.755 71.5838 123.735C71.6056 123.725 71.6223 123.718 71.6335 123.713L71.646 123.707L71.649 123.705L71.6497 123.705C71.6497 123.705 71.6497 123.705 71.6497 123.705C71.7747 123.646 71.9237 123.7 71.9824 123.825C72.041 123.95 71.9873 124.099 71.8623 124.158L71.7657 123.952C71.8623 124.158 71.8624 124.158 71.8623 124.158L71.8609 124.158L71.8572 124.16L71.8435 124.166C71.8315 124.172 71.8139 124.18 71.7911 124.19C71.7455 124.211 71.6793 124.241 71.5957 124.278C71.4286 124.351 71.192 124.452 70.913 124.563C70.3571 124.785 69.6253 125.049 68.9386 125.21C68.5954 125.291 68.2559 125.348 67.951 125.359C67.6514 125.37 67.3562 125.337 67.1225 125.213C66.8697 125.079 66.7098 124.848 66.6875 124.529C66.6668 124.232 66.766 123.874 66.9717 123.452C67.4138 122.545 68.2716 122.067 69.2527 121.846C70.2321 121.626 71.3683 121.652 72.4349 121.778C73.5047 121.904 74.5217 122.134 75.2697 122.331C75.6442 122.429 75.9523 122.52 76.1671 122.586C76.2746 122.619 76.3588 122.647 76.4164 122.665C76.4452 122.675 76.4674 122.682 76.4825 122.687L76.4997 122.693L76.5043 122.695L76.5059 122.695" fill="#727272"/>
<path fill-rule="evenodd" clip-rule="evenodd" d="M81.2405 134.213C81.3081 134.333 81.2654 134.485 81.145 134.553L81.0225 134.335L80.9001 134.117C81.0205 134.049 81.1729 134.092 81.2405 134.213ZM80.9001 134.117C80.9002 134.117 80.9001 134.117 81.0225 134.335L81.145 134.553L81.1399 134.556L81.1242 134.565C81.1103 134.573 81.0895 134.584 81.0622 134.6C81.0077 134.631 80.9275 134.677 80.8252 134.737C80.6205 134.856 80.3273 135.029 79.9741 135.245C79.2674 135.676 78.3222 136.276 77.3657 136.95C76.4079 137.624 75.4453 138.369 74.7004 139.091C74.328 139.452 74.0148 139.803 73.7845 140.132C73.5525 140.464 73.4157 140.758 73.3755 141.007C73.3535 141.144 73.2252 141.236 73.0889 141.214C72.9526 141.192 72.8599 141.064 72.8819 140.928C72.9391 140.573 73.122 140.207 73.3749 139.846C73.6295 139.482 73.9665 139.106 74.3524 138.732C75.1242 137.984 76.1107 137.222 77.0777 136.541C78.046 135.859 79.0011 135.253 79.7137 134.818C80.0701 134.601 80.3662 134.426 80.5735 134.305C80.6771 134.245 80.7585 134.198 80.8141 134.166C80.8419 134.15 80.8633 134.138 80.8778 134.13L80.8943 134.12L80.9001 134.117Z" fill="#727272"/>
<path fill-rule="evenodd" clip-rule="evenodd" d="M93.1428 122.458C93.2579 122.382 93.413 122.413 93.4894 122.528L93.281 122.667L93.0727 122.805C92.9964 122.69 93.0278 122.535 93.1428 122.458ZM93.281 122.667C93.0727 122.805 93.0726 122.805 93.0727 122.805L93.0835 122.821L93.1148 122.868C93.1425 122.909 93.1835 122.97 93.2374 123.05C93.345 123.208 93.5038 123.441 93.7085 123.736C94.118 124.326 94.7115 125.166 95.4485 126.168C96.9222 128.171 98.9709 130.823 101.269 133.414C103.566 136.002 106.12 138.54 108.605 140.306C111.075 142.063 113.543 143.106 115.641 142.579C115.775 142.546 115.856 142.41 115.823 142.276C115.789 142.142 115.653 142.061 115.52 142.094C113.652 142.563 111.349 141.644 108.895 139.899C106.455 138.164 103.93 135.659 101.643 133.082C99.3583 130.506 97.3194 127.867 95.8513 125.872C95.1174 124.874 94.5265 124.038 94.1193 123.451C93.9156 123.157 93.758 122.926 93.6513 122.769C93.5979 122.69 93.5574 122.63 93.5302 122.589L93.4995 122.544L93.4894 122.528C93.4893 122.528 93.4894 122.528 93.281 122.667Z" fill="#727272"/>
<path fill-rule="evenodd" clip-rule="evenodd" d="M102.951 152.847C103.062 152.765 103.219 152.789 103.3 152.901C103.382 153.012 103.358 153.169 103.246 153.25L103.099 153.048L102.951 152.847ZM102.951 152.847C102.951 152.847 102.951 152.847 103.099 153.048C103.246 153.25 103.246 153.25 103.246 153.25L103.213 153.274L103.118 153.343C103.035 153.403 102.913 153.492 102.757 153.604C102.445 153.828 101.998 154.148 101.457 154.529C100.373 155.292 98.9113 156.301 97.3974 157.29C95.8847 158.278 94.3149 159.247 93.0176 159.927C92.3698 160.267 91.7823 160.538 91.2996 160.703C91.0585 160.785 90.836 160.844 90.6406 160.869C90.4502 160.893 90.2582 160.889 90.0961 160.821C89.9691 160.767 89.9098 160.62 89.9638 160.493C90.0178 160.366 90.1646 160.306 90.2917 160.36C90.3345 160.379 90.4225 160.392 90.5771 160.373C90.7268 160.353 90.9144 160.306 91.1381 160.23C91.5852 160.077 92.1467 159.819 92.7855 159.484C94.0614 158.816 95.6154 157.856 97.1241 156.871C98.6314 155.887 100.088 154.881 101.169 154.12C101.709 153.74 102.155 153.422 102.465 153.198C102.621 153.086 102.742 152.998 102.825 152.938L102.919 152.87L102.951 152.847L102.951 152.847Z" fill="#727272"/>
<path opacity="0.2" d="M182.013 117.896C182.773 117.275 183.277 116.863 183.438 116.73C183.267 116.877 182.778 117.304 182.013 117.896Z" fill="black"/>
<path fill-rule="evenodd" clip-rule="evenodd" d="M137.115 96.0682C137.016 96.0482 136.903 96.0021 136.823 95.8985C136.708 95.7491 136.529 95.6153 136.323 95.5169C136.117 95.4186 135.901 95.3641 135.725 95.3586C135.537 95.3526 135.452 95.4015 135.426 95.4342C135.411 95.4521 135.361 95.5328 135.463 95.774L135.002 95.9686C134.869 95.653 134.853 95.3455 135.038 95.118C135.212 94.9051 135.495 94.851 135.741 94.8588C135.997 94.8669 136.281 94.9429 136.538 95.0656C136.789 95.1852 137.031 95.3573 137.205 95.5761C137.208 95.5768 137.211 95.5775 137.214 95.5782C137.246 95.5846 137.3 95.5876 137.384 95.5793C137.55 95.5629 137.78 95.5074 138.064 95.4155C138.629 95.2328 139.358 94.9229 140.113 94.5689C141.622 93.8612 143.202 92.9947 143.723 92.6694L143.988 93.0934C143.446 93.4322 141.847 94.3081 140.325 95.0216C139.564 95.3783 138.813 95.6988 138.218 95.8912C137.922 95.9869 137.652 96.0552 137.433 96.0769C137.324 96.0877 137.214 96.0883 137.115 96.0682ZM137.196 95.5732C137.196 95.5731 137.197 95.5733 137.197 95.5735L137.196 95.5732Z" fill="#727272"/>
<path fill-rule="evenodd" clip-rule="evenodd" d="M158.553 129.527C164.83 127.446 171.34 124.728 175.05 121.623L175.371 122.006C171.581 125.179 164.988 127.92 158.71 130.002C152.501 132.061 146.561 133.487 143.852 134.049C139.252 141.01 134.861 145.662 130.91 147.364C130.94 148.198 131.183 149.581 131.573 151.306C131.987 153.141 132.561 155.34 133.198 157.63C134.472 162.21 135.996 167.147 136.996 170.251L136.52 170.405C135.519 167.295 133.992 162.352 132.716 157.764C132.078 155.47 131.502 153.262 131.085 151.416C130.67 149.578 130.407 148.073 130.407 147.199V147.032L130.562 146.968C134.419 145.379 138.814 140.782 143.491 133.688L143.548 133.601L143.65 133.581C146.294 133.036 152.287 131.605 158.553 129.527Z" fill="#727272"/>
</svg>
