<svg width="67" height="66" viewBox="0 0 67 66" fill="none" xmlns="http://www.w3.org/2000/svg">
<path d="M15.2611 7.99936C24.1414 12.4688 32.0524 19.6675 36.086 28.9432C36.8151 30.6199 37.7134 33.2366 38.1036 35.8889C32.6972 39.2672 26.3093 44.4945 30.4788 47.3484C33.022 49.089 37.4351 47.285 39.3386 45.3447C41.5274 43.1136 42.0897 39.8555 41.903 36.8026C42.9365 36.2544 43.9968 35.7718 45.0745 35.3868C47.8322 34.4015 53.2702 33.3217 55.0717 36.5655C56.4367 39.0233 54.5063 42.5851 53.3038 44.6953C51.1191 48.5288 48.2698 52.0892 45.2034 55.3345C45.6866 53.2169 46.1698 51.0995 46.6531 48.982C47.1674 46.7282 43.5174 46.6378 43.0509 48.6821C42.0891 52.8966 41.1273 57.111 40.1656 61.3254C39.8263 62.8122 41.4831 63.3608 42.5936 63.0001C46.6802 61.6728 50.7669 60.3455 54.8534 59.0182C57.1077 58.286 55.8264 55.2455 53.5995 55.9688C51.4184 56.6772 49.2373 57.3856 47.0563 58.094C51.4773 53.6361 55.8231 48.4919 58.1787 42.7444C62.2482 32.815 51.5485 30.1634 43.9492 32.7638C43.5008 32.9172 42.6245 33.3259 41.5204 33.9117C39.1012 21.1489 28.0372 11.0547 17.0146 5.50698C15.2899 4.63897 13.0933 6.90833 15.2611 7.99936ZM34.5891 44.8709C34.2424 44.9933 33.4779 45.2797 33.0322 45.1947C33.0664 45.1571 33.0978 45.0833 33.1164 44.9411C33.2727 43.7445 34.6834 42.4074 35.4595 41.6095C36.3215 40.7235 37.2718 39.8957 38.276 39.1289C38.1256 41.7263 37.1446 43.9684 34.5891 44.8709Z" fill="#494949"/>
</svg>
