<svg width="177" height="158" viewBox="0 0 177 158" fill="none" xmlns="http://www.w3.org/2000/svg">
<path d="M88.094 16.3422C49.9134 16.3422 18.4037 46.2504 16.3456 84.3992L12.4424 156.719H163.746L159.842 84.3992C157.784 46.2504 126.275 16.3422 88.094 16.3422Z" fill="#EDEDED"/>
<path d="M0.519775 156.719H50.7649C50.7649 156.719 55.3779 123.188 57.9327 119.422C60.6295 115.373 62.6166 114.378 62.6166 114.378C62.6166 114.378 65.4553 110.684 61.0553 106.28C55.023 100.241 31.3198 100.881 26.9198 104.433C17.623 111.821 24.3649 115.089 24.3649 115.089C24.3649 115.089 13.5069 115.089 5.91331 134.199C0.519758 147.839 0.519775 156.719 0.519775 156.719Z" fill="white"/>
<path d="M175.668 156.719H138.41C138.41 156.719 134.152 124.537 130.675 118.428C128.333 114.236 119.533 112.745 119.533 112.745C119.533 112.745 132.733 107.63 135.571 107.914C137.204 108.269 138.836 108.624 140.539 108.837C146.429 109.335 155.088 109.619 155.088 109.619C155.088 109.619 170.984 106.919 173.752 140.024C174.604 150.041 175.668 156.719 175.668 156.719Z" fill="white"/>
<path d="M166.797 100.597C173.823 102.941 174.391 117.575 160.268 117.575C146.5 117.575 148.913 100.241 149.055 99.4599C149.197 99.3178 149.268 99.2468 149.339 99.1757C151.397 97.1866 152.959 94.7712 153.881 92.0717C159.417 91.6454 160.623 86.9567 158.707 84.3993C157.43 82.6943 155.584 83.902 154.449 84.9676C142.668 82.4101 139.9 75.8744 139.546 70.7595C139.546 70.2622 139.546 69.7649 139.546 69.3386C139.617 67.9178 139.829 66.497 140.184 65.1472C140.326 64.5079 140.894 64.0816 141.533 64.0106C169.778 60.6717 166.797 100.597 166.797 100.597Z" fill="#B5B5B5"/>
<path d="M158.778 84.3282C160.623 86.8857 159.488 91.5744 153.952 92.0006C153.029 94.7002 151.468 97.1156 149.41 99.1047L148.984 99.4599L149.126 99.3889C146.855 101.52 143.733 102.586 140.681 102.23C138.41 101.946 136.352 100.881 134.72 99.2468C131.739 96.4051 129.752 92.711 128.971 88.7328C125.636 89.5142 123.791 85.5359 124.217 82.9074C124.288 82.126 124.713 81.4866 125.281 80.9893C125.707 80.6341 126.204 80.492 126.771 80.492C127.552 80.5631 128.262 80.8472 128.829 81.3445C129.61 81.2024 130.249 80.6341 130.462 79.8527C131.171 77.2242 133.371 71.3988 139.688 70.6174C139.971 75.6613 142.81 82.197 154.591 84.8255C155.726 83.8309 157.571 82.6232 158.778 84.3282Z" fill="white"/>
<path d="M140.255 65.0762C139.9 66.426 139.688 67.8468 139.617 69.2676C139.617 69.6938 139.617 70.1911 139.617 70.6884C133.229 71.4698 131.029 77.2952 130.391 79.9237C130.178 80.7051 129.539 81.2735 128.758 81.4155C128.191 80.9183 127.481 80.5631 126.7 80.5631C126.133 80.5631 125.636 80.7762 125.21 81.0603C124.571 81.5576 124.217 82.197 124.146 82.9784L121.946 82.8364C122.3 80.8472 122.939 78.9291 123.862 77.0821C129.752 64.5789 140.255 65.0762 140.255 65.0762Z" fill="#B5B5B5"/>
<path d="M134.649 99.3178L135.287 106.138C135.287 106.138 134.72 106.564 134.72 107.914C134.72 107.914 121.449 111.182 117.475 105.001C112.01 96.5472 122.229 90.935 122.229 90.935C122.229 90.935 120.952 87.7382 121.875 82.8364L124.075 82.9784C123.578 85.678 125.494 89.5852 128.829 88.8038C129.681 92.7821 131.739 96.4762 134.649 99.3178Z" fill="#B5B5B5"/>
<path d="M160.339 117.859C156.72 117.859 153.81 116.652 151.823 114.307C147.707 109.548 148.487 101.449 148.7 99.673C148.558 99.5309 148.629 99.3178 148.771 99.1757L149.197 98.8205C151.255 96.9024 152.745 94.487 153.668 91.8585C153.739 91.7165 153.81 91.6454 153.952 91.5744C157.216 91.2902 158.494 89.6563 158.92 88.6617C159.558 87.3119 159.416 85.749 158.565 84.4703C158.352 84.0441 157.926 83.8309 157.429 83.7599C156.507 83.6889 155.513 84.3993 154.804 85.1097C154.733 85.1807 154.591 85.2518 154.52 85.1807C142.526 82.5522 139.687 75.8744 139.404 70.6884C139.404 70.1201 139.404 69.6938 139.404 69.1966C139.475 67.7757 139.687 66.3549 140.042 64.9341C140.255 64.2237 140.894 63.6554 141.675 63.5843C148.487 62.8029 154.023 64.4368 158.281 68.4861C168.145 77.9346 167.436 97.7549 167.294 100.312C170.629 101.591 172.687 105.569 171.978 109.761C171.552 111.679 169.849 117.859 160.339 117.859ZM149.41 99.5309C149.268 100.383 148.204 109.05 152.32 113.881C154.165 116.083 156.862 117.149 160.268 117.149C169.21 117.149 170.842 111.395 171.126 109.619C171.765 105.783 169.778 101.946 166.655 100.881C166.513 100.81 166.371 100.668 166.442 100.526C166.442 100.312 167.933 78.787 157.642 68.9834C153.597 65.0762 148.204 63.5133 141.604 64.2237C141.107 64.2947 140.681 64.6499 140.61 65.0762V65.1472C140.255 66.497 140.042 67.8468 139.971 69.2676C139.971 69.6938 139.971 70.1201 139.971 70.6884C140.255 75.5902 142.952 81.9128 154.378 84.4703C155.158 83.7599 156.294 82.9784 157.429 83.1205C158.068 83.1916 158.707 83.5468 159.062 84.1151C160.055 85.5359 160.268 87.383 159.487 89.0169C158.636 90.864 156.72 92.0717 154.165 92.3558C153.242 95.0554 151.681 97.4708 149.623 99.3889L149.41 99.5309Z" fill="#727272"/>
<path d="M127.268 109.121C123.436 109.121 119.249 108.34 117.191 105.143C115.7 103.083 115.204 100.526 115.771 98.1101C116.765 93.9898 120.739 91.3613 121.804 90.7219C121.094 88.0934 121.023 85.3228 121.591 82.6943C121.946 80.7052 122.584 78.716 123.507 76.869C126.629 70.3332 131.029 67.3495 134.152 65.9997C136.068 65.1473 138.197 64.65 140.326 64.65C140.539 64.65 140.681 64.792 140.681 65.0052C140.681 65.2183 140.539 65.3604 140.326 65.3604C140.184 65.3604 129.965 65.0762 124.217 77.1531C123.365 78.9292 122.726 80.8472 122.371 82.7653C121.449 87.5251 122.655 90.6509 122.655 90.7219C122.726 90.864 122.655 91.0771 122.513 91.1482C122.442 91.1482 117.617 93.9187 116.552 98.2522C116.055 100.526 116.552 102.87 117.9 104.717C121.449 110.187 132.662 107.914 134.507 107.559C134.507 106.99 134.72 106.422 135.004 105.925L134.365 99.2468C134.365 99.0337 134.507 98.8916 134.72 98.8916C134.933 98.8916 135.075 99.0337 135.075 99.2468L135.713 106.067C135.713 106.209 135.642 106.28 135.571 106.351C135.288 106.777 135.146 107.274 135.146 107.843C135.146 107.985 135.004 108.127 134.862 108.198C132.378 108.837 129.823 109.121 127.268 109.121Z" fill="#727272"/>
<path d="M141.745 102.728C141.391 102.728 141.036 102.728 140.61 102.657C138.268 102.373 136.139 101.307 134.436 99.602C131.526 96.7603 129.468 93.1373 128.616 89.23C127.481 89.3721 126.275 89.0169 125.494 88.1644C124.145 86.7436 123.507 84.8255 123.791 82.9074C123.933 82.0549 124.358 81.2735 125.068 80.7762C126.275 79.9237 127.836 80.0658 128.9 81.0603C129.468 80.9183 129.965 80.492 130.107 79.8527C130.745 77.2952 133.016 71.1857 139.616 70.3332C139.829 70.3332 139.971 70.4042 140.042 70.6174C140.042 70.8305 139.9 70.9726 139.758 71.0436C133.584 71.825 131.455 77.5793 130.816 80.0658C130.604 80.9893 129.823 81.6997 128.829 81.7708C128.758 81.7708 128.616 81.7707 128.546 81.6997C127.481 80.7762 126.416 80.7051 125.423 81.3445C124.926 81.7707 124.571 82.3391 124.5 83.0495C124.216 84.7545 124.784 86.4594 125.991 87.6671C126.7 88.3775 127.836 88.7327 128.829 88.4486C128.9 88.4486 129.042 88.4486 129.113 88.5196C129.184 88.5907 129.255 88.6617 129.255 88.7327C130.036 92.711 132.023 96.2631 134.933 99.0336C136.494 100.597 138.481 101.591 140.681 101.875C143.662 102.159 146.642 101.165 148.842 99.1047C148.984 98.9626 149.055 98.8916 149.055 98.8205L149.126 98.7495C149.268 98.6074 149.481 98.6074 149.623 98.7495C149.765 98.8916 149.765 99.1047 149.623 99.2468C149.552 99.3178 149.481 99.3888 149.339 99.602C147.352 101.662 144.584 102.728 141.745 102.728Z" fill="#727272"/>
<path d="M150.262 111.039C150.262 111.039 150.191 111.466 147.92 112.531C142.384 115.231 135.075 112.247 134.862 109.548C134.578 106.067 135.429 106.067 135.429 106.067C141.32 111.963 149.197 106.777 149.197 106.777C149.41 108.269 149.765 109.69 150.262 111.039Z" fill="white"/>
<path d="M148.7 100.17L148.488 103.722C140.255 106.635 135.713 100.881 135.5 100.596C142.668 105.569 148.7 100.17 148.7 100.17Z" fill="#B5B5B5"/>
<path d="M146.713 85.82C147.144 85.82 147.494 85.4702 147.494 85.0386C147.494 84.607 147.144 84.2571 146.713 84.2571C146.282 84.2571 145.933 84.607 145.933 85.0386C145.933 85.4702 146.282 85.82 146.713 85.82Z" fill="#727272"/>
<path d="M136.636 85.0386C137.067 85.0386 137.417 84.6887 137.417 84.2572C137.417 83.8256 137.067 83.4757 136.636 83.4757C136.205 83.4757 135.855 83.8256 135.855 84.2572C135.855 84.6887 136.205 85.0386 136.636 85.0386Z" fill="#727272"/>
<path d="M111.3 62.8028C111.442 63.5132 111.016 64.2236 110.378 64.5078L110.236 64.5788C100.371 69.2675 84.3326 64.4368 84.3326 64.4368C84.3326 64.4368 86.1778 75.306 85.0423 76.5137C84.5455 76.7978 83.9778 76.8689 83.41 76.8689C82.2036 75.377 80.9972 73.4589 78.2294 74.8797C76.1713 75.8743 75.7455 78.2187 76.5262 80.2788L75.3197 80.7051C74.6101 79.1422 73.7584 77.7214 72.7649 76.3716C66.8036 68.273 75.1068 63.2291 75.1068 63.2291C75.1068 63.2291 74.5391 59.1797 77.0229 56.6223C79.5068 54.0648 85.1133 54.9173 85.1133 54.9173C88.0939 44.9006 100.158 46.7476 106.546 53.2123C109.881 56.4092 110.946 60.7426 111.3 62.8028Z" fill="#DDDDDD"/>
<path d="M85.0422 76.5137C86.1777 75.377 84.3325 64.4368 84.3325 64.4368C84.3325 64.4368 100.371 69.2675 110.236 64.5789C110.236 64.5789 115.984 92.3558 103.494 97.968C102.713 98.3232 101.862 98.6074 100.939 98.7494C92.5648 99.673 88.0228 96.1209 86.1067 94.416C85.7519 94.0608 85.397 93.7056 85.0422 93.3504C84.2616 92.4268 83.6229 91.5033 83.0551 90.4377C82.7712 89.8694 82.4874 89.301 82.2035 88.7327C81.6357 87.2409 81.21 85.749 80.9261 84.2571C78.797 83.8309 77.0939 82.339 76.3842 80.3499C75.6745 78.2897 76.1003 75.9454 78.0874 74.9508C80.8551 73.601 82.0616 75.5191 83.268 76.9399C83.9777 76.9399 84.5454 76.7979 85.0422 76.5137ZM108.462 75.306C108.462 74.5956 107.894 74.0983 107.255 74.0983C106.545 74.0983 106.049 74.6666 106.049 75.306C106.049 76.0164 106.616 76.5137 107.255 76.5137C107.965 76.5137 108.462 76.0164 108.462 75.306ZM97.2487 75.7323C97.2487 75.0218 96.6809 74.5246 96.0422 74.5246C95.3325 74.5246 94.8358 75.0929 94.8358 75.7323C94.8358 76.4427 95.4035 76.9399 96.0422 76.9399C96.6809 77.011 97.2487 76.4427 97.2487 75.7323Z" fill="white"/>
<path d="M107.255 76.5137C107.922 76.5137 108.462 75.973 108.462 75.306C108.462 74.639 107.922 74.0983 107.255 74.0983C106.589 74.0983 106.049 74.639 106.049 75.306C106.049 75.973 106.589 76.5137 107.255 76.5137Z" fill="#727272"/>
<path d="M103.494 97.968C103.494 97.968 103.494 98.6074 103.423 99.4599C103.352 100.312 103.281 101.307 103.21 102.23C103.21 103.012 102.997 103.722 102.713 104.433C98.9521 108.198 87.3844 107.132 86.036 103.793C85.8231 103.154 85.7521 102.444 85.6812 101.733C85.6812 101.52 85.6812 101.378 85.6102 101.165L85.4683 99.3888C95.1199 102.444 100.655 98.9626 100.939 98.7495C101.862 98.6074 102.713 98.3943 103.494 97.968Z" fill="white"/>
<path d="M95.9714 76.9399C96.6377 76.9399 97.1778 76.3992 97.1778 75.7322C97.1778 75.0652 96.6377 74.5245 95.9714 74.5245C95.305 74.5245 94.7649 75.0652 94.7649 75.7322C94.7649 76.3992 95.305 76.9399 95.9714 76.9399Z" fill="#727272"/>
<path d="M80.2875 121.198C80.0037 114.023 85.752 101.804 85.752 101.804C85.823 102.515 85.8939 103.154 86.1068 103.864C87.4552 107.203 99.023 108.269 102.784 104.504C103.139 103.793 103.281 103.083 103.281 102.301C103.281 102.301 109.1 114.023 108.817 121.198C108.462 130.363 106.12 156.648 106.12 156.648H82.9843C82.9843 156.648 80.6424 130.292 80.2875 121.198Z" fill="white"/>
<path d="M98.5972 98.9626C99.3778 98.9626 100.158 98.8915 100.939 98.7495C100.726 98.8915 95.1197 102.444 85.4681 99.3888L85.1133 93.9897V93.7056V93.6345C85.4681 93.8476 85.8229 94.1318 86.1068 94.487C88.8036 96.9734 92.7068 98.9626 98.5972 98.9626Z" fill="#B5B5B5"/>
<path d="M82.2747 88.7327C82.4876 89.301 82.7714 89.8694 83.1263 90.4377C83.4811 91.006 78.3005 92.4268 77.094 91.2191C76.1005 90.2246 77.8037 86.3884 75.3198 80.6341L76.4553 80.2789C77.165 82.339 78.8682 83.8309 80.9972 84.1861C81.2811 85.749 81.7069 87.2409 82.2747 88.7327Z" fill="#DDDDDD"/>
<path d="M47.0746 87.8802C47.6233 87.8802 48.0681 87.4349 48.0681 86.8856C48.0681 86.3363 47.6233 85.8911 47.0746 85.8911C46.5259 85.8911 46.0811 86.3363 46.0811 86.8856C46.0811 87.4349 46.5259 87.8802 47.0746 87.8802Z" fill="#727272"/>
<path d="M38.1326 105.711C39.41 106.067 40.7584 106.28 42.1068 106.209H42.3197C44.3778 106.209 46.3648 105.711 48.139 104.717L48.352 104.575L48.4229 104.504L48.7068 104.362H48.7778V109.05C41.539 109.619 36.2874 105.072 36.1455 104.93L36.4294 105.072C36.9261 105.285 37.4229 105.498 37.9907 105.64L38.1326 105.711H38.2035H38.1326Z" fill="#B5B5B5"/>
<path d="M36.5712 112.46C36.5712 112.46 36.3583 105.356 36.0745 105.001C36.2164 105.143 41.468 109.69 48.7068 109.121V112.816C47.0745 114.378 45.4422 115.373 42.7454 115.373C39.9777 115.302 38.3454 114.165 36.5712 112.46Z" fill="white"/>
<path d="M35.8617 87.0988C36.4104 87.0988 36.8553 86.6535 36.8553 86.1042C36.8553 85.5549 36.4104 85.1096 35.8617 85.1096C35.313 85.1096 34.8682 85.5549 34.8682 86.1042C34.8682 86.6535 35.313 87.0988 35.8617 87.0988Z" fill="#727272"/>
<path d="M34.8682 75.306C31.5327 76.4427 30.1843 81.8418 29.6875 84.8965L29.5456 84.7544L29.4746 84.6834L29.4036 84.6124L29.3327 84.4703V84.3992L29.1908 84.2572C29.1198 84.1861 29.0488 84.1151 29.0488 84.044L28.8359 83.902C28.694 83.7599 28.552 83.6888 28.4101 83.6178C27.9133 83.3336 27.2746 83.2626 26.7778 83.4047C27.4875 78.8581 28.481 70.1911 32.1714 67.2074C34.2294 65.5734 36.7843 64.6499 39.4101 64.6499C41.3972 64.6499 43.4552 65.0762 45.3004 65.9286C47.6423 64.6499 50.9778 63.1581 52.3972 63.7974C54.6681 64.863 50.0552 69.4096 49.8423 69.6228C50.0552 69.4807 54.1714 66.4259 55.5198 66.9943C57.6488 67.8467 56.8682 74.0273 56.8682 74.0273C60.5585 76.3006 58.4294 86.7436 58.4294 86.7436C58.2165 86.6725 58.0746 86.5305 57.8617 86.5305C57.7198 86.4594 57.5069 86.4594 57.294 86.4594H57.0101C56.7972 86.4594 56.5133 86.5305 56.3004 86.6015L56.0875 86.6725C55.6617 86.8857 55.2359 87.2409 54.952 87.6671L56.0165 79.9947C55.6617 80.492 55.094 80.9182 54.4552 81.0603C54.3133 81.0603 54.2423 81.0603 54.1004 81.0603H53.7456C52.894 80.8472 52.2553 79.6395 51.7585 78.2897L51.6875 78.0056C51.4036 77.011 51.1907 76.0875 51.0488 75.0929C51.0488 75.0219 51.0488 74.9508 51.0488 74.8798C51.0488 74.8087 51.0488 74.8087 51.0488 74.8087C51.0488 74.8087 51.3327 77.5793 47.9972 77.5793C46.0101 77.5793 44.2359 76.4427 43.4552 74.5956C42.6036 76.5848 40.6875 77.9345 38.5585 78.0766C34.7972 78.4318 34.8682 75.306 34.8682 75.306Z" fill="#B5B5B5"/>
<path d="M56.2295 86.5304C56.4424 86.4594 56.7262 86.3883 56.9391 86.3883H57.152C57.3649 86.3883 57.5069 86.4594 57.7198 86.4594C57.9327 86.5304 58.1456 86.6015 58.2875 86.6725C61.0553 88.0933 60.4875 91.5033 58.2875 93.0662C57.5069 93.6345 56.5133 93.9187 55.5907 93.8476C54.8811 96.9734 53.3907 99.815 51.2617 102.23C50.552 103.012 49.7004 103.722 48.7778 104.291H48.7069L48.423 104.433L48.3521 104.504L48.1391 104.646C46.3649 105.569 44.3779 106.067 42.3198 106.138H42.1069C40.7585 106.138 39.4101 105.996 38.1327 105.64H38.0617L37.9198 105.569C37.423 105.427 36.8553 105.214 36.3585 105.001C31.5327 102.799 29.0488 97.0445 28.9069 91.1481C27.9133 91.2902 26.9198 91.006 26.0682 90.4377C23.8682 88.8037 23.3004 85.1096 26.0682 83.6178C26.2811 83.4757 26.5649 83.4046 26.7778 83.3336C27.3456 83.1915 27.9133 83.2626 28.4101 83.5467C28.552 83.6178 28.694 83.7598 28.8359 83.8309L29.0488 83.973C29.1198 84.044 29.1908 84.115 29.1908 84.1861L29.3327 84.3282V84.3992L29.4037 84.5413L29.4746 84.6123L29.5456 84.6834L29.6875 84.8255C30.1843 81.7707 31.5327 76.3716 34.8682 75.235C34.8682 75.235 34.7972 78.3607 38.4875 78.0766C40.6166 77.8635 42.5327 76.5847 43.3843 74.5956C44.165 76.3716 46.0101 77.5793 47.9262 77.5793C51.2617 77.5793 50.9778 74.8087 50.9778 74.8087C50.9778 74.8087 50.9778 74.8087 50.9778 74.8798C50.9778 74.9508 50.9778 75.0218 50.9778 75.0929C51.1198 76.0874 51.3327 77.082 51.6166 78.0055L51.6875 78.2897C52.1133 79.5684 52.6811 80.8472 53.3907 80.9892L53.6746 81.0603C53.7456 81.0603 53.8166 81.0603 53.8875 81.0603C54.0295 81.0603 54.1004 81.0603 54.2424 81.0603C54.8811 80.9893 55.5198 80.563 55.8037 79.9947L54.7391 87.6671C55.023 87.2408 55.4488 86.8856 55.8746 86.6725L56.2295 86.5304ZM47.9972 86.8856C47.9972 86.3173 47.5714 85.8911 47.0036 85.8911C46.4359 85.8911 46.0101 86.3173 46.0101 86.8856C46.0101 87.454 46.4359 87.8802 47.0036 87.8802C47.5714 87.8092 47.9972 87.3829 47.9972 86.8856ZM36.7843 86.1042C36.7843 85.5359 36.3585 85.1096 35.7908 85.1096C35.223 85.1096 34.7972 85.5359 34.7972 86.1042C34.7972 86.6725 35.223 87.0988 35.7908 87.0988C36.3585 87.0988 36.7843 86.6725 36.7843 86.1042Z" fill="white"/>
<path d="M85.681 101.52C85.4681 101.52 85.3261 101.378 85.3261 101.165L84.8293 93.7055C84.8293 93.4924 84.9713 93.3503 85.1842 93.3503C85.3971 93.3503 85.539 93.4924 85.539 93.7055L86.0358 101.165C86.0358 101.378 85.8939 101.52 85.681 101.52Z" fill="#727272"/>
<path d="M86.1778 94.7711C86.1068 94.7711 86.0359 94.7711 85.9649 94.7001L85.5391 94.3449C85.3262 94.2028 85.1842 93.9897 85.0423 93.9186C84.8294 93.9186 84.6875 93.7055 84.7585 93.4924C84.8294 93.2793 84.9713 93.1372 85.1842 93.2082C85.5391 93.2793 85.823 93.4924 86.0359 93.7766L86.3907 94.1318C86.5326 94.2738 86.6036 94.487 86.4616 94.629C86.3907 94.7711 86.2488 94.7711 86.1778 94.7711Z" fill="#727272"/>
<path d="M98.2422 99.3177C93.7003 99.3888 89.3003 97.7548 85.8938 94.7001C85.7519 94.558 85.7519 94.3449 85.8938 94.2028C86.0357 94.0607 86.2487 94.0607 86.3906 94.2028C90.2938 97.6838 95.1906 99.1046 100.939 98.4653C101.152 98.4653 101.294 98.6073 101.294 98.7494C101.294 98.9625 101.152 99.1046 101.01 99.1046C100.087 99.2467 99.1648 99.3177 98.2422 99.3177Z" fill="#727272"/>
<path d="M154.52 85.2517C140.894 82.41 139.12 74.0272 139.262 69.2675C139.262 69.0544 139.404 68.9123 139.616 68.9123C139.829 68.9123 139.971 69.0544 139.971 69.2675C139.616 79.7815 148.984 83.3336 154.591 84.5413C154.804 84.6123 154.875 84.8254 154.804 84.9675C154.804 85.1096 154.662 85.1806 154.52 85.2517Z" fill="#727272"/>
<path d="M140.326 65.3603C140.113 65.3603 139.971 65.2182 139.971 65.0051C139.971 64.792 140.113 64.6499 140.326 64.6499C140.468 64.6499 140.61 64.7209 140.681 64.863C140.681 64.9341 140.752 65.0051 140.752 65.0762C140.681 65.2182 140.539 65.3603 140.326 65.3603Z" fill="#727272"/>
<path d="M140.326 65.3603C140.184 65.3603 140.042 65.2182 139.971 65.0761C139.758 63.7974 138.552 62.8738 137.204 63.0159C136.991 63.0159 136.849 62.8739 136.778 62.7318C136.707 62.5897 136.92 62.3766 137.062 62.3055C138.694 62.0924 140.255 63.2291 140.61 64.863C140.681 65.0761 140.539 65.2182 140.326 65.2892V65.3603Z" fill="#727272"/>
<path d="M140.255 65.3603H140.184C139.971 65.2892 139.9 65.1472 139.9 64.934V64.863C139.971 64.6499 140.184 64.5788 140.326 64.6499C140.539 64.7209 140.61 64.934 140.539 65.0761C140.539 65.2892 140.397 65.3603 140.255 65.3603Z" fill="#727272"/>
<path d="M140.326 65.3603H140.184C139.971 65.2893 139.9 65.0762 139.971 64.9341C140.823 62.3056 140.042 61.1689 140.042 61.1689C139.9 61.0268 139.971 60.8137 140.113 60.6716C140.255 60.5295 140.468 60.6006 140.61 60.7427C140.681 60.8137 141.675 62.1635 140.681 65.1472C140.61 65.2893 140.468 65.3603 140.326 65.3603Z" fill="#727272"/>
<path d="M155.017 88.2354C154.946 88.2354 154.875 88.2354 154.875 88.2354C154.733 88.1643 154.662 87.9512 154.733 87.7381C154.946 87.2408 155.3 86.7435 155.655 86.3883C155.797 86.2462 156.01 86.2462 156.152 86.4594C156.294 86.6014 156.294 86.8146 156.152 86.9567C155.797 87.3119 155.513 87.6671 155.3 88.0933C155.3 88.1644 155.158 88.2354 155.017 88.2354Z" fill="#727272"/>
<path d="M155.939 87.0277C155.726 87.0277 155.584 86.8856 155.584 86.6725C155.584 86.6015 155.655 86.4594 155.726 86.3883C156.294 85.749 157.145 85.4648 157.997 85.5359C158.21 85.5359 158.352 85.749 158.281 85.9621C158.281 86.1752 158.068 86.3173 157.855 86.2463C157.216 86.2463 156.649 86.4594 156.223 86.9567C156.081 86.9567 156.01 87.0277 155.939 87.0277Z" fill="#727272"/>
<path d="M157.287 88.2354C157.074 88.2354 156.933 88.0933 156.933 87.8802C156.862 87.3119 156.436 86.8856 155.868 86.9567C155.655 86.9567 155.513 86.8146 155.513 86.6015C155.513 86.3884 155.655 86.2463 155.868 86.2463C156.791 86.2463 157.571 86.9567 157.642 87.8092C157.713 88.0933 157.571 88.2354 157.287 88.2354Z" fill="#727272"/>
<path d="M128.404 84.6123C128.262 84.6123 128.12 84.5413 128.049 84.3992C127.907 83.973 127.694 83.6178 127.339 83.4046C127.197 83.2625 127.126 83.0494 127.268 82.9073C127.41 82.7653 127.623 82.6942 127.765 82.8363C128.191 83.1915 128.545 83.6177 128.758 84.1861C128.829 84.3992 128.758 84.5413 128.545 84.6123C128.475 84.6123 128.404 84.6123 128.404 84.6123Z" fill="#727272"/>
<path d="M127.552 83.4047C127.481 83.4047 127.41 83.4047 127.339 83.3336C126.984 83.0495 126.558 82.9074 126.062 82.9784C125.849 82.9784 125.707 82.8363 125.707 82.6943C125.707 82.4811 125.849 82.3391 126.062 82.3391C126.7 82.3391 127.268 82.4811 127.765 82.8363C127.907 82.9784 127.978 83.1915 127.836 83.3336C127.765 83.4047 127.623 83.4047 127.552 83.4047Z" fill="#727272"/>
<path d="M126.417 84.6123H126.275C126.062 84.5413 125.991 84.3282 126.062 84.1861C126.133 84.044 126.559 82.7653 127.481 82.7653V83.4757C127.126 83.4757 126.842 84.115 126.7 84.3992C126.7 84.5413 126.559 84.6123 126.417 84.6123Z" fill="#727272"/>
<path d="M142.526 94.487C141.887 94.487 141.32 94.4159 140.752 94.2028C140.539 94.1318 140.468 93.9187 140.539 93.7055C140.61 93.4924 140.823 93.4214 141.036 93.4924C142.668 94.1318 144.584 93.6345 145.649 92.2137C145.791 92.0716 146.004 92.0716 146.146 92.2137C146.287 92.3558 146.287 92.4978 146.217 92.711C145.365 93.8476 144.016 94.487 142.526 94.487Z" fill="#727272"/>
<path d="M141.036 90.7218C140.397 90.7218 139.829 90.5087 139.403 90.0825C138.907 89.5852 139.403 87.2408 139.971 85.3227C140.042 85.1096 140.255 85.0386 140.397 85.0386C140.61 85.1096 140.681 85.3227 140.681 85.4648C140.184 87.1698 139.829 89.1589 139.971 89.5141C140.539 90.0114 141.462 90.0825 142.1 89.6562C142.242 89.5852 142.455 89.5852 142.597 89.7983C142.739 90.0114 142.668 90.1535 142.455 90.2956C142.029 90.5798 141.533 90.7218 141.036 90.7218Z" fill="#727272"/>
<path d="M143.023 114.023C140.823 114.023 138.694 113.526 136.778 112.46C135.359 111.608 134.507 110.613 134.436 109.619C134.294 107.701 134.436 106.422 134.933 105.996C135.075 105.854 135.217 105.782 135.429 105.782C135.5 105.782 135.571 105.854 135.642 105.854C141.249 111.466 148.842 106.564 148.984 106.564C149.055 106.493 149.197 106.493 149.339 106.564C149.481 106.635 149.552 106.706 149.552 106.848C149.765 108.269 150.12 109.619 150.617 110.968C150.617 111.039 150.617 111.111 150.617 111.182C150.546 111.608 149.694 112.176 148.062 112.958C146.5 113.668 144.797 114.023 143.023 114.023ZM135.429 106.635C135.288 106.919 135.075 107.63 135.217 109.548C135.288 110.258 135.997 111.111 137.204 111.821C140.468 113.597 144.371 113.739 147.778 112.247C148.559 111.963 149.268 111.537 149.907 110.968C149.481 109.832 149.197 108.624 148.984 107.416C147.636 108.198 146.146 108.695 144.655 109.05C141.32 109.903 137.842 108.979 135.429 106.635Z" fill="#727272"/>
<path d="M159.204 157.003C158.991 157.003 158.849 156.861 158.849 156.719L157.429 143.718C157.429 143.505 157.571 143.363 157.713 143.363C157.926 143.363 158.068 143.505 158.139 143.647L159.558 156.648C159.558 156.79 159.417 157.003 159.204 157.003Z" fill="#727272"/>
<path d="M119.533 113.029C119.32 113.1 119.178 112.958 119.107 112.744C119.036 112.531 119.178 112.389 119.391 112.318C124.713 109.903 134.649 107.487 134.72 107.487C134.933 107.416 135.075 107.558 135.146 107.772C135.217 107.985 135.075 108.127 134.862 108.198C134.791 108.198 124.926 110.613 119.675 113.029C119.604 113.029 119.604 113.029 119.533 113.029Z" fill="#727272"/>
<path d="M175.668 157.003C175.455 157.003 175.313 156.861 175.313 156.648C175.313 156.434 172.829 132.707 171.339 126.597C169.707 119.92 166.442 116.439 166.442 116.368C166.3 116.225 166.3 116.012 166.442 115.87C166.584 115.728 166.797 115.728 166.939 115.87C167.081 116.012 170.346 119.493 172.049 126.384C173.539 132.565 176.023 156.292 176.023 156.506C176.023 156.79 175.881 157.003 175.668 157.003Z" fill="#727272"/>
<path d="M143.733 119.067C141.817 119.138 139.971 118.712 138.268 117.93C138.126 117.859 138.055 117.575 138.126 117.433C138.197 117.291 138.41 117.22 138.552 117.291C138.623 117.291 144.655 120.559 153.597 115.373C153.739 115.302 153.952 115.302 154.094 115.515C154.165 115.657 154.165 115.87 153.952 116.012C150.9 117.859 147.352 118.925 143.733 119.067Z" fill="#727272"/>
<path d="M78.8681 92.0716C78.1584 92.1427 77.4487 91.9295 76.881 91.5033C76.3842 91.006 76.3842 90.1535 76.4552 88.9458C76.5971 86.1752 76.1713 83.4046 75.0358 80.8472C74.3971 79.3553 73.5455 77.9345 72.552 76.5847C70.7068 74.0273 69.9971 71.5408 70.4939 69.1965C71.2036 65.7155 74.0423 63.5843 74.8939 63.087C74.8229 62.1635 74.681 58.6825 76.952 56.4092C79.2229 54.1359 83.8358 54.42 85.0423 54.5621C86.1778 51.0101 88.5197 48.7368 91.8552 47.8843C96.61 46.6766 102.855 48.7368 106.971 52.9282C110.236 56.196 111.371 60.4585 111.726 62.7318C111.868 63.5843 111.442 64.5078 110.591 64.863H110.52L110.449 64.9341C110.307 65.0051 110.094 64.934 109.952 64.792C109.881 64.6499 109.952 64.4368 110.094 64.2947C110.094 64.2947 110.094 64.2947 110.165 64.2947L110.307 64.6499L110.236 64.2947L110.307 64.2236C110.804 64.0105 111.087 63.4422 111.016 62.8739C110.662 60.6716 109.597 56.5512 106.404 53.4254C102.429 49.4472 96.4681 47.387 91.9971 48.5236C88.8746 49.3051 86.6036 51.5784 85.61 54.9884C85.5391 55.1304 85.3971 55.2725 85.2552 55.2725C85.1842 55.2725 79.8617 54.4911 77.4488 56.8354C75.0359 59.1797 75.6036 63.087 75.6036 63.158C75.6036 63.3001 75.5326 63.4422 75.4616 63.5132C75.4616 63.5132 71.9132 65.6445 71.2036 69.2675C70.7778 71.4698 71.4165 73.7431 73.1907 76.0874C74.1842 77.4372 75.1068 78.9291 75.7455 80.492C76.881 83.1205 77.3778 86.0331 77.2358 88.8748C77.2358 89.8693 77.2359 90.6508 77.4488 90.935C78.0165 91.2902 78.7261 91.4322 79.3648 91.2902C80.5713 91.2191 81.7068 90.935 82.7713 90.4377C82.4875 89.9404 82.2036 89.3721 81.9907 88.8037C81.9197 88.6617 81.9907 88.4485 82.1326 88.3064C82.2745 88.1644 82.4875 88.3064 82.6294 88.4485C82.6294 88.4485 82.6294 88.4485 82.6294 88.5196C82.8423 89.0879 83.1261 89.6562 83.41 90.1535C83.552 90.4377 83.481 90.7218 83.1971 90.8639C81.8487 91.6454 80.3584 92.0006 78.8681 92.0716Z" fill="#727272"/>
<path d="M82.2745 89.0879C82.1326 89.0879 81.9906 89.0169 81.9196 88.8748C81.4229 87.3829 80.9261 85.8911 80.6422 84.3282C80.5713 84.1151 80.7132 83.973 80.9261 83.902C81.139 83.8309 81.2809 83.973 81.3519 84.1151C81.6358 85.6069 82.0616 87.0988 82.6293 88.5196C82.7003 88.7327 82.6293 88.8748 82.4164 88.9458C82.4164 89.0879 82.3455 89.0879 82.2745 89.0879Z" fill="#727272"/>
<path d="M86.1779 94.7711C86.1069 94.7711 85.965 94.7711 85.965 94.7001C85.6101 94.3449 85.2553 93.9897 84.9004 93.5634C84.1198 92.6399 83.4101 91.6453 82.8423 90.5797C82.5585 90.0114 82.2746 89.4431 81.9907 88.8748C81.9198 88.6616 81.9907 88.5196 82.2036 88.4485C82.3456 88.3775 82.5585 88.4485 82.6295 88.6616C82.8424 89.23 83.1262 89.7983 83.4101 90.3666C83.9778 91.3612 84.6165 92.3557 85.3972 93.2082C85.681 93.5634 86.0359 93.9186 86.3907 94.2738C86.5327 94.4159 86.6036 94.6291 86.4617 94.7711C86.3907 94.7711 86.2488 94.7711 86.1779 94.7711Z" fill="#727272"/>
<path d="M103.494 98.3232C103.281 98.3942 103.139 98.2521 103.068 98.039C102.997 97.8259 103.139 97.6838 103.352 97.6128C115.204 92.2847 110.094 65.8576 109.881 64.6499C109.81 64.4367 109.952 64.2947 110.094 64.2236C110.165 64.2236 110.165 64.2236 110.236 64.2236C110.378 64.2236 110.52 64.3657 110.591 64.5078C111.513 69.3386 111.939 74.2404 111.939 79.2132C111.797 89.372 108.958 95.9788 103.707 98.3232C103.636 98.3232 103.565 98.3232 103.494 98.3232Z" fill="#727272"/>
<path d="M101.01 99.1757C100.797 99.1757 100.655 99.0336 100.655 98.8205C100.655 98.6073 100.797 98.4653 101.01 98.4653C101.862 98.3232 102.642 98.039 103.423 97.7549C103.636 97.6838 103.778 97.7549 103.849 97.968C103.92 98.1101 103.849 98.3232 103.707 98.3942C102.855 98.6784 101.933 98.9625 101.01 99.1757Z" fill="#727272"/>
<path d="M98.597 99.3178C93.3454 99.3178 89.0874 97.7549 85.8938 94.7001C85.7519 94.558 85.7519 94.3449 85.8938 94.2028C86.0357 94.0607 86.2487 94.0607 86.3906 94.2028C89.4422 97.1155 93.5583 98.6073 98.597 98.6073C99.3777 98.6073 100.158 98.5363 100.868 98.3942C101.081 98.3942 101.223 98.4653 101.294 98.6784C101.294 98.8915 101.223 99.0336 101.01 99.1046C100.229 99.2467 99.3777 99.3178 98.597 99.3178Z" fill="#727272"/>
<path d="M82.2746 89.0879C82.1327 89.0879 81.9907 89.0169 81.9197 88.8748C81.281 87.3829 80.8552 85.8911 80.6423 84.3282V84.2571C80.6423 84.044 80.7843 83.9019 80.9972 83.9019C81.2101 83.9019 81.352 84.044 81.352 84.2571V84.3282C81.5649 85.82 81.9907 87.3119 82.6294 88.7327C82.7004 88.9458 82.6294 89.0879 82.4875 89.23C82.4165 89.0879 82.3456 89.0879 82.2746 89.0879Z" fill="#727272"/>
<path d="M99.3069 66.9942C97.3907 66.9942 95.4746 66.8521 93.5584 66.639C90.4359 66.2838 87.3133 65.6444 84.2617 64.792C84.0488 64.7209 83.9778 64.5078 83.9778 64.3657C84.0488 64.1526 84.2617 64.0815 84.4036 64.0815C84.5456 64.1526 100.371 68.7702 110.094 64.2236C110.307 64.1526 110.449 64.2236 110.52 64.4367C110.591 64.5788 110.52 64.792 110.378 64.863C107.042 66.4969 102.997 66.9942 99.3069 66.9942Z" fill="#727272"/>
<path d="M80.9972 84.5413C78.7263 84.115 76.8811 82.5521 76.1004 80.3499C75.3908 78.2897 75.6746 75.6612 78.0166 74.5245C80.8553 73.1037 82.2746 74.8797 83.4101 76.3716L83.552 76.5137C83.9778 76.5137 84.3327 76.4426 84.7585 76.3006C85.3972 75.6612 84.9004 69.8358 83.9778 64.5788C83.9778 64.3657 84.0488 64.2236 84.2617 64.1526C84.4746 64.1526 84.6165 64.2236 84.6875 64.4367C84.9714 66.2838 86.4617 75.5901 85.2553 76.7978C84.6875 77.153 83.9779 77.2951 83.3391 77.2241C83.2682 77.2241 83.1263 77.153 83.1263 77.082L82.9133 76.7978C81.7778 75.377 80.7133 74.0272 78.3714 75.1639C76.3843 76.1585 76.1714 78.3607 76.8101 80.1367C77.4488 82.0548 79.0811 83.4757 81.0682 83.8309C81.2811 83.8309 81.423 84.044 81.423 84.1861C81.423 84.3281 81.2101 84.5413 80.9972 84.5413Z" fill="#727272"/>
<path d="M101.436 88.0933C97.5325 88.0933 96.6099 84.9675 96.6099 84.8965C96.539 84.6834 96.6809 84.5413 96.8228 84.4703C97.0357 84.3992 97.1777 84.5413 97.2486 84.6834C97.2486 84.8254 98.2422 88.0223 102.855 87.1698C103.068 87.0988 103.21 87.2408 103.281 87.454C103.352 87.6671 103.21 87.8092 102.997 87.8802C102.5 88.0223 101.933 88.0933 101.436 88.0933Z" fill="#727272"/>
<path d="M103.139 83.2626C102.359 83.2626 101.649 83.1205 100.939 82.9784C100.726 82.9074 100.655 82.7653 100.655 82.5522C100.726 82.339 100.868 82.268 101.081 82.268C102.288 82.5522 103.778 82.6232 104.062 82.3391C104.346 81.9128 103.778 79.0712 103.139 76.5848C103.068 76.3716 103.21 76.1585 103.423 76.1585C103.636 76.1585 103.849 76.2296 103.849 76.4427C104.417 78.5739 105.197 82.197 104.559 82.8363C104.204 83.1915 103.636 83.3336 103.139 83.2626Z" fill="#727272"/>
<path d="M82.6295 81.2734C82.4876 81.2734 82.3457 81.1313 82.2747 80.9893C82.1328 80.0657 81.7779 79.2843 81.1392 78.5739C80.5005 77.9345 79.7199 77.5083 78.8683 77.4372C78.6554 77.4372 78.5134 77.2951 78.5134 77.082C78.5134 76.8689 78.6554 76.7268 78.8683 76.7268C79.9328 76.7978 80.9263 77.2951 81.636 78.0766C82.3457 78.858 82.7715 79.7816 82.9844 80.8472C82.9844 80.9893 82.8424 81.2024 82.6295 81.2734Z" fill="#727272"/>
<path d="M79.6489 80.0657H79.5779C79.365 79.9947 79.294 79.7816 79.365 79.6395C79.6489 78.716 80.5005 78.0056 81.4231 78.0056C81.636 78.0056 81.7779 78.1476 81.7779 78.3608C81.7779 78.5739 81.636 78.716 81.4231 78.716C80.7844 78.787 80.2166 79.2132 80.0037 79.8526C79.9327 79.9947 79.7908 80.0657 79.6489 80.0657Z" fill="#727272"/>
<path d="M103.281 102.657C103.068 102.657 102.926 102.444 102.926 102.301C103.068 101.236 103.068 100.17 103.139 99.6019C103.21 98.7494 103.21 98.1101 103.21 98.1101C103.21 97.897 103.352 97.7549 103.565 97.7549C103.778 97.7549 103.92 97.897 103.92 98.1101C103.92 98.1101 103.92 98.7495 103.849 99.673C103.849 100.241 103.778 101.378 103.636 102.444C103.636 102.515 103.423 102.657 103.281 102.657Z" fill="#727272"/>
<path d="M85.6811 101.52C85.4682 101.52 85.3263 101.378 85.3263 101.165C85.2553 100.739 85.2553 100.312 85.1843 99.8861L85.1134 99.3888C84.9714 97.1155 84.8295 94.6291 84.7585 93.9897V93.6345C84.7585 93.4214 84.9005 93.2793 85.1134 93.2793C85.3263 93.2793 85.4682 93.4214 85.4682 93.6345V93.7055V93.9187C85.4682 94.6291 85.6102 97.0445 85.8231 99.3178V99.815C85.8231 100.241 85.894 100.668 85.965 101.094C86.036 101.307 85.894 101.52 85.6811 101.52Z" fill="#727272"/>
<path d="M85.1134 93.9186C84.9005 93.9186 84.7585 93.7766 84.7585 93.5634V93.3503C84.7585 93.1372 84.9005 92.9951 85.1134 92.9951C85.3263 92.9951 85.4682 93.0662 85.4682 93.2793C85.4682 93.2793 85.4682 93.2793 85.4682 93.3503C85.4682 93.3503 85.4682 93.4214 85.4682 93.6345C85.4682 93.7766 85.3263 93.9186 85.1134 93.9186C85.1844 93.9186 85.1844 93.9186 85.1134 93.9186Z" fill="#727272"/>
<path d="M94.6938 107.203C93.3454 107.203 92.068 107.061 90.7196 106.848C88.0228 106.28 86.2487 105.285 85.6809 104.006C85.468 103.296 85.3261 102.586 85.3261 101.875L85.2551 101.307C85.2551 101.094 85.397 100.952 85.539 100.881C85.6809 100.81 85.8938 101.023 85.9648 101.165L86.0358 101.733C86.0358 102.372 86.1777 103.083 86.3196 103.722C86.7454 104.788 88.4487 105.64 90.7906 106.138C94.6938 106.919 100.087 106.564 102.358 104.22C102.358 104.22 102.571 103.864 102.784 102.23C102.784 102.017 102.997 101.875 103.21 101.946C103.423 102.017 103.565 102.159 103.494 102.372C103.281 104.148 103.068 104.575 102.855 104.788C101.223 106.422 97.9583 107.203 94.6938 107.203Z" fill="#727272"/>
<path d="M82.9843 157.003C82.7714 157.003 82.6294 156.861 82.6294 156.648C82.6294 156.363 80.2875 130.149 79.9327 121.127C79.6488 113.952 85.1842 102.017 85.3972 101.52C85.4681 101.307 85.681 101.236 85.8939 101.378C86.1068 101.449 86.1778 101.662 86.0359 101.875C85.9649 102.017 80.3585 114.094 80.6423 121.127C80.9972 130.149 83.3391 156.292 83.3391 156.577C83.3391 156.79 83.1972 156.932 82.9843 157.003Z" fill="#727272"/>
<path d="M106.12 157.003C105.907 157.003 105.765 156.79 105.765 156.648C105.765 156.363 108.107 130.22 108.462 121.198C108.746 114.165 102.997 102.586 102.926 102.444C102.855 102.301 102.926 102.088 103.068 101.946C103.139 101.946 103.21 101.875 103.21 101.875C103.352 101.875 103.494 101.946 103.565 102.088C103.991 102.941 109.384 114.023 109.1 121.127C108.746 130.149 106.404 156.363 106.404 156.648C106.475 156.932 106.262 157.003 106.12 157.003Z" fill="#727272"/>
<path d="M138.41 157.003C138.197 157.003 138.055 156.861 138.055 156.719C137.984 156.363 133.939 121.767 129.539 117.291C127.623 115.373 124.075 114.378 120.668 113.384L119.462 113.029C115.487 111.892 111.939 110.613 111.939 107.63C111.939 102.657 103.636 99.8861 103.494 99.8151C103.281 99.744 103.21 99.5309 103.281 99.3178C103.352 99.1046 103.565 99.0336 103.778 99.1046C104.133 99.2467 112.649 102.017 112.649 107.558C112.649 110.045 115.984 111.182 119.675 112.247L120.881 112.602C124.358 113.597 127.978 114.592 130.036 116.723C134.649 121.34 138.623 155.085 138.765 156.577C138.836 156.79 138.694 156.932 138.41 157.003Z" fill="#727272"/>
<path d="M50.7648 157.003C50.5518 157.003 50.4099 156.79 50.4099 156.648C50.5518 155.227 54.526 121.411 59.068 116.794C61.126 114.734 64.7454 113.668 68.2938 112.673C72.4809 111.466 76.4551 110.329 76.4551 107.63C76.4551 102.088 85.0422 99.1046 85.397 99.0336C85.6099 98.9626 85.7519 99.1046 85.8228 99.2467C85.8938 99.3888 85.7519 99.6019 85.6099 99.673C85.539 99.673 77.1648 102.586 77.1648 107.63C77.1648 110.897 72.9067 112.105 68.5067 113.313C65.1002 114.307 61.5518 115.302 59.6357 117.22C55.2357 121.625 51.1906 156.292 51.1906 156.648C51.1196 156.861 50.9777 157.003 50.7648 157.003Z" fill="#727272"/>
<path d="M77.5196 157.003C77.3777 157.003 77.3067 156.932 77.2358 156.861C73.5454 151.746 73.1196 125.035 73.1196 123.898C73.1196 123.685 73.2616 123.543 73.4745 123.543C73.6874 123.543 73.8293 123.685 73.8293 123.898C73.8293 124.182 74.1842 151.462 77.8035 156.434C77.9455 156.577 77.8745 156.79 77.7325 156.932C77.6616 157.003 77.5906 157.003 77.5196 157.003Z" fill="#727272"/>
<path d="M111.584 157.003C111.371 157.003 111.229 156.861 111.229 156.648C111.229 156.577 111.229 156.506 111.3 156.434C114.92 151.533 115.275 124.182 115.275 123.898C115.275 123.685 115.417 123.543 115.63 123.543C115.842 123.543 115.984 123.685 115.984 123.898C115.984 125.035 115.63 151.746 111.868 156.861C111.797 157.003 111.655 157.003 111.584 157.003Z" fill="#727272"/>
<path d="M94.41 109.903C87.4552 109.903 83.8358 106.848 83.6229 106.706C83.481 106.564 83.481 106.351 83.552 106.209C83.623 106.067 83.9068 106.067 84.0488 106.138C84.1197 106.209 89.6552 110.755 100.017 108.482C100.229 108.411 100.371 108.553 100.442 108.766C100.513 108.979 100.371 109.121 100.158 109.192C98.3133 109.69 96.3971 109.903 94.41 109.903Z" fill="#727272"/>
<path d="M66.9454 157.003C66.7325 157.003 66.5906 156.79 66.5906 156.648L67.5132 148.904C67.5132 148.691 67.7261 148.549 67.939 148.62C68.1519 148.691 68.2938 148.833 68.2229 149.046L67.3003 156.79C67.3003 156.861 67.1583 157.003 66.9454 157.003Z" fill="#727272"/>
<path d="M121.52 157.003C121.307 157.003 121.165 156.861 121.165 156.719L120.171 148.975C120.171 148.762 120.313 148.62 120.455 148.549C120.597 148.478 120.81 148.691 120.881 148.833L121.875 156.577C121.946 156.79 121.804 157.003 121.52 157.003Z" fill="#727272"/>
<path d="M37.9197 105.996H37.8487C37.281 105.853 36.7842 105.64 36.2875 105.427C36.1455 105.356 36.0745 105.143 36.1455 104.93C36.2165 104.788 36.4294 104.717 36.5713 104.788C37.0681 105.001 37.5649 105.214 38.0617 105.356C38.2746 105.427 38.3455 105.64 38.2745 105.853C38.1326 105.853 38.0616 105.996 37.9197 105.996Z" fill="#727272"/>
<path d="M41.7519 106.564C40.4745 106.564 39.2681 106.351 37.9906 106.067C37.7777 105.996 37.7068 105.782 37.7068 105.64C37.7068 105.498 37.9906 105.356 38.1326 105.356C39.41 105.711 40.6874 105.853 42.0358 105.853C42.2487 105.853 42.3906 105.996 42.3906 106.209C42.3906 106.422 42.2487 106.564 42.0358 106.564H41.7519Z" fill="#727272"/>
<path d="M48.7069 104.717C48.565 104.717 48.494 104.646 48.4231 104.575C48.3521 104.433 48.3521 104.22 48.565 104.077H48.6359C48.8488 104.006 48.9908 104.077 49.1327 104.291C49.2037 104.433 49.1327 104.646 48.9908 104.717C48.8488 104.717 48.7779 104.717 48.7069 104.717Z" fill="#727272"/>
<path d="M48.423 104.859C48.2101 104.859 48.0681 104.717 48.0681 104.504C48.0681 104.362 48.1391 104.291 48.2101 104.22L48.423 104.077C48.5649 104.006 48.7778 104.006 48.9197 104.22C48.9907 104.362 48.9907 104.575 48.8487 104.717L48.5649 104.859C48.5649 104.859 48.4939 104.859 48.423 104.859Z" fill="#727272"/>
<path d="M42.3197 106.564C42.1068 106.564 41.9648 106.422 41.9648 106.209C41.9648 105.996 42.1068 105.854 42.3197 105.854C44.3068 105.782 46.2229 105.285 47.9971 104.362C48.139 104.291 48.3519 104.362 48.4938 104.504C48.5648 104.646 48.4939 104.859 48.3519 105.001C46.4358 105.925 44.4487 106.493 42.3197 106.564Z" fill="#727272"/>
<path d="M36.3585 105.427C36.2875 105.427 36.2875 105.427 36.2166 105.427L35.9327 105.285C35.7908 105.214 35.7198 105.001 35.7908 104.788C35.8617 104.646 36.0746 104.575 36.2166 104.646L36.5005 104.788C36.6424 104.93 36.7133 105.143 36.5714 105.285C36.5714 105.356 36.4295 105.427 36.3585 105.427Z" fill="#727272"/>
<path d="M42.3198 106.564H42.1068C40.7585 106.564 39.3391 106.351 38.0617 106.067C37.8488 105.996 37.7778 105.853 37.7778 105.64C37.7778 105.427 37.9907 105.356 38.2036 105.356C39.481 105.711 40.7585 105.853 42.1068 105.853H42.3198C42.5327 105.853 42.6746 105.996 42.6746 106.209C42.6746 106.422 42.5327 106.564 42.3198 106.564Z" fill="#727272"/>
<path d="M38.0618 105.996H37.9908L37.8489 105.925C37.636 105.854 37.565 105.64 37.636 105.498C37.707 105.285 37.9199 105.214 38.0618 105.285C38.2747 105.356 38.4166 105.498 38.3457 105.711C38.3457 105.925 38.2038 105.996 38.0618 105.996Z" fill="#727272"/>
<path d="M51.6874 78.3607C51.5454 78.3607 51.4035 78.2897 51.3325 78.0766C51.0487 77.082 50.8358 76.0874 50.6938 75.0929C50.6938 75.0218 50.6938 74.9508 50.6938 74.8797C50.6938 74.6666 50.8358 74.5245 50.9777 74.4535C51.1906 74.4535 51.3325 74.5956 51.3325 74.7377C51.3325 74.8087 51.3325 74.8087 51.3325 74.9508C51.4745 75.9453 51.6874 76.8689 51.9713 77.8635C52.0422 78.0766 51.9003 78.2187 51.7584 78.2897L51.6874 78.3607Z" fill="#727272"/>
<path d="M54.3844 81.4155C54.1715 81.4155 54.0295 81.2734 54.0295 81.0603C54.0295 80.8472 54.1715 80.7051 54.3844 80.7051C54.9521 80.634 55.4489 80.3499 55.7327 79.8526C55.8747 79.7105 56.0876 79.6395 56.2295 79.7815C56.3715 79.8526 56.4424 80.0657 56.3715 80.2078C55.8747 80.8472 55.165 81.2734 54.3844 81.4155Z" fill="#727272"/>
<path d="M53.9585 81.4155C53.8875 81.4155 53.7456 81.4155 53.6747 81.4155C53.4618 81.4155 53.3198 81.2024 53.3908 80.9892C53.4617 80.7761 53.6037 80.634 53.8166 80.7051H53.9585C54.1714 80.7051 54.3133 80.8471 54.3133 81.0603C54.3133 81.2734 54.1714 81.4155 54.0295 81.4155H53.9585Z" fill="#727272"/>
<path d="M53.7456 81.4155H53.6746C52.823 81.2024 52.0424 80.2078 51.4746 78.4318C51.4036 78.2186 51.4746 78.0766 51.6875 78.0055C51.9004 77.9345 52.0424 78.0055 52.1133 78.2186C52.6101 79.7105 53.1778 80.634 53.8165 80.7761C54.0294 80.8471 54.1004 81.0603 54.0295 81.2023C54.0295 81.2734 53.8875 81.3444 53.7456 81.4155Z" fill="#727272"/>
<path d="M54.0294 81.4155C53.8165 81.4155 53.6746 81.2734 53.6746 81.0603C53.6746 80.8472 53.8165 80.7051 54.0294 80.7051H54.2423H54.3132C54.5261 80.7051 54.6681 80.8472 54.7391 80.9892C54.81 81.1313 54.5971 81.3444 54.4552 81.4155H54.3842C54.2423 81.4155 54.1004 81.4155 54.0294 81.4155Z" fill="#727272"/>
<path d="M48.2811 104.93C48.0682 104.93 47.9263 104.788 47.9263 104.575C47.9263 104.433 47.9972 104.291 48.1392 104.22L48.2811 104.575L48.1392 104.22L48.2102 104.149L48.4231 104.006C48.4231 104.006 48.494 103.935 48.565 103.935C49.4166 103.367 50.1972 102.728 50.9069 101.946C53.036 99.6019 54.4553 96.8313 55.165 93.7766C55.236 93.6345 55.3779 93.4924 55.5198 93.4924C56.3714 93.5634 57.294 93.3503 58.0037 92.782C59.1392 92.0006 59.7779 90.7218 59.7069 89.372C59.636 88.3064 58.9972 87.3829 58.0746 86.9567C57.8617 86.8856 57.7908 86.6725 57.8618 86.5304C57.9327 86.3173 58.1457 86.2462 58.2876 86.3173C58.2876 86.3173 58.3585 86.3173 58.3585 86.3883C59.494 86.9567 60.2747 88.0933 60.4166 89.372C60.4876 91.006 59.7069 92.4978 58.4295 93.4214C57.6488 93.9897 56.7263 94.2738 55.8037 94.2738C55.094 97.3286 53.5327 100.17 51.4037 102.515C50.6231 103.296 49.7714 104.006 48.8488 104.646L48.4231 104.859C48.4231 104.93 48.3521 104.93 48.2811 104.93Z" fill="#727272"/>
<path d="M28.4099 83.9019C28.339 83.9019 28.268 83.9019 28.268 83.8309C27.8422 83.5467 27.3454 83.5467 26.8486 83.6888C26.6357 83.7598 26.4229 83.6177 26.4229 83.4046C26.4229 83.1915 26.4938 82.9784 26.7067 82.9784C27.3455 82.7652 28.0551 82.9073 28.6228 83.2625C28.8357 83.3336 28.9067 83.5467 28.8358 83.6888C28.6938 83.8309 28.5519 83.9729 28.4099 83.9019Z" fill="#727272"/>
<path d="M28.9778 84.3992C28.9068 84.3992 28.7649 84.3282 28.7649 84.3282L28.6229 84.1861C28.481 84.044 28.481 83.8309 28.552 83.6888C28.6939 83.5467 28.9068 83.5467 29.0488 83.6178L29.2617 83.8309C29.4036 83.973 29.4036 84.1861 29.2617 84.3282C29.1907 84.3992 29.1197 84.3992 28.9778 84.3992Z" fill="#727272"/>
<path d="M36.3584 105.427C36.2874 105.427 36.2874 105.427 36.2164 105.427C31.7455 103.367 28.8358 98.1101 28.5519 91.6454C27.5584 91.7164 26.6358 91.3612 25.7842 90.7929C24.4358 89.7983 23.7261 88.1644 23.7971 86.5304C23.8681 85.1807 24.6487 84.044 25.8552 83.4046C26.0681 83.2626 26.3519 83.1915 26.6358 83.1205C26.8487 83.0494 27.0616 83.1915 27.0616 83.4046C27.0616 83.6178 26.9906 83.8309 26.7777 83.8309C26.5648 83.9019 26.3519 83.973 26.21 84.044C25.2165 84.5413 24.5778 85.4648 24.5778 86.6015C24.5068 88.0223 25.1455 89.4431 26.281 90.2956C26.9906 90.8639 27.9842 91.1481 28.9068 91.006C29.1197 91.006 29.2616 91.1481 29.3326 91.2902C29.3326 91.2902 29.3326 91.2902 29.3326 91.3612C29.4745 97.7549 32.2423 102.941 36.5713 104.93C36.7132 105.072 36.6423 105.285 36.5003 105.427C36.4294 105.356 36.4294 105.427 36.3584 105.427Z" fill="#727272"/>
<path d="M37.9198 105.996H37.8488C37.2811 105.853 36.7843 105.64 36.2166 105.427C36.0037 105.356 35.9327 105.143 36.0037 105.001C36.0746 104.788 36.2875 104.717 36.4295 104.788C36.4295 104.788 36.4295 104.788 36.5004 104.788C36.9972 105.001 37.494 105.214 37.9908 105.356C38.2037 105.427 38.2746 105.64 38.2036 105.782C38.2036 105.853 38.0617 105.996 37.9198 105.996Z" fill="#727272"/>
<path d="M42.3197 106.564C42.1068 106.564 41.9648 106.422 41.9648 106.209C41.9648 105.996 42.1068 105.853 42.3197 105.853C44.3068 105.853 46.2229 105.356 47.9261 104.433L48.139 104.362C48.2809 104.291 48.4938 104.291 48.6358 104.504C48.7067 104.646 48.7067 104.859 48.4938 105.001L48.2809 105.143C46.4358 106.067 44.3777 106.564 42.3197 106.564Z" fill="#727272"/>
<path d="M38.1326 106.067H37.9906C37.7777 105.996 37.7068 105.853 37.7068 105.64C37.7068 105.427 37.9197 105.356 38.1326 105.356H38.2035C38.4164 105.427 38.4874 105.569 38.4874 105.782C38.4874 105.925 38.3455 106.067 38.1326 106.067Z" fill="#727272"/>
<path d="M57.7197 86.8146H57.6488C57.5069 86.7435 57.3649 86.7435 57.223 86.7435C57.0101 86.7435 56.8682 86.5304 56.8682 86.3883C56.8682 86.1752 57.0101 86.0331 57.223 86.0331C57.4359 86.0331 57.6488 86.1042 57.8617 86.1752C58.0746 86.2463 58.1455 86.4594 58.0746 86.6725C58.0036 86.7435 57.8617 86.8146 57.7197 86.8146Z" fill="#727272"/>
<path d="M29.1908 84.6123C29.1198 84.6123 28.9778 84.5413 28.9069 84.4703L28.7649 84.3282L28.623 84.1861C28.481 84.115 28.3391 83.973 28.1972 83.9019C27.7714 83.6888 27.2746 83.6178 26.7778 83.7598C26.5649 83.8309 26.423 83.6888 26.3521 83.4757V83.4046C26.3521 83.1915 26.494 83.0494 26.7069 83.0494C27.3456 82.9074 27.9843 82.9784 28.552 83.3336C28.694 83.4046 28.9069 83.5467 29.0488 83.6888L29.2617 83.9019C29.3327 83.973 29.4036 84.044 29.4746 84.1151C29.6165 84.2571 29.5456 84.4703 29.4037 84.6123C29.3327 84.6123 29.2617 84.6123 29.1908 84.6123Z" fill="#727272"/>
<path d="M56.2295 86.8856C56.0166 86.8856 55.8747 86.8146 55.8037 86.6015C55.8037 86.3884 55.8747 86.2463 56.0876 86.1752C56.3714 86.1042 56.5844 86.0331 56.8682 86.0331C57.0811 86.0331 57.2231 86.1042 57.2231 86.3173V86.3883C57.2231 86.6015 57.0811 86.7436 56.8682 86.7436C56.6553 86.7436 56.5134 86.8146 56.3004 86.8856C56.3714 86.8856 56.3005 86.8856 56.2295 86.8856Z" fill="#727272"/>
<path d="M29.6873 85.2517C29.5454 85.2517 29.4744 85.1807 29.4035 85.1096L29.3325 84.9675C29.1906 84.8255 29.2615 84.5413 29.4035 84.4703C29.5454 84.3282 29.7583 84.3992 29.9003 84.5413L29.9712 84.6834C30.1131 84.8255 30.0422 85.0386 29.9003 85.1807C29.8293 85.2517 29.7583 85.2517 29.6873 85.2517Z" fill="#727272"/>
<path d="M29.4745 84.9675C29.3326 84.9675 29.2616 84.8965 29.1907 84.8254L29.1197 84.7544C28.9777 84.6123 28.9778 84.3992 29.1907 84.2571C29.3326 84.115 29.5455 84.115 29.6874 84.3281L29.8293 84.4702C29.9713 84.6123 29.9003 84.8254 29.7584 84.9675C29.6165 84.8965 29.5455 84.9675 29.4745 84.9675Z" fill="#727272"/>
<path d="M29.5456 85.1096C29.4746 85.1096 29.3327 85.0386 29.2617 84.9675L29.5456 84.6834L29.2617 84.8254C29.1198 84.6834 29.1907 84.4702 29.3326 84.3282C29.4746 84.2571 29.6875 84.2571 29.7585 84.3992L29.8294 84.4702C29.9714 84.6123 29.9004 84.8254 29.7585 84.9675C29.6875 85.0386 29.6166 85.1096 29.5456 85.1096Z" fill="#727272"/>
<path d="M26.7069 83.6888C26.423 83.6888 26.3521 83.4756 26.3521 83.2625L26.494 82.1969C27.2036 77.2241 28.3391 69.7648 31.8165 66.8521C33.9456 65.1471 36.5714 64.2236 39.2681 64.2236C41.2552 64.2236 43.2423 64.6499 45.0875 65.4313C48.6359 63.5132 51.1198 62.8738 52.3262 63.3711C52.752 63.5132 53.0359 63.9395 53.1068 64.3657C53.3907 65.9996 50.9069 68.6992 49.8424 69.7648C49.7004 69.9069 49.4875 69.9069 49.3456 69.7648C49.2036 69.6227 49.2036 69.4096 49.3456 69.2675C50.9778 67.6336 52.6101 65.5024 52.3972 64.5078C52.3262 64.2947 52.1843 64.0815 51.9714 64.0105C50.9778 63.5843 48.5649 64.2947 45.2294 66.1417C45.1585 66.2128 45.0165 66.2128 44.8746 66.1417C43.1004 65.3603 41.1843 64.934 39.1972 64.863C36.6424 64.863 34.1585 65.7155 32.1714 67.2784C28.8359 69.9779 27.7714 77.5793 27.0617 82.1259L26.8488 83.1915C27.0617 83.6177 26.9198 83.6888 26.7069 83.6888Z" fill="#727272"/>
<path d="M58.2874 87.0987C58.0035 87.0277 57.9326 86.8856 57.9326 86.6725C57.9326 86.6014 59.9906 76.4426 56.5132 74.3824C56.3713 74.3114 56.3003 74.1693 56.3713 74.0272C56.5842 72.3933 56.7971 68.0598 55.2358 67.4205C54.3842 67.0653 51.2616 68.9123 49.9132 69.9779C49.7713 70.12 49.4874 70.049 49.4165 69.9069C49.4165 69.8358 49.3455 69.7648 49.3455 69.7648C49.3455 69.6227 49.4164 69.4806 49.5584 69.4806C50.1261 69.0544 54.0293 66.2128 55.5197 66.8521C57.6487 67.7046 57.2939 72.7485 57.081 74.0272C60.7003 76.6557 58.7132 86.5304 58.6423 86.9567C58.5713 86.9567 58.4294 87.0277 58.2874 87.0987Z" fill="#727272"/>
<path d="M29.1907 84.6123C29.1198 84.6123 28.9778 84.5413 28.9778 84.5413C28.8359 84.3992 28.8359 84.1861 28.9778 84.044C29.1197 83.9019 29.3326 83.9019 29.4746 84.044C29.6165 84.1861 29.6165 84.3992 29.4746 84.5413C29.4036 84.6123 29.3327 84.6123 29.1907 84.6123Z" fill="#727272"/>
<path d="M54.952 88.0223C54.7391 88.0223 54.5972 87.8802 54.5972 87.6671C54.5972 87.596 54.5972 87.525 54.6681 87.454C55.023 86.9567 55.4488 86.6015 55.9455 86.3173C56.0875 86.2463 56.3004 86.3173 56.4423 86.4594C56.5133 86.6015 56.4423 86.8146 56.3004 86.9567C55.8746 87.1698 55.5907 87.454 55.3068 87.8802C55.1649 87.9512 55.023 88.0223 54.952 88.0223Z" fill="#727272"/>
<path d="M54.0294 81.4155H53.7455C53.5326 81.4155 53.3906 81.2024 53.4616 80.9892C53.4616 80.7761 53.6745 80.634 53.8164 80.7051H54.0294C54.2423 80.7051 54.3842 80.9182 54.3132 81.1313C54.3132 81.2734 54.1713 81.4155 54.0294 81.4155Z" fill="#727272"/>
<path d="M29.3326 84.8255C29.2617 84.8255 29.1198 84.7544 29.0488 84.6834V84.6123C28.9778 84.4703 28.9778 84.2571 29.1907 84.1151C29.3327 84.044 29.5455 84.044 29.6875 84.2571C29.8294 84.3992 29.7585 84.6834 29.6165 84.7544C29.4746 84.7544 29.4036 84.8255 29.3326 84.8255Z" fill="#727272"/>
<path d="M53.7456 81.4155L53.3907 81.3444C52.6101 81.1313 51.9714 80.2078 51.4037 78.3607L51.3327 78.0766C51.2617 77.8634 51.4037 77.6503 51.6166 77.6503C51.8295 77.5793 52.0423 77.7214 52.0423 77.9345L52.1133 78.2186C52.752 80.2788 53.3198 80.634 53.5327 80.7051L53.7456 80.7761C53.9585 80.8471 54.0295 80.9892 54.0295 81.2023C54.1004 81.2734 53.9585 81.4155 53.7456 81.4155Z" fill="#727272"/>
<path d="M51.6874 78.3608C51.5454 78.3608 51.4035 78.2897 51.3325 78.0766C51.0487 77.082 50.8358 76.0875 50.6938 75.0929C50.6938 75.0218 50.6938 74.9508 50.6938 74.8798C50.6938 74.6667 50.7648 74.5246 50.9777 74.4535C51.1196 74.3825 51.3326 74.5246 51.4035 74.6667V74.7377C51.4035 74.8087 51.4035 74.8798 51.4035 74.9508C51.5455 75.9454 51.7583 76.8689 52.0422 77.8635C52.1132 78.0766 51.9712 78.2187 51.8293 78.2897L51.6874 78.3608Z" fill="#727272"/>
<path d="M29.4747 85.0386C29.3327 85.0386 29.2618 84.9676 29.1908 84.8965L29.1198 84.8255C28.9779 84.6834 29.0489 84.4703 29.1908 84.3282C29.3328 84.1861 29.5456 84.2571 29.6876 84.3992L29.4037 84.6834L29.6876 84.5413C29.8295 84.6834 29.7586 84.8965 29.6166 85.0386C29.6166 84.9675 29.5456 85.0386 29.4747 85.0386Z" fill="#727272"/>
<path d="M54.952 88.0223C54.7391 88.0223 54.5972 87.8091 54.5972 87.596L55.6617 79.9236C55.6617 79.7105 55.8746 79.5684 56.0165 79.6395C56.2294 79.6395 56.3713 79.8526 56.3004 80.0657L55.2359 87.7381C55.2359 87.8802 55.0939 88.0223 54.952 88.0223Z" fill="#727272"/>
<path d="M54.3844 81.4155C54.1715 81.4155 54.0295 81.2734 54.0295 81.0603C54.0295 80.8471 54.1715 80.7051 54.3844 80.7051C54.9521 80.563 55.3779 80.2788 55.7327 79.8526C55.8037 79.7105 56.0166 79.6394 56.2295 79.7105C56.3715 79.7815 56.3715 79.9236 56.3715 79.9947C56.3715 80.0657 56.3005 80.2078 56.2295 80.2788C55.8037 80.8471 55.165 81.2024 54.3844 81.4155Z" fill="#727272"/>
<path d="M54.0294 81.4155C53.8165 81.4155 53.6746 81.2734 53.6746 81.0603C53.6746 80.8472 53.8165 80.7051 54.0294 80.7051C54.1004 80.7051 54.2423 80.7051 54.3132 80.7051C54.5261 80.7051 54.6681 80.7761 54.7391 80.9892C54.7391 81.2024 54.6681 81.3444 54.4552 81.4155C54.3132 81.4155 54.1713 81.4155 54.0294 81.4155Z" fill="#727272"/>
<path d="M29.3325 84.7544C29.2616 84.7544 29.1197 84.6834 29.0487 84.6123L28.9067 84.4702C28.7648 84.3282 28.7648 84.115 28.9067 83.973C29.0487 83.8309 29.2616 83.8309 29.4035 83.973L29.5455 84.115C29.6874 84.2571 29.6874 84.4702 29.5455 84.6123C29.4745 84.7544 29.4035 84.7544 29.3325 84.7544Z" fill="#727272"/>
<path d="M57.2231 86.7435H57.0101C56.7972 86.7435 56.6553 86.6015 56.6553 86.3883C56.6553 86.1752 56.7972 86.0331 57.0101 86.0331H57.294C57.5069 86.0331 57.6488 86.1752 57.6488 86.3883C57.6488 86.6015 57.365 86.7435 57.2231 86.7435Z" fill="#727272"/>
<path d="M58.2874 87.0988C58.2164 87.0988 58.1454 87.0988 58.1454 87.0277C58.0035 86.9567 57.7906 86.8856 57.6486 86.8146C57.4357 86.7436 57.3647 86.5304 57.3647 86.3884C57.3647 86.2463 57.6486 86.1042 57.7906 86.1042C58.0035 86.1752 58.2164 86.2463 58.4293 86.3884C58.6422 86.4594 58.7132 86.6015 58.7132 86.8146C58.7132 87.0277 58.5003 87.0988 58.2874 87.0988Z" fill="#727272"/>
<path d="M29.6874 85.2517C29.4035 85.2517 29.3325 85.0385 29.3325 84.8254C29.8293 81.6286 31.2487 76.1585 34.797 74.9508C35.0099 74.8797 35.1519 75.0218 35.2229 75.1639C35.2229 75.2349 35.2229 75.2349 35.2229 75.306C35.2229 76.0164 35.5067 76.6557 35.9326 77.153C36.6422 77.7214 37.4938 77.9345 38.4164 77.7924C40.4035 77.6503 42.1777 76.3716 43.0293 74.5245C43.1003 74.3824 43.2422 74.3114 43.3842 74.3114C43.5261 74.3114 43.668 74.3824 43.739 74.5245C44.5197 76.2295 46.1519 77.2951 47.9971 77.2951C48.7777 77.3661 49.5583 77.082 50.1971 76.5137C50.5519 76.0874 50.7648 75.5191 50.6938 74.8797C50.6938 74.6666 50.8358 74.5245 50.9777 74.4535C51.1906 74.4535 51.3325 74.5956 51.3325 74.7376C51.4035 75.5191 51.1196 76.3005 50.6228 76.8689C49.9132 77.5793 48.9196 77.9345 47.9261 77.8634C46.0809 77.8634 44.3068 76.8689 43.3842 75.306C42.3906 77.082 40.5454 78.2186 38.4874 78.4318C37.4229 78.6449 36.2874 78.2897 35.5067 77.6503C35.0099 77.153 34.6551 76.5137 34.5842 75.8032C31.7454 77.153 30.539 82.0548 30.0422 84.9675C30.0422 85.1096 29.8293 85.2517 29.6874 85.2517Z" fill="#727272"/>
<path d="M56.2294 86.9567L56.0875 86.6725L55.9456 86.3173L56.1585 86.2463C56.3714 86.1752 56.5133 86.3173 56.5843 86.4594C56.6553 86.6014 56.5843 86.8146 56.3714 86.8856L56.2294 86.9567Z" fill="#727272"/>
<path d="M41.0421 93.9187C38.4163 93.9187 37.7776 92.3558 37.7776 92.2847C37.7066 92.0716 37.7776 91.8585 37.9905 91.7874C38.2034 91.7164 38.4163 91.7874 38.4873 92.0006C38.4873 92.0716 39.055 93.2083 41.1131 93.2083C42.8873 93.2083 43.455 92.2137 43.455 92.2137C43.526 92.0716 43.7389 92.0006 43.9518 92.0716C44.0937 92.1427 44.1647 92.3558 44.0937 92.4979C44.0228 92.5689 43.3131 93.9187 41.0421 93.9187Z" fill="#727272"/>
<path d="M28.8359 87.9513C28.694 87.9513 28.5521 87.8092 28.4811 87.6671C28.3391 87.1698 28.1262 86.7436 27.7714 86.3173C27.4875 85.8911 27.0617 85.6069 26.5649 85.3938C26.352 85.3228 26.2811 85.1096 26.3521 84.9676C26.423 84.8255 26.6359 84.6834 26.7778 84.7544C27.3456 84.9676 27.9133 85.3938 28.3391 85.8911C28.694 86.3884 28.9778 86.9567 29.1198 87.525C29.1907 87.7381 29.0488 87.9513 28.8359 87.9513Z" fill="#727272"/>
<path d="M26.7069 87.9512C26.423 87.9512 26.2811 87.7381 26.3521 87.525C26.3521 87.4539 26.7069 85.749 28.0553 85.749C28.2682 85.749 28.4101 85.891 28.4101 86.1042C28.4101 86.3173 28.2682 86.4594 28.0553 86.4594C27.2746 86.4594 27.0617 87.6671 27.0617 87.6671C27.0617 87.8091 26.9198 87.9512 26.7069 87.9512Z" fill="#727272"/>
<path d="M56.5134 89.4431C56.3005 89.5141 56.1585 89.3721 56.0876 89.1589C56.0166 88.9458 56.1585 88.8037 56.3714 88.7327C57.0101 88.4485 57.6488 88.3775 58.3585 88.3775C58.5714 88.3775 58.7134 88.5196 58.7134 88.7327C58.7134 88.9458 58.5714 89.0879 58.3585 89.0879C57.7908 89.0879 57.2231 89.1589 56.7263 89.3721C56.6553 89.4431 56.5844 89.4431 56.5134 89.4431Z" fill="#727272"/>
<path d="M55.0939 91.006H55.0229C54.81 90.935 54.739 90.7929 54.739 90.5798C54.9519 89.7983 55.5196 89.0879 56.3713 88.8037C56.5842 88.7327 56.7261 88.8037 56.797 89.0169C56.868 89.1589 56.7971 89.3721 56.5842 89.4431C56.0164 89.6562 55.5196 90.1535 55.3777 90.7218C55.3777 90.8639 55.2358 91.006 55.0939 91.006Z" fill="#727272"/>
<path d="M57.5068 91.006C57.3649 91.006 57.152 90.8639 57.152 90.7219C57.081 90.2246 56.7262 89.7273 56.3004 89.4431C56.1584 89.3721 56.0875 89.0879 56.1585 88.9458C56.2294 88.8037 56.4423 88.7327 56.5843 88.8037C57.223 89.23 57.6488 89.8694 57.7907 90.5798C57.9327 90.7929 57.7907 90.935 57.5068 91.006C57.5778 91.006 57.5778 91.006 57.5068 91.006Z" fill="#727272"/>
<path d="M42.5327 99.5309H42.1778C41.9649 99.5309 41.823 99.3177 41.823 99.1756C41.823 98.9625 42.0359 98.8204 42.1778 98.8204C43.6682 98.8915 45.0165 98.11 45.7262 96.8313C45.7972 96.6892 46.0101 96.5471 46.223 96.6892C46.3649 96.7603 46.5068 96.9734 46.3649 97.1865C45.5843 98.5363 44.1649 99.4598 42.5327 99.5309Z" fill="#727272"/>
<path d="M40.1197 119.706C39.552 119.706 25.8552 118.783 22.3778 113.952C21.5971 112.887 21.3843 111.537 21.7391 110.329C23.8681 102.586 32.7391 102.444 33.1649 102.444C33.3778 102.444 33.5197 102.586 33.5197 102.799C33.5197 103.012 33.3778 103.154 33.1649 103.154C32.81 103.154 24.4359 103.225 22.4488 110.471C22.1649 111.537 22.3068 112.673 23.0165 113.526C26.281 118.144 40.0488 118.996 40.1907 118.996C40.4036 118.996 40.5455 119.138 40.5455 119.351C40.4746 119.564 40.3326 119.706 40.1197 119.706Z" fill="#727272"/>
<path d="M42.8165 115.657C39.6939 115.657 37.9197 114.236 36.2875 112.673C36.0036 112.389 35.7197 112.105 35.4359 111.821L35.081 111.466C34.2294 110.613 32.5972 110.116 30.4681 109.974C30.2552 109.974 30.1133 109.761 30.1133 109.619C30.1133 109.406 30.3262 109.263 30.4681 109.263C32.881 109.406 34.5843 109.974 35.5778 110.968L35.9326 111.324C36.2165 111.608 36.5004 111.892 36.7842 112.176C38.7004 113.952 40.1907 114.947 42.8165 114.947C43.0294 114.947 43.1713 115.089 43.1713 115.302C43.1713 115.515 43.0294 115.657 42.8165 115.657Z" fill="#727272"/>
<path d="M0.518901 157.003C0.305998 157.003 0.164062 156.79 0.164062 156.648C0.944708 150.112 2.36406 143.576 4.42213 137.325C8.82213 124.253 15.4221 116.439 23.5125 114.663C23.7254 114.592 23.8673 114.734 23.9383 114.947C24.0092 115.16 23.8673 115.302 23.6544 115.373C4.70598 119.493 0.944708 156.363 0.87374 156.719C0.87374 156.932 0.731804 157.074 0.518901 157.003Z" fill="#727272"/>
<path d="M45.5133 119.706C45.3004 119.706 45.1584 119.564 45.1584 119.351C45.1584 119.138 45.3004 118.996 45.5133 118.996C45.6552 118.996 59.4229 118.073 62.6874 113.526C63.3262 112.673 63.5391 111.537 63.2552 110.471C61.2681 103.083 51.3326 102.657 51.2617 102.586C51.0488 102.586 50.9068 102.444 50.9068 102.23C50.9068 102.017 51.0488 101.875 51.2617 101.875C51.4036 101.875 61.7649 102.373 63.8939 110.258C64.2487 111.537 64.0359 112.887 63.2552 113.881C59.7778 118.783 46.152 119.706 45.5133 119.706Z" fill="#727272"/>
<path d="M48.7777 113.1C48.5648 113.1 48.4229 112.958 48.4229 112.744C48.4229 112.673 48.4938 112.531 48.5648 112.46C48.9906 112.034 49.4164 111.608 49.9132 111.182L50.1261 110.968C51.2616 110.045 52.61 109.477 54.1003 109.335C54.3132 109.335 54.4551 109.406 54.5261 109.619C54.5261 109.832 54.3842 109.974 54.2422 110.045C52.9648 110.116 51.6874 110.613 50.6938 111.466L50.4809 111.679C49.9842 112.176 49.5583 112.602 49.1325 113.029C48.9196 113.1 48.8487 113.1 48.7777 113.1Z" fill="#727272"/>
<path d="M42.8165 115.657C42.6036 115.657 42.4617 115.515 42.4617 115.302C42.4617 115.089 42.6036 114.947 42.8165 114.947C45.3713 114.947 46.8617 114.023 48.4939 112.46C48.6359 112.318 48.8488 112.389 48.9907 112.531C49.1326 112.673 49.0617 112.887 48.9907 113.029C47.2165 114.663 45.5843 115.657 42.8165 115.657Z" fill="#727272"/>
<path d="M36.5714 112.815C36.3585 112.815 36.2165 112.673 36.2165 112.46C36.0746 109.192 35.9327 105.498 35.7907 105.143C35.7198 105.001 35.7198 104.788 35.9327 104.646C36.0746 104.575 36.3584 104.575 36.4294 104.788C36.6423 105.143 36.8552 109.192 36.9262 112.46C36.9262 112.602 36.7843 112.815 36.5714 112.815Z" fill="#727272"/>
<path d="M48.7777 113.1C48.5648 113.1 48.4229 112.958 48.4229 112.744V109.121C48.4229 108.908 48.5648 108.766 48.7777 108.766C48.9906 108.766 49.1325 108.908 49.1325 109.121V112.815C49.1325 112.958 48.9196 113.1 48.7777 113.1Z" fill="#727272"/>
<path d="M48.7777 109.477C48.5648 109.477 48.4229 109.335 48.4229 109.121V104.362C48.4229 104.149 48.5648 104.006 48.7777 104.006C48.9906 104.006 49.1325 104.149 49.1325 104.362V109.121C49.1325 109.263 48.9196 109.477 48.7777 109.477Z" fill="#727272"/>
<path d="M37.8487 137.04C37.6358 137.04 37.4939 136.898 37.4939 136.685C37.4939 136.543 37.5649 136.472 37.6358 136.401C39.1262 135.477 40.4036 130.718 39.2681 126.597C38.2745 123.116 41.9649 120.559 42.2487 120.417C42.3907 120.346 42.6036 120.346 42.6746 120.417C42.8165 120.559 42.8165 120.772 42.6746 120.914L42.6036 120.985C42.4616 121.056 39.0552 123.33 39.9068 126.384C41.1133 130.718 39.9068 135.833 37.9907 137.04C37.9907 137.04 37.9197 137.04 37.8487 137.04Z" fill="#727272"/>
<path d="M44.1649 141.161C43.952 141.161 43.81 141.019 43.81 140.806C43.81 140.734 43.81 140.663 43.881 140.663C43.881 140.592 47.0745 133.915 43.881 128.871C40.6875 123.827 41.9649 120.843 42.1068 120.559C42.1778 120.346 42.3907 120.275 42.5326 120.346C42.7455 120.417 42.8165 120.63 42.7455 120.772C42.7455 120.772 42.7455 120.772 42.7455 120.843C42.6746 120.985 41.4681 123.756 44.4488 128.515C47.8552 133.915 44.5907 140.663 44.4488 140.948C44.3778 141.09 44.3068 141.161 44.1649 141.161Z" fill="#727272"/>
<path d="M16.2035 157.003H16.1325C15.9196 156.932 15.8486 156.79 15.8486 156.577L17.1261 150.893C17.1971 150.68 17.339 150.538 17.5519 150.609C17.7648 150.68 17.9067 150.822 17.8358 151.035L16.5583 156.719C16.5583 156.932 16.4164 157.003 16.2035 157.003Z" fill="#727272"/>
<path d="M87.8808 25.1513L81.8485 28.3481C81.6356 28.4192 81.4227 28.3481 81.2808 28.206C81.2098 28.135 81.2098 28.064 81.2098 27.9219L82.3453 21.173C82.3453 21.0309 82.3453 20.8889 82.2034 20.8178L77.3776 16.0581C77.2356 15.916 77.1647 15.6318 77.3066 15.4898C77.3776 15.4187 77.4485 15.3477 77.5905 15.3477L84.3324 14.3531C84.4743 14.3531 84.5453 14.2821 84.6163 14.14L87.5969 8.03048C87.7389 7.81736 87.9518 7.74632 88.1647 7.8884C88.2356 7.95944 88.3066 7.95944 88.3066 8.03048L91.2873 14.14C91.3582 14.2821 91.4292 14.3531 91.5711 14.3531L98.313 15.3477C98.5259 15.3477 98.6679 15.5608 98.6679 15.7739C98.6679 15.845 98.5969 15.987 98.5259 16.0581L93.6292 20.8178C93.5582 20.8889 93.4873 21.0309 93.4873 21.173L94.6227 27.9219C94.6937 28.135 94.4808 28.3481 94.2679 28.4192C94.1969 28.4192 94.055 28.4192 93.984 28.3481L87.9518 25.1513C88.1647 25.0803 88.0227 25.0803 87.8808 25.1513Z" fill="url(#paint0_linear_1594_10929)"/>
<path d="M59.707 28.7033L54.5263 33.1079C54.3844 33.2499 54.1005 33.2499 53.9586 33.0368C53.8876 32.9658 53.8876 32.8947 53.8876 32.8237L53.5328 26.0038C53.5328 25.8617 53.4618 25.7196 53.3199 25.6486L47.5005 22.0965C47.2876 21.9545 47.2876 21.7413 47.3586 21.5282C47.4296 21.4572 47.4296 21.3861 47.5715 21.3861L53.9586 18.8997C54.1005 18.8287 54.1715 18.7576 54.1715 18.6155L55.7328 12.0088C55.8038 11.7956 56.0167 11.6536 56.2296 11.7246C56.3005 11.7246 56.3715 11.7956 56.4425 11.8667L60.7715 17.1237C60.8425 17.1947 60.9844 17.2658 61.1264 17.2658L67.9393 16.6974C68.1522 16.6974 68.365 16.8395 68.365 17.0526C68.365 17.1237 68.3651 17.2658 68.2941 17.3368L64.5328 23.0911C64.4618 23.2332 64.4618 23.3753 64.5328 23.4463L67.1586 29.7689C67.2296 29.9821 67.1586 30.1952 66.9457 30.2662C66.8747 30.2662 66.8038 30.3373 66.6618 30.2662L60.0619 28.4902C59.9909 28.5613 59.8489 28.5612 59.707 28.7033Z" fill="url(#paint1_linear_1594_10929)"/>
<path d="M34.0911 45.8213L29.9039 51.1493C29.762 51.2914 29.4781 51.3624 29.3362 51.2203C29.2652 51.1493 29.1943 51.0783 29.1943 51.0072L27.491 44.4004C27.491 44.2584 27.3491 44.1873 27.2072 44.1163L20.8201 41.7719C20.6072 41.7009 20.5362 41.4878 20.6072 41.2746C20.6072 41.2036 20.6781 41.1326 20.7491 41.0615L26.4975 37.4385C26.6394 37.3674 26.7104 37.2253 26.7104 37.0832L26.9943 30.2633C26.9943 30.0502 27.2072 29.8371 27.4201 29.8371C27.491 29.8371 27.633 29.9081 27.704 29.9081L32.9555 34.2416C33.0265 34.3127 33.1684 34.3837 33.3104 34.3127L39.8394 32.4656C40.0523 32.3946 40.2652 32.5366 40.3362 32.7498C40.3362 32.8208 40.3362 32.9629 40.3362 33.0339L37.8523 39.3566C37.7814 39.4986 37.8523 39.6407 37.9233 39.7118L41.6846 45.395C41.8265 45.6081 41.7556 45.8213 41.6136 45.9633C41.5426 46.0344 41.4717 46.0344 41.3297 46.0344L34.5168 45.6081C34.3039 45.6081 34.162 45.6792 34.0911 45.8213Z" fill="url(#paint2_linear_1594_10929)"/>
<path d="M116.41 28.7033L121.59 33.1079C121.732 33.2499 122.016 33.2499 122.158 33.0368C122.229 32.9658 122.229 32.8947 122.229 32.8237L122.584 26.0038C122.584 25.8617 122.655 25.7196 122.797 25.6486L128.616 22.0965C128.829 21.9545 128.829 21.7413 128.758 21.5282C128.687 21.4572 128.687 21.3861 128.545 21.3861L122.158 18.8997C122.016 18.8287 121.945 18.7576 121.945 18.6155L120.384 12.0088C120.313 11.7956 120.1 11.6536 119.887 11.7246C119.816 11.7246 119.745 11.7956 119.674 11.8667L115.345 17.1237C115.274 17.1947 115.132 17.2658 114.99 17.2658L108.178 16.6974C107.965 16.6974 107.752 16.8395 107.752 17.0526C107.752 17.1237 107.752 17.2658 107.823 17.3368L111.584 23.0911C111.655 23.2332 111.655 23.3753 111.584 23.4463L108.958 29.7689C108.887 29.9821 108.958 30.1952 109.171 30.2662C109.242 30.2662 109.313 30.3373 109.455 30.2662L116.055 28.4902C116.197 28.5613 116.339 28.5612 116.41 28.7033Z" fill="url(#paint3_linear_1594_10929)"/>
<path d="M143.148 45.8213L147.335 51.1493C147.477 51.2914 147.761 51.3624 147.903 51.2203C147.974 51.1493 148.045 51.0783 148.045 51.0072L149.748 44.4004C149.748 44.2584 149.89 44.1873 150.032 44.1163L156.419 41.7719C156.632 41.7009 156.703 41.4878 156.632 41.2746C156.632 41.2036 156.561 41.1326 156.49 41.0615L150.742 37.4385C150.6 37.3674 150.529 37.2253 150.529 37.0832L150.316 30.2633C150.316 30.0502 150.103 29.8371 149.89 29.8371C149.819 29.8371 149.677 29.9081 149.606 29.9081L144.355 34.2416C144.284 34.3127 144.142 34.3837 144 34.3127L137.471 32.4656C137.258 32.3946 137.045 32.5366 136.974 32.7498C136.974 32.8208 136.974 32.9629 136.974 33.0339L139.458 39.3566C139.529 39.4986 139.458 39.6407 139.387 39.7118L135.626 45.395C135.484 45.6081 135.555 45.8213 135.697 45.9633C135.768 46.0344 135.839 46.0344 135.981 46.0344L142.793 45.6081C143.006 45.6081 143.077 45.6792 143.148 45.8213Z" fill="url(#paint4_linear_1594_10929)"/>
<defs>
<linearGradient id="paint0_linear_1594_10929" x1="77.2292" y1="10.0725" x2="98.0475" y2="29.098" gradientUnits="userSpaceOnUse">
<stop stop-color="#FF6A8F"/>
<stop offset="0.494792" stop-color="#FF6276"/>
<stop offset="1" stop-color="#F53838"/>
</linearGradient>
<linearGradient id="paint1_linear_1594_10929" x1="47.3162" y1="14.0624" x2="68.8817" y2="32.6061" gradientUnits="userSpaceOnUse">
<stop stop-color="#FF6A8F"/>
<stop offset="0.494792" stop-color="#FF6276"/>
<stop offset="1" stop-color="#F53838"/>
</linearGradient>
<linearGradient id="paint2_linear_1594_10929" x1="20.5806" y1="32.189" x2="42.1315" y2="50.8715" gradientUnits="userSpaceOnUse">
<stop stop-color="#FF6A8F"/>
<stop offset="0.494792" stop-color="#FF6276"/>
<stop offset="1" stop-color="#F53838"/>
</linearGradient>
<linearGradient id="paint3_linear_1594_10929" x1="107.752" y1="14.0624" x2="129.317" y2="32.6061" gradientUnits="userSpaceOnUse">
<stop stop-color="#FF6A8F"/>
<stop offset="0.494792" stop-color="#FF6276"/>
<stop offset="1" stop-color="#F53838"/>
</linearGradient>
<linearGradient id="paint4_linear_1594_10929" x1="135.548" y1="32.189" x2="157.089" y2="50.8" gradientUnits="userSpaceOnUse">
<stop stop-color="#FF6A8F"/>
<stop offset="0.494792" stop-color="#FF6276"/>
<stop offset="1" stop-color="#F53838"/>
</linearGradient>
</defs>
</svg>
