<svg width="179" height="167" viewBox="0 0 179 167" fill="none" xmlns="http://www.w3.org/2000/svg">
<path d="M88.9572 26.9606C50.8932 26.9606 19.4797 56.7517 17.4279 94.7513L13.5366 166.788H164.449L160.557 94.7513C158.505 56.7517 127.092 26.9606 88.9572 26.9606Z" fill="#EDEDED"/>
<path d="M41.9078 80.0326C41.9078 71.1165 49.1244 63.828 58.1098 63.828H69.7837C70.4912 63.828 71.128 64.3941 71.1988 65.1017C71.694 68.3568 74.4533 70.7627 77.7079 70.7627H100.277C103.532 70.7627 106.291 68.3568 106.787 65.1017C106.857 64.3941 107.494 63.828 108.202 63.828H120.866C129.781 63.828 137.068 71.0458 137.068 80.0326V166.788H139.049V81.5894C139.049 70.7627 130.205 61.9174 119.38 61.9174H59.6663C48.8414 61.9174 39.9976 70.7627 39.9976 81.5894V166.788H41.9786L41.9078 80.0326Z" fill="#B5B5B5"/>
<path d="M39.6438 81.5894C39.6438 70.5504 48.6292 61.5636 59.6663 61.5636H119.38C130.417 61.5636 139.403 70.5504 139.403 81.5894V166.788H139.756V81.5894C139.756 70.3381 130.63 61.2097 119.38 61.2097H59.6663C48.4169 61.2097 39.29 70.3381 39.29 81.5894V166.788H39.6438V81.5894Z" fill="#727272"/>
<path d="M119.38 61.5636H59.6663C48.6292 61.5636 39.6438 70.5504 39.6438 81.5894V166.788H39.9976V81.5894C39.9976 70.7627 48.8414 61.9174 59.6663 61.9174H119.38C130.205 61.9174 139.049 70.7627 139.049 81.5894V166.788H139.403V81.5894C139.403 70.4797 130.417 61.5636 119.38 61.5636Z" fill="#727272"/>
<path d="M120.866 64.5356H108.202C107.848 64.5356 107.494 64.8186 107.494 65.1724C106.999 68.7813 103.886 71.4703 100.278 71.4703H77.708C74.0997 71.4703 70.9866 68.7813 70.4914 65.1724C70.4914 64.8186 70.1376 64.5356 69.7839 64.5356H58.1099C49.5491 64.5356 42.6155 71.4703 42.6155 80.0326V166.788H136.361V80.0326C136.361 71.4703 129.427 64.5356 120.866 64.5356Z" fill="white"/>
<path d="M120.866 63.828H108.202C107.494 63.828 106.857 64.3941 106.787 65.1017C106.291 68.3568 103.532 70.7627 100.278 70.7627H77.708C74.4534 70.7627 71.6941 68.3568 71.1989 65.1017C71.1281 64.3941 70.4914 63.828 69.7838 63.828H58.1099C49.1953 63.828 41.908 71.0458 41.908 80.0326V166.788H42.2617V80.0326C42.2617 71.2581 49.3368 64.1818 58.0392 64.1818H69.7131C70.2791 64.1818 70.7036 64.6064 70.7744 65.1725C71.2696 68.5691 74.1704 71.1165 77.6372 71.1165H100.207C103.674 71.1165 106.574 68.5691 107.07 65.1725C107.14 64.6064 107.636 64.2525 108.131 64.1818H120.795C129.568 64.1818 136.644 71.2581 136.644 80.0326V166.788H136.997V80.0326C137.068 71.0458 129.851 63.828 120.866 63.828Z" fill="#727272"/>
<path d="M42.6153 80.0326C42.6153 71.4703 49.5489 64.5356 58.1097 64.5356H69.7837C70.1374 64.5356 70.4912 64.8186 70.4912 65.1725C70.9864 68.7814 74.0995 71.4703 77.7078 71.4703H100.277C103.886 71.4703 106.999 68.7814 107.494 65.1725C107.494 64.8186 107.848 64.5356 108.201 64.5356H120.866C129.427 64.5356 136.36 71.4703 136.36 80.0326V166.788H136.714V80.0326C136.714 71.3288 129.639 64.1818 120.937 64.1818H108.272C107.706 64.1818 107.282 64.6063 107.211 65.1725C106.716 68.5691 103.815 71.1165 100.348 71.1165H77.7785C74.3117 71.1165 71.4109 68.5691 70.9157 65.1725C70.8449 64.6063 70.4204 64.2525 69.8544 64.1818H58.1805C49.4074 64.1818 42.3323 71.258 42.3323 80.0326V166.788H42.686L42.6153 80.0326Z" fill="#727272"/>
<path d="M66.7415 20.4504C66.5293 20.4504 66.3878 20.3089 66.317 20.1674C66.2463 20.0258 66.4585 19.8136 66.6 19.7428L67.6613 19.5305C67.8735 19.4597 68.015 19.6013 68.0858 19.8136C68.1565 20.0258 68.0151 20.1674 67.8028 20.2381L66.7415 20.4504Z" fill="#727272"/>
<path d="M44.0303 29.7203C43.818 29.7203 43.6765 29.5788 43.6765 29.3665C43.6765 29.225 43.7473 29.1542 43.818 29.0835C44.384 28.7297 45.0208 28.3759 45.6575 28.022C45.799 27.9513 46.0113 27.9513 46.1528 28.1636C46.2943 28.3759 46.2235 28.5174 46.0113 28.6589C45.3745 29.0127 44.8085 29.3665 44.2425 29.7203C44.1718 29.6496 44.101 29.7203 44.0303 29.7203ZM48.3461 27.2436C48.1338 27.2436 47.9923 27.1021 47.9923 26.8898C47.9923 26.7483 48.0631 26.6775 48.2046 26.6068C48.8413 26.253 49.4781 25.9699 50.1149 25.6161C50.2564 25.5453 50.4686 25.6161 50.6101 25.7576C50.6809 25.8992 50.6101 26.1114 50.4686 26.253C49.8319 26.536 49.1951 26.8898 48.5583 27.1729C48.4168 27.2436 48.4168 27.2436 48.3461 27.2436ZM52.8034 25.1208C52.5911 25.1915 52.4496 25.05 52.3789 24.8377C52.3081 24.6254 52.4496 24.4839 52.6619 24.4131C53.2987 24.1301 53.9354 23.847 54.6429 23.564C54.8552 23.4932 55.0674 23.564 55.1382 23.7763C55.2089 23.9886 55.1382 24.2009 54.9259 24.2716C54.2892 24.5547 53.6524 24.8377 53.0157 25.1208C52.8742 25.1208 52.8034 25.1208 52.8034 25.1208ZM57.3314 23.2809C57.1192 23.2809 56.9777 23.2102 56.907 22.9979C56.907 22.7856 56.9777 22.6441 57.19 22.5733C57.8267 22.361 58.5342 22.078 59.171 21.8657C59.3832 21.7949 59.5247 21.9364 59.5955 22.078C59.6662 22.2903 59.5247 22.4318 59.3832 22.5025C58.7465 22.7148 58.039 22.9979 57.4022 23.2102C57.4022 23.2809 57.4022 23.2809 57.3314 23.2809ZM62.001 21.7242C61.7888 21.7242 61.6473 21.5826 61.5765 21.4411C61.5058 21.2996 61.718 21.0873 61.8595 21.0165C62.567 20.8042 63.2038 20.592 63.9113 20.4504C64.1236 20.3797 64.3358 20.5212 64.3358 20.7335C64.3358 20.9458 64.265 21.1581 64.0528 21.1581C63.3453 21.3703 62.7085 21.5119 62.001 21.7242Z" fill="#727272"/>
<path d="M40.7759 31.7725C40.5636 31.7725 40.4221 31.6309 40.4221 31.4186C40.4221 31.2771 40.4929 31.2064 40.5636 31.1356L41.4126 30.4987C41.5541 30.3572 41.7664 30.428 41.9079 30.5695C42.0494 30.711 41.9786 30.9233 41.8371 31.0648L40.9881 31.6309C40.9174 31.7725 40.8466 31.7725 40.7759 31.7725Z" fill="#727272"/>
<path d="M136.361 33.2585C136.29 33.2585 136.219 33.2585 136.148 33.1877L135.299 32.5508C135.158 32.4093 135.087 32.197 135.228 32.0555C135.37 31.914 135.582 31.8432 135.724 31.9848L136.573 32.6216C136.714 32.7631 136.714 32.9754 136.644 33.1169C136.573 33.1877 136.502 33.2585 136.361 33.2585Z" fill="#727272"/>
<path d="M133.247 31.0648C133.177 31.0648 133.106 31.0648 133.035 30.9941C132.469 30.6403 131.903 30.2157 131.266 29.8619C131.125 29.7911 131.054 29.508 131.125 29.3665C131.196 29.225 131.479 29.1542 131.62 29.225C132.186 29.5788 132.823 30.0034 133.389 30.3572C133.53 30.4987 133.601 30.711 133.46 30.8525C133.46 30.9941 133.318 31.0648 133.247 31.0648ZM129.073 28.4466C129.002 28.4466 128.932 28.4466 128.932 28.3758C128.295 28.022 127.729 27.6682 127.092 27.3852C126.951 27.3144 126.88 27.0314 126.951 26.8898C127.021 26.7483 127.234 26.6775 127.375 26.7483C128.012 27.1021 128.649 27.3852 129.215 27.739C129.356 27.8097 129.427 28.022 129.356 28.2343C129.285 28.3758 129.215 28.4466 129.073 28.4466ZM124.687 26.1822C124.616 26.1822 124.616 26.1822 124.545 26.1822C123.908 25.8992 123.272 25.6161 122.635 25.3331C122.493 25.2623 122.422 25.05 122.493 24.8377C122.564 24.6962 122.776 24.6254 122.918 24.6962C123.555 24.9792 124.191 25.2623 124.828 25.5453C124.97 25.6869 125.04 25.8992 124.899 26.0407C124.899 26.1114 124.828 26.1822 124.687 26.1822ZM120.229 24.2008C120.158 24.2008 120.158 24.2008 120.088 24.2008C119.451 23.9178 118.814 23.7055 118.107 23.4225C117.894 23.3517 117.824 23.1394 117.894 22.9979C117.965 22.7856 118.177 22.7148 118.319 22.7856C118.956 22.9979 119.663 23.2809 120.3 23.564C120.441 23.6347 120.512 23.847 120.441 24.0593C120.441 24.1301 120.371 24.2008 120.229 24.2008ZM115.63 22.5025H115.489C114.852 22.2903 114.145 22.078 113.508 21.8657C113.296 21.7949 113.225 21.5826 113.225 21.4411C113.296 21.2288 113.508 21.1581 113.649 21.1581C114.357 21.3703 114.994 21.5826 115.63 21.7949C115.843 21.7949 115.984 22.0072 115.913 22.2195C116.055 22.4318 115.843 22.5733 115.63 22.5025Z" fill="#727272"/>
<path d="M110.961 21.0873H110.89L109.829 20.8042C109.617 20.7335 109.546 20.592 109.546 20.3797C109.546 20.1674 109.758 20.0966 109.97 20.0966L111.032 20.3797C111.244 20.3797 111.385 20.592 111.315 20.8042C111.244 21.0165 111.173 21.1581 110.961 21.0873Z" fill="#727272"/>
<path d="M44.9956 47.7347C46.8485 36.3159 39.0953 25.5569 27.6784 23.7037C16.2615 21.8505 5.50423 29.6049 3.65134 41.0237C1.79845 52.4425 9.55162 63.2016 20.9685 65.0548C32.3854 66.908 43.1427 59.1535 44.9956 47.7347Z" fill="white"/>
<path d="M24.3617 65.6678C12.6171 65.6678 3.06567 56.1148 3.06567 44.3682C3.06567 32.6216 12.6171 23.0686 24.3617 23.0686C36.1064 23.0686 45.6578 32.6216 45.6578 44.3682C45.6578 56.1856 36.1064 65.6678 24.3617 65.6678ZM24.3617 23.7763C12.9708 23.7763 3.77318 32.9754 3.77318 44.3682C3.77318 55.761 12.9708 64.9602 24.3617 64.9602C35.7526 64.9602 44.9502 55.761 44.9502 44.3682C44.9502 33.0462 35.6819 23.847 24.3617 23.7763Z" fill="#B5B5B5"/>
<path d="M24.3616 57.4593C23.1588 57.4593 22.805 56.4686 22.522 55.6195C22.239 54.6288 21.8145 53.7089 21.2485 52.8597C20.7532 52.0814 20.258 51.4445 19.8335 50.8784C19.4797 50.4538 19.126 50.0292 18.7722 49.6047C17.6402 48.3309 16.6497 46.8449 15.8714 45.2881C15.2347 43.9436 14.9517 42.4576 14.9517 40.9008C14.9517 35.8059 19.126 31.6309 24.2908 31.6309C27.2623 31.6309 30.0924 33.117 31.7904 35.5229L31.8611 35.4521L32.3564 36.3013L32.4979 36.5843L32.7809 37.1504C33.2762 38.3534 33.5592 39.6271 33.5592 40.9008C33.5592 44.7928 31.7904 46.9864 29.8094 49.5339C28.9604 50.5953 28.1113 51.6568 27.4038 52.789C26.8378 53.6381 26.4133 54.558 26.1303 55.5487C25.9181 56.3979 25.5643 57.4593 24.3616 57.4593ZM24.2908 33.4C20.1872 33.4 16.7912 36.7258 16.7912 40.9008C16.7912 42.1746 17.0034 43.3775 17.5695 44.5097C18.277 45.925 19.1967 47.2695 20.258 48.4725C20.6117 48.897 20.9655 49.3216 21.3192 49.8169C21.8145 50.4538 22.239 51.1614 22.805 51.9398C23.4418 52.9305 23.937 53.9919 24.22 55.1242C24.2908 55.2657 24.2908 55.4072 24.3616 55.5487C24.4323 55.4072 24.4323 55.2657 24.503 55.1242C24.8568 53.9919 25.3521 52.9305 25.9888 51.9398C26.7671 50.7369 27.6161 49.6047 28.5359 48.4725C30.4461 46.0665 31.9319 44.2267 31.9319 40.9716C31.9319 39.9102 31.7196 38.9195 31.2951 37.9288H31.1536L30.8706 37.1504C29.4556 34.8153 26.9793 33.4 24.2908 33.4ZM24.3616 45.0051C22.0975 45.0051 20.258 43.1653 20.258 40.9008C20.258 39.9102 20.6117 38.9903 21.2485 38.2826C22.0268 37.3627 23.1588 36.8674 24.3616 36.8674C26.6256 36.8674 28.4651 38.7072 28.4651 40.9716C28.4651 41.8915 28.1821 42.7407 27.6161 43.4483L27.4746 43.5898C26.6963 44.5097 25.5643 45.0051 24.3616 45.0051ZM24.3616 38.5657C23.654 38.5657 23.0173 38.8487 22.5928 39.4148C22.239 39.8394 22.0268 40.3347 22.0268 40.9008C22.0268 42.1746 23.088 43.236 24.3616 43.236C25.0691 43.236 25.7058 42.953 26.1303 42.3869L26.2011 42.3161C26.9793 41.2547 26.6963 39.8394 25.7058 39.061C25.2813 38.778 24.8568 38.5657 24.3616 38.5657Z" fill="#A8A8A8"/>
<path d="M88.9572 42.2453C100.523 42.2453 109.899 32.8676 109.899 21.2996C109.899 9.73156 100.523 0.353821 88.9572 0.353821C77.3911 0.353821 68.0149 9.73156 68.0149 21.2996C68.0149 32.8676 77.3911 42.2453 88.9572 42.2453Z" fill="white"/>
<path d="M88.9572 42.5992C77.2125 42.5992 67.6611 33.0462 67.6611 21.2996C67.6611 9.55297 77.2125 0 88.9572 0C100.702 0 110.253 9.55297 110.253 21.2996C110.253 33.0462 100.773 42.5992 88.9572 42.5992ZM88.9572 0.707627C77.5663 0.707627 68.3686 9.90678 68.3686 21.2996C68.3686 32.6924 77.5663 41.8915 88.9572 41.8915C100.348 41.8915 109.546 32.6924 109.546 21.2996C109.546 9.97754 100.348 0.707627 88.9572 0.707627Z" fill="#B5B5B5"/>
<path d="M88.9573 12.525C91.7874 12.525 92.1411 12.525 93.2731 12.5958C93.9807 12.5958 94.6174 12.7373 95.2542 12.9496C96.1739 13.3034 96.9522 14.0818 97.3059 15.0017C97.5182 15.6386 97.6597 16.3462 97.6597 16.9831C97.7304 18.1153 97.7304 18.4691 97.7304 21.2996C97.7304 24.1301 97.7304 24.4839 97.6597 25.6161C97.6597 26.3237 97.5182 26.9606 97.3059 27.5975C96.9522 28.5174 96.1739 29.2958 95.2542 29.6496C94.6174 29.8619 93.9099 30.0034 93.2731 30.0034C92.1411 30.0742 91.7874 30.0742 88.9573 30.0742C86.1273 30.0742 85.7735 30.0742 84.6415 30.0034C83.934 30.0034 83.2973 29.8619 82.6605 29.6496C81.7407 29.2958 80.9625 28.5174 80.6087 27.5975C80.3965 26.9606 80.255 26.253 80.255 25.6161C80.1842 24.4839 80.1842 24.1301 80.1842 21.2996C80.1842 18.4691 80.1842 18.1153 80.255 16.9831C80.255 16.2754 80.3965 15.6386 80.6087 15.0017C80.9625 14.0818 81.7407 13.3034 82.6605 12.9496C83.2973 12.7373 84.0048 12.5958 84.6415 12.5958C85.7735 12.525 86.1273 12.525 88.9573 12.525ZM88.9573 10.6144C86.0565 10.6144 85.7028 10.6144 84.5708 10.6852C83.651 10.6852 82.802 10.8975 81.953 11.1805C80.538 11.7466 79.406 12.8788 78.8399 14.2941C78.5569 15.1432 78.3447 15.9924 78.3447 16.9123C78.2739 18.0445 78.2739 18.3983 78.2739 21.2996C78.2739 24.2008 78.2739 24.5547 78.3447 25.6869C78.3447 26.6068 78.5569 27.4559 78.8399 28.3051C79.406 29.7203 80.538 30.8525 81.953 31.4186C82.802 31.7017 83.651 31.914 84.5708 31.914C85.7028 31.9847 86.0565 31.9848 88.9573 31.9848C91.8581 31.9848 92.2119 31.9847 93.3439 31.914C94.2637 31.914 95.1127 31.7017 95.9617 31.4186C97.3767 30.8525 98.5087 29.7203 99.0747 28.3051C99.3577 27.4559 99.57 26.6068 99.57 25.6869C99.6407 24.5547 99.6407 24.2008 99.6407 21.2996C99.6407 18.3983 99.6407 18.0445 99.57 16.9123C99.57 15.9924 99.3577 15.1432 99.0747 14.2941C98.5087 12.8788 97.3767 11.7466 95.9617 11.1805C95.1127 10.8975 94.2637 10.6852 93.3439 10.6852C92.2826 10.6144 91.8581 10.6144 88.9573 10.6144ZM88.9573 15.7801C85.915 15.7801 83.4388 18.2568 83.4388 21.2996C83.4388 24.3424 85.915 26.8191 88.9573 26.8191C91.9996 26.8191 94.4759 24.3424 94.4759 21.2996C94.4759 18.2568 91.9996 15.8509 88.9573 15.7801ZM88.9573 24.9085C86.9763 24.9085 85.4198 23.3517 85.4198 21.3703C85.4198 19.389 86.9763 17.8322 88.9573 17.8322C90.9384 17.8322 92.4949 19.389 92.4949 21.3703C92.4949 23.2809 90.9384 24.9085 88.9573 24.9085ZM95.9617 15.5678C95.9617 16.2754 95.3957 16.8415 94.6882 16.8415C93.9807 16.8415 93.4146 16.2754 93.4146 15.5678C93.4146 14.8602 93.9807 14.2941 94.6882 14.2941C95.3957 14.2941 95.9617 14.8602 95.9617 15.5678Z" fill="#A8A8A8"/>
<path d="M153.624 65.314C165.19 65.314 174.566 55.9362 174.566 44.3682C174.566 32.8002 165.19 23.4225 153.624 23.4225C142.058 23.4225 132.681 32.8002 132.681 44.3682C132.681 55.9362 142.058 65.314 153.624 65.314Z" fill="white"/>
<path d="M153.624 65.6678C141.879 65.6678 132.328 56.1148 132.328 44.3682C132.328 32.6216 141.879 23.0686 153.624 23.0686C165.368 23.0686 174.92 32.6216 174.92 44.3682C174.92 56.1856 165.368 65.6678 153.624 65.6678ZM153.624 23.7763C142.233 23.7763 133.035 32.9754 133.035 44.3682C133.035 55.761 142.233 64.9602 153.624 64.9602C165.015 64.9602 174.212 55.761 174.212 44.3682C174.212 33.0462 165.015 23.847 153.624 23.7763Z" fill="#B5B5B5"/>
<path d="M159.142 46.1373C159.071 46.1373 157.444 45.2881 157.161 45.1466C157.02 45.0758 156.878 45.0758 156.807 45.0758C156.595 45.0758 156.383 45.2174 156.241 45.4297C156.1 45.7127 155.534 46.2788 155.392 46.4203L155.322 46.4911L154.968 46.3496C153.624 45.6419 152.492 44.6513 151.643 43.3775V43.3068C151.643 43.236 151.713 43.236 151.713 43.1652C151.784 43.0945 151.926 42.953 151.996 42.8114L152.138 42.6699C152.279 42.5284 152.35 42.3869 152.421 42.2453V42.1746C152.562 41.9623 152.562 41.6792 152.421 41.4669C152.35 41.3962 151.643 39.6979 151.572 39.4856C151.501 39.1318 151.218 38.8487 150.794 38.8487H150.652C150.157 38.8487 149.662 38.9902 149.237 39.2025C148.459 39.7686 148.105 40.7593 148.176 41.6792C148.247 42.7407 148.671 43.8021 149.308 44.6513L149.379 44.722C150.511 46.4911 152.138 47.9063 154.048 48.7555C154.968 49.1801 155.888 49.3924 156.878 49.4631C157.02 49.4631 157.161 49.4631 157.373 49.4631H157.444C158.293 49.3216 159.071 48.7555 159.496 47.9771C159.708 47.4818 159.779 46.9157 159.567 46.4203C159.496 46.2788 159.355 46.208 159.142 46.1373Z" fill="#A8A8A8"/>
<path d="M153.836 32.9047C147.61 32.9047 142.516 37.8581 142.516 44.0852C142.516 46.0665 143.082 48.0479 144.072 49.7462L142.162 55.478C142.091 55.6195 142.162 55.8318 142.374 55.8318H142.445H142.516L148.459 53.9212C153.907 56.8932 160.699 54.9119 163.67 49.4631C166.642 44.0144 164.661 37.2212 159.213 34.2492C157.586 33.4 155.746 32.9047 153.836 32.9047ZM153.836 53.4966C151.996 53.4966 150.157 52.9305 148.6 51.9398C148.53 51.9398 148.459 51.8691 148.459 51.8691H148.388L145.204 52.8597L146.195 49.8169C146.195 49.7462 146.195 49.6047 146.124 49.5339C144.921 47.9064 144.285 45.9958 144.355 44.0144C144.355 38.778 148.53 34.5322 153.765 34.4614C159.001 34.4614 163.246 38.6364 163.317 43.8729C163.387 49.1093 159.142 53.4966 153.836 53.4966C153.907 53.4966 153.836 53.4966 153.836 53.4966Z" fill="#A8A8A8"/>
<path d="M48.7 141.596C48.7 137.209 52.2375 133.671 56.624 133.671H91.4335C95.8201 133.671 99.3577 137.209 99.3577 141.596C99.3577 145.983 95.8201 149.522 91.4335 149.522H63.3454L56.9778 153.484L56.6948 149.522C52.3082 149.522 48.7 145.983 48.7 141.596Z" fill="url(#paint0_linear_1594_10879)"/>
<path d="M56.6241 104.587L56.3411 100.412C51.7423 100.2 48.2048 96.3788 48.417 91.7792C48.6293 87.3212 52.2376 83.8538 56.6949 83.8538H91.4336C96.0324 83.8538 99.7115 87.5335 99.7115 92.1331C99.7115 96.7326 96.0324 100.412 91.4336 100.412H63.4162L56.6241 104.587ZM56.6241 84.5614C52.4498 84.5614 49.0538 87.9581 49.0538 92.1331C49.0538 96.3081 52.4498 99.7047 56.6241 99.7047H56.9779L57.2609 103.384L63.2747 99.7047H91.4336C95.6079 99.7047 99.004 96.3081 99.004 92.1331C99.004 87.9581 95.6079 84.5614 91.4336 84.5614H56.6241Z" fill="#A8A8A8"/>
<path d="M59.1002 145.347C58.605 145.347 58.1097 145.276 57.6145 145.064C57.1192 144.851 56.6947 144.568 56.341 144.214C55.9872 143.861 55.7042 143.436 55.492 142.941C55.0675 141.95 55.0675 140.889 55.492 139.898C55.7042 139.403 55.9872 138.978 56.341 138.624C56.6947 138.27 57.19 137.987 57.6145 137.775C58.605 137.35 59.6663 137.35 60.6568 137.775C61.152 137.987 61.5765 138.27 61.9303 138.624C62.001 138.695 62.0718 138.836 62.0718 138.978C62.0718 139.119 62.001 139.261 61.9303 139.332C61.8595 139.403 61.718 139.473 61.5765 139.473C61.435 139.473 61.3643 139.403 61.2228 139.332C60.9398 139.049 60.586 138.836 60.2323 138.695C59.8785 138.553 59.454 138.483 59.0295 138.483C58.605 138.483 58.2512 138.553 57.8975 138.695C57.5437 138.836 57.19 139.049 56.907 139.332C56.624 139.615 56.4117 139.969 56.2702 140.322C55.9872 141.101 55.9872 141.879 56.2702 142.658C56.624 143.436 57.19 144.002 57.9682 144.356C58.322 144.497 58.7465 144.568 59.1002 144.568C59.8785 144.568 60.586 144.285 61.152 143.79V141.95H59.171C59.0295 141.95 58.9587 141.879 58.8172 141.808C58.605 141.667 58.605 141.384 58.8172 141.172C58.888 141.101 59.0295 141.03 59.171 141.03H61.6473C61.7888 141.03 61.8595 141.101 62.001 141.172C62.0718 141.242 62.1425 141.384 62.1425 141.525V144.002C62.1425 144.073 62.1425 144.144 62.1425 144.214C62.1425 144.285 62.0718 144.356 62.0718 144.356C61.718 144.71 61.2935 145.064 60.7983 145.205C60.1615 145.276 59.5955 145.347 59.1002 145.347Z" fill="white"/>
<path d="M65.5386 140.039C65.6801 140.039 65.7509 140.11 65.8924 140.181C65.9631 140.252 66.0339 140.393 66.0339 140.535C66.0339 140.818 65.8216 141.03 65.5386 141.03C65.3971 141.03 65.1849 141.03 65.0434 141.101C64.9019 141.172 64.7604 141.242 64.6189 141.384C64.6189 141.384 64.5481 141.455 64.5481 141.525V141.596V144.851C64.5481 144.993 64.4774 145.064 64.4066 145.205C64.2651 145.417 63.9114 145.417 63.7699 145.276C63.7699 145.276 63.7699 145.276 63.6991 145.205C63.6284 145.134 63.5576 144.993 63.5576 144.851V140.535C63.5576 140.393 63.6284 140.252 63.6991 140.181C63.7699 140.11 63.9114 140.039 64.0529 140.039C64.1236 140.039 64.1944 140.039 64.2651 140.11L64.4774 140.252C64.6189 140.181 64.8311 140.11 64.9726 140.11C65.1849 140.11 65.3971 140.11 65.5386 140.039Z" fill="white"/>
<path d="M69.6423 145.347H69.43C69.0763 145.347 68.7933 145.276 68.4395 145.134C68.1565 144.993 67.9443 144.781 67.732 144.568C67.3075 144.073 67.166 143.436 67.166 142.799C67.166 142.445 67.2368 142.092 67.3783 141.738C67.5198 141.455 67.6613 141.172 67.8735 140.889C68.0858 140.676 68.298 140.464 68.581 140.322C68.864 140.181 69.147 140.11 69.43 140.11C69.713 140.11 69.996 140.181 70.2791 140.322C70.5621 140.464 70.8451 140.606 71.0573 140.889C71.2696 141.101 71.4111 141.384 71.5526 141.667C71.6941 141.95 71.6941 142.304 71.6941 142.658C71.6941 142.799 71.6233 142.941 71.5526 143.011C71.4818 143.082 71.3403 143.153 71.1988 143.153H68.0858C68.1565 143.294 68.2273 143.436 68.298 143.578C68.3688 143.719 68.4395 143.861 68.581 144.002C68.7225 144.144 68.7933 144.214 68.9348 144.285C69.0763 144.356 69.2885 144.427 69.43 144.427H69.5008C69.6423 144.427 69.7838 144.427 69.9253 144.427C70.1375 144.356 70.279 144.285 70.4205 144.144L70.5621 144.073C70.6328 144.073 70.6328 144.073 70.7036 144.073C70.9158 144.073 71.0573 144.214 71.128 144.356C71.1988 144.427 71.1988 144.497 71.1988 144.568C71.1988 144.639 71.1988 144.71 71.128 144.781C71.0573 144.851 71.0573 144.922 70.9866 144.993C70.7743 145.134 70.4913 145.276 70.2083 145.347C70.0668 145.347 69.8545 145.347 69.6423 145.347ZM70.7743 142.092C70.6328 141.808 70.4913 141.525 70.2791 141.313C69.8545 140.959 69.2178 140.959 68.7933 141.313C68.581 141.525 68.3688 141.808 68.2273 142.092H70.7743Z" fill="white"/>
<path d="M77.4958 144.851C77.4958 144.993 77.4251 145.064 77.3543 145.205C77.2836 145.276 77.1421 145.347 77.0006 145.347C76.8591 145.347 76.7883 145.276 76.7176 145.205C76.6468 145.134 76.5053 144.993 76.5053 144.851C76.2223 144.993 75.9393 145.134 75.6563 145.205C75.3733 145.276 75.0903 145.347 74.8073 145.347C74.3828 145.347 73.9583 145.276 73.6753 144.993C73.3923 144.781 73.18 144.427 73.0385 144.073C73.0385 143.931 72.9678 143.861 72.9678 143.719C72.9678 143.578 72.9678 143.436 73.0385 143.294C73.1093 143.153 73.18 143.011 73.2508 142.941C73.3923 142.799 73.5338 142.658 73.6753 142.587C73.8168 142.516 74.0291 142.375 74.2413 142.375C74.4536 142.304 74.6658 142.304 74.8781 142.233C75.0903 142.233 75.3026 142.233 75.5148 142.233H75.8686H76.2223H76.5053C76.5053 142.021 76.4346 141.808 76.3638 141.667C76.2931 141.525 76.2223 141.384 76.0808 141.313C75.8686 141.172 75.5856 141.172 75.3733 141.172C75.0903 141.172 74.8781 141.242 74.5951 141.313C74.3828 141.384 74.1705 141.525 74.029 141.667C73.9583 141.738 73.9583 141.738 73.8875 141.738H73.746C73.6753 141.738 73.6045 141.738 73.5338 141.667C73.463 141.667 73.3923 141.596 73.3923 141.525C73.3215 141.455 73.2508 141.313 73.2508 141.172C73.2508 141.03 73.3215 140.889 73.3923 140.818C73.6045 140.606 73.8875 140.464 74.1705 140.322C74.4536 140.181 74.7365 140.11 75.0195 140.11H75.1611H75.3026C75.5148 140.11 75.7271 140.11 75.9393 140.181C76.1516 140.252 76.3638 140.322 76.5053 140.393C76.7176 140.535 76.8591 140.676 77.0006 140.889C77.1421 141.03 77.2128 141.242 77.2836 141.455C77.3543 141.596 77.3543 141.808 77.4251 141.95C77.4251 142.092 77.4251 142.162 77.4251 142.233V144.214L77.4958 144.851ZM76.5053 143.082H76.2223H75.8686H75.5148C75.3026 143.082 75.1611 143.082 74.9488 143.082C74.7366 143.082 74.595 143.153 74.3828 143.153C74.2413 143.153 74.0998 143.224 73.9583 143.365C73.8875 143.436 73.8168 143.578 73.8168 143.719C73.8168 143.79 73.8168 143.931 73.8875 144.002C73.9583 144.073 74.029 144.144 74.0998 144.214C74.1705 144.285 74.2413 144.285 74.3828 144.356C74.4535 144.356 74.595 144.427 74.6658 144.427C74.8073 144.427 74.878 144.427 75.0195 144.427H75.2318H75.3026C75.7271 144.356 76.0808 144.073 76.2931 143.719L76.5053 143.082Z" fill="white"/>
<path d="M82.3775 140.181C82.4483 140.252 82.519 140.393 82.519 140.535C82.519 140.676 82.4483 140.747 82.3775 140.889C82.3068 140.959 82.1653 141.03 82.0238 141.03H81.0332V144.851C81.0332 144.993 80.9625 145.064 80.8917 145.205C80.821 145.276 80.6795 145.347 80.538 145.347C80.255 145.347 80.0427 145.134 80.0427 144.851V141.03H79.123C78.8399 141.03 78.6277 140.818 78.6277 140.535C78.6277 140.393 78.6984 140.252 78.7692 140.181C78.8399 140.11 78.9814 140.039 79.123 140.039H80.0427V137.633C80.0427 137.35 80.255 137.138 80.538 137.138C80.6795 137.138 80.7502 137.209 80.8917 137.28C80.9625 137.35 81.0332 137.492 81.0332 137.633V140.039H82.0238C82.1653 140.039 82.3068 140.11 82.3775 140.181Z" fill="white"/>
<path d="M84.6415 137.421C84.783 137.421 84.9245 137.492 84.9952 137.563C85.066 137.633 85.1368 137.775 85.1368 137.917V142.87C85.1368 143.011 85.066 143.082 84.9952 143.224C84.9245 143.295 84.783 143.365 84.6415 143.365C84.5 143.365 84.4292 143.295 84.2877 143.224C84.217 143.153 84.1462 143.011 84.1462 142.87V137.917C84.217 137.633 84.4292 137.421 84.6415 137.421ZM84.6415 144.427C84.783 144.427 84.9245 144.497 84.9952 144.568C85.066 144.639 85.1368 144.781 85.1368 144.922C85.1368 145.064 85.066 145.134 84.9952 145.276C84.9245 145.347 84.783 145.417 84.6415 145.417C84.4292 145.417 84.217 145.205 84.217 144.993C84.217 144.851 84.2877 144.71 84.3585 144.639C84.4292 144.497 84.5 144.427 84.6415 144.427Z" fill="white"/>
<path d="M120.936 128.717L114.144 124.542H103.036C98.4376 124.542 94.7585 120.863 94.7585 116.263C94.7585 111.664 98.4376 107.984 103.036 107.984H120.936C125.535 107.984 129.214 111.734 129.214 116.263C129.214 120.721 125.677 124.33 121.29 124.542L120.936 128.717ZM103.036 108.692C98.8621 108.692 95.4661 112.088 95.4661 116.263C95.4661 120.438 98.8621 123.835 103.036 123.835H114.357L120.37 127.514L120.653 123.835H121.007C125.181 123.835 128.577 120.438 128.577 116.263C128.577 112.088 125.181 108.692 121.007 108.692H103.036Z" fill="#A8A8A8"/>
<path d="M113.312 114.599C113.461 114.088 113.171 113.552 112.664 113.402C112.157 113.251 111.625 113.544 111.476 114.054C111.327 114.565 111.617 115.101 112.124 115.252C112.631 115.402 113.163 115.11 113.312 114.599Z" fill="url(#paint1_linear_1594_10879)"/>
<path d="M114.834 114.246C114.707 114.246 114.588 114.28 114.478 114.357C114.368 114.425 114.292 114.527 114.241 114.655L112.403 119.323L110.549 114.664C110.506 114.536 110.43 114.434 110.32 114.357C110.21 114.289 110.091 114.246 109.973 114.246C109.786 114.246 109.634 114.314 109.515 114.451C109.405 114.579 109.346 114.724 109.346 114.886C109.346 114.98 109.363 115.056 109.388 115.116L111.827 121.259C111.887 121.362 111.963 121.456 112.056 121.532C112.166 121.618 112.285 121.652 112.412 121.652C112.53 121.652 112.649 121.609 112.759 121.532C112.861 121.456 112.937 121.37 112.996 121.251C113.191 120.764 113.691 119.502 114.199 118.23C114.715 116.933 115.241 115.628 115.427 115.125C115.452 115.065 115.469 114.98 115.469 114.886C115.469 114.732 115.418 114.596 115.308 114.468C115.181 114.314 115.029 114.246 114.834 114.246Z" fill="url(#paint2_linear_1594_10879)"/>
<path d="M112.395 111.097C110.667 111.097 109.253 112.514 109.253 114.263C109.253 114.519 109.287 114.766 109.338 115.014L109.363 115.108H109.371C109.346 115.048 109.338 114.971 109.338 114.886C109.338 114.724 109.397 114.579 109.507 114.451C109.626 114.314 109.778 114.246 109.964 114.246C110.091 114.246 110.21 114.28 110.312 114.357C110.422 114.434 110.498 114.536 110.54 114.664L110.566 114.732C110.54 114.596 110.498 114.357 110.498 114.263C110.498 113.213 111.345 112.36 112.387 112.36C113.428 112.36 114.275 113.213 114.275 114.263C114.275 114.391 114.258 114.519 114.233 114.647C114.284 114.527 114.36 114.425 114.47 114.357C114.58 114.289 114.699 114.246 114.826 114.246C115.02 114.246 115.173 114.314 115.283 114.451C115.393 114.579 115.444 114.724 115.444 114.869C115.444 114.963 115.427 115.039 115.41 115.099H115.418L115.444 115.005C115.503 114.758 115.529 114.51 115.529 114.254C115.537 112.514 114.131 111.097 112.395 111.097Z" fill="url(#paint3_linear_1594_10879)"/>
<defs>
<linearGradient id="paint0_linear_1594_10879" x1="48.7" y1="135.842" x2="63.6389" y2="169.39" gradientUnits="userSpaceOnUse">
<stop stop-color="#FF6A8F"/>
<stop offset="0.494792" stop-color="#FF6276"/>
<stop offset="1" stop-color="#F53838"/>
</linearGradient>
<linearGradient id="paint1_linear_1594_10879" x1="111.407" y1="115.039" x2="113.582" y2="113.674" gradientUnits="userSpaceOnUse">
<stop stop-color="#FF6A8F"/>
<stop offset="0.494792" stop-color="#FF6276"/>
<stop offset="1" stop-color="#F53838"/>
</linearGradient>
<linearGradient id="paint2_linear_1594_10879" x1="109.346" y1="115.057" x2="116.556" y2="120.556" gradientUnits="userSpaceOnUse">
<stop stop-color="#89E9FF"/>
<stop offset="0.494792" stop-color="#27D8FF"/>
<stop offset="1" stop-color="#05BFE8"/>
</linearGradient>
<linearGradient id="paint3_linear_1594_10879" x1="109.253" y1="111.537" x2="113.124" y2="116.857" gradientUnits="userSpaceOnUse">
<stop stop-color="#FF6A8F"/>
<stop offset="0.494792" stop-color="#FF6276"/>
<stop offset="1" stop-color="#F53838"/>
</linearGradient>
</defs>
</svg>
