<svg width="28" height="102" viewBox="0 0 28 102" fill="none" xmlns="http://www.w3.org/2000/svg">
<path d="M19.1669 46.9603C19.0328 31.5773 14.9413 17.1163 6.89606 3.58386C6.24266 2.4848 6.44836 1.59977 7.50726 0.924968C8.56792 0.249039 9.42199 0.458704 10.0754 1.55776C18.7039 16.0714 22.9658 31.6403 22.8614 48.2608C22.7596 64.8898 18.4597 80.5327 9.96282 95.1953C15.3518 93.6107 19.4173 92.1104 22.1517 90.7083C23.286 90.1543 24.1184 90.4585 24.6517 91.6341C25.1895 92.803 24.8897 93.6711 23.756 94.2221C21.0215 95.6281 15.5998 97.5715 7.4914 100.051C7.37482 100.125 7.29684 100.133 7.26041 100.072C7.22399 100.011 7.14633 100.017 7.02799 100.093C6.29644 100.222 5.70725 99.9195 5.27509 99.1926C5.12778 98.9448 5.08075 98.7264 5.12517 98.5266L5.01808 98.3465C4.8088 96.6303 4.57561 94.2573 4.31566 91.2269C4.05911 88.1981 3.77922 85.4742 3.47708 83.057C3.17996 80.6441 2.72448 78.3724 2.10659 76.2434C1.8784 75.0423 2.35914 74.2758 3.53682 73.9401C4.72238 73.6094 5.52261 74.0665 5.93912 75.314C6.78268 78.6419 7.5038 83.8142 8.0998 90.8326C15.6118 76.9692 19.3008 62.3472 19.1669 46.9603Z" fill="#B5B5B5"/>
</svg>
