<svg width="173" height="196" viewBox="0 0 173 196" fill="none" xmlns="http://www.w3.org/2000/svg">
<path d="M87.9727 55.4348C49.8347 55.4348 18.3602 85.2789 16.3045 123.346L12.3347 195.51H163.54L159.641 123.346C157.585 85.2789 126.111 55.4348 87.9727 55.4348Z" fill="#EDEDED"/>
<path d="M75.2127 96.9045C75.2127 96.9045 74.7874 108.388 75.2127 109.381C75.8507 110.728 86.484 117.888 93.0766 109.026C93.9273 107.821 94.4235 102.009 94.4235 102.009" fill="white"/>
<path d="M84.7827 113.705C84.3574 113.705 83.9321 113.705 83.5067 113.634C79.1825 113.209 75.2837 110.515 74.8583 109.452C74.433 108.388 74.7166 98.7476 74.7874 96.8336C74.7874 96.6209 74.9292 96.4792 75.1419 96.4792C75.3546 96.4792 75.4963 96.6209 75.4963 96.8336C75.2837 102.363 75.2128 108.53 75.4963 109.097C75.7799 109.664 79.3243 112.429 83.5776 112.854C87.3347 113.28 90.3829 111.862 92.7222 108.672C93.4311 107.75 93.8564 103.426 93.9982 101.796C93.9982 101.583 94.14 101.441 94.3527 101.441C94.5653 101.441 94.7071 101.654 94.7071 101.796C94.6362 102.434 94.2109 107.821 93.2893 109.026C91.4462 112.004 88.2563 113.705 84.7827 113.705Z" fill="#727272"/>
<path d="M75.5671 97.4008L75.4253 105.411C75.4253 105.411 86.8383 110.728 93.5018 102.434C93.5018 102.434 87.9017 104.631 82.6559 102.505C79.8913 101.441 77.4102 99.6692 75.5671 97.4008Z" fill="#B5B5B5"/>
<path d="M55.931 151.134L36.1531 148.866C35.9404 148.866 35.7986 148.653 35.8695 148.44C35.8695 148.228 38.4215 128.308 45.4395 116.328C47.637 112.571 53.3081 109.31 62.1691 106.687C66.3516 105.482 70.534 104.56 74.8582 103.922C75.0708 103.922 75.2126 104.064 75.2835 104.206C75.3544 104.348 75.1417 104.56 75 104.631C74.7873 104.631 51.1814 107.963 46.0775 116.682C39.6266 127.67 37.0746 145.392 36.6493 148.157L55.7183 150.354L57.8449 140.784C57.9158 140.572 58.0576 140.43 58.2703 140.501C58.4829 140.572 58.6247 140.714 58.5538 140.926L56.3563 150.78C56.2854 151.063 56.0727 151.134 55.931 151.134Z" fill="#727272"/>
<path d="M117.533 154.041C117.462 154.041 117.32 153.97 117.249 153.899L109.664 145.18C109.523 145.038 109.594 144.825 109.735 144.683C109.877 144.542 110.09 144.612 110.232 144.683L117.533 153.119L131.427 139.083C130.08 137.098 120.723 122.991 112.004 113.492C104.773 105.624 94.2107 104.844 94.1398 104.773C93.9272 104.773 93.7854 104.56 93.7854 104.419C93.7854 104.206 93.9981 104.064 94.1398 104.064C94.2107 104.064 105.057 104.915 112.5 112.996C121.857 123.204 132.065 138.8 132.136 138.87C132.207 139.012 132.207 139.225 132.065 139.296L117.675 153.828C117.675 153.97 117.604 154.041 117.533 154.041Z" fill="#727272"/>
<path d="M39.0597 148.795C39.0597 148.795 34.1684 174.031 36.8621 175.095C44.2345 178.001 75.071 172.543 79.0408 172.543C83.0105 172.543 88.8234 173.96 91.5171 173.96C94.2109 173.96 95.2033 171.692 93.7147 170.558C93.7147 170.558 96.054 170.487 96.054 168.998C96.054 168.431 95.8413 167.793 94.3527 167.084C94.3527 167.084 96.5502 166.73 96.5502 165.383C96.5502 164.674 96.4793 163.965 94.7071 163.256C94.7071 163.256 96.6211 163.043 96.6211 161.909C96.6211 161.342 96.5502 160.846 94.8489 160.35C92.2969 159.57 88.0436 160.066 88.0436 160.066C88.6107 158.436 89.036 156.734 89.3196 155.033C89.3905 154.466 89.7449 150.496 88.1854 150.213C87.4056 150.071 86.9094 152.765 86.0587 155.317C85.2789 157.727 84.2156 159.853 83.4358 160.35C81.9472 161.271 78.6863 161.909 77.0559 162.051C70.7468 162.476 56.3564 161.767 51.8196 162.051L54.088 150.709L39.0597 148.795Z" fill="white"/>
<path d="M44.1635 176.3C40.9026 176.3 38.2797 176.016 36.6493 175.449C33.8138 174.315 37.7835 153.048 38.6342 148.795C38.7051 148.582 38.8468 148.511 39.0595 148.511L54.1587 150.284C54.3714 150.284 54.5132 150.496 54.4423 150.709L52.2447 161.626C54.4423 161.555 58.2703 161.626 62.3109 161.697C67.5567 161.767 73.5822 161.909 76.9848 161.697C78.6861 161.555 81.8052 160.917 83.223 160.066C83.7901 159.712 84.8534 157.798 85.7041 155.246C85.9168 154.608 86.1294 153.97 86.2712 153.332C86.9092 151.134 87.3345 149.716 88.1852 149.929C90.0283 150.284 89.6739 154.324 89.603 155.104C89.3903 156.663 89.0359 158.223 88.4688 159.712C89.6739 159.641 92.793 159.428 94.8487 160.066C96.55 160.562 96.9045 161.129 96.9045 161.98C96.8336 162.689 96.3374 163.256 95.6285 163.398C96.4083 163.752 96.8336 164.532 96.7627 165.383C96.7627 166.375 95.8412 166.942 95.1323 167.226C95.8412 167.58 96.2665 168.289 96.2665 169.069C96.2665 170.345 95.0614 170.77 94.2816 170.912C94.6361 171.408 94.7069 172.046 94.4943 172.613C94.1398 173.748 92.8638 174.457 91.3752 174.457C89.6739 174.386 87.9016 174.173 86.2003 173.889C83.7901 173.464 81.309 173.181 78.8988 173.11C77.8355 173.11 74.8582 173.535 70.9593 174.031C63.3742 174.811 52.0321 176.3 44.1635 176.3ZM39.3431 149.22C37.0037 161.342 35.4442 174.173 36.9328 174.811C42.2495 176.938 60.1843 174.598 70.9593 173.181C74.9999 172.684 77.9064 172.259 78.9697 172.259C81.4508 172.33 83.9319 172.613 86.413 173.039C88.1143 173.322 89.7448 173.535 91.4461 173.606C92.9347 173.606 93.7145 172.897 93.9272 172.259C94.1398 171.692 93.9272 171.125 93.431 170.77C93.2892 170.629 93.2183 170.416 93.3601 170.274C93.4309 170.203 93.5018 170.132 93.6436 170.132C93.6436 170.132 95.6285 170.061 95.6285 168.927C95.6285 168.644 95.6285 168.077 94.1398 167.297C93.9981 167.226 93.9272 167.013 93.9981 166.801C94.069 166.73 94.1398 166.659 94.2816 166.588C94.2816 166.588 96.1956 166.233 96.1956 165.241C96.1956 164.603 96.1956 164.107 94.5652 163.469C94.3525 163.469 94.2107 163.256 94.2816 163.043C94.3525 162.831 94.4943 162.689 94.7069 162.76C95.1323 162.689 96.3374 162.405 96.3374 161.767C96.3374 161.413 96.3374 160.988 94.8487 160.562C92.6512 159.924 89.1068 160.208 88.327 160.279C88.2561 160.35 88.0434 160.421 87.9725 160.35C87.689 160.208 87.7599 159.924 87.9016 159.641C88.4688 158.081 88.8941 156.522 89.1068 154.891C89.3194 153.19 89.1776 150.638 88.2561 150.496C87.9725 150.638 87.4763 152.198 87.1928 153.403C87.051 154.041 86.8383 154.679 86.6257 155.317C85.9168 157.514 84.7826 159.924 83.861 160.491C82.3015 161.484 79.0406 162.122 77.3393 162.264C73.8657 162.476 67.8402 162.405 62.5945 162.264C58.2703 162.193 54.1587 162.122 52.103 162.264C51.9612 162.264 51.8903 162.264 51.8194 162.122C51.7485 162.051 51.7485 161.909 51.7485 161.838L53.9461 150.851L39.3431 149.22Z" fill="#727272"/>
<path d="M159.641 127.741C157.727 131.215 146.314 161.697 140.218 166.659C137.949 168.502 119.305 151.843 119.305 151.843L130.01 140.997L136.177 147.164C138.162 143.053 145.109 131.853 147.873 126.111" fill="white"/>
<path d="M139.792 167.155C136.035 167.155 121.999 154.75 119.022 152.127C118.88 151.985 118.88 151.772 119.022 151.63L129.726 140.785C129.797 140.714 129.868 140.714 130.009 140.714C130.08 140.714 130.222 140.785 130.293 140.785L136.106 146.597C137.098 144.683 138.87 141.564 140.784 138.303C143.265 133.979 146.101 129.159 147.59 126.04C147.661 125.898 147.873 125.827 148.086 125.898C148.228 125.969 148.299 126.181 148.228 126.323C146.739 129.442 143.903 134.334 141.422 138.658C139.367 142.202 137.453 145.534 136.531 147.377C136.46 147.448 136.389 147.59 136.248 147.59C136.106 147.59 136.035 147.59 135.964 147.519L130.08 141.635L119.801 151.843C128.804 159.854 138.729 167.439 140.005 166.446C144.471 162.831 151.843 145.321 156.167 134.901C157.727 131.215 158.79 128.592 159.357 127.67C159.428 127.528 159.712 127.457 159.853 127.528C159.995 127.599 160.066 127.812 159.995 127.954C159.499 128.804 158.365 131.569 156.876 135.113C152.481 145.605 145.109 163.256 140.501 166.942C140.288 167.084 140.075 167.155 139.792 167.155Z" fill="#727272"/>
<path d="M167.084 94.0689L153.19 92.155C151.985 92.0132 150.851 92.793 150.709 93.9981L150.638 94.7069C150.78 93.9272 151.489 93.4309 152.198 93.5018L167.651 95.6285C168.431 95.7703 168.927 96.4792 168.856 97.188L164.887 125.473C164.745 126.252 164.036 126.749 163.327 126.678L147.873 124.551C147.094 124.409 146.597 123.7 146.668 122.991L147.944 113.918L146.597 123.7C146.456 124.905 147.235 126.04 148.44 126.181L162.335 128.095C163.54 128.237 164.674 127.457 164.816 126.252L168.927 96.55C169.14 95.3449 168.36 94.2816 167.084 94.0689C167.155 94.0689 167.155 94.0689 167.084 94.0689Z" fill="white"/>
<path d="M147.944 124.622L163.398 126.749C164.178 126.819 164.887 126.323 164.957 125.544L168.927 97.259C168.998 96.4792 168.502 95.7703 167.722 95.6995L152.268 93.5728C151.489 93.5019 150.78 93.9981 150.709 94.7779L149.787 101.583C153.403 99.3857 153.332 99.1021 153.757 100.449C154.324 102.079 152.41 104.277 152.41 104.277L148.866 108.388L148.795 108.743L148.086 113.989L146.81 123.062C146.668 123.771 147.164 124.48 147.944 124.622Z" fill="white"/>
<path d="M115.619 195.794C115.406 195.794 115.265 195.652 115.265 195.44L113.847 149.858C113.847 149.646 113.989 149.504 114.201 149.504C114.414 149.504 114.556 149.646 114.556 149.858L115.974 195.44C115.974 195.652 115.832 195.794 115.619 195.794Z" fill="#727272"/>
<path d="M44.8725 195.794C44.6598 195.794 44.5181 195.581 44.5181 195.44L45.7941 175.945C45.7941 175.733 46.0067 175.591 46.1485 175.591C46.2903 175.591 46.5029 175.803 46.5029 175.945L45.227 195.44C45.227 195.652 45.0852 195.794 44.8725 195.794Z" fill="#727272"/>
<path d="M162.689 128.521C162.547 128.521 162.477 128.521 162.335 128.521L148.441 126.536C147.023 126.323 146.03 125.047 146.243 123.629L148.299 108.672C148.299 108.459 148.511 108.318 148.724 108.388C148.937 108.388 149.079 108.601 149.008 108.814L146.952 123.771C146.81 124.764 147.519 125.685 148.511 125.827L162.406 127.741C163.398 127.883 164.32 127.174 164.461 126.181L168.573 96.4792C168.715 95.4868 168.006 94.5652 167.013 94.4234L153.119 92.5094C152.127 92.3677 151.205 93.0765 151.063 94.069L150 101.583C150 101.796 149.787 101.938 149.575 101.867C149.362 101.867 149.22 101.654 149.291 101.441L150.355 93.9272C150.567 92.5094 151.843 91.517 153.261 91.7297L167.155 93.6437C168.573 93.8563 169.565 95.1323 169.353 96.5501L165.241 126.252C165.029 127.599 163.965 128.521 162.689 128.521Z" fill="#727272"/>
<path d="M163.54 127.103H163.327L147.873 124.976C146.881 124.835 146.243 123.984 146.385 122.991L148.44 108.176L152.056 103.993C152.056 103.993 153.828 101.938 153.332 100.449C153.261 100.236 153.19 100.024 153.119 99.8818C152.552 100.165 151.985 100.449 151.489 100.874L149.858 101.867L149.22 102.292L150.284 94.707C150.354 94.2108 150.638 93.7854 150.992 93.5728C151.347 93.2892 151.843 93.1474 152.268 93.2183L167.722 95.345C168.715 95.4868 169.353 96.3374 169.211 97.3299L165.241 125.614C165.241 126.465 164.461 127.103 163.54 127.103ZM149.078 108.53L147.023 123.062C146.952 123.629 147.377 124.197 147.944 124.267L163.398 126.394C163.965 126.465 164.532 126.04 164.603 125.473L168.573 97.1881C168.644 96.621 168.218 96.0539 167.651 95.983L152.198 93.8563C151.63 93.7854 151.063 94.2108 150.992 94.7779L150.142 100.874L151.063 100.307C152.481 99.4565 152.906 99.1021 153.332 99.3147C153.686 99.5274 153.97 99.8818 153.97 100.307C154.608 102.15 152.623 104.419 152.552 104.49L149.078 108.53Z" fill="#727272"/>
<path d="M168.076 104.206C167.864 104.206 167.722 104.135 167.651 103.922C167.651 103.71 167.722 103.568 167.935 103.497C169.423 103.001 171.763 101.796 171.621 100.803C171.408 99.5274 168.785 99.5274 168.714 99.5274C168.502 99.5274 168.36 99.3856 168.36 99.173C168.36 98.9603 168.502 98.8185 168.714 98.8185C168.856 98.8185 172.046 98.7476 172.33 100.662C172.613 102.576 168.644 103.922 168.218 104.064L168.076 104.206Z" fill="#727272"/>
<path d="M167.509 108.743C167.297 108.814 167.155 108.672 167.084 108.459C167.013 108.247 167.155 108.105 167.368 108.034C168.573 107.538 171.621 106.049 171.763 104.702C171.834 104.348 171.763 103.993 171.479 103.781C170.77 103.214 168.856 103.781 168.218 104.064C168.006 104.135 167.864 104.064 167.793 103.852C167.722 103.639 167.793 103.497 168.006 103.426C168.289 103.285 170.841 102.363 171.975 103.285C172.401 103.639 172.613 104.277 172.543 104.844C172.33 106.829 168.147 108.53 167.651 108.743C167.58 108.672 167.58 108.743 167.509 108.743Z" fill="#727272"/>
<path d="M166.73 113.28C166.517 113.28 166.375 113.138 166.375 112.925C166.375 112.784 166.446 112.642 166.588 112.571C168.147 111.791 170.487 110.161 170.274 109.027C170.274 108.885 170.132 108.743 169.991 108.672C169.423 108.318 168.147 108.53 167.722 108.672C167.509 108.743 167.297 108.601 167.297 108.389C167.297 108.176 167.368 107.963 167.58 107.963C167.793 107.892 169.494 107.467 170.416 108.034C170.699 108.247 170.912 108.53 170.983 108.885C171.337 110.94 167.368 112.996 166.871 113.209C166.801 113.209 166.801 113.28 166.73 113.28Z" fill="#727272"/>
<path d="M166.446 116.612C166.233 116.682 166.092 116.541 166.021 116.328C165.95 116.115 166.092 115.974 166.304 115.903C166.304 115.903 169.423 114.556 168.998 112.854C168.998 112.713 168.856 112.571 168.714 112.5C168.289 112.358 167.368 112.784 166.871 113.209C166.73 113.351 166.517 113.28 166.375 113.138C166.233 112.996 166.304 112.784 166.446 112.642C166.588 112.5 168.006 111.508 168.927 111.862C169.282 112.004 169.565 112.358 169.636 112.713C170.203 115.052 166.659 116.541 166.517 116.612C166.588 116.612 166.517 116.612 166.446 116.612Z" fill="#727272"/>
<path d="M147.661 114.272C146.739 111.578 145.463 108.885 145.251 107.042C144.967 104.915 152.41 98.8185 153.261 99.6692C154.112 100.52 153.474 103.001 152.41 104.064C151.347 105.128 148.37 108.176 148.37 108.176" fill="white"/>
<path d="M147.661 114.698C147.519 114.698 147.377 114.627 147.306 114.485C147.023 113.634 146.668 112.784 146.385 111.933C145.747 110.444 145.25 108.814 144.896 107.183C144.612 105.198 149.646 100.803 151.985 99.6692C152.481 99.4565 153.119 99.173 153.544 99.5274C154.608 100.662 153.828 103.355 152.694 104.419C151.56 105.482 148.653 108.53 148.653 108.53L148.157 108.034C148.157 108.034 151.134 104.986 152.198 103.923C153.261 102.859 153.686 100.662 153.048 100.024C152.836 99.9528 151.489 100.591 149.433 102.292C147.164 104.206 145.534 106.262 145.676 107.042C145.959 108.601 146.456 110.161 147.094 111.578C147.448 112.429 147.732 113.28 148.015 114.13C148.086 114.343 147.944 114.485 147.802 114.556L147.661 114.698Z" fill="#727272"/>
<path d="M99.7662 133.272C99.9156 132.76 99.625 132.223 99.117 132.073C98.609 131.922 98.076 132.215 97.9265 132.727C97.777 133.238 98.0676 133.775 98.5756 133.926C99.0836 134.076 99.6167 133.784 99.7662 133.272Z" fill="url(#paint0_linear_1594_10769)"/>
<path d="M101.291 132.918C101.164 132.918 101.045 132.952 100.935 133.029C100.825 133.098 100.748 133.2 100.697 133.329L98.856 138.004L96.9977 133.337C96.9553 133.209 96.8789 133.106 96.7686 133.029C96.6583 132.961 96.5395 132.918 96.4207 132.918C96.234 132.918 96.0812 132.987 95.9624 133.123C95.8521 133.252 95.7927 133.397 95.7927 133.559C95.7927 133.653 95.8097 133.73 95.8352 133.79L98.279 139.944C98.3384 140.047 98.4148 140.141 98.5081 140.218C98.6184 140.303 98.7372 140.337 98.8645 140.337C98.9833 140.337 99.1021 140.295 99.2124 140.218C99.3143 140.141 99.3906 140.055 99.45 139.936C99.6452 139.448 100.146 138.183 100.655 136.91C101.173 135.611 101.699 134.303 101.885 133.799C101.911 133.739 101.928 133.653 101.928 133.559C101.928 133.405 101.877 133.269 101.767 133.14C101.639 132.987 101.487 132.918 101.291 132.918Z" fill="url(#paint1_linear_1594_10769)"/>
<path d="M98.8476 129.764C97.1166 129.764 95.6995 131.183 95.6995 132.935C95.6995 133.192 95.7334 133.44 95.7843 133.688L95.8098 133.782H95.8183C95.7928 133.722 95.7843 133.645 95.7843 133.559C95.7843 133.397 95.8437 133.252 95.954 133.123C96.0728 132.987 96.2256 132.918 96.4123 132.918C96.5395 132.918 96.6583 132.952 96.7602 133.029C96.8705 133.106 96.9469 133.209 96.9893 133.337L97.0147 133.405C96.9893 133.269 96.9469 133.029 96.9469 132.935C96.9469 131.884 97.7954 131.029 98.8391 131.029C99.8829 131.029 100.731 131.884 100.731 132.935C100.731 133.064 100.714 133.192 100.689 133.32C100.74 133.2 100.816 133.098 100.927 133.029C101.037 132.961 101.156 132.918 101.283 132.918C101.478 132.918 101.631 132.987 101.741 133.123C101.852 133.252 101.902 133.397 101.902 133.542C101.902 133.636 101.885 133.713 101.869 133.773H101.877L101.902 133.679C101.962 133.431 101.987 133.183 101.987 132.927C101.996 131.183 100.587 129.764 98.8476 129.764Z" fill="url(#paint2_linear_1594_10769)"/>
<path d="M159.912 105.972C160.243 105.259 159.939 104.411 159.231 104.079C158.523 103.746 157.681 104.055 157.349 104.768C157.017 105.481 157.322 106.329 158.03 106.662C158.737 106.994 159.58 106.685 159.912 105.972Z" fill="url(#paint3_linear_1594_10769)"/>
<path d="M162.215 105.795C162.03 105.767 161.849 105.791 161.671 105.878C161.495 105.953 161.36 106.086 161.258 106.262L157.533 112.673L155.859 105.453C155.826 105.256 155.737 105.09 155.593 104.953C155.447 104.829 155.284 104.74 155.11 104.714C154.838 104.672 154.6 104.738 154.396 104.911C154.207 105.074 154.088 105.272 154.052 105.509C154.031 105.646 154.039 105.762 154.063 105.855L156.261 115.375C156.325 115.538 156.415 115.692 156.534 115.825C156.676 115.974 156.842 116.05 157.028 116.079C157.201 116.105 157.384 116.069 157.562 115.981C157.727 115.892 157.858 115.784 157.971 115.623C158.364 114.955 159.375 113.221 160.401 111.477C161.444 109.696 162.502 107.906 162.886 107.211C162.937 107.13 162.98 107.009 163.001 106.872C163.035 106.647 162.992 106.436 162.859 106.225C162.708 105.972 162.5 105.839 162.215 105.795Z" fill="url(#paint4_linear_1594_10769)"/>
<path d="M159.351 100.652C156.825 100.267 154.443 102.022 154.054 104.578C153.997 104.952 153.992 105.322 154.011 105.694L154.027 105.837L154.04 105.839C154.016 105.746 154.02 105.632 154.039 105.507C154.075 105.27 154.194 105.072 154.384 104.909C154.587 104.736 154.825 104.67 155.098 104.712C155.283 104.74 155.449 104.816 155.581 104.951C155.724 105.088 155.813 105.254 155.846 105.451L155.868 105.556C155.862 105.351 155.853 104.993 155.874 104.855C156.107 103.322 157.535 102.263 159.057 102.495C160.58 102.727 161.628 104.162 161.394 105.696C161.366 105.883 161.313 106.066 161.247 106.247C161.348 106.084 161.482 105.952 161.658 105.876C161.834 105.801 162.017 105.765 162.203 105.793C162.487 105.837 162.695 105.97 162.825 106.194C162.958 106.406 163 106.629 162.968 106.841C162.947 106.978 162.905 107.087 162.867 107.17L162.879 107.172L162.937 107.041C163.079 106.692 163.171 106.336 163.228 105.962C163.628 103.421 161.888 101.038 159.351 100.652Z" fill="url(#paint5_linear_1594_10769)"/>
<path d="M38.7052 59.759C50.2937 59.759 59.6881 50.3646 59.6881 38.776C59.6881 27.1874 50.2937 17.793 38.7052 17.793C27.1166 17.793 17.7222 27.1874 17.7222 38.776C17.7222 50.3646 27.1166 59.759 38.7052 59.759Z" fill="white"/>
<path d="M38.7051 60.1134C26.9376 60.1134 17.3677 50.5435 17.3677 38.776C17.3677 27.0085 26.9376 17.4385 38.7051 17.4385C50.4726 17.4385 60.0425 27.0085 60.0425 38.776C60.0425 50.5435 50.4726 60.0425 38.7051 60.1134ZM38.7051 18.1474C27.2921 18.1474 18.0766 27.3629 18.0766 38.776C18.0766 50.189 27.2921 59.4045 38.7051 59.4045C50.1181 59.4045 59.3336 50.189 59.3336 38.776C59.3336 27.3629 50.0473 18.1474 38.7051 18.1474Z" fill="#B5B5B5"/>
<path d="M21.3375 112.713C32.9261 112.713 42.3205 103.318 42.3205 91.7297C42.3205 80.1411 32.9261 70.7467 21.3375 70.7467C9.7489 70.7467 0.354492 80.1411 0.354492 91.7297C0.354492 103.318 9.7489 112.713 21.3375 112.713Z" fill="white"/>
<path d="M21.3374 113.067C9.56994 113.067 0 103.568 0 91.7297C0 79.8913 9.56994 70.3922 21.3374 70.3922C33.1049 70.3922 42.6749 79.9622 42.6749 91.7297C42.6749 103.568 33.1049 113.067 21.3374 113.067ZM21.3374 71.1011C9.92439 71.1011 0.708885 80.3875 0.708885 91.7297C0.708885 103.072 9.92439 112.358 21.3374 112.358C32.7505 112.358 41.966 103.143 41.966 91.7297C41.966 80.3875 32.7505 71.172 21.3374 71.1011Z" fill="#B5B5B5"/>
<path d="M137.949 86.2004C149.538 86.2004 158.932 76.806 158.932 65.2174C158.932 53.6288 149.538 44.2344 137.949 44.2344C126.36 44.2344 116.966 53.6288 116.966 65.2174C116.966 76.806 126.36 86.2004 137.949 86.2004Z" fill="white"/>
<path d="M137.949 86.5548C126.182 86.5548 116.612 76.9849 116.612 65.2174C116.612 53.4499 126.182 43.88 137.949 43.88C149.716 43.88 159.286 53.4499 159.286 65.2174C159.286 77.0558 149.716 86.5548 137.949 86.5548ZM137.949 44.5889C126.536 44.5889 117.32 53.8044 117.32 65.2174C117.32 76.6304 126.536 85.8459 137.949 85.8459C149.362 85.8459 158.578 76.6304 158.578 65.2174C158.578 53.8752 149.291 44.6597 137.949 44.5889Z" fill="#B5B5B5"/>
<path d="M38.7051 37.8544C37.0747 37.8544 35.7278 36.5075 35.7278 34.8771C35.7278 33.2467 37.0747 31.8998 38.7051 31.8998C40.3355 31.8998 41.6824 33.2467 41.6824 34.8771C41.6824 36.5075 40.4064 37.8544 38.7051 37.8544ZM38.7051 32.5378C37.4291 32.5378 36.4367 33.5302 36.4367 34.8062C36.4367 36.0822 37.4291 37.0746 38.7051 37.0746C39.3431 37.0746 39.9102 36.862 40.3355 36.4366C40.7609 36.0113 41.0444 35.4442 41.0444 34.8062C41.0444 33.6011 40.052 32.5378 38.7051 32.5378Z" fill="#ADADAD"/>
<path d="M41.3988 47.6371H35.9404C35.7277 47.6371 35.5859 47.4953 35.5859 47.2826C35.5859 47.07 35.7277 46.9282 35.9404 46.9282H41.3988C41.6115 46.9282 41.7532 47.07 41.7532 47.2826C41.7532 47.4953 41.6115 47.6371 41.3988 47.6371Z" fill="#ADADAD"/>
<path d="M33.1757 46.1484C32.9631 46.1484 32.8213 45.9357 32.8213 45.794L33.1757 40.69C33.2466 40.1229 33.5302 39.6267 34.0264 39.3431C34.6644 38.9178 35.5151 38.8469 36.2239 39.2013L36.3657 39.2722C37.7835 39.8393 39.4139 39.8393 40.8317 39.2722L41.0444 39.2013C41.7532 38.9178 42.6039 38.9887 43.2419 39.414C43.7381 39.6976 44.0926 40.2647 44.0926 40.8318L44.3052 43.7382C44.3052 43.9509 44.1634 44.0926 43.9508 44.0926C43.7381 44.0926 43.5963 43.9509 43.5963 43.7382L43.3837 40.8318C43.3837 40.4773 43.171 40.1938 42.8166 39.9811C42.3203 39.6976 41.7532 39.6267 41.257 39.8393L41.0444 39.9102C39.4139 40.5482 37.7126 40.5482 36.0822 39.9102L35.9404 39.8393C35.4442 39.6267 34.8771 39.6976 34.3808 39.9811C34.0973 40.1229 33.8846 40.4773 33.8137 40.8318L33.4593 45.9357C33.5302 46.0066 33.3884 46.1484 33.1757 46.1484Z" fill="#ADADAD"/>
<path d="M34.5935 48.5586C33.6011 48.5586 32.8213 47.7079 32.8213 46.7155C32.8213 46.6446 32.8213 46.6446 32.8213 46.5737L33.1048 42.9584C33.1048 42.7457 33.3175 42.6039 33.4593 42.6039C33.6011 42.6039 33.8137 42.8166 33.8137 42.9584L33.5302 46.5737C33.4593 47.2117 33.9555 47.7079 34.5226 47.7788H34.5935C35.2315 47.7788 35.6568 47.2826 35.7277 46.7155V42.9584C35.7277 42.7457 35.8695 42.6039 36.0822 42.6039C36.2948 42.6039 36.4366 42.7457 36.4366 42.9584V46.7864C36.3657 47.7788 35.5859 48.5586 34.5935 48.5586Z" fill="#ADADAD"/>
<path d="M42.7458 48.6295C41.7534 48.6295 40.9736 47.7788 40.9736 46.7864V43.0293C40.9736 42.8166 41.1154 42.6749 41.3281 42.6749C41.5407 42.6749 41.6825 42.8166 41.6825 43.0293V46.7864C41.6825 47.4244 42.1787 47.9206 42.7458 47.9206C43.3838 47.9206 43.8801 47.4244 43.8801 46.8573V46.7864L43.6674 43.1711C43.6674 42.9584 43.8092 42.8166 44.0218 42.8166C44.2345 42.8166 44.3763 42.9584 44.3763 43.1002L44.5889 46.7155C44.6598 47.7079 43.8801 48.5586 42.8876 48.6295C42.8167 48.6295 42.8167 48.6295 42.7458 48.6295Z" fill="#ADADAD"/>
<path d="M47.9915 35.1607C46.361 35.1607 45.0142 33.8138 45.0142 32.1834C45.0142 30.553 46.361 29.2061 47.9915 29.2061C49.6219 29.2061 50.9688 30.553 50.9688 32.1834C50.9688 33.8138 49.6219 35.1607 47.9915 35.1607ZM47.9915 29.8441C46.7155 29.8441 45.723 30.8365 45.723 32.1125C45.723 33.3885 46.7155 34.3809 47.9915 34.3809C49.2675 34.3809 50.2599 33.3885 50.2599 32.1125C50.2599 30.8365 49.1966 29.8441 47.9915 29.8441Z" fill="#ADADAD"/>
<path d="M50.6854 44.9433H45.227C45.0143 44.9433 44.8726 44.8015 44.8726 44.5889C44.8726 44.3762 45.0143 44.2344 45.227 44.2344H50.6854C50.8981 44.2344 51.0399 44.3762 51.0399 44.5889C51.0399 44.8015 50.8272 44.9433 50.6854 44.9433Z" fill="#ADADAD"/>
<path d="M53.2372 41.2571C53.0245 41.2571 52.8828 41.1153 52.8828 40.9027L52.741 37.9962C52.741 37.6418 52.5283 37.3582 52.1739 37.1456C51.6777 36.862 51.1106 36.7911 50.6143 37.0038L50.4017 37.0747C48.7712 37.7127 47.0699 37.7127 45.4395 37.0747L45.2977 37.0038C44.8015 36.7911 44.2344 36.862 43.7382 37.1456C43.4546 37.2873 43.2419 37.6418 43.171 37.9962C43.171 38.2089 42.9584 38.3507 42.8166 38.3507C42.6039 38.3507 42.4622 38.138 42.4622 37.9962C42.533 37.4291 42.8166 36.9329 43.3128 36.6493C43.9508 36.224 44.8015 36.1531 45.5104 36.5076L45.6521 36.5785C47.0699 37.1456 48.7003 37.1456 50.1181 36.5785L50.3308 36.5076C51.0397 36.224 51.8903 36.2949 52.5283 36.7202C53.0245 37.0038 53.379 37.5709 53.379 38.138L53.5916 41.0444C53.6625 41.1153 53.5208 41.2571 53.2372 41.2571C53.3081 41.328 53.3081 41.328 53.2372 41.2571Z" fill="#ADADAD"/>
<path d="M52.0322 45.9357C51.0398 45.9357 50.26 45.0851 50.26 44.0926V40.3355C50.26 40.1229 50.4018 39.9811 50.6145 39.9811C50.8271 39.9811 50.9689 40.1229 50.9689 40.3355V44.0926C50.9689 44.7306 51.4651 45.2268 52.0322 45.2268C52.3158 45.2268 52.5993 45.0851 52.812 44.8724C53.0247 44.6597 53.0955 44.3762 53.0955 44.0217L52.9538 40.4064C52.9538 40.1938 53.0955 40.052 53.3082 40.052C53.5209 40.052 53.6627 40.1938 53.6627 40.3355L53.8753 43.9508C53.9462 44.9433 53.1664 45.7939 52.174 45.8648C52.1031 45.9357 52.1031 45.9357 52.0322 45.9357Z" fill="#ADADAD"/>
<path d="M29.4895 35.0189C27.8591 35.0189 26.5122 33.672 26.5122 32.0416C26.5122 30.4112 27.8591 29.0643 29.4895 29.0643C31.12 29.0643 32.4668 30.4112 32.4668 32.0416C32.4668 33.672 31.1908 35.0189 29.4895 35.0189ZM29.4895 29.7732C28.2135 29.7732 27.2211 30.7656 27.2211 32.0416C27.2211 33.3176 28.2135 34.31 29.4895 34.31C30.1275 34.31 30.6946 34.0974 31.12 33.672C32.0415 32.7505 32.0415 31.3327 31.12 30.4112C30.6946 29.9858 30.1275 29.7732 29.4895 29.7732Z" fill="#ADADAD"/>
<path d="M32.1832 44.8015H26.7248C26.5121 44.8015 26.3704 44.6597 26.3704 44.4471C26.3704 44.2344 26.5121 44.0926 26.7248 44.0926H32.1832C32.3959 44.0926 32.5377 44.2344 32.5377 44.4471C32.5377 44.6597 32.3959 44.8015 32.1832 44.8015Z" fill="#ADADAD"/>
<path d="M24.102 41.1153C23.8893 41.1153 23.7476 40.9026 23.7476 40.7609L23.9602 37.8544C24.0311 37.2873 24.3147 36.7911 24.8109 36.5075C25.4489 36.0822 26.2995 36.0113 27.0084 36.3658L27.1502 36.4367C28.568 37.0038 30.1984 37.0038 31.6162 36.4367L31.8288 36.3658C32.5377 36.0822 33.3884 36.1531 34.0264 36.5784C34.5226 36.862 34.877 37.4291 34.877 37.9962C34.877 38.2089 34.7353 38.3506 34.5226 38.3506C34.3099 38.3506 34.1682 38.2089 34.1682 37.9962C34.1682 37.6418 33.9555 37.3582 33.6011 37.1455C33.1048 36.862 32.5377 36.7911 32.0415 37.0038L31.8288 37.0747C30.1984 37.7126 28.4971 37.7126 26.8667 37.0747L26.7249 37.0038C26.2287 36.7911 25.6615 36.862 25.1653 37.1455C24.8818 37.2873 24.6691 37.6418 24.5982 37.9962L24.3856 40.9026C24.5273 41.0444 24.3147 41.1862 24.102 41.1153Z" fill="#ADADAD"/>
<path d="M25.3782 45.7939C24.3857 45.7939 23.606 44.9433 23.606 43.9508C23.606 43.8799 23.606 43.8799 23.606 43.809L23.8895 40.1937C23.8895 39.9811 24.1022 39.8393 24.244 39.8393C24.3857 39.8393 24.5984 40.052 24.5984 40.1937L24.3148 43.809C24.244 44.447 24.7402 44.9433 25.3073 45.0142H25.3782C25.6617 45.0142 25.9453 44.9433 26.1579 44.7306C26.3706 44.5179 26.5124 44.2344 26.5124 43.9508V40.1937C26.5124 39.9811 26.6542 39.8393 26.8668 39.8393C27.0795 39.8393 27.2213 39.9811 27.2213 40.1937V43.9508C27.1504 44.9433 26.3706 45.7939 25.3782 45.7939Z" fill="#ADADAD"/>
<path d="M97.9678 42.8875C109.556 42.8875 118.951 33.4931 118.951 21.9045C118.951 10.3159 109.556 0.921539 97.9678 0.921539C86.3793 0.921539 76.9849 10.3159 76.9849 21.9045C76.9849 33.4931 86.3793 42.8875 97.9678 42.8875Z" fill="white"/>
<path d="M97.9678 43.242C86.2003 43.242 76.6304 33.672 76.6304 21.9045C76.6304 10.137 86.2003 0.567093 97.9678 0.567093C109.735 0.567093 119.305 10.137 119.305 21.9045C119.305 33.7429 109.806 43.242 97.9678 43.242ZM97.9678 1.27598C86.5548 1.27598 77.3393 10.4915 77.3393 21.9045C77.3393 33.3176 86.5548 42.5331 97.9678 42.5331C109.381 42.5331 118.596 33.3176 118.596 21.9045C118.596 10.5624 109.381 1.34687 97.9678 1.27598Z" fill="#B5B5B5"/>
<path d="M104.419 30.6238C99.5982 30.6238 95.7703 26.725 95.7703 21.9754C95.7703 17.155 99.6691 13.327 104.419 13.327C109.239 13.327 113.067 17.2259 113.067 21.9754C113.067 26.725 109.239 30.6238 104.419 30.6238ZM104.419 13.965C100.024 13.965 96.4791 17.5095 96.4791 21.9045C96.4791 26.2996 100.024 29.8441 104.419 29.8441C108.814 29.8441 112.358 26.2996 112.358 21.9045C112.358 17.5803 108.814 14.0359 104.419 13.965Z" fill="#ADADAD"/>
<path d="M104.419 22.259C103.001 22.259 101.796 21.0539 101.796 19.6361C101.796 18.2183 103.001 17.0132 104.419 17.0132C105.482 17.0132 106.475 17.7221 106.9 18.7146C106.971 18.9272 106.9 19.069 106.687 19.1399C106.475 19.2108 106.333 19.1399 106.262 18.9272C105.907 17.9348 104.773 17.4386 103.781 17.793C102.788 18.1474 102.292 19.2817 102.647 20.2741C102.93 21.0539 103.639 21.5501 104.419 21.5501C104.631 21.5501 104.773 21.6919 104.773 21.9045C104.773 22.1172 104.631 22.259 104.419 22.259Z" fill="#ADADAD"/>
<path d="M104.419 26.7959C103.285 26.7959 102.221 26.087 101.938 24.9528C101.867 24.7401 102.009 24.5274 102.221 24.4565C102.434 24.3856 102.647 24.5274 102.647 24.6692C103.001 25.6616 104.064 26.2287 105.057 25.9452C106.049 25.5907 106.616 24.5274 106.333 23.535C106.049 22.7552 105.34 22.1881 104.49 22.1881C104.277 22.1881 104.135 22.0463 104.135 21.8337C104.135 21.621 104.277 21.4792 104.49 21.4792C105.907 21.4792 107.112 22.6843 107.112 24.1021C107.042 25.6616 105.907 26.7959 104.419 26.7959Z" fill="#ADADAD"/>
<path d="M103.781 27.5756C103.568 27.5756 103.426 27.4338 103.426 27.2212V16.6588C103.426 16.4461 103.568 16.3043 103.781 16.3043C103.993 16.3043 104.135 16.4461 104.135 16.6588V27.2212C104.135 27.4338 103.993 27.5756 103.781 27.5756Z" fill="#ADADAD"/>
<path d="M105.057 27.5756C104.844 27.5756 104.702 27.4338 104.702 27.2212V16.6588C104.702 16.4461 104.844 16.3043 105.057 16.3043C105.269 16.3043 105.411 16.4461 105.411 16.6588V27.2212C105.411 27.4338 105.269 27.5756 105.057 27.5756Z" fill="#ADADAD"/>
<path d="M96.1248 22.259H84.7827C84.57 22.259 84.4282 22.1172 84.4282 21.9045V17.7221C84.4282 17.5095 84.57 17.3677 84.7827 17.3677H97.1882C97.4008 17.3677 97.5426 17.5095 97.5426 17.7221C97.5426 17.9348 97.4008 18.0766 97.1882 18.0766H85.1371V21.5501H96.1248C96.3375 21.5501 96.4793 21.6919 96.4793 21.9045C96.4793 22.1172 96.2666 22.259 96.1248 22.259Z" fill="#ADADAD"/>
<path d="M90.0283 20.9121C89.8156 20.9121 89.6738 20.7703 89.6738 20.5577V17.7221C89.6738 17.5095 89.8156 17.3677 90.0283 17.3677C90.2409 17.3677 90.3827 17.5095 90.3827 17.7221V20.5577C90.3827 20.7703 90.2409 20.9121 90.0283 20.9121Z" fill="#ADADAD"/>
<path d="M91.517 22.259C91.3044 22.259 91.1626 22.1172 91.1626 21.9045V17.7221C91.1626 17.5095 91.3044 17.3677 91.517 17.3677C91.7297 17.3677 91.8715 17.5095 91.8715 17.7221V21.9045C91.8715 22.1172 91.7297 22.259 91.517 22.259Z" fill="#ADADAD"/>
<path d="M101.441 30.6238H84.7827C84.57 30.6238 84.4282 30.482 84.4282 30.2694V26.0869C84.4282 25.8743 84.57 25.7325 84.7827 25.7325H97.1882C97.4008 25.7325 97.5426 25.8743 97.5426 26.0869C97.5426 26.2996 97.4008 26.4414 97.1882 26.4414H85.1371V29.9149H101.087V29.7023C101.087 29.4896 101.229 29.3478 101.441 29.3478C101.654 29.3478 101.796 29.4896 101.796 29.7023V30.2694C101.796 30.482 101.654 30.6238 101.441 30.6238Z" fill="#ADADAD"/>
<path d="M91.8005 29.2769C91.5878 29.2769 91.446 29.1351 91.446 28.9225V26.0869C91.446 25.8743 91.5878 25.7325 91.8005 25.7325C92.0132 25.7325 92.1549 25.8743 92.1549 26.0869V28.9225C92.1549 29.1351 91.9423 29.2769 91.8005 29.2769Z" fill="#ADADAD"/>
<path d="M93.2893 30.6238C93.0766 30.6238 92.9348 30.482 92.9348 30.2694V26.0869C92.9348 25.8743 93.0766 25.7325 93.2893 25.7325C93.5019 25.7325 93.6437 25.8743 93.6437 26.0869V30.2694C93.6437 30.482 93.431 30.6238 93.2893 30.6238Z" fill="#ADADAD"/>
<path d="M97.1882 18.1474H86.3422C86.1296 18.1474 85.9878 18.0057 85.9878 17.793V13.6106C85.9878 13.3979 86.1296 13.2561 86.3422 13.2561H103.001C103.214 13.2561 103.355 13.3979 103.355 13.6106V13.7524C103.355 13.965 103.214 14.1068 103.001 14.1068C102.859 14.1068 102.788 14.0359 102.717 13.965H86.7676V17.4386H97.2591C97.4717 17.4386 97.6135 17.5803 97.6135 17.793C97.6135 18.0057 97.4008 18.1474 97.1882 18.1474Z" fill="#ADADAD"/>
<path d="M90.8789 18.0766C90.6662 18.0766 90.5244 17.9348 90.5244 17.7221V13.5397C90.5244 13.327 90.6662 13.1853 90.8789 13.1853C91.0915 13.1853 91.2333 13.327 91.2333 13.5397V17.7221C91.2333 17.9348 91.0915 18.0766 90.8789 18.0766Z" fill="#ADADAD"/>
<path d="M88.4689 16.5879C88.2563 16.5879 88.1145 16.4461 88.1145 16.2334V13.6106C88.1145 13.3979 88.2563 13.2561 88.4689 13.2561C88.6816 13.2561 88.8234 13.3979 88.8234 13.6106V16.2334C88.8234 16.4461 88.6816 16.5879 88.4689 16.5879Z" fill="#ADADAD"/>
<path d="M97.1882 26.4414H86.3422C86.1296 26.4414 85.9878 26.2997 85.9878 26.087V21.9046C85.9878 21.6919 86.1296 21.5501 86.3422 21.5501H96.1248C96.3375 21.5501 96.4793 21.6919 96.4793 21.9046C96.4793 22.1172 96.3375 22.259 96.1248 22.259H86.7676V25.7326H97.2591C97.4717 25.7326 97.6135 25.8743 97.6135 26.087C97.6135 26.2997 97.4008 26.4414 97.1882 26.4414Z" fill="#ADADAD"/>
<path d="M90.8789 26.4414C90.6662 26.4414 90.5244 26.2996 90.5244 26.087V21.9754C90.5244 21.7628 90.6662 21.621 90.8789 21.621C91.0915 21.621 91.2333 21.7628 91.2333 21.9754V26.1579C91.2333 26.2996 91.0915 26.4414 90.8789 26.4414Z" fill="#ADADAD"/>
<path d="M88.4689 24.3857C88.2563 24.3857 88.1145 24.2439 88.1145 24.0312V21.9754C88.1145 21.7628 88.2563 21.621 88.4689 21.621C88.6816 21.621 88.8234 21.7628 88.8234 21.9754V24.0312C88.8234 24.2439 88.6816 24.3857 88.4689 24.3857Z" fill="#ADADAD"/>
<path d="M75.6381 85.0662C75.6381 85.0662 78.19 74.9291 75.6381 70.534C73.6532 67.0605 92.2969 77.3393 101.441 72.448C102.292 76.1342 106.191 97.259 93.8564 102.15C82.5142 106.616 74.9292 98.0388 72.5899 92.5803C72.2354 91.8006 71.5974 89.8157 71.5974 89.8157" fill="white"/>
<path d="M87.6891 103.781C79.9622 103.781 74.4329 97.8261 72.3063 92.793C71.9518 92.0132 71.3847 90.0993 71.3139 90.0284C71.243 89.8157 71.3847 89.603 71.5974 89.603C71.8101 89.5321 72.0227 89.6739 72.0227 89.8157C72.0227 89.8157 72.6607 91.7297 72.9443 92.5095C75.4963 98.535 83.1522 106.049 93.7146 101.867C98.8186 99.8819 101.654 94.7779 102.221 86.8384C102.505 82.2306 102.15 77.552 101.158 73.0151C95.345 75.7798 86.1295 73.0151 80.5294 71.3138C78.5445 70.7467 76.276 70.0378 75.7798 70.1796C75.7798 70.2505 75.8507 70.3214 75.8507 70.3923C78.4027 74.8582 75.9925 84.7826 75.8507 85.2079C75.7798 85.4206 75.638 85.4915 75.4254 85.4915C75.2127 85.4206 75.1418 85.2788 75.1418 85.0662C75.1418 84.9953 77.6229 75 75.1418 70.8176C74.9292 70.534 74.8583 70.1087 75.0709 69.8252C75.5672 69.1872 77.0558 69.6125 80.6002 70.6758C86.2004 72.3771 95.5577 75.1418 101.087 72.2354L101.512 72.0227L101.583 72.448C102.647 77.1975 103.001 82.0889 102.717 86.9093C102.15 95.1323 99.1021 100.378 93.7855 102.505C92.0133 103.285 89.8866 103.71 87.6891 103.781Z" fill="#727272"/>
<path d="M86.9801 83.0104C87.6848 83.0104 88.2561 82.4391 88.2561 81.7344C88.2561 81.0297 87.6848 80.4584 86.9801 80.4584C86.2754 80.4584 85.7041 81.0297 85.7041 81.7344C85.7041 82.4391 86.2754 83.0104 86.9801 83.0104Z" fill="#727272"/>
<path d="M75.4963 85.0661C74.5038 82.6559 71.9518 77.3393 68.6201 78.5444C64.3668 80.1748 63.4452 86.2712 71.5974 89.8157" fill="white"/>
<path d="M71.6682 90.2411C71.5973 90.2411 71.5973 90.2411 71.5264 90.2411C67.344 88.4688 65.0047 85.7751 65.1465 82.8687C65.2174 80.8129 66.5642 78.9698 68.5491 78.3318C72.1644 76.9849 74.8582 82.5851 75.8506 85.0662C75.9215 85.2789 75.8506 85.4206 75.638 85.4915C75.4253 85.5624 75.2835 85.4915 75.2126 85.2789C74.2911 83.0104 71.81 77.8356 68.8327 78.9698C67.1313 79.5369 65.9262 81.0964 65.8554 82.8687C65.7845 85.4206 67.982 87.9017 71.8809 89.6031C72.0227 89.6739 72.0935 89.9575 72.0227 90.0993C71.8809 90.1702 71.81 90.2411 71.6682 90.2411Z" fill="#727272"/>
<path d="M69.1164 58.9792C69.1164 58.9792 64.7922 51.6777 75.7799 49.9764C93.0058 47.2826 107.538 55.931 106.191 65.1465C103.426 83.6484 73.157 66.2098 75.709 70.6049C78.261 75 75.709 85.1371 75.709 85.1371H75.6381C74.7166 82.7269 72.0937 77.3393 68.7619 78.5444C68.5493 78.6153 68.2657 78.7571 68.053 78.8989C66.9897 76.5596 64.8631 74.1494 63.5871 68.7618C61.744 61.3894 69.1164 58.9792 69.1164 58.9792Z" fill="#B5B5B5"/>
<path d="M75.6379 85.4206H75.567C75.4252 85.4206 75.2835 85.3497 75.2126 85.208C74.291 82.9395 71.8099 77.6938 68.7617 78.828C68.5491 78.8989 68.3364 79.0407 68.1237 79.1116C67.982 79.1824 67.7693 79.1116 67.6275 78.9698C67.344 78.3318 66.9895 77.6229 66.4933 76.914C64.9338 74.362 63.7995 71.6683 63.1615 68.7618C61.602 62.2401 67.0604 59.4046 68.62 58.7666C67.8402 57.207 67.6984 55.293 68.4073 53.6626C69.3997 51.6068 71.8808 50.1891 75.7088 49.622C86.4838 47.9206 97.188 50.5435 103.001 56.2855C105.766 58.9792 106.971 62.0983 106.545 65.1465C106.049 68.4783 104.631 70.9594 102.292 72.448C96.55 76.0634 86.6256 73.086 80.6001 71.3138C78.6152 70.7467 76.3468 70.0378 75.8506 70.1796C75.8506 70.2505 75.9215 70.3214 75.9215 70.3923C78.4734 74.8583 76.0632 84.7826 75.9215 85.208C75.9215 85.3497 75.7797 85.4206 75.6379 85.4206ZM69.6833 77.9773C72.377 77.9773 74.4328 81.6635 75.4961 84.0737C76.0632 81.5218 77.3392 74.2203 75.3544 70.7467C75.1417 70.4632 75.0708 70.0378 75.2835 69.7543C75.7797 69.1872 77.2683 69.5416 80.8128 70.6049C86.6256 72.3772 96.4082 75.2836 101.867 71.81C103.993 70.4632 105.34 68.1947 105.766 65.0048C106.191 62.1692 105.057 59.3337 102.434 56.7817C95.9829 50.4017 84.3572 48.9131 75.7797 50.26C72.1644 50.8271 69.8959 52.0322 68.9744 53.9462C67.9111 56.2146 69.3288 58.7666 69.3288 58.7666C69.3997 58.9083 69.3997 59.121 69.1871 59.2628H69.1162C68.8326 59.3337 62.0982 61.673 63.7287 68.5492C64.3666 71.3847 65.5009 74.0076 66.9895 76.4887C67.344 77.1267 67.6984 77.6938 67.982 78.2609L68.4073 78.1191C68.9035 78.0482 69.258 77.9773 69.6833 77.9773Z" fill="#727272"/>
<path d="M91.0208 93.9981C88.8232 94.069 86.8383 92.6512 86.1295 90.5245C86.0586 90.3119 86.2003 90.1701 86.3421 90.0992C86.4839 90.0283 86.6966 90.0992 86.7674 90.3119C87.4763 92.5094 89.7448 93.7145 91.9423 93.2183C92.155 93.1474 92.3676 93.2892 92.3676 93.5019C92.3676 93.7145 92.2967 93.9272 92.0841 93.9272C91.8005 93.9981 91.3752 93.9981 91.0208 93.9981Z" fill="#727272"/>
<path d="M72.5898 85.4206C72.448 85.4206 72.3062 85.2788 72.2353 85.137C71.8809 83.2939 70.4631 81.8762 68.6909 81.38C68.4782 81.3091 68.3365 81.1673 68.4074 80.9546C68.4782 80.742 68.62 80.6002 68.8327 80.6711C70.8885 81.2382 72.448 82.9395 72.8733 84.9953C72.9442 85.2079 72.8733 85.3497 72.5898 85.4206C72.6607 85.4206 72.6607 85.4206 72.5898 85.4206Z" fill="#727272"/>
<path d="M68.8327 84.8535C68.62 84.8535 68.4783 84.7117 68.4783 84.499C68.4783 84.0028 68.6909 83.4357 69.0454 83.0813C69.6834 82.5141 70.534 82.1597 71.4556 82.2306C71.6683 82.2306 71.81 82.3724 71.81 82.585C71.81 82.7977 71.6683 82.9395 71.4556 82.9395C70.8176 82.8686 70.1087 83.0813 69.6125 83.5066C69.3998 83.7901 69.258 84.0737 69.258 84.4281C69.1872 84.7117 69.0454 84.8535 68.8327 84.8535Z" fill="#727272"/>
<path d="M92.2258 89.6739C91.5878 89.6739 91.0207 89.5321 90.4536 89.3195C90.2409 89.2486 90.1701 89.0359 90.2409 88.8942C90.3118 88.6815 90.5245 88.6106 90.6663 88.6815C92.5803 89.3195 93.36 88.8233 93.998 88.2562C95.274 87.1219 94.3525 84.9953 94.3525 84.9244C94.2816 84.7117 94.4234 84.57 94.5651 84.4991C94.7069 84.4282 94.9196 84.4991 94.9905 84.6408C95.0614 84.7117 96.0538 87.2637 94.4234 88.7524C93.9271 89.3195 93.0765 89.6739 92.2258 89.6739Z" fill="#727272"/>
<path d="M97.826 83.0104C98.5308 83.0104 99.102 82.4391 99.102 81.7344C99.102 81.0297 98.5308 80.4584 97.826 80.4584C97.1213 80.4584 96.55 81.0297 96.55 81.7344C96.55 82.4391 97.1213 83.0104 97.826 83.0104Z" fill="#727272"/>
<path d="M65.4301 59.3337C65.2174 59.4046 65.0757 59.2628 65.0048 59.0501C64.9339 58.8375 65.0757 58.6957 65.2883 58.6248C68.1948 57.4197 69.2581 58.6957 69.329 58.6957C69.4707 58.8375 69.3999 59.0501 69.2581 59.1919C69.1163 59.3337 68.9036 59.2628 68.7619 59.121C68.7619 59.121 67.9112 58.2704 65.5719 59.1919C65.5719 59.2628 65.501 59.3337 65.4301 59.3337Z" fill="#727272"/>
<path d="M69.1163 59.3336C68.9745 59.3336 68.8328 59.2627 68.7619 59.121C68.053 57.1361 65.4301 56.4272 65.3592 56.4272C65.1466 56.3563 65.0757 56.2145 65.0757 56.0019C65.0757 55.7892 65.2883 55.7183 65.501 55.7183C65.6428 55.7183 68.5492 56.4981 69.3999 58.8374C69.4708 59.0501 69.3999 59.1919 69.1872 59.2627L69.1163 59.3336Z" fill="#727272"/>
<path d="M41.1861 75.0709H37.5708V71.4556C37.5708 70.534 36.8619 69.8251 35.9404 69.8251C35.0188 69.8251 34.31 70.534 34.31 71.4556V75.0709H30.6946C29.7731 75.0709 29.0642 75.7798 29.0642 76.7013C29.0642 77.6229 29.7731 78.3318 30.6946 78.3318H34.31V81.9471C34.31 82.8686 35.0188 83.5775 35.9404 83.5775C36.8619 83.5775 37.5708 82.8686 37.5708 81.9471V78.3318H41.1861C42.1077 78.3318 42.8166 77.6229 42.8166 76.7013C42.8166 75.7798 42.1077 75.0709 41.1861 75.0709Z" fill="url(#paint6_linear_1594_10769)"/>
<path d="M58.5538 22.0463H54.9385V18.431C54.9385 17.5095 54.2296 16.8006 53.3081 16.8006C52.3865 16.8006 51.6776 17.5095 51.6776 18.431V22.0463H48.0623C47.1408 22.0463 46.4319 22.7552 46.4319 23.6767C46.4319 24.5983 47.1408 25.3072 48.0623 25.3072H51.6776V28.9225C51.6776 29.844 52.3865 30.5529 53.3081 30.5529C54.2296 30.5529 54.9385 29.844 54.9385 28.9225V25.3072H58.5538C59.4754 25.3072 60.1842 24.5983 60.1842 23.6767C60.1134 22.7552 59.4045 22.0463 58.5538 22.0463Z" fill="url(#paint7_linear_1594_10769)"/>
<path d="M117.817 5.24575H114.201V1.63043C114.201 0.708885 113.492 0 112.571 0C111.649 0 110.94 0.708885 110.94 1.63043V5.24575H107.325C106.403 5.24575 105.695 5.95463 105.695 6.87618C105.695 7.79773 106.403 8.50662 107.325 8.50662H110.94V12.1219C110.94 13.0435 111.649 13.7524 112.571 13.7524C113.492 13.7524 114.201 13.0435 114.201 12.1219V8.50662H117.817C118.738 8.50662 119.447 7.79773 119.447 6.87618C119.447 5.95463 118.738 5.24575 117.817 5.24575Z" fill="url(#paint8_linear_1594_10769)"/>
<path d="M157.798 48.6295H154.112V45.0142C154.112 44.0926 153.403 43.3837 152.481 43.3837C151.56 43.3837 150.851 44.0926 150.851 45.0142V48.6295H147.235C146.314 48.6295 145.605 49.3384 145.605 50.2599C145.605 51.1815 146.314 51.8904 147.235 51.8904H150.851V55.5057C150.851 56.4272 151.56 57.1361 152.481 57.1361C153.403 57.1361 154.112 56.4272 154.112 55.5057V51.8904H157.727C158.648 51.8904 159.357 51.1815 159.357 50.3308C159.357 49.4802 158.648 48.6295 157.798 48.6295Z" fill="url(#paint9_linear_1594_10769)"/>
<path d="M13.6104 103.355C11.0585 103.355 9.00269 101.3 9.00269 98.7476C9.00269 96.1957 11.0585 94.1399 13.6104 94.1399C13.894 94.1399 14.2484 94.1399 14.532 94.2108C14.7447 94.2817 14.8864 94.2817 15.0991 94.3526L27.7172 80.0331C27.859 79.8913 28.0717 79.8204 28.2135 79.9622L28.2843 80.0331C28.3552 80.1749 30.1983 82.8686 26.583 87.1928C23.4639 90.9499 19.0688 95.7703 17.9346 97.0463C18.8562 99.4565 17.722 102.079 15.3118 103.072C14.7447 103.214 14.1775 103.355 13.6104 103.355ZM13.6104 94.7779C11.4129 94.7779 9.71157 96.5501 9.71157 98.6768C9.71157 100.803 11.4838 102.576 13.6104 102.576C15.7371 102.576 17.5093 100.803 17.5093 98.6768C17.5093 98.1096 17.3675 97.6134 17.1549 97.0463C17.084 96.9045 17.1549 96.7628 17.2257 96.6919C18.1473 95.6994 22.755 90.5955 26.0159 86.6966C28.497 83.7902 28.1426 81.6635 27.859 80.8129L15.4535 94.9906C15.3826 95.1323 15.17 95.1323 15.0282 95.0614C14.8155 94.9906 14.6029 94.9197 14.3902 94.8488C14.1067 94.8488 13.894 94.7779 13.6104 94.7779ZM13.6104 101.3C13.4687 101.3 13.256 101.3 13.1142 101.229C11.6964 100.945 10.8458 99.5274 11.1293 98.1096C11.4129 96.6919 12.8307 95.8412 14.2484 96.1248C15.6662 96.4083 16.5169 97.8261 16.2333 99.2439C15.9498 100.52 14.8155 101.371 13.6104 101.3ZM13.256 100.52C14.2484 100.733 15.3118 100.095 15.5244 99.0312C15.7371 98.0388 15.0991 96.9754 14.0358 96.7628C13.0433 96.5501 11.98 97.1881 11.7673 98.2514C11.5547 99.3148 12.1927 100.307 13.256 100.52Z" fill="#ADADAD"/>
<path d="M25.6617 105.836C23.1097 105.836 21.0539 103.781 21.0539 101.229C21.0539 100.024 21.5502 98.8185 22.4008 97.9679C22.1173 97.1172 21.4793 95.2741 20.7704 93.1474C20.6995 92.9348 20.8413 92.7221 20.9831 92.6512C21.1248 92.5803 21.4084 92.7221 21.4793 92.8639C22.259 95.2741 22.9679 97.1881 23.1806 97.897C23.2515 98.0388 23.1806 98.1805 23.1097 98.2514C21.5502 99.7401 21.4084 102.221 22.897 103.781C24.3857 105.34 26.8668 105.482 28.4263 103.993C29.9859 102.505 30.1277 100.024 28.639 98.4641C28.0719 97.897 27.363 97.4716 26.5832 97.259C26.3706 97.1881 26.087 97.1881 25.8744 97.1881C25.7326 97.1881 25.5908 97.1172 25.5199 96.9045L23.3224 90.0992C23.2515 89.8866 23.3933 89.6739 23.535 89.603C23.6768 89.5321 23.9604 89.6739 24.0313 89.8157L26.1579 96.4083C26.3706 96.4083 26.5124 96.4792 26.725 96.4792C29.2061 96.9754 30.9074 99.3856 30.4112 101.867C29.915 104.277 27.9301 105.907 25.6617 105.836ZM25.6617 103.781C24.2439 103.781 23.0388 102.647 23.0388 101.158C23.0388 99.7401 24.173 98.535 25.6617 98.535C27.0795 98.535 28.2846 99.6692 28.2846 101.158C28.2846 101.371 28.2846 101.512 28.2137 101.725C28.001 102.93 26.9377 103.781 25.6617 103.781ZM25.6617 99.3148C24.5984 99.3148 23.7477 100.165 23.7477 101.158C23.7477 102.221 24.5984 103.072 25.5908 103.072C26.6541 103.072 27.5048 102.221 27.5048 101.229C27.5048 100.307 26.8668 99.5274 26.0161 99.3856C25.9452 99.3147 25.8035 99.3148 25.6617 99.3148ZM19.9197 89.7448C19.7779 89.7448 19.6362 89.6739 19.5653 89.4612C19.14 88.1144 18.7146 86.6966 18.3602 85.4915C16.8006 80.104 19.5653 78.3318 19.7071 78.2609C19.8488 78.19 20.0615 78.19 20.2033 78.4026C20.2033 78.4026 20.2033 78.4735 20.2742 78.4735L22.8262 86.4839C22.897 86.6966 22.7553 86.9093 22.6135 86.9802C22.4717 87.051 22.1882 86.9093 22.1173 86.7675L19.7071 79.2533C19.0691 79.8913 18.0057 81.6635 19.0691 85.4206C19.4235 86.6966 19.8488 88.0435 20.2742 89.3904C20.3451 89.603 20.2033 89.7448 20.0615 89.8157L19.9197 89.7448Z" fill="#ADADAD"/>
<path d="M21.6917 90.879C21.1246 90.879 20.6284 90.4537 20.6284 89.8866C20.6284 89.3195 21.0537 88.8232 21.6209 88.8232C22.188 88.8232 22.6842 89.2486 22.6842 89.8157C22.6842 89.8866 22.6842 89.9575 22.6842 90.0283C22.6133 90.5955 22.188 90.879 21.6917 90.879ZM21.6917 89.5321C21.55 89.5321 21.4082 89.6739 21.4082 89.8157C21.3373 89.9575 21.4791 90.1701 21.6209 90.241C21.7626 90.3119 21.9753 90.1701 22.0462 90.0283C22.0462 90.0283 22.0462 90.0283 22.0462 89.9575C22.0462 89.7448 21.9753 89.603 21.6917 89.5321Z" fill="#ADADAD"/>
<path d="M18.6438 96.0539C18.5729 96.0539 18.502 96.0538 18.4311 95.983L16.0209 93.8563C15.8791 93.7145 15.8791 93.5019 16.0209 93.3601C16.1627 93.2183 16.3753 93.2183 16.5171 93.3601L18.9273 95.4867C19.0691 95.6285 19.0691 95.8412 18.9273 95.983C18.8564 95.983 18.7855 96.0539 18.6438 96.0539Z" fill="#ADADAD"/>
<path d="M22.259 96.7628C22.0463 96.7628 21.9045 96.6919 21.8336 96.4792C21.7627 96.2665 21.9045 96.1248 22.1172 96.0539L25.2363 95.0614C25.4489 94.9906 25.6616 95.1323 25.7325 95.2741C25.8034 95.4159 25.6616 95.6994 25.5198 95.7703L22.4007 96.7628H22.259Z" fill="#ADADAD"/>
<path d="M137.949 76.5596C131.711 76.5596 126.678 71.5265 126.678 65.2883C126.678 63.3743 127.174 61.4603 128.096 59.759C128.166 59.6172 128.379 59.5463 128.592 59.6172C128.733 59.6881 128.804 59.9008 128.734 60.1134C125.898 65.2174 127.67 71.6683 132.774 74.5038C137.878 77.3393 144.329 75.5671 147.165 70.4632C150 65.3592 148.228 58.9083 143.124 56.0728C139.296 53.9461 134.546 54.3715 131.215 57.1361C131.073 57.2779 130.86 57.207 130.718 57.0652C130.577 56.9235 130.647 56.7108 130.789 56.569C135.61 52.5993 142.699 53.2373 146.668 58.0577C150.638 62.8781 150 69.9669 145.18 73.9367C143.124 75.638 140.572 76.5596 137.949 76.5596Z" fill="#ADADAD"/>
<path d="M137.949 78.5444C130.577 78.5444 124.622 72.5898 124.622 65.2174C124.622 57.845 130.577 51.8904 137.949 51.8904C145.322 51.8904 151.276 57.845 151.276 65.2174C151.205 72.5898 145.251 78.5444 137.949 78.5444ZM137.949 52.5993C131.002 52.5993 125.331 58.2703 125.331 65.2174C125.331 72.1645 131.002 77.8355 137.949 77.8355C144.896 77.8355 150.567 72.1645 150.567 65.2174C150.496 58.2703 144.896 52.6701 137.949 52.5993Z" fill="#ADADAD"/>
<path d="M137.949 78.5444C130.577 78.5444 124.622 72.5898 124.622 65.2174C124.622 57.845 130.577 51.8904 137.949 51.8904C145.322 51.8904 151.276 57.845 151.276 65.2174C151.205 72.5898 145.251 78.5444 137.949 78.5444ZM137.949 52.5993C131.002 52.5993 125.331 58.2703 125.331 65.2174C125.331 72.1645 131.002 77.8355 137.949 77.8355C144.896 77.8355 150.567 72.1645 150.567 65.2174C150.496 58.2703 144.896 52.6701 137.949 52.5993Z" fill="#ADADAD"/>
<path d="M137.949 56.2854C137.736 56.2854 137.594 56.1437 137.594 55.931V54.3005C137.594 54.0879 137.736 53.9461 137.949 53.9461C138.162 53.9461 138.303 54.0879 138.303 54.3005V55.931C138.303 56.1437 138.162 56.2854 137.949 56.2854Z" fill="#ADADAD"/>
<path d="M137.949 76.5596C137.736 76.5596 137.594 76.4178 137.594 76.2051V74.5747C137.594 74.362 137.736 74.2202 137.949 74.2202C138.162 74.2202 138.303 74.362 138.303 74.5747V76.2051C138.303 76.3469 138.162 76.5596 137.949 76.5596Z" fill="#ADADAD"/>
<path d="M148.866 65.5718H147.235C147.023 65.5718 146.881 65.4301 146.881 65.2174C146.881 65.0047 147.023 64.863 147.235 64.863H148.866C149.078 64.863 149.22 65.0047 149.22 65.2174C149.22 65.4301 149.078 65.5718 148.866 65.5718Z" fill="#ADADAD"/>
<path d="M128.592 65.5718H126.961C126.748 65.5718 126.607 65.4301 126.607 65.2174C126.607 65.0047 126.748 64.863 126.961 64.863H128.592C128.804 64.863 128.946 65.0047 128.946 65.2174C128.946 65.4301 128.804 65.5718 128.592 65.5718Z" fill="#ADADAD"/>
<path d="M141.352 68.4074C141.281 68.4074 141.21 68.4074 141.139 68.3365L137.736 65.5718C137.665 65.5009 137.594 65.43 137.594 65.2883V58.4121C137.594 58.1994 137.736 58.0576 137.949 58.0576C138.162 58.0576 138.303 58.1994 138.303 58.4121V65.0756L141.635 67.7694C141.777 67.8403 141.848 68.1238 141.777 68.2656C141.635 68.3365 141.493 68.4074 141.352 68.4074Z" fill="#ADADAD"/>
<defs>
<linearGradient id="paint0_linear_1594_10769" x1="97.8574" y1="133.713" x2="100.037" y2="132.345" gradientUnits="userSpaceOnUse">
<stop stop-color="#FF6A8F"/>
<stop offset="0.494792" stop-color="#FF6276"/>
<stop offset="1" stop-color="#F53838"/>
</linearGradient>
<linearGradient id="paint1_linear_1594_10769" x1="95.7927" y1="133.731" x2="103.016" y2="139.24" gradientUnits="userSpaceOnUse">
<stop stop-color="#89E9FF"/>
<stop offset="0.494792" stop-color="#27D8FF"/>
<stop offset="1" stop-color="#05BFE8"/>
</linearGradient>
<linearGradient id="paint2_linear_1594_10769" x1="95.6995" y1="130.205" x2="99.5767" y2="135.535" gradientUnits="userSpaceOnUse">
<stop stop-color="#FF6A8F"/>
<stop offset="0.494792" stop-color="#FF6276"/>
<stop offset="1" stop-color="#F53838"/>
</linearGradient>
<linearGradient id="paint3_linear_1594_10769" x1="157.029" y1="106.192" x2="160.512" y2="104.68" gradientUnits="userSpaceOnUse">
<stop stop-color="#FF6A8F"/>
<stop offset="0.494792" stop-color="#FF6276"/>
<stop offset="1" stop-color="#F53838"/>
</linearGradient>
<linearGradient id="paint4_linear_1594_10769" x1="154.014" y1="105.76" x2="163.328" y2="115.4" gradientUnits="userSpaceOnUse">
<stop stop-color="#89E9FF"/>
<stop offset="0.494792" stop-color="#27D8FF"/>
<stop offset="1" stop-color="#05BFE8"/>
</linearGradient>
<linearGradient id="paint5_linear_1594_10769" x1="154.661" y1="100.595" x2="159.133" y2="109.231" gradientUnits="userSpaceOnUse">
<stop stop-color="#FF6A8F"/>
<stop offset="0.494792" stop-color="#FF6276"/>
<stop offset="1" stop-color="#F53838"/>
</linearGradient>
<linearGradient id="paint6_linear_1594_10769" x1="29.0642" y1="71.3322" x2="42.8989" y2="83.4838" gradientUnits="userSpaceOnUse">
<stop stop-color="#FF6A8F"/>
<stop offset="0.494792" stop-color="#FF6276"/>
<stop offset="1" stop-color="#F53838"/>
</linearGradient>
<linearGradient id="paint7_linear_1594_10769" x1="46.4319" y1="18.3077" x2="60.2666" y2="30.4592" gradientUnits="userSpaceOnUse">
<stop stop-color="#FF6A8F"/>
<stop offset="0.494792" stop-color="#FF6276"/>
<stop offset="1" stop-color="#F53838"/>
</linearGradient>
<linearGradient id="paint8_linear_1594_10769" x1="105.695" y1="1.50711" x2="119.529" y2="13.6586" gradientUnits="userSpaceOnUse">
<stop stop-color="#FF6A8F"/>
<stop offset="0.494792" stop-color="#FF6276"/>
<stop offset="1" stop-color="#F53838"/>
</linearGradient>
<linearGradient id="paint9_linear_1594_10769" x1="145.605" y1="44.8909" x2="159.44" y2="57.0424" gradientUnits="userSpaceOnUse">
<stop stop-color="#FF6A8F"/>
<stop offset="0.494792" stop-color="#FF6276"/>
<stop offset="1" stop-color="#F53838"/>
</linearGradient>
</defs>
</svg>
