<svg width="24" height="24" viewBox="0 0 24 24" fill="none" xmlns="http://www.w3.org/2000/svg">
<path fill-rule="evenodd" clip-rule="evenodd" d="M9 2C9 1.44772 9.44772 1 10 1H15.5C17.7091 1 19.5 2.79086 19.5 5V18.5C19.5 20.7091 17.7091 22.5 15.5 22.5H10C9.44772 22.5 9 22.0523 9 21.5C9 20.9477 9.44772 20.5 10 20.5H15.5C16.6046 20.5 17.5 19.6046 17.5 18.5V5C17.5 3.89543 16.6046 3 15.5 3H10C9.44772 3 9 2.55228 9 2ZM10.7071 7.29289L14.7071 11.2929C14.9016 11.4874 14.9992 11.7421 15 11.997C15 11.998 15 11.999 15 12C15 12.001 15 12.002 15 12.003C14.9996 12.1375 14.9727 12.2657 14.9241 12.3828C14.8764 12.498 14.8063 12.6062 14.7136 12.7005C14.7111 12.7031 14.7086 12.7056 14.7061 12.7081L10.7071 16.7071C10.3166 17.0976 9.68342 17.0976 9.29289 16.7071C8.90237 16.3166 8.90237 15.6834 9.29289 15.2929L11.5858 13L5 13C4.44772 13 4 12.5523 4 12C4 11.4477 4.44772 11 5 11L11.5858 11L9.29289 8.70711C8.90237 8.31658 8.90237 7.68342 9.29289 7.29289C9.68342 6.90237 10.3166 6.90237 10.7071 7.29289Z" fill="url(#paint0_linear_1651_3366)"/>
<defs>
<linearGradient id="paint0_linear_1651_3366" x1="4" y1="3.35616" x2="23.7166" y2="15.8411" gradientUnits="userSpaceOnUse">
<stop stop-color="#FF6A8F"/>
<stop offset="0.494792" stop-color="#FF6276"/>
<stop offset="1" stop-color="#F53838"/>
</linearGradient>
</defs>
</svg>
