<svg width="133" height="29" viewBox="0 0 133 29" fill="none" xmlns="http://www.w3.org/2000/svg">
<g clip-path="url(#clip0_1594_10391)">
<path d="M12.4635 18.864C12.4874 18.8405 12.5112 18.8171 12.5112 18.7936C12.7018 18.3947 12.8687 18.0193 12.9878 17.6205C13.0831 17.2451 13.1785 16.9166 13.2261 16.6116C13.2976 16.3066 13.3214 16.0485 13.3214 15.8373C13.3214 15.6261 13.3453 15.5088 13.3453 15.4619C13.3453 14.1245 13.0355 12.9279 12.392 11.8956C11.7724 10.8632 10.8907 10.042 9.77065 9.47889C9.36553 9.31465 8.98423 9.15041 8.60294 9.05656C8.22164 8.96271 7.88801 8.86885 7.57821 8.82193C7.26841 8.75154 7.00627 8.72808 6.81562 8.70461C6.60115 8.68115 6.45816 8.68115 6.43433 8.68115H1.73965C1.26304 8.68115 0.857911 8.84539 0.500448 9.19733C0.166816 9.50235 0 9.90122 0 10.3705V27.2871C0 27.7564 0.166816 28.1553 0.524279 28.5072C0.857911 28.8357 1.28687 29.0234 1.76348 29.0234C2.26393 29.0234 2.66906 28.8591 3.02652 28.5072C3.36015 28.1787 3.5508 27.7564 3.5508 27.2871V22.2661H6.33901L10.1281 28.2022C10.4856 28.7184 11.0099 28.9999 11.6533 28.9999C12.0107 28.9999 12.3205 28.9061 12.5827 28.7418C12.821 28.5541 13.0355 28.343 13.1785 28.0849C13.3214 27.8268 13.4168 27.5452 13.4168 27.2871C13.4168 26.9821 13.3214 26.6771 13.1546 26.3486L10.0566 21.4214C10.5571 21.1164 11.0099 20.7879 11.415 20.3891C11.7963 19.9433 12.1776 19.4271 12.4635 18.864ZM9.72299 16.0719C9.67533 16.2596 9.62766 16.4473 9.58 16.682C9.50851 16.8931 9.43702 17.1043 9.34169 17.292C8.76975 18.2774 7.79269 18.7701 6.43433 18.7701H3.52697V12.1536H6.43433C6.62498 12.1536 6.81562 12.1771 6.98244 12.2006C7.17309 12.2475 7.36373 12.271 7.57821 12.3413C7.76886 12.3883 7.98334 12.4821 8.19781 12.576C9.2702 13.1156 9.79448 14.0541 9.79448 15.4619C9.79448 15.4854 9.79448 15.5557 9.77065 15.6496C9.79448 15.7669 9.77065 15.9077 9.72299 16.0719Z" fill="white"/>
<path d="M34.8169 26.6303L27.9537 9.73708C27.7868 9.45552 27.5724 9.19743 27.3102 8.98627C26.6906 8.51701 25.928 8.54047 25.3561 8.98627C25.0701 9.19743 24.8556 9.43206 24.6888 9.76054C23.5926 12.4822 22.4487 15.2743 21.2572 18.1837C20.0656 21.0931 18.9218 23.8851 17.8494 26.6068C17.7779 26.7945 17.7302 27.0057 17.7302 27.2638C17.7302 27.6861 17.897 28.085 18.2068 28.4369C18.5405 28.8123 18.9694 29 19.4937 29C19.8273 29 20.161 28.8827 20.4708 28.6481C20.7567 28.4369 20.9712 28.1788 21.1142 27.8973L22.4011 24.8002H30.2653L31.5521 27.9442C31.6951 28.2023 31.9334 28.4369 32.2194 28.6715C32.5292 28.9062 32.8628 29.0235 33.1964 29.0235C33.7446 29.0235 34.1735 28.8358 34.4833 28.4838C34.7931 28.1319 34.9361 27.733 34.9361 27.3107C34.9123 27.0292 34.8884 26.818 34.8169 26.6303ZM28.8116 21.3277H23.8071L26.3093 15.0866L28.8116 21.3277Z" fill="white"/>
<path d="M52.404 9.17393C52.0466 9.50241 51.8797 9.92474 51.8797 10.394V21.7734L43.1338 9.43202C42.7525 8.9393 42.2759 8.68121 41.6801 8.68121C41.1559 8.68121 40.7269 8.86892 40.3933 9.22086C40.0596 9.5728 39.8928 9.97167 39.8928 10.4175V27.3341C39.8928 27.8034 40.0596 28.2022 40.4171 28.5542C41.1082 29.2346 42.2282 29.2111 42.9193 28.5542C43.2768 28.2257 43.4436 27.8034 43.4436 27.3341V15.9078L52.1895 28.2492C52.5708 28.7419 53.0475 29 53.6432 29C54.1198 29 54.525 28.8357 54.8824 28.5073C55.2399 28.1788 55.4067 27.7565 55.4067 27.2872V10.3705C55.4067 9.90128 55.2161 9.50241 54.8824 9.15047C54.1675 8.49351 53.0951 8.49351 52.404 9.17393Z" fill="white"/>
<path d="M73.685 11.6844C73.0415 10.9336 72.3266 10.3236 71.564 9.9247C70.8253 9.52584 70.1103 9.22082 69.4669 9.03312C68.8235 8.84542 68.2515 8.75157 67.7987 8.70464C67.346 8.68118 67.1315 8.65771 67.1077 8.65771H62.127C61.6504 8.65771 61.2453 8.82195 60.8878 9.1739C60.5542 9.50237 60.3635 9.9247 60.3635 10.394V27.3106C60.3635 27.7799 60.5303 28.1787 60.8878 28.5307C61.2214 28.8592 61.6504 29.0469 62.127 29.0469H67.1077C67.1315 29.0469 67.3698 29.0234 67.7987 28.9999C68.2515 28.9765 68.7996 28.8592 69.4431 28.6715C70.0865 28.4838 70.8014 28.1787 71.5402 27.7799C72.3028 27.3575 73.0177 26.771 73.6611 26.0202C74.3046 25.2694 74.8527 24.2839 75.2578 23.1342C75.6868 21.9846 75.9012 20.5533 75.9012 18.864C75.9012 17.1747 75.6868 15.7435 75.2578 14.5938C74.8765 13.3972 74.3284 12.4352 73.685 11.6844ZM67.1315 25.504H63.9381V12.1537H67.0838C67.4175 12.2006 67.7034 12.2241 67.9656 12.2944C68.2039 12.3414 68.4898 12.4352 68.7996 12.5291C69.1094 12.6229 69.3954 12.7637 69.7052 12.9514C70.5631 13.4676 71.2066 14.2419 71.6593 15.2038C72.1121 16.1893 72.3504 17.4093 72.3504 18.8406C72.3504 20.2249 72.136 21.4215 71.6832 22.4069C71.2542 23.3689 70.6108 24.1197 69.8005 24.6359C69.4907 24.8236 69.1571 24.9878 68.8473 25.1051C68.5375 25.2224 68.2277 25.3163 67.9894 25.3632C67.7511 25.4336 67.5366 25.4571 67.3698 25.4805C67.2506 25.504 67.1553 25.504 67.1315 25.504Z" fill="white"/>
<path d="M92.1302 12.1536C92.6068 12.1536 93.0119 11.9894 93.3694 11.6375C93.7269 11.2855 93.8937 10.8632 93.8937 10.3939C93.8937 9.92468 93.703 9.52581 93.3694 9.17387C93.0119 8.84539 92.6068 8.68115 92.1302 8.68115H82.717C82.2166 8.68115 81.8114 8.84539 81.454 9.19733C81.1203 9.52581 80.9297 9.94814 80.9297 10.4174V27.3341C80.9297 27.8033 81.0965 28.2022 81.454 28.5541C81.7876 28.8826 82.2166 29.0703 82.717 29.0703H92.1302C92.6068 29.0703 93.0119 28.9061 93.3694 28.5776C93.7269 28.2491 93.8937 27.8268 93.8937 27.3575C93.8937 26.8648 93.7269 26.4425 93.3694 26.114C93.0119 25.7621 92.6068 25.5978 92.1302 25.5978H84.4805V20.5533H90.4144C90.891 20.5533 91.2961 20.3891 91.6536 20.0371C91.9872 19.7087 92.1778 19.2863 92.1778 18.8171C92.1778 18.3478 92.011 17.949 91.6536 17.597C91.3199 17.2685 90.891 17.0808 90.4144 17.0808H84.4805V12.1536H92.1302Z" fill="white"/>
<path d="M132.476 9.17391C131.785 8.49349 130.712 8.49349 129.997 9.17391C129.64 9.50239 129.473 9.92472 129.473 10.394V21.3511C129.473 21.445 129.449 21.6561 129.33 22.2896C129.235 22.7589 129.068 23.2281 128.806 23.6974C128.544 24.1666 128.162 24.589 127.662 24.9644C127.185 25.3163 126.518 25.504 125.684 25.504C125.112 25.504 124.612 25.4102 124.206 25.2459C123.801 25.0582 123.444 24.8471 123.182 24.5655C122.896 24.2839 122.681 23.9555 122.491 23.627C122.3 23.275 122.181 22.9466 122.085 22.6416C121.99 22.3365 121.942 22.055 121.919 21.8204C121.895 21.5857 121.871 21.445 121.871 21.3746V10.3705C121.871 9.90126 121.704 9.50239 121.347 9.15045C120.656 8.47003 119.583 8.47003 118.868 9.15045C118.511 9.47893 118.344 9.90126 118.344 10.3705V21.3511C118.344 21.398 118.344 21.5388 118.368 21.7734C118.368 22.0081 118.415 22.2896 118.463 22.6181C118.511 22.9466 118.606 23.322 118.701 23.7208C118.821 24.1432 118.987 24.589 119.202 25.0348C119.822 26.3252 120.679 27.3106 121.776 27.9911C122.872 28.648 124.183 29 125.66 29C127.138 29 128.448 28.6715 129.544 27.9911C130.641 27.3341 131.522 26.3252 132.142 25.0348C132.333 24.589 132.5 24.1666 132.619 23.7443C132.738 23.322 132.809 22.9466 132.881 22.6181C132.928 22.2896 132.952 22.0081 132.976 21.7734C132.976 21.5388 133 21.398 133 21.3511V10.3705C133 9.90126 132.809 9.50239 132.476 9.17391Z" fill="white"/>
<path d="M108.746 9.62834C109.166 8.22367 108.349 6.74986 106.923 6.3365C105.496 5.92313 103.999 6.72675 103.579 8.13142C103.159 9.53609 103.976 11.0099 105.402 11.4233C106.829 11.8366 108.326 11.033 108.746 9.62834Z" fill="url(#paint0_linear_1594_10391)"/>
<path d="M113.03 8.65771C112.672 8.65771 112.339 8.75157 112.029 8.96273C111.719 9.15043 111.505 9.43199 111.362 9.78393L106.19 22.6181L100.971 9.80739C100.852 9.45545 100.638 9.1739 100.328 8.96273C100.018 8.77503 99.6845 8.65771 99.3509 8.65771C98.8266 8.65771 98.3977 8.84542 98.064 9.22082C97.7542 9.57276 97.5874 9.97163 97.5874 10.4174C97.5874 10.6755 97.6351 10.8867 97.7066 11.0509L104.57 27.9441C104.737 28.2257 104.951 28.4838 105.213 28.6949C105.523 28.9296 105.857 29.0234 106.214 29.0234C106.548 29.0234 106.881 28.9061 107.191 28.6949C107.477 28.4838 107.692 28.2491 107.859 27.9207C108.407 26.5833 109.813 23.1108 111.242 19.6148C112.696 16.0485 114.174 12.4587 114.698 11.0744C114.769 10.9101 114.817 10.6755 114.817 10.4174C114.817 9.99509 114.674 9.61969 114.364 9.26775C114.007 8.84542 113.578 8.65771 113.03 8.65771Z" fill="url(#paint1_linear_1594_10391)"/>
<path d="M106.166 0C101.305 0 97.3252 3.89482 97.3252 8.70469C97.3252 9.40858 97.4205 10.089 97.5635 10.7694L97.635 11.0275H97.6588C97.5873 10.8633 97.5635 10.6521 97.5635 10.4175C97.5635 9.97168 97.7303 9.57282 98.0401 9.22087C98.3738 8.84547 98.8027 8.65777 99.327 8.65777C99.6844 8.65777 100.018 8.75162 100.304 8.96278C100.614 9.17395 100.828 9.4555 100.947 9.80744L101.019 9.99515C100.947 9.61974 100.828 8.96278 100.828 8.70469C100.828 5.81877 103.211 3.47249 106.143 3.47249C109.074 3.47249 111.457 5.81877 111.457 8.70469C111.457 9.05663 111.409 9.40858 111.338 9.76052C111.481 9.43204 111.695 9.15049 112.005 8.96278C112.315 8.77508 112.648 8.65777 113.006 8.65777C113.554 8.65777 113.983 8.84547 114.293 9.22087C114.603 9.57282 114.746 9.97168 114.746 10.3706C114.746 10.6286 114.698 10.8398 114.65 11.004H114.674L114.746 10.746C114.912 10.0655 114.984 9.38511 114.984 8.68123C115.008 3.89482 111.052 0 106.166 0Z" fill="url(#paint2_linear_1594_10391)"/>
</g>
<defs>
<linearGradient id="paint0_linear_1594_10391" x1="103.385" y1="10.8389" x2="109.425" y2="6.95935" gradientUnits="userSpaceOnUse">
<stop stop-color="#FF6A8F"/>
<stop offset="0.494792" stop-color="#FF6276"/>
<stop offset="1" stop-color="#F53838"/>
</linearGradient>
<linearGradient id="paint1_linear_1594_10391" x1="97.5874" y1="10.8896" x2="117.532" y2="26.451" gradientUnits="userSpaceOnUse">
<stop stop-color="#89E9FF"/>
<stop offset="0.494792" stop-color="#27D8FF"/>
<stop offset="1" stop-color="#05BFE8"/>
</linearGradient>
<linearGradient id="paint2_linear_1594_10391" x1="97.3252" y1="1.20849" x2="107.891" y2="16.0701" gradientUnits="userSpaceOnUse">
<stop stop-color="#FF6A8F"/>
<stop offset="0.494792" stop-color="#FF6276"/>
<stop offset="1" stop-color="#F53838"/>
</linearGradient>
<clipPath id="clip0_1594_10391">
<rect width="133" height="29" fill="white"/>
</clipPath>
</defs>
</svg>
