<svg width="133" height="30" viewBox="0 0 133 30" fill="none" xmlns="http://www.w3.org/2000/svg">
<g clip-path="url(#clip0_1594_11654)">
<path d="M12.4635 19.364C12.4874 19.3405 12.5112 19.3171 12.5112 19.2936C12.7018 18.8947 12.8687 18.5193 12.9878 18.1205C13.0831 17.7451 13.1785 17.4166 13.2261 17.1116C13.2976 16.8066 13.3214 16.5485 13.3214 16.3373C13.3214 16.1261 13.3453 16.0088 13.3453 15.9619C13.3453 14.6245 13.0355 13.4279 12.392 12.3956C11.7724 11.3632 10.8907 10.542 9.77065 9.97889C9.36553 9.81465 8.98423 9.65041 8.60294 9.55656C8.22164 9.46271 7.88801 9.36885 7.57821 9.32193C7.26841 9.25154 7.00627 9.22808 6.81562 9.20461C6.60115 9.18115 6.45816 9.18115 6.43433 9.18115H1.73965C1.26304 9.18115 0.857911 9.34539 0.500448 9.69733C0.166816 10.0023 0 10.4012 0 10.8705V27.7871C0 28.2564 0.166816 28.6553 0.524279 29.0072C0.857911 29.3357 1.28687 29.5234 1.76348 29.5234C2.26393 29.5234 2.66906 29.3591 3.02652 29.0072C3.36015 28.6787 3.5508 28.2564 3.5508 27.7871V22.7661H6.33901L10.1281 28.7022C10.4856 29.2184 11.0099 29.4999 11.6533 29.4999C12.0107 29.4999 12.3205 29.4061 12.5827 29.2418C12.821 29.0541 13.0355 28.843 13.1785 28.5849C13.3214 28.3268 13.4168 28.0452 13.4168 27.7871C13.4168 27.4821 13.3214 27.1771 13.1546 26.8486L10.0566 21.9214C10.5571 21.6164 11.0099 21.2879 11.415 20.8891C11.7963 20.4433 12.1776 19.9271 12.4635 19.364ZM9.72299 16.5719C9.67533 16.7596 9.62766 16.9473 9.58 17.182C9.50851 17.3931 9.43702 17.6043 9.34169 17.792C8.76975 18.7774 7.79269 19.2701 6.43433 19.2701H3.52697V12.6536H6.43433C6.62498 12.6536 6.81562 12.6771 6.98244 12.7006C7.17309 12.7475 7.36373 12.771 7.57821 12.8413C7.76886 12.8883 7.98334 12.9821 8.19781 13.076C9.2702 13.6156 9.79448 14.5541 9.79448 15.9619C9.79448 15.9854 9.79448 16.0557 9.77065 16.1496C9.79448 16.2669 9.77065 16.4077 9.72299 16.5719Z" fill="black"/>
<path d="M34.8169 27.1303L27.9537 10.2371C27.7868 9.95552 27.5724 9.69743 27.3102 9.48627C26.6906 9.01701 25.928 9.04047 25.3561 9.48627C25.0701 9.69743 24.8556 9.93206 24.6888 10.2605C23.5926 12.9822 22.4487 15.7743 21.2572 18.6837C20.0656 21.5931 18.9218 24.3851 17.8494 27.1068C17.7779 27.2945 17.7302 27.5057 17.7302 27.7638C17.7302 28.1861 17.897 28.585 18.2068 28.9369C18.5405 29.3123 18.9694 29.5 19.4937 29.5C19.8273 29.5 20.161 29.3827 20.4708 29.1481C20.7567 28.9369 20.9712 28.6788 21.1142 28.3973L22.4011 25.3002H30.2653L31.5521 28.4442C31.6951 28.7023 31.9334 28.9369 32.2194 29.1715C32.5292 29.4062 32.8628 29.5235 33.1964 29.5235C33.7446 29.5235 34.1735 29.3358 34.4833 28.9838C34.7931 28.6319 34.9361 28.233 34.9361 27.8107C34.9123 27.5292 34.8884 27.318 34.8169 27.1303ZM28.8116 21.8277H23.8071L26.3093 15.5866L28.8116 21.8277Z" fill="black"/>
<path d="M52.404 9.67393C52.0466 10.0024 51.8797 10.4247 51.8797 10.894V22.2734L43.1338 9.93202C42.7525 9.4393 42.2759 9.18121 41.6801 9.18121C41.1559 9.18121 40.7269 9.36892 40.3933 9.72086C40.0596 10.0728 39.8928 10.4717 39.8928 10.9175V27.8341C39.8928 28.3034 40.0596 28.7022 40.4171 29.0542C41.1082 29.7346 42.2282 29.7111 42.9193 29.0542C43.2768 28.7257 43.4436 28.3034 43.4436 27.8341V16.4078L52.1895 28.7492C52.5708 29.2419 53.0475 29.5 53.6432 29.5C54.1198 29.5 54.525 29.3357 54.8824 29.0073C55.2399 28.6788 55.4067 28.2565 55.4067 27.7872V10.8705C55.4067 10.4013 55.2161 10.0024 54.8824 9.65047C54.1675 8.99351 53.0951 8.99351 52.404 9.67393Z" fill="black"/>
<path d="M73.685 12.1844C73.0415 11.4336 72.3266 10.8236 71.564 10.4247C70.8253 10.0258 70.1103 9.72082 69.4669 9.53312C68.8235 9.34542 68.2515 9.25157 67.7987 9.20464C67.346 9.18118 67.1315 9.15771 67.1077 9.15771H62.127C61.6504 9.15771 61.2453 9.32195 60.8878 9.6739C60.5542 10.0024 60.3635 10.4247 60.3635 10.894V27.8106C60.3635 28.2799 60.5303 28.6787 60.8878 29.0307C61.2214 29.3592 61.6504 29.5469 62.127 29.5469H67.1077C67.1315 29.5469 67.3698 29.5234 67.7987 29.4999C68.2515 29.4765 68.7996 29.3592 69.4431 29.1715C70.0865 28.9838 70.8014 28.6787 71.5402 28.2799C72.3028 27.8575 73.0177 27.271 73.6611 26.5202C74.3046 25.7694 74.8527 24.7839 75.2578 23.6342C75.6868 22.4846 75.9012 21.0533 75.9012 19.364C75.9012 17.6747 75.6868 16.2435 75.2578 15.0938C74.8765 13.8972 74.3284 12.9352 73.685 12.1844ZM67.1315 26.004H63.9381V12.6537H67.0838C67.4175 12.7006 67.7034 12.7241 67.9656 12.7944C68.2039 12.8414 68.4898 12.9352 68.7996 13.0291C69.1094 13.1229 69.3954 13.2637 69.7052 13.4514C70.5631 13.9676 71.2066 14.7419 71.6593 15.7038C72.1121 16.6893 72.3504 17.9093 72.3504 19.3406C72.3504 20.7249 72.136 21.9215 71.6832 22.9069C71.2542 23.8689 70.6108 24.6197 69.8005 25.1359C69.4907 25.3236 69.1571 25.4878 68.8473 25.6051C68.5375 25.7224 68.2277 25.8163 67.9894 25.8632C67.7511 25.9336 67.5366 25.9571 67.3698 25.9805C67.2506 26.004 67.1553 26.004 67.1315 26.004Z" fill="black"/>
<path d="M92.1302 12.6536C92.6068 12.6536 93.0119 12.4894 93.3694 12.1375C93.7269 11.7855 93.8937 11.3632 93.8937 10.8939C93.8937 10.4247 93.703 10.0258 93.3694 9.67387C93.0119 9.34539 92.6068 9.18115 92.1302 9.18115H82.717C82.2166 9.18115 81.8114 9.34539 81.454 9.69733C81.1203 10.0258 80.9297 10.4481 80.9297 10.9174V27.8341C80.9297 28.3033 81.0965 28.7022 81.454 29.0541C81.7876 29.3826 82.2166 29.5703 82.717 29.5703H92.1302C92.6068 29.5703 93.0119 29.4061 93.3694 29.0776C93.7269 28.7491 93.8937 28.3268 93.8937 27.8575C93.8937 27.3648 93.7269 26.9425 93.3694 26.614C93.0119 26.2621 92.6068 26.0978 92.1302 26.0978H84.4805V21.0533H90.4144C90.891 21.0533 91.2961 20.8891 91.6536 20.5371C91.9872 20.2087 92.1778 19.7863 92.1778 19.3171C92.1778 18.8478 92.011 18.449 91.6536 18.097C91.3199 17.7685 90.891 17.5808 90.4144 17.5808H84.4805V12.6536H92.1302Z" fill="black"/>
<path d="M132.476 9.67391C131.785 8.99349 130.712 8.99349 129.997 9.67391C129.64 10.0024 129.473 10.4247 129.473 10.894V21.8511C129.473 21.945 129.449 22.1561 129.33 22.7896C129.235 23.2589 129.068 23.7281 128.806 24.1974C128.544 24.6666 128.162 25.089 127.662 25.4644C127.185 25.8163 126.518 26.004 125.684 26.004C125.112 26.004 124.612 25.9102 124.206 25.7459C123.801 25.5582 123.444 25.3471 123.182 25.0655C122.896 24.7839 122.681 24.4555 122.491 24.127C122.3 23.775 122.181 23.4466 122.085 23.1416C121.99 22.8365 121.942 22.555 121.919 22.3204C121.895 22.0857 121.871 21.945 121.871 21.8746V10.8705C121.871 10.4013 121.704 10.0024 121.347 9.65045C120.656 8.97003 119.583 8.97003 118.868 9.65045C118.511 9.97893 118.344 10.4013 118.344 10.8705V21.8511C118.344 21.898 118.344 22.0388 118.368 22.2734C118.368 22.5081 118.415 22.7896 118.463 23.1181C118.511 23.4466 118.606 23.822 118.701 24.2208C118.821 24.6432 118.987 25.089 119.202 25.5348C119.822 26.8252 120.679 27.8106 121.776 28.4911C122.872 29.148 124.183 29.5 125.66 29.5C127.138 29.5 128.448 29.1715 129.544 28.4911C130.641 27.8341 131.522 26.8252 132.142 25.5348C132.333 25.089 132.5 24.6666 132.619 24.2443C132.738 23.822 132.809 23.4466 132.881 23.1181C132.928 22.7896 132.952 22.5081 132.976 22.2734C132.976 22.0388 133 21.898 133 21.8511V10.8705C133 10.4013 132.809 10.0024 132.476 9.67391Z" fill="black"/>
<path d="M108.746 10.1283C109.166 8.72367 108.349 7.24986 106.923 6.8365C105.496 6.42313 103.999 7.22675 103.579 8.63142C103.159 10.0361 103.976 11.5099 105.402 11.9233C106.829 12.3366 108.326 11.533 108.746 10.1283Z" fill="url(#paint0_linear_1594_11654)"/>
<path d="M113.03 9.15771C112.672 9.15771 112.339 9.25157 112.029 9.46273C111.719 9.65043 111.505 9.93199 111.362 10.2839L106.19 23.1181L100.971 10.3074C100.852 9.95545 100.638 9.6739 100.328 9.46273C100.018 9.27503 99.6845 9.15771 99.3509 9.15771C98.8266 9.15771 98.3977 9.34542 98.064 9.72082C97.7542 10.0728 97.5874 10.4716 97.5874 10.9174C97.5874 11.1755 97.6351 11.3867 97.7066 11.5509L104.57 28.4441C104.737 28.7257 104.951 28.9838 105.213 29.1949C105.523 29.4296 105.857 29.5234 106.214 29.5234C106.548 29.5234 106.881 29.4061 107.191 29.1949C107.477 28.9838 107.692 28.7491 107.859 28.4207C108.407 27.0833 109.813 23.6108 111.242 20.1148C112.696 16.5485 114.174 12.9587 114.698 11.5744C114.769 11.4101 114.817 11.1755 114.817 10.9174C114.817 10.4951 114.674 10.1197 114.364 9.76775C114.007 9.34542 113.578 9.15771 113.03 9.15771Z" fill="url(#paint1_linear_1594_11654)"/>
<path d="M106.166 0.5C101.305 0.5 97.3252 4.39482 97.3252 9.20469C97.3252 9.90858 97.4205 10.589 97.5635 11.2694L97.635 11.5275H97.6588C97.5873 11.3633 97.5635 11.1521 97.5635 10.9175C97.5635 10.4717 97.7303 10.0728 98.0401 9.72087C98.3738 9.34547 98.8027 9.15777 99.327 9.15777C99.6844 9.15777 100.018 9.25162 100.304 9.46278C100.614 9.67395 100.828 9.9555 100.947 10.3074L101.019 10.4951C100.947 10.1197 100.828 9.46278 100.828 9.20469C100.828 6.31877 103.211 3.97249 106.143 3.97249C109.074 3.97249 111.457 6.31877 111.457 9.20469C111.457 9.55663 111.409 9.90858 111.338 10.2605C111.481 9.93204 111.695 9.65049 112.005 9.46278C112.315 9.27508 112.648 9.15777 113.006 9.15777C113.554 9.15777 113.983 9.34547 114.293 9.72087C114.603 10.0728 114.746 10.4717 114.746 10.8706C114.746 11.1286 114.698 11.3398 114.65 11.504H114.674L114.746 11.246C114.912 10.5655 114.984 9.88511 114.984 9.18123C115.008 4.39482 111.052 0.5 106.166 0.5Z" fill="url(#paint2_linear_1594_11654)"/>
</g>
<defs>
<linearGradient id="paint0_linear_1594_11654" x1="103.385" y1="11.3389" x2="109.425" y2="7.45935" gradientUnits="userSpaceOnUse">
<stop stop-color="#FF6A8F"/>
<stop offset="0.494792" stop-color="#FF6276"/>
<stop offset="1" stop-color="#F53838"/>
</linearGradient>
<linearGradient id="paint1_linear_1594_11654" x1="97.5874" y1="11.3896" x2="117.532" y2="26.951" gradientUnits="userSpaceOnUse">
<stop stop-color="#89E9FF"/>
<stop offset="0.494792" stop-color="#27D8FF"/>
<stop offset="1" stop-color="#05BFE8"/>
</linearGradient>
<linearGradient id="paint2_linear_1594_11654" x1="97.3252" y1="1.70849" x2="107.891" y2="16.5701" gradientUnits="userSpaceOnUse">
<stop stop-color="#FF6A8F"/>
<stop offset="0.494792" stop-color="#FF6276"/>
<stop offset="1" stop-color="#F53838"/>
</linearGradient>
<clipPath id="clip0_1594_11654">
<rect width="133" height="29" fill="white" transform="translate(0 0.5)"/>
</clipPath>
</defs>
</svg>
