<svg width="40" height="69" viewBox="0 0 40 69" fill="none" xmlns="http://www.w3.org/2000/svg">
<g clip-path="url(#clip0_1594_10429)">
<path d="M37.0963 29.3425C39.1706 22.1688 39.624 14.7891 35.3189 9.26512C31.8354 4.79521 26.6316 2.66599 21.6975 1.44313C18.2093 0.578647 14.5461 0.0581034 10.9305 0.132372C9.2654 0.166605 7.63202 2.44241 10.0388 2.39299C18.9005 2.21087 33.0969 4.8486 34.9861 17.3584C36.6801 28.5759 29.1648 41.9941 22.9412 49.9556C20.2936 53.3424 17.3224 56.5828 14.1216 59.2955C15.1439 56.7725 16.1662 54.2495 17.1886 51.7265C18.0156 49.6855 15.2082 47.4971 14.2367 49.8947C12.3608 54.5241 10.4849 59.1534 8.60906 63.7829C8.0893 65.0655 9.29265 66.9003 10.3711 66.7267C14.476 66.0659 18.5808 65.405 22.6857 64.7442C24.8123 64.4018 23.9318 60.3955 22.1135 60.6883C19.8068 61.0596 17.5001 61.431 15.1935 61.8023C24.9655 54.431 33.3557 42.2791 37.0963 29.3425Z" fill="#494949"/>
</g>
<defs>
<clipPath id="clip0_1594_10429">
<rect width="40" height="68.5714" fill="white"/>
</clipPath>
</defs>
</svg>
