<svg width="259" height="250" viewBox="0 0 259 250" fill="none" xmlns="http://www.w3.org/2000/svg">
<path fill-rule="evenodd" clip-rule="evenodd" d="M169.987 188.787C169.903 188.658 169.939 188.486 170.068 188.402C178.691 182.778 186.094 175.486 191.84 166.959C197.587 158.431 201.559 148.842 203.523 138.757C205.486 128.672 205.401 118.298 203.272 108.246C201.144 98.1951 197.014 88.6716 191.129 80.2393C185.243 71.807 177.721 64.6371 169.008 59.154C160.294 53.6708 150.566 49.9857 140.398 48.3167C130.231 46.6477 119.831 47.0287 109.814 49.4371C99.7968 51.8455 90.3659 56.2325 82.0793 62.3384C81.9555 62.4296 81.781 62.4034 81.6895 62.2799C81.598 62.1564 81.6241 61.9823 81.7479 61.8911C90.0944 55.7411 99.5934 51.3224 109.683 48.8966C119.772 46.4708 130.247 46.087 140.488 47.7681C150.729 49.4492 160.528 53.161 169.305 58.6838C178.081 64.2067 185.658 71.4284 191.586 79.9218C197.514 88.4152 201.674 98.0077 203.818 108.132C205.962 118.256 206.048 128.706 204.07 138.864C202.092 149.021 198.091 158.68 192.303 167.269C186.515 175.858 179.058 183.202 170.373 188.868C170.245 188.952 170.072 188.915 169.987 188.787Z" fill="#D9D9D9"/>
<path fill-rule="evenodd" clip-rule="evenodd" d="M192.822 116.825C192.669 116.843 192.531 116.734 192.513 116.581C190.654 100.741 183.009 86.1387 171.037 75.5619C170.922 75.4601 170.911 75.2845 171.013 75.1696C171.115 75.0547 171.291 75.0441 171.407 75.1459C183.481 85.8133 191.192 100.541 193.066 116.517C193.084 116.669 192.975 116.807 192.822 116.825Z" fill="#D9D9D9"/>
<path fill-rule="evenodd" clip-rule="evenodd" d="M134.266 190.55C118.147 192.117 102.01 187.736 88.9132 178.238C75.816 168.739 66.6676 154.781 63.2005 139.009C59.7335 123.236 62.1886 106.743 70.1009 92.6544C78.0132 78.5653 90.8333 67.8583 106.133 62.561C106.279 62.5107 106.437 62.5874 106.488 62.7324C106.538 62.8774 106.461 63.0358 106.316 63.0862C91.1448 68.3388 78.4328 78.9556 70.5872 92.9258C62.7417 106.896 60.3072 123.25 63.7451 138.889C67.1829 154.529 76.2543 168.369 89.2412 177.788C102.228 187.207 118.229 191.55 134.213 189.996C134.366 189.981 134.502 190.093 134.517 190.246C134.532 190.399 134.42 190.535 134.266 190.55Z" fill="#D9D9D9"/>
<path d="M156.212 98.9733L88.8364 77.4009L120.798 114.272L190.604 133.569L156.212 98.9733Z" fill="#F2F2F2"/>
<path fill-rule="evenodd" clip-rule="evenodd" d="M88.6041 77.2478C88.673 77.1437 88.8028 77.0981 88.9217 77.1362L156.297 98.7086C156.339 98.7222 156.378 98.7458 156.409 98.7774L190.802 133.373C190.891 133.463 190.908 133.601 190.844 133.71C190.78 133.819 190.651 133.871 190.529 133.837L120.724 114.541C120.671 114.526 120.623 114.496 120.587 114.455L88.6258 77.5833C88.5441 77.4891 88.5352 77.352 88.6041 77.2478ZM89.6973 77.969L120.954 114.027L189.666 133.021L156.062 99.2178L89.6973 77.969Z" fill="#727272"/>
<path d="M166.425 108.895L100.403 90.8433L110.371 102.168L177.477 120.941L166.425 108.895Z" fill="#F27292"/>
<path fill-rule="evenodd" clip-rule="evenodd" d="M100.166 90.6962C100.232 90.5919 100.358 90.5427 100.476 90.5751L166.499 108.627C166.549 108.641 166.595 108.669 166.63 108.707L177.682 120.753C177.766 120.845 177.779 120.981 177.714 121.087C177.649 121.193 177.521 121.243 177.401 121.209L110.296 102.436C110.244 102.422 110.197 102.393 110.162 102.352L100.193 91.0274C100.112 90.9351 100.101 90.8005 100.166 90.6962ZM101.226 91.3572L110.526 101.923L176.611 120.41L166.274 109.143L101.226 91.3572Z" fill="#727272"/>
<path d="M120.324 87.2129L149.494 122.191L165.785 126.847L135.887 92.8515L120.324 87.2129Z" fill="#F27292"/>
<path fill-rule="evenodd" clip-rule="evenodd" d="M120.097 87.0533C120.169 86.9504 120.301 86.9087 120.42 86.9516L135.982 92.5902C136.026 92.6061 136.065 92.6329 136.096 92.668L165.994 126.663C166.076 126.756 166.087 126.892 166.02 126.996C165.954 127.1 165.827 127.149 165.708 127.115L149.417 122.458C149.364 122.443 149.316 122.412 149.28 122.369L120.11 87.3912C120.03 87.2947 120.024 87.1562 120.097 87.0533ZM121.198 87.8255L149.654 121.947L164.95 126.319L135.725 93.0889L121.198 87.8255Z" fill="#727272"/>
<path d="M120.786 114.248L98.2945 160.408L69.4891 120.179L88.8367 77.3943L120.786 114.248Z" fill="#F2F2F2"/>
<path fill-rule="evenodd" clip-rule="evenodd" d="M88.7966 77.1193C88.8906 77.1055 88.9851 77.1406 89.0473 77.2123L120.996 114.066C121.069 114.15 121.085 114.27 121.036 114.37L98.545 160.53C98.502 160.618 98.4157 160.677 98.3179 160.686C98.22 160.694 98.1251 160.65 98.068 160.57L69.2625 120.341C69.2048 120.26 69.1944 120.155 69.2353 120.065L88.5829 77.2802C88.622 77.1937 88.7026 77.133 88.7966 77.1193ZM88.9111 77.9054L69.8089 120.147L98.249 159.866L120.455 114.292L88.9111 77.9054Z" fill="#727272"/>
<path d="M100.4 90.8361L79.5773 134.34L88.2019 146.373L110.363 102.152L100.4 90.8361Z" fill="#F27292"/>
<path fill-rule="evenodd" clip-rule="evenodd" d="M100.362 90.5608C100.454 90.5479 100.547 90.5823 100.609 90.6525L110.572 101.968C110.647 102.053 110.662 102.175 110.612 102.276L88.4509 146.498C88.4072 146.585 88.321 146.643 88.2237 146.651C88.1264 146.658 88.0322 146.615 87.9754 146.535L79.3508 134.502C79.2917 134.42 79.2822 134.312 79.326 134.22L100.148 90.7165C100.189 90.6321 100.269 90.5736 100.362 90.5608ZM100.469 91.3363L79.8994 134.312L88.1597 145.836L110.03 102.195L100.469 91.3363Z" fill="#727272"/>
<path d="M98.3173 160.426L169.449 177.078L190.617 133.545L120.816 114.252L98.3173 160.426Z" fill="#F2F2F2"/>
<path fill-rule="evenodd" clip-rule="evenodd" d="M120.565 114.13C120.624 114.009 120.761 113.948 120.89 113.984L190.692 133.277C190.771 133.299 190.837 133.355 190.871 133.431C190.905 133.506 190.904 133.592 190.868 133.667L169.7 177.199C169.643 177.317 169.512 177.379 169.385 177.349L98.2535 160.697C98.1711 160.678 98.102 160.622 98.0657 160.546C98.0294 160.469 98.0298 160.381 98.0669 160.305L120.565 114.13ZM120.965 114.582L98.7203 160.235L169.296 176.756L190.221 133.724L120.965 114.582Z" fill="#727272"/>
<path d="M136.124 98.4754C134.754 95.8679 133.12 93.5838 131.548 83.4923C129.975 73.4009 130.535 68.8413 123.802 67.1697C118.647 68.1169 115.046 72.3667 110.829 78.7987C106.613 85.2307 110.185 88.9554 116.453 93.1497C122.722 97.3441 134.42 102.134 134.42 102.134C134.42 102.134 137.493 101.083 136.124 98.4754Z" fill="#F27292"/>
<path fill-rule="evenodd" clip-rule="evenodd" d="M123.751 66.8963C123.79 66.8892 123.831 66.8904 123.869 66.9C125.581 67.3251 126.854 67.9399 127.817 68.799C128.781 69.6593 129.413 70.7468 129.873 72.0832C130.331 73.4148 130.622 75.0052 130.896 76.8795C131.003 77.6135 131.108 78.3889 131.219 79.211C131.393 80.5013 131.582 81.907 131.823 83.4496C132.607 88.485 133.406 91.5602 134.174 93.6964C134.798 95.4327 135.403 96.5505 135.978 97.6147C136.11 97.8591 136.241 98.1007 136.37 98.3463C136.737 99.0452 136.818 99.665 136.708 100.203C136.598 100.737 136.306 101.16 135.981 101.481C135.656 101.801 135.289 102.029 135.007 102.176C134.866 102.25 134.743 102.304 134.656 102.341C134.612 102.359 134.576 102.373 134.552 102.382C134.539 102.387 134.529 102.39 134.522 102.393L134.514 102.396L134.51 102.397C134.51 102.397 134.509 102.397 134.419 102.134C134.314 102.392 134.313 102.392 134.313 102.392L134.279 102.378L134.18 102.336C134.092 102.3 133.963 102.247 133.797 102.177C133.464 102.037 132.981 101.833 132.383 101.576C131.187 101.06 129.526 100.329 127.669 99.4672C123.96 97.7447 119.451 95.491 116.298 93.381C113.167 91.2858 110.647 89.2711 109.461 86.9396C108.863 85.7644 108.604 84.5095 108.771 83.1316C108.938 81.758 109.526 80.2788 110.596 78.6466C114.807 72.2232 118.466 67.8675 123.751 66.8963ZM134.419 102.134L134.313 102.392C134.376 102.417 134.446 102.419 134.509 102.397L134.419 102.134ZM134.423 101.835C134.429 101.833 134.435 101.83 134.442 101.827C134.517 101.796 134.624 101.748 134.749 101.683C135.001 101.551 135.317 101.353 135.589 101.085C135.861 100.817 136.081 100.488 136.162 100.092C136.243 99.6992 136.194 99.2098 135.877 98.605C135.751 98.3663 135.623 98.1292 135.492 97.8875C134.915 96.8203 134.289 95.6635 133.649 93.8847C132.865 91.704 132.06 88.5915 131.272 83.5355C131.032 81.9916 130.84 80.5696 130.665 79.2721C130.554 78.4514 130.45 77.6805 130.345 76.9602C130.071 75.0891 129.786 73.543 129.346 72.2643C128.908 70.9904 128.319 69.9939 127.446 69.2138C126.581 68.4418 125.416 67.8643 123.793 67.4545C118.8 68.3991 115.268 72.5357 111.062 78.9511C110.024 80.5349 109.478 81.9333 109.324 83.1982C109.171 84.4587 109.406 85.6032 109.958 86.6874C111.07 88.8749 113.471 90.8198 116.608 92.9188C119.723 95.0032 124.198 97.2417 127.905 98.9628C129.756 99.8223 131.411 100.551 132.604 101.065C133.2 101.322 133.681 101.525 134.012 101.664C134.178 101.733 134.306 101.787 134.393 101.823L134.423 101.835Z" fill="#727272"/>
<path d="M140.65 98.1556C140.65 98.1556 153.052 94.0728 162.443 93.0662C171.824 92.0691 173.603 92.5063 173.603 92.5063C173.603 92.5063 177.485 101.641 176.107 108.028C175.866 109.171 175.39 110.243 174.78 111.231C171.654 116.334 165.073 118.141 159.612 115.689L137.157 102.423L140.66 98.1462L140.65 98.1556Z" fill="#F27292"/>
<path fill-rule="evenodd" clip-rule="evenodd" d="M171.543 92.6907C169.938 92.7059 167.158 92.845 162.473 93.343C157.799 93.8439 152.367 95.1118 148.097 96.2572C145.963 96.8295 144.123 97.3704 142.815 97.7682C142.162 97.9671 141.642 98.1301 141.285 98.2434C141.107 98.3001 140.97 98.3443 140.877 98.3743L140.817 98.3937L137.578 102.348L159.74 115.442C165.08 117.831 171.497 116.057 174.543 111.086L174.543 111.085C175.14 110.119 175.601 109.076 175.835 107.971L175.835 107.97C176.51 104.842 175.898 101.015 175.102 97.942C174.705 96.411 174.266 95.0777 173.925 94.1274C173.755 93.6524 173.61 93.2734 173.508 93.0136C173.466 92.9073 173.431 92.821 173.404 92.7562C173.345 92.7486 173.263 92.7398 173.155 92.731C172.852 92.7065 172.346 92.6831 171.543 92.6907ZM173.603 92.5065C173.859 92.3977 173.859 92.3978 173.859 92.3979L173.862 92.4051L173.871 92.4256C173.878 92.4436 173.889 92.4702 173.904 92.505C173.932 92.5746 173.974 92.677 174.026 92.8094C174.13 93.0741 174.278 93.4586 174.45 93.9398C174.795 94.9018 175.239 96.2514 175.641 97.8024C176.442 100.893 177.083 104.826 176.38 108.085C176.131 109.266 175.641 110.368 175.018 111.377C171.813 116.607 165.078 118.448 159.497 115.943C159.492 115.941 159.487 115.938 159.481 115.935C159.477 115.933 159.474 115.931 159.47 115.929L137.015 102.662C136.945 102.621 136.897 102.551 136.883 102.472C136.869 102.392 136.89 102.31 136.941 102.247L140.414 98.0072C140.427 97.9865 140.443 97.9673 140.462 97.9501L140.473 97.9407C140.518 97.8999 140.572 97.8763 140.629 97.8699C140.65 97.8632 140.675 97.8548 140.706 97.845C140.799 97.8147 140.937 97.7702 141.117 97.7133C141.475 97.5994 141.997 97.4356 142.653 97.236C143.965 96.8368 145.812 96.2941 147.953 95.7199C152.231 94.5723 157.696 93.2954 162.414 92.7898C167.109 92.2907 169.909 92.1498 171.538 92.1344C172.353 92.1266 172.877 92.1503 173.201 92.1765C173.363 92.1896 173.475 92.2035 173.549 92.2145C173.586 92.2201 173.614 92.2249 173.633 92.2287C173.643 92.2306 173.651 92.2322 173.657 92.2335L173.664 92.2352L173.667 92.2359L173.668 92.2361C173.669 92.2362 173.669 92.2364 173.603 92.5065ZM173.603 92.5065L173.669 92.2364C173.755 92.2573 173.825 92.3173 173.859 92.3979L173.603 92.5065Z" fill="#263238"/>
<path d="M173.592 92.5172C173.592 92.5172 171.813 92.0798 162.431 93.0775C153.05 94.0753 140.646 98.1704 140.646 98.1704C140.646 98.1704 163.803 96.7134 168.136 95.2062C172.468 93.7088 173.602 92.5177 173.602 92.5177L173.592 92.5172Z" fill="#727272"/>
<path fill-rule="evenodd" clip-rule="evenodd" d="M172.886 92.7243C172.578 92.7075 172.14 92.6955 171.532 92.7012C169.927 92.7165 167.146 92.8557 162.461 93.354C157.792 93.8505 152.362 95.1191 148.093 96.2665C146.037 96.8189 144.253 97.3425 142.956 97.7367C143.365 97.7084 143.819 97.6765 144.312 97.6413C146.55 97.4812 149.578 97.2521 152.742 96.9759C155.906 96.6998 159.203 96.3767 161.978 96.0288C164.766 95.6794 166.994 95.3085 168.045 94.9431C170.197 94.1993 171.546 93.5343 172.352 93.0604C172.567 92.934 172.744 92.8213 172.886 92.7243ZM140.646 98.17C140.558 97.9058 140.558 97.9058 140.559 97.9057L140.595 97.8938C140.619 97.886 140.654 97.8743 140.701 97.8591C140.795 97.8288 140.933 97.7841 141.112 97.727C141.471 97.6128 141.993 97.4486 142.649 97.2484C143.961 96.8482 145.808 96.3043 147.948 95.7291C152.226 94.5795 157.689 93.3018 162.402 92.8006C167.098 92.3012 169.898 92.1602 171.527 92.1447C172.342 92.137 172.867 92.1606 173.19 92.1869C173.352 92.2 173.465 92.2139 173.539 92.225C173.576 92.2305 173.603 92.2354 173.623 92.2391C173.626 92.2397 173.628 92.2402 173.631 92.2407C173.733 92.2511 173.822 92.3174 173.86 92.4136C173.901 92.5147 173.879 92.6302 173.804 92.7091L173.602 92.5175C173.804 92.7091 173.804 92.709 173.804 92.7091L173.803 92.7097L173.803 92.7103L173.801 92.712L173.797 92.7166C173.793 92.7202 173.788 92.7249 173.782 92.7307C173.77 92.7423 173.753 92.7582 173.731 92.7783C173.686 92.8184 173.62 92.8751 173.528 92.9466C173.344 93.0896 173.057 93.2919 172.635 93.54C171.791 94.0359 170.407 94.7152 168.227 95.4688C167.111 95.857 164.821 96.2333 162.047 96.581C159.262 96.9301 155.957 97.2539 152.79 97.5303C149.623 97.8068 146.591 98.0362 144.351 98.1964C143.232 98.2765 142.31 98.3393 141.668 98.3821C141.347 98.4035 141.095 98.4199 140.925 98.4309L140.663 98.4477C140.663 98.4477 140.663 98.4477 140.646 98.17ZM140.646 98.17L140.559 97.9057C140.426 97.9497 140.346 98.0855 140.372 98.2228C140.399 98.3602 140.523 98.4565 140.663 98.4477L140.646 98.17Z" fill="#727272"/>
<path d="M136.013 105.108C136.013 105.108 135.728 99.8078 138.868 102.005C141.999 104.191 159.638 104.423 163.011 106.513C170.131 110.915 176.987 120.751 177.492 120.942C177.997 121.133 174.931 121.159 162.199 120.236C149.467 119.313 145.078 114.859 142.668 111.857C140.257 108.856 136.013 105.108 136.013 105.108Z" fill="#F27292"/>
<path fill-rule="evenodd" clip-rule="evenodd" d="M136.288 104.979C136.315 105.004 136.348 105.033 136.387 105.068C136.508 105.177 136.684 105.335 136.902 105.535C137.339 105.935 137.947 106.498 138.63 107.156C139.995 108.47 141.669 110.168 142.885 111.683C144.077 113.167 145.749 115.001 148.695 116.581C151.643 118.162 155.883 119.499 162.219 119.958C168.584 120.42 172.53 120.644 174.82 120.729C175.819 120.766 176.499 120.776 176.924 120.768C176.886 120.724 176.846 120.677 176.804 120.627C176.574 120.355 176.272 119.982 175.909 119.534C175.873 119.49 175.837 119.446 175.801 119.401C174.976 118.383 173.852 117.002 172.523 115.49C169.859 112.461 166.388 108.927 162.864 106.749C162.479 106.51 161.868 106.286 161.063 106.078C160.264 105.87 159.296 105.683 158.212 105.509C156.118 105.172 153.612 104.888 151.09 104.602C150.999 104.592 150.908 104.581 150.817 104.571C148.208 104.275 145.596 103.975 143.441 103.612C142.363 103.43 141.393 103.231 140.591 103.008C139.796 102.786 139.14 102.534 138.709 102.232C137.955 101.705 137.494 101.688 137.212 101.816C136.912 101.952 136.685 102.307 136.53 102.813C136.379 103.307 136.318 103.874 136.296 104.327C136.285 104.552 136.284 104.745 136.286 104.881C136.286 104.918 136.287 104.951 136.288 104.979ZM136.013 105.108L135.829 105.317C135.773 105.267 135.739 105.198 135.735 105.123L136.013 105.108ZM139.028 101.776C138.212 101.205 137.531 101.061 136.983 101.309C136.454 101.549 136.163 102.107 135.997 102.651C135.827 103.209 135.762 103.829 135.74 104.301C135.728 104.539 135.727 104.743 135.729 104.888C135.73 104.961 135.731 105.019 135.733 105.059C135.733 105.079 135.734 105.095 135.734 105.105L135.735 105.118L135.735 105.122L135.735 105.123C135.735 105.123 135.735 105.123 136.013 105.108L135.829 105.317L135.841 105.327L135.876 105.359C135.908 105.387 135.954 105.428 136.014 105.482C136.134 105.59 136.309 105.747 136.526 105.946C136.96 106.343 137.564 106.903 138.243 107.557C139.604 108.867 141.257 110.544 142.45 112.031C143.669 113.548 145.396 115.443 148.431 117.071C151.462 118.697 155.783 120.05 162.178 120.513C168.545 120.975 172.499 121.199 174.799 121.285C175.947 121.327 176.689 121.335 177.116 121.32C177.318 121.313 177.48 121.3 177.578 121.272C177.603 121.265 177.65 121.25 177.695 121.218C177.739 121.187 177.851 121.085 177.816 120.919C177.791 120.798 177.7 120.739 177.681 120.727C177.659 120.712 177.635 120.7 177.615 120.692C177.614 120.69 177.611 120.688 177.609 120.686C177.59 120.67 177.563 120.644 177.526 120.605C177.452 120.527 177.354 120.415 177.23 120.268C177.004 120.001 176.705 119.632 176.341 119.182L176.234 119.051C175.409 118.032 174.279 116.644 172.941 115.123C170.271 112.085 166.754 108.5 163.158 106.276C163.157 106.276 163.158 106.276 163.158 106.276" fill="#727272"/>
<path fill-rule="evenodd" clip-rule="evenodd" d="M136.938 102.241C137.041 102.127 137.217 102.118 137.331 102.221L137.333 102.222L137.338 102.227L137.361 102.248C137.382 102.266 137.413 102.293 137.455 102.329C137.537 102.4 137.661 102.506 137.824 102.639C138.148 102.906 138.627 103.286 139.24 103.736C140.466 104.636 142.23 105.814 144.377 106.927C144.513 106.998 144.566 107.166 144.496 107.302C144.425 107.438 144.256 107.492 144.12 107.421C141.942 106.292 140.154 105.097 138.91 104.184C138.287 103.728 137.801 103.341 137.469 103.069C137.303 102.932 137.176 102.824 137.09 102.75C137.047 102.713 137.014 102.684 136.992 102.665L136.967 102.642L136.96 102.636L136.958 102.634C136.958 102.634 136.958 102.634 137.145 102.427L136.958 102.634C136.844 102.531 136.835 102.355 136.938 102.241Z" fill="#727272"/>
<path d="M140.646 98.1514C140.646 98.1514 135.641 97.5653 133.738 99.9824C131.825 102.399 134.596 104.677 136.009 105.107C137.423 105.527 140.645 98.1612 140.645 98.1612L140.646 98.1514Z" fill="#F27292"/>
<path fill-rule="evenodd" clip-rule="evenodd" d="M140.678 97.8753C140.678 97.8753 140.679 97.8753 140.646 98.1515L140.678 97.8753C140.824 97.8923 140.931 98.0185 140.924 98.1644L140.924 98.1742C140.922 98.2081 140.914 98.2415 140.901 98.2726L140.645 98.1614C140.901 98.2726 140.901 98.2725 140.901 98.2726L140.898 98.2783L140.891 98.2945L140.863 98.3568C140.839 98.4112 140.804 98.4907 140.758 98.5916C140.667 98.7934 140.534 99.081 140.372 99.4246C140.046 100.111 139.596 101.024 139.102 101.925C138.608 102.824 138.064 103.721 137.548 104.372C137.291 104.695 137.031 104.971 136.777 105.155C136.532 105.331 136.233 105.464 135.929 105.373L135.928 105.373C135.162 105.14 134.063 104.425 133.396 103.446C133.059 102.952 132.823 102.376 132.809 101.749C132.794 101.117 133.006 100.46 133.52 99.8104C134.546 98.5071 136.376 98.0409 137.877 97.884C138.638 97.8045 139.336 97.8023 139.844 97.8198C140.098 97.8285 140.305 97.8422 140.45 97.8538C140.522 97.8596 140.578 97.8649 140.617 97.8688C140.636 97.8707 140.651 97.8723 140.662 97.8734L140.674 97.8747L140.677 97.8751L140.678 97.8753ZM140.235 98.396C140.146 98.5932 140.021 98.8651 139.868 99.1868C139.545 99.868 139.101 100.77 138.613 101.658C138.124 102.549 137.598 103.414 137.112 104.026C136.867 104.334 136.644 104.564 136.451 104.704C136.25 104.849 136.139 104.855 136.089 104.84C135.441 104.643 134.45 104.004 133.857 103.133C133.563 102.702 133.377 102.229 133.366 101.736C133.355 101.247 133.514 100.714 133.957 100.155L133.957 100.154C134.834 99.0408 136.458 98.5916 137.934 98.4373C138.663 98.3612 139.334 98.3589 139.824 98.3757C139.982 98.3812 140.12 98.3885 140.235 98.396Z" fill="#727272"/>
<path d="M106.35 94.3704C106.35 94.3704 100.304 92.5627 97.4779 94.6415C94.6514 96.7202 92.9262 104.619 92.9262 104.619C92.9262 104.619 100.33 99.1817 103.805 97.8134C107.28 96.4451 109.834 96.3953 109.834 96.3953L106.35 94.3704Z" fill="#727272"/>
<path fill-rule="evenodd" clip-rule="evenodd" d="M106.429 94.1041C106.43 94.1041 106.43 94.1041 106.35 94.3706L106.429 94.1041C106.45 94.1104 106.471 94.1192 106.49 94.1302L109.974 96.155C110.082 96.2177 110.135 96.3446 110.103 96.4653C110.072 96.586 109.964 96.6711 109.839 96.6736C109.839 96.6736 109.839 96.6736 109.839 96.6736L109.838 96.6736L109.834 96.6737L109.814 96.6744C109.796 96.675 109.768 96.6761 109.732 96.6781C109.658 96.6819 109.548 96.689 109.405 96.7017C109.118 96.7272 108.698 96.7752 108.17 96.8656C107.113 97.0464 105.624 97.3963 103.907 98.0723C102.202 98.7437 99.5068 100.428 97.2175 101.961C96.0775 102.724 95.0456 103.445 94.2986 103.975C93.9252 104.24 93.6231 104.458 93.4144 104.608C93.3101 104.684 93.2292 104.743 93.1744 104.783L93.1121 104.828L93.0914 104.843C93.0914 104.843 93.0912 104.844 92.9262 104.62C92.6541 104.56 92.6541 104.56 92.6541 104.56L92.6555 104.554L92.6594 104.536C92.6628 104.521 92.6679 104.498 92.6747 104.469C92.6882 104.409 92.7084 104.323 92.735 104.212C92.7881 103.99 92.8671 103.671 92.9708 103.282C93.1779 102.504 93.484 101.444 93.8793 100.318C94.2743 99.1933 94.7605 97.9961 95.3293 96.9455C95.895 95.9006 96.5565 94.9739 97.3128 94.4177C98.0716 93.8596 99.031 93.5726 100.021 93.4464C101.014 93.3199 102.057 93.3525 103.002 93.4499C103.949 93.5474 104.804 93.7106 105.422 93.8492C105.731 93.9186 105.982 93.982 106.156 94.0282C106.243 94.0513 106.311 94.0701 106.357 94.0832C106.38 94.0898 106.398 94.0949 106.41 94.0985L106.424 94.1026L106.428 94.1037L106.429 94.1041ZM92.9262 104.62L92.6541 104.56C92.6294 104.673 92.6773 104.79 92.7745 104.853C92.8717 104.916 92.9981 104.912 93.0914 104.843L92.9262 104.62ZM93.372 103.953C93.4113 103.797 93.4571 103.62 93.5091 103.424C93.7138 102.656 94.0157 101.611 94.405 100.502C94.7946 99.3923 95.2697 98.225 95.8193 97.2098C96.372 96.189 96.9861 95.3487 97.643 94.8656C98.2974 94.3843 99.1536 94.1178 100.092 93.9983C101.028 93.879 102.025 93.9086 102.945 94.0033C103.863 94.0979 104.696 94.2567 105.3 94.3921C105.601 94.4597 105.845 94.5213 106.013 94.5658C106.096 94.5881 106.161 94.6061 106.205 94.6185C106.218 94.6222 106.229 94.6255 106.239 94.6281L108.93 96.1923C108.688 96.2213 108.401 96.2615 108.076 96.3172C106.987 96.5034 105.461 96.8626 103.703 97.5548C101.933 98.2518 99.1888 99.9709 96.9074 101.499C95.7621 102.266 94.7259 102.99 93.9761 103.522C93.7461 103.685 93.5431 103.83 93.372 103.953Z" fill="#727272"/>
<path d="M133.736 99.979C133.736 99.979 128.037 100.476 121.823 98.6594C115.61 96.8433 106.362 94.374 106.362 94.374C106.362 94.374 113.28 99.2812 117.741 102.21C122.202 105.139 124.236 105.401 128.168 105.069C132.099 104.738 136.017 105.106 136.017 105.106C136.017 105.106 137.267 102.273 133.746 99.9794L133.736 99.979Z" fill="#F27292"/>
<path fill-rule="evenodd" clip-rule="evenodd" d="M106.434 94.105L106.362 94.3738L106.2 94.6007C106.09 94.5228 106.052 94.3774 106.11 94.2555C106.167 94.1336 106.304 94.0703 106.434 94.105ZM133.712 99.7015L133.712 99.7016L133.709 99.7018L133.697 99.7028C133.687 99.7036 133.671 99.7048 133.65 99.7064C133.608 99.7095 133.545 99.7138 133.463 99.7188C133.297 99.7286 133.053 99.7408 132.741 99.7498C132.115 99.7678 131.216 99.7731 130.123 99.7221C127.936 99.6199 124.981 99.2922 121.902 98.3921C118.793 97.4834 114.925 96.4115 111.836 95.5671C110.291 95.1448 108.941 94.7793 107.977 94.5194C107.494 94.3894 107.109 94.2858 106.844 94.2148L106.434 94.105C106.434 94.105 106.434 94.105 106.362 94.3738C106.2 94.6007 106.2 94.6007 106.2 94.6007L106.507 94.8175C106.705 94.9575 106.993 95.1607 107.352 95.4137C108.07 95.9198 109.075 96.625 110.219 97.4217C112.507 99.0149 115.354 100.976 117.588 102.442C119.829 103.914 121.483 104.731 123.085 105.132C124.688 105.533 126.217 105.513 128.191 105.346C130.142 105.182 132.092 105.191 133.557 105.241C134.289 105.266 134.898 105.302 135.324 105.331C135.537 105.346 135.704 105.359 135.818 105.368C135.875 105.373 135.918 105.376 135.947 105.379L135.98 105.382L135.988 105.383L135.99 105.383C136.11 105.394 136.224 105.328 136.272 105.218L136.017 105.106C136.272 105.218 136.272 105.218 136.272 105.218L136.272 105.217L136.273 105.216L136.274 105.213L136.278 105.204C136.279 105.201 136.28 105.198 136.282 105.195C136.284 105.189 136.287 105.182 136.29 105.174C136.3 105.149 136.313 105.113 136.328 105.067C136.359 104.976 136.397 104.846 136.43 104.683C136.497 104.358 136.547 103.901 136.478 103.367C136.34 102.287 135.724 100.935 133.898 99.7461C133.857 99.719 133.809 99.7035 133.759 99.7012L133.749 99.7008C133.737 99.7002 133.724 99.7005 133.712 99.7015ZM133.67 100.263C133.627 100.266 133.569 100.27 133.496 100.274C133.325 100.284 133.075 100.297 132.756 100.306C132.119 100.324 131.205 100.33 130.097 100.278C127.88 100.174 124.879 99.8422 121.745 98.9262C118.641 98.0188 114.777 96.948 111.689 96.1038C110.145 95.6817 108.795 95.3164 107.831 95.0566C107.821 95.0538 107.81 95.051 107.8 95.0483C108.507 95.546 109.461 96.215 110.538 96.9652C112.825 98.5579 115.667 100.515 117.894 101.977C120.114 103.435 121.707 104.213 123.221 104.592C124.733 104.971 126.187 104.957 128.144 104.792C130.125 104.625 132.099 104.634 133.576 104.685C134.315 104.71 134.931 104.746 135.363 104.776C135.555 104.789 135.711 104.801 135.825 104.81C135.844 104.746 135.865 104.665 135.885 104.571C135.942 104.293 135.985 103.899 135.926 103.438C135.811 102.542 135.305 101.354 133.67 100.263Z" fill="#727272"/>
<path d="M149.508 122.181L128.144 167.285L144.998 171.307L165.798 126.838L149.508 122.181Z" fill="#F27292"/>
<path fill-rule="evenodd" clip-rule="evenodd" d="M149.256 122.063C149.314 121.94 149.453 121.877 149.585 121.914L165.875 126.571C165.953 126.593 166.018 126.649 166.052 126.723C166.085 126.797 166.085 126.882 166.05 126.956L145.25 171.425C145.194 171.545 145.062 171.609 144.933 171.578L128.079 167.556C127.997 167.536 127.929 167.481 127.893 167.406C127.856 167.33 127.856 167.242 127.892 167.166L149.256 122.063ZM149.658 122.514L128.542 167.094L144.842 170.984L165.408 127.016L149.658 122.514Z" fill="#727272"/>
<g clip-path="url(#clip0_1594_12598)">
<g opacity="0.13">
<path d="M39.9637 153.631L57.1687 143.706L37.6441 147.394C35.7084 147.76 34.4928 149.697 35.013 151.596C35.5961 153.729 38.0446 154.732 39.9628 153.627L39.9637 153.631Z" fill="black"/>
<path d="M29.8955 119.254L51.0037 115.403L30.028 110.894C27.4031 110.33 24.9149 112.297 24.8613 114.975C24.808 117.67 27.2434 119.737 29.8992 119.253L29.8955 119.254Z" fill="black"/>
<path d="M37.2754 86.0107C44.2146 88.3819 55.3394 92.0581 55.3394 92.0581L42.5369 78.0139C40.2202 75.4752 36.085 76.008 34.4931 79.053C33.0911 81.7362 34.4091 85.033 37.2754 86.0107Z" fill="black"/>
<path d="M115.666 36.7406C118.981 43.2737 124.379 53.6588 124.379 53.6588L125.023 34.6795C125.139 31.2505 121.8 28.7491 118.535 29.8197C115.656 30.7661 114.295 34.0432 115.666 36.7406Z" fill="black"/>
<path d="M167.434 23.1307C166.181 27.8733 164.253 35.4691 164.253 35.4691L173.038 26.2575C174.626 24.5936 174.071 21.8556 171.956 20.9393C170.095 20.1348 167.949 21.1705 167.434 23.1307Z" fill="black"/>
<path d="M55.5869 58.9416L70.1045 72.6484L63.3485 53.8767C62.2753 50.8936 58.6311 49.7741 56.0647 51.6366C53.6526 53.3849 53.4222 56.8967 55.5914 58.9404L55.5869 58.9416Z" fill="black"/>
<path d="M56.6379 75.9155C58.2989 75.8842 59.669 77.199 59.7003 78.8573C59.7317 80.5156 58.4148 81.8835 56.7538 81.9148C55.0928 81.9462 53.7227 80.6314 53.6913 78.973C53.66 77.3147 54.9769 75.9468 56.6379 75.9155Z" fill="black"/>
<path d="M25.0344 89.4384C26.6954 89.4071 28.0655 90.7219 28.0968 92.3803C28.1282 94.0386 26.8113 95.4065 25.1503 95.4378C23.4893 95.4691 22.1192 94.1543 22.0878 92.496C22.0565 90.8376 23.3734 89.4697 25.0344 89.4384Z" fill="black"/>
<path d="M29.4534 53.7651C30.2484 56.7272 33.298 58.4851 36.2649 57.6914C39.2318 56.8977 40.9925 53.8529 40.1975 50.8908C39.4025 47.9286 36.3529 46.1708 33.386 46.9645C30.4191 47.7582 28.6584 50.8029 29.4534 53.7651Z" fill="black"/>
<path d="M38.1359 128.807C39.7969 128.775 41.167 130.09 41.1984 131.748C41.2297 133.407 39.9129 134.775 38.2519 134.806C36.5908 134.837 35.2208 133.522 35.1894 131.864C35.1581 130.206 36.4749 128.838 38.1359 128.807Z" fill="black"/>
<path d="M83.3963 46.0859C85.885 46.0373 87.9436 48.0134 87.9923 50.4981C88.041 52.9827 86.0617 55.038 83.5731 55.0866C81.0844 55.1353 79.0258 53.1592 78.9771 50.6745C78.9284 48.1899 80.9077 46.1346 83.3963 46.0859Z" fill="black"/>
<path d="M177.244 45.9255L164.912 63.4586L182.355 50.9798C184.087 49.7412 184.391 47.2945 183.015 45.668C181.473 43.8427 178.619 43.9698 177.244 45.9255Z" fill="black"/>
<path d="M214.893 73.4891L193.883 90.0423L219.642 82.7775C222.866 81.8662 224.457 78.2472 222.949 75.2625C221.429 72.2613 217.54 71.4012 214.894 73.4845L214.893 73.4891Z" fill="black"/>
<path d="M225.927 107.456C220.839 110.999 212.77 116.741 212.77 116.741L228.763 115.035C231.656 114.725 233.355 111.641 232.071 109.034C230.937 106.74 228.027 105.99 225.927 107.456Z" fill="black"/>
<path d="M203.335 181.111C199.296 177.526 192.781 171.862 192.781 171.862L197.475 185.047C198.324 187.431 201.29 188.247 203.238 186.629C204.954 185.206 205.001 182.59 203.332 181.11L203.335 181.111Z" fill="black"/>
<path d="M217.559 136.848L197.783 139.675L216.708 146.065C219.717 147.083 222.862 144.929 222.996 141.764C223.122 138.79 220.512 136.427 217.559 136.848Z" fill="black"/>
<path d="M205.194 118.36C203.706 119.094 201.902 118.483 201.168 116.998C200.434 115.513 201.045 113.712 202.533 112.979C204.02 112.246 205.824 112.856 206.558 114.341C207.293 115.826 206.681 117.627 205.194 118.36Z" fill="black"/>
<path d="M180.528 74.3424C179.574 75.7008 177.7 76.0271 176.339 75.0742C174.979 74.1214 174.652 72.2505 175.606 70.8921C176.561 69.5338 178.434 69.2074 179.795 70.1603C181.156 71.1132 181.482 72.984 180.528 74.3424Z" fill="black"/>
<path d="M151.947 38.4548C149.191 39.8093 145.86 38.6789 144.5 35.9328C143.14 33.1867 144.275 29.8555 147.026 28.4977C149.782 27.1432 153.113 28.2737 154.473 31.0198C155.83 33.7717 154.697 37.097 151.947 38.4548Z" fill="black"/>
<path d="M204.776 68.0942C203.289 68.8274 201.485 68.2167 200.75 66.7318C200.016 65.247 200.628 63.4458 202.115 62.7126C203.602 61.9794 205.406 62.5901 206.141 64.075C206.875 65.5599 206.263 67.3611 204.776 68.0942Z" fill="black"/>
<path d="M233.176 168.909C231.668 170.887 228.834 171.266 226.858 169.759C224.877 168.253 224.497 165.424 226.007 163.451C227.515 161.473 230.348 161.094 232.325 162.601C234.306 164.107 234.686 166.936 233.176 168.909Z" fill="black"/>
</g>
</g>
<defs>
<clipPath id="clip0_1594_12598">
<rect width="200.677" height="213.921" fill="white" transform="matrix(0.259207 0.965822 -0.966029 0.258432 206.954 0.53125)"/>
</clipPath>
</defs>
</svg>
